G04 #@! TF.GenerationSoftware,KiCad,Pcbnew,8.0.6*
G04 #@! TF.CreationDate,2025-05-29T10:34:23-07:00*
G04 #@! TF.ProjectId,Drone PCB,44726f6e-6520-4504-9342-2e6b69636164,rev?*
G04 #@! TF.SameCoordinates,Original*
G04 #@! TF.FileFunction,Copper,L3,Inr*
G04 #@! TF.FilePolarity,Positive*
%FSLAX46Y46*%
G04 Gerber Fmt 4.6, Leading zero omitted, Abs format (unit mm)*
G04 Created by KiCad (PCBNEW 8.0.6) date 2025-05-29 10:34:23*
%MOMM*%
%LPD*%
G01*
G04 APERTURE LIST*
G04 #@! TA.AperFunction,ComponentPad*
%ADD10C,0.500000*%
G04 #@! TD*
G04 #@! TA.AperFunction,HeatsinkPad*
%ADD11C,0.600000*%
G04 #@! TD*
G04 #@! TA.AperFunction,ComponentPad*
%ADD12O,1.800000X1.000000*%
G04 #@! TD*
G04 #@! TA.AperFunction,ComponentPad*
%ADD13O,2.100000X1.000000*%
G04 #@! TD*
G04 #@! TA.AperFunction,ComponentPad*
%ADD14C,5.080000*%
G04 #@! TD*
G04 #@! TA.AperFunction,ViaPad*
%ADD15C,0.600000*%
G04 #@! TD*
G04 #@! TA.AperFunction,Conductor*
%ADD16C,0.152400*%
G04 #@! TD*
G04 APERTURE END LIST*
D10*
X146420000Y-99720000D03*
X145845000Y-98770000D03*
X145845000Y-100670000D03*
X145270000Y-99720000D03*
D11*
X157900000Y-83770000D03*
X157900000Y-85170000D03*
X157200000Y-83070000D03*
X157200000Y-84470000D03*
X157200000Y-85870000D03*
X156525000Y-83770000D03*
X156525000Y-85170000D03*
X155800000Y-83070000D03*
X155800000Y-84470000D03*
X155800000Y-85870000D03*
X155100000Y-83770000D03*
X155100000Y-85170000D03*
D12*
X119070000Y-92710001D03*
D13*
X123250000Y-92710000D03*
D12*
X119070000Y-101350001D03*
D13*
X123250000Y-101350000D03*
D14*
X119170000Y-96891000D03*
X190848800Y-96891000D03*
D15*
X181470824Y-139644349D03*
X174217002Y-133798067D03*
X187593162Y-136250684D03*
X186368696Y-136929418D03*
X185144226Y-137608147D03*
X182695292Y-138965618D03*
X173538270Y-132573596D03*
X174895737Y-135022533D03*
X183919759Y-138286883D03*
X172859536Y-131349130D03*
X175548231Y-136261544D03*
X179021890Y-141001819D03*
X177584431Y-139934946D03*
X176226964Y-137486010D03*
X176905696Y-138710479D03*
X180246359Y-140323080D03*
X137113733Y-133236394D03*
X136435001Y-134460861D03*
X135756267Y-135685329D03*
X135077533Y-136909798D03*
X134398800Y-138134264D03*
X133720067Y-139358732D03*
X133041333Y-140583199D03*
X132362600Y-141807668D03*
X130578211Y-141664646D03*
X129353742Y-140985913D03*
X128129276Y-140307179D03*
X126904808Y-139628445D03*
X125694885Y-138923474D03*
X124470416Y-138244741D03*
X123245949Y-137566007D03*
X122021481Y-136887274D03*
X163310000Y-100990000D03*
X164640000Y-100480000D03*
X159107600Y-102340000D03*
X160666736Y-100084270D03*
X127151333Y-98671936D03*
X150369981Y-85149448D03*
X123175000Y-87970000D03*
X162997600Y-100159243D03*
X162550000Y-107680000D03*
X159331400Y-107137816D03*
X155635405Y-97305405D03*
X149240000Y-114730000D03*
X150550000Y-94510000D03*
X175800000Y-92100000D03*
X172712853Y-97575001D03*
X158930000Y-95760000D03*
X160273800Y-99227044D03*
X159714782Y-98727044D03*
X159150826Y-98159243D03*
X158619361Y-97553259D03*
X160720000Y-94470000D03*
X164933453Y-83799087D03*
X161671717Y-87998071D03*
X162549998Y-82096000D03*
X132660000Y-93980000D03*
X159016200Y-83933595D03*
X136330000Y-92720000D03*
X141260000Y-92725000D03*
X152753167Y-99044858D03*
X153209976Y-98450023D03*
X153788920Y-97973234D03*
X154410000Y-97410000D03*
X139970000Y-92100000D03*
X140830000Y-94830000D03*
X161326200Y-99727044D03*
X163800000Y-92010000D03*
X172256117Y-98200001D03*
X175800000Y-100200000D03*
X177380000Y-94270000D03*
X171213059Y-89303057D03*
X175800000Y-90400000D03*
X165149998Y-84517148D03*
X125207389Y-101779792D03*
X125911409Y-102631409D03*
X130970000Y-102930000D03*
X127460000Y-107710000D03*
X121410000Y-105740000D03*
X121390000Y-104880000D03*
X117990000Y-105760000D03*
X117990000Y-104880000D03*
X122360000Y-103860000D03*
X122340000Y-102950000D03*
X118940000Y-103860000D03*
X118940000Y-102990000D03*
X140585781Y-104181897D03*
X138855952Y-105634048D03*
X136835000Y-104488884D03*
X134200000Y-103600000D03*
X137550000Y-101860000D03*
X139000000Y-103600000D03*
X136955000Y-94990000D03*
X138230000Y-94990000D03*
X151420000Y-84080000D03*
X141495000Y-84580000D03*
X138990000Y-85340000D03*
X146250000Y-89450000D03*
X142305000Y-86240000D03*
X136900000Y-86654300D03*
X142290000Y-87700000D03*
X136787684Y-87738515D03*
X155710000Y-109410000D03*
X152265857Y-99767047D03*
X152773363Y-101476637D03*
X146280000Y-91940000D03*
X146300000Y-88140000D03*
X150730000Y-87998063D03*
X148496232Y-82746232D03*
X146270000Y-85650000D03*
X144150000Y-85010002D03*
X145630000Y-87279998D03*
X162421451Y-87978011D03*
X165028881Y-82959499D03*
X164950002Y-81604699D03*
X148848420Y-87187420D03*
X149770000Y-87873800D03*
X150051983Y-87166200D03*
X139973083Y-81508386D03*
X148010697Y-77916840D03*
X149141339Y-76786200D03*
X150510000Y-81432462D03*
X162023801Y-81443962D03*
X145049998Y-91660000D03*
X127710000Y-85415000D03*
X147448220Y-76260000D03*
X134250000Y-81270000D03*
X164949999Y-80825683D03*
X163810000Y-76360000D03*
X169361091Y-79358909D03*
X147070000Y-76915000D03*
X160340000Y-105390000D03*
X134340000Y-111330000D03*
X142775000Y-108999998D03*
X131810000Y-105130000D03*
X149130000Y-107670000D03*
X124100000Y-91808612D03*
X125200000Y-92714306D03*
X132490000Y-95240000D03*
X126717391Y-94574249D03*
X131650000Y-94530000D03*
X128610000Y-92500000D03*
X155060000Y-99840000D03*
X155556675Y-100306687D03*
X155253961Y-101913151D03*
X151640000Y-102650000D03*
X150570000Y-101600000D03*
X131025000Y-87165000D03*
X133027500Y-89370000D03*
X152800000Y-109450000D03*
X159640000Y-109550000D03*
X159340000Y-108650000D03*
X154250000Y-109360000D03*
X149100000Y-109058800D03*
X161848800Y-113410002D03*
X161700000Y-116058800D03*
X154280000Y-115860000D03*
X144080000Y-79559998D03*
X148110000Y-85880000D03*
X169219862Y-84520000D03*
X166950000Y-86020000D03*
X158197500Y-78460000D03*
X150710000Y-78310000D03*
X156260000Y-79595066D03*
X151455000Y-81290000D03*
X144281215Y-98537459D03*
X143330000Y-97260000D03*
X142740000Y-96820000D03*
X144480000Y-97010000D03*
X144125000Y-98000000D03*
X142925000Y-102410000D03*
X147440000Y-102430000D03*
X147214414Y-101040000D03*
X144470000Y-102410000D03*
X144440000Y-100970000D03*
X129194118Y-95733812D03*
X128560000Y-99815000D03*
X126899352Y-99664999D03*
X123825000Y-94630000D03*
X123825000Y-99430000D03*
X125600648Y-99165000D03*
X126250000Y-100315000D03*
X120300000Y-90950000D03*
X123825000Y-93830001D03*
X123825000Y-100230000D03*
X125470000Y-96910000D03*
X128561317Y-115132053D03*
X127208304Y-117753481D03*
X124444812Y-111290504D03*
X123304273Y-113293416D03*
X117612616Y-133412627D03*
X117057043Y-134434313D03*
X123675920Y-112528974D03*
X116530858Y-135496443D03*
X118625733Y-136508366D03*
X119181308Y-135486685D03*
X125445670Y-116851716D03*
X118645360Y-133898362D03*
X118089789Y-134920046D03*
X119736883Y-134464999D03*
X117523149Y-136011570D03*
X118944024Y-132012679D03*
X118694379Y-131328810D03*
X125166236Y-77432024D03*
X184866743Y-116461615D03*
X184504330Y-77098284D03*
X182741696Y-76196519D03*
X181353062Y-78816014D03*
X191324267Y-57441634D03*
X190213117Y-59485001D03*
X186274080Y-81421026D03*
X185505188Y-82659496D03*
X192337384Y-60537373D03*
X191005976Y-61937321D03*
X193419142Y-58453557D03*
X191860211Y-59029954D03*
X190768692Y-58463315D03*
X191304640Y-60051638D03*
X192892957Y-59515687D03*
X192426851Y-57938430D03*
X186645727Y-80656584D03*
X191255621Y-62621190D03*
X185204847Y-112888553D03*
X197349186Y-133107459D03*
X196276506Y-131043638D03*
X180293397Y-115511558D03*
X179696618Y-114181574D03*
X194216174Y-132216257D03*
X193800079Y-130329629D03*
X195338824Y-134278333D03*
X186622046Y-115672926D03*
X195732711Y-132663602D03*
X196812846Y-132075548D03*
X195196371Y-131631692D03*
X194752515Y-133248167D03*
X196320765Y-133743738D03*
X193093525Y-130154180D03*
X124830438Y-81005005D03*
X123413239Y-78220632D03*
X116941760Y-63739378D03*
X116235206Y-63563929D03*
X114302574Y-61229956D03*
X114838914Y-62261866D03*
X113714520Y-60149820D03*
X115282770Y-60645391D03*
X113222439Y-61818010D03*
X113758779Y-62849920D03*
X115819111Y-61677301D03*
X114696461Y-59615225D03*
X112686099Y-60786099D03*
X130285493Y-79679798D03*
X129741888Y-78382000D03*
X129315957Y-77646417D03*
X127730000Y-88900000D03*
D16*
X165676198Y-83056342D02*
X164933453Y-83799087D01*
X164949999Y-80825683D02*
X165676198Y-81551882D01*
X165676198Y-81551882D02*
X165676198Y-83056342D01*
G04 #@! TA.AperFunction,Conductor*
G36*
X146722180Y-75680185D02*
G01*
X146767935Y-75732989D01*
X146777879Y-75802147D01*
X146760135Y-75850472D01*
X146722431Y-75910476D01*
X146662851Y-76080745D01*
X146662850Y-76080750D01*
X146642655Y-76259996D01*
X146642655Y-76260003D01*
X146662850Y-76439249D01*
X146662851Y-76439254D01*
X146722431Y-76609523D01*
X146778516Y-76698781D01*
X146818404Y-76762262D01*
X146945958Y-76889816D01*
X146992450Y-76919029D01*
X147066336Y-76965455D01*
X147098698Y-76985789D01*
X147268965Y-77045368D01*
X147268969Y-77045369D01*
X147363452Y-77056014D01*
X147446823Y-77065407D01*
X147511236Y-77092473D01*
X147550791Y-77150068D01*
X147552929Y-77219904D01*
X147516972Y-77279811D01*
X147510264Y-77285564D01*
X147508440Y-77287018D01*
X147380881Y-77414577D01*
X147284908Y-77567316D01*
X147225328Y-77737585D01*
X147225327Y-77737590D01*
X147205132Y-77916836D01*
X147205132Y-77916843D01*
X147225327Y-78096089D01*
X147225328Y-78096094D01*
X147284908Y-78266363D01*
X147368807Y-78399887D01*
X147380881Y-78419102D01*
X147508435Y-78546656D01*
X147661175Y-78642629D01*
X147831442Y-78702208D01*
X147831447Y-78702209D01*
X148010693Y-78722405D01*
X148010697Y-78722405D01*
X148010701Y-78722405D01*
X148189946Y-78702209D01*
X148189949Y-78702208D01*
X148189952Y-78702208D01*
X148360219Y-78642629D01*
X148512959Y-78546656D01*
X148640513Y-78419102D01*
X148736486Y-78266362D01*
X148796065Y-78096095D01*
X148799925Y-78061840D01*
X148816262Y-77916843D01*
X148816262Y-77916836D01*
X148796066Y-77737590D01*
X148796064Y-77737582D01*
X148791749Y-77725251D01*
X148788185Y-77655472D01*
X148822911Y-77594843D01*
X148884904Y-77562614D01*
X148949744Y-77567251D01*
X148962076Y-77571566D01*
X148962082Y-77571567D01*
X148962084Y-77571568D01*
X148962085Y-77571568D01*
X148962089Y-77571569D01*
X149141335Y-77591765D01*
X149141339Y-77591765D01*
X149141343Y-77591765D01*
X149320588Y-77571569D01*
X149320591Y-77571568D01*
X149320594Y-77571568D01*
X149490861Y-77511989D01*
X149643601Y-77416016D01*
X149771155Y-77288462D01*
X149867128Y-77135722D01*
X149926707Y-76965455D01*
X149930729Y-76929762D01*
X149946904Y-76786203D01*
X149946904Y-76786196D01*
X149926708Y-76606950D01*
X149926707Y-76606945D01*
X149878252Y-76468468D01*
X149867128Y-76436678D01*
X149771155Y-76283938D01*
X149643601Y-76156384D01*
X149635153Y-76151076D01*
X149490862Y-76060411D01*
X149320593Y-76000831D01*
X149320588Y-76000830D01*
X149141343Y-75980635D01*
X149141335Y-75980635D01*
X148962089Y-76000830D01*
X148962084Y-76000831D01*
X148791815Y-76060411D01*
X148639076Y-76156384D01*
X148511523Y-76283937D01*
X148511521Y-76283940D01*
X148482778Y-76329684D01*
X148430443Y-76375975D01*
X148361389Y-76386622D01*
X148297541Y-76358246D01*
X148259170Y-76299856D01*
X148253785Y-76263711D01*
X148253785Y-76259996D01*
X148233589Y-76080750D01*
X148233588Y-76080745D01*
X148205625Y-76000831D01*
X148174009Y-75910478D01*
X148136305Y-75850472D01*
X148117305Y-75783235D01*
X148137673Y-75716400D01*
X148190941Y-75671186D01*
X148241299Y-75660500D01*
X164035447Y-75660500D01*
X164082904Y-75669941D01*
X176103375Y-80649484D01*
X176118095Y-80656758D01*
X176133967Y-80665958D01*
X176133970Y-80665958D01*
X176138754Y-80667592D01*
X176155175Y-80672006D01*
X176160108Y-80672988D01*
X176160111Y-80672988D01*
X176178454Y-80672988D01*
X176194850Y-80674076D01*
X176213030Y-80676502D01*
X176213035Y-80676500D01*
X176218077Y-80676179D01*
X176234916Y-80673976D01*
X176239867Y-80672990D01*
X176239875Y-80672991D01*
X176256837Y-80665964D01*
X176272383Y-80660702D01*
X176290111Y-80655985D01*
X176290112Y-80655983D01*
X176294650Y-80653755D01*
X176309380Y-80645268D01*
X176313567Y-80642470D01*
X176313567Y-80642469D01*
X176313569Y-80642469D01*
X176326546Y-80629491D01*
X176338906Y-80618671D01*
X176353469Y-80607535D01*
X176353468Y-80607535D01*
X176353472Y-80607533D01*
X176353474Y-80607528D01*
X176356823Y-80603723D01*
X176367165Y-80590269D01*
X176369969Y-80586073D01*
X176369969Y-80586071D01*
X176369972Y-80586069D01*
X176376997Y-80569108D01*
X176384270Y-80554391D01*
X176390170Y-80544211D01*
X178936310Y-76151072D01*
X178986954Y-76102945D01*
X179055583Y-76089836D01*
X179090012Y-76098274D01*
X188775456Y-80009703D01*
X188830247Y-80053059D01*
X188852900Y-80119155D01*
X188839932Y-80180135D01*
X185600000Y-86659999D01*
X185600000Y-86660000D01*
X185692888Y-86658824D01*
X185760168Y-86677657D01*
X185806588Y-86729877D01*
X185809009Y-86735342D01*
X185810212Y-86738245D01*
X185813389Y-86746786D01*
X185822152Y-86773291D01*
X185822153Y-86773292D01*
X185825873Y-86779858D01*
X185830061Y-86786119D01*
X185849802Y-86805848D01*
X185856023Y-86812540D01*
X185874264Y-86833676D01*
X185880214Y-86838317D01*
X185886482Y-86842502D01*
X185912273Y-86853175D01*
X185920582Y-86856978D01*
X185945521Y-86869524D01*
X185945525Y-86869524D01*
X185952799Y-86871535D01*
X185960181Y-86873001D01*
X185960181Y-86873000D01*
X185960184Y-86873002D01*
X185988106Y-86872992D01*
X185997217Y-86873325D01*
X186025069Y-86875374D01*
X186025075Y-86875372D01*
X186036935Y-86873907D01*
X186052095Y-86872971D01*
X193285460Y-86870605D01*
X193352505Y-86890268D01*
X193398278Y-86943057D01*
X193409500Y-86994605D01*
X193409500Y-94868638D01*
X193389815Y-94935677D01*
X193337011Y-94981432D01*
X193267853Y-94991376D01*
X193204297Y-94962351D01*
X193193040Y-94951265D01*
X193168470Y-94923771D01*
X193002146Y-94737654D01*
X192747508Y-94510096D01*
X192747505Y-94510094D01*
X192747503Y-94510092D01*
X192469001Y-94312483D01*
X192468996Y-94312480D01*
X192230151Y-94180476D01*
X192170102Y-94147288D01*
X191854596Y-94016601D01*
X191727562Y-93980003D01*
X191526446Y-93922062D01*
X191526437Y-93922060D01*
X191189771Y-93864858D01*
X191189759Y-93864856D01*
X190848800Y-93845709D01*
X190507840Y-93864856D01*
X190507828Y-93864858D01*
X190171162Y-93922060D01*
X190171153Y-93922062D01*
X189843007Y-94016600D01*
X189843004Y-94016601D01*
X189816117Y-94027738D01*
X189527499Y-94147287D01*
X189228603Y-94312480D01*
X189228598Y-94312483D01*
X188950096Y-94510092D01*
X188695454Y-94737654D01*
X188467892Y-94992296D01*
X188270283Y-95270798D01*
X188270280Y-95270803D01*
X188105087Y-95569699D01*
X187974400Y-95885207D01*
X187879862Y-96213353D01*
X187879860Y-96213362D01*
X187822658Y-96550028D01*
X187822656Y-96550040D01*
X187803509Y-96891000D01*
X187822656Y-97231959D01*
X187822658Y-97231971D01*
X187879860Y-97568637D01*
X187879862Y-97568646D01*
X187949315Y-97809721D01*
X187974401Y-97896796D01*
X188063115Y-98110970D01*
X188101987Y-98204817D01*
X188105088Y-98212302D01*
X188133486Y-98263685D01*
X188270280Y-98511196D01*
X188270283Y-98511201D01*
X188467892Y-98789703D01*
X188467896Y-98789708D01*
X188695454Y-99044346D01*
X188950092Y-99271904D01*
X188950095Y-99271906D01*
X188950096Y-99271907D01*
X189228598Y-99469516D01*
X189228603Y-99469519D01*
X189228606Y-99469520D01*
X189228608Y-99469522D01*
X189527498Y-99634712D01*
X189843004Y-99765399D01*
X190171159Y-99859939D01*
X190507836Y-99917143D01*
X190848800Y-99936291D01*
X191189764Y-99917143D01*
X191526441Y-99859939D01*
X191854596Y-99765399D01*
X192170102Y-99634712D01*
X192468992Y-99469522D01*
X192468997Y-99469518D01*
X192469001Y-99469516D01*
X192598656Y-99377520D01*
X192747508Y-99271904D01*
X193002146Y-99044346D01*
X193193042Y-98830732D01*
X193252389Y-98793863D01*
X193322251Y-98794932D01*
X193380444Y-98833601D01*
X193408493Y-98897594D01*
X193409500Y-98913361D01*
X193409500Y-106945605D01*
X193389815Y-107012644D01*
X193337011Y-107058399D01*
X193285541Y-107069605D01*
X186052022Y-107071971D01*
X186037069Y-107069879D01*
X186036926Y-107071052D01*
X186024807Y-107069570D01*
X185997073Y-107071646D01*
X185987862Y-107071992D01*
X185960054Y-107072001D01*
X185952601Y-107073486D01*
X185945262Y-107075526D01*
X185920443Y-107088052D01*
X185912066Y-107091896D01*
X185886373Y-107102548D01*
X185880052Y-107106774D01*
X185874056Y-107111464D01*
X185869381Y-107116896D01*
X185810727Y-107154862D01*
X185775403Y-107160000D01*
X185600000Y-107160000D01*
X188495615Y-112853074D01*
X188508462Y-112921752D01*
X188482139Y-112986474D01*
X188444933Y-113017893D01*
X179296413Y-118058913D01*
X179228197Y-118074026D01*
X179162640Y-118049860D01*
X179129175Y-118012295D01*
X176647766Y-113713061D01*
X176396253Y-113277295D01*
X176389390Y-113263484D01*
X176381758Y-113245375D01*
X176381755Y-113245372D01*
X176377070Y-113238453D01*
X176371715Y-113231518D01*
X176366203Y-113225230D01*
X176350618Y-113213268D01*
X176338992Y-113203134D01*
X176325009Y-113189324D01*
X176325007Y-113189323D01*
X176325004Y-113189320D01*
X176318056Y-113184740D01*
X176310414Y-113180358D01*
X176302926Y-113176664D01*
X176283953Y-113171577D01*
X176269327Y-113166662D01*
X176251129Y-113159256D01*
X176251128Y-113159256D01*
X176251126Y-113159255D01*
X176242967Y-113157684D01*
X176234194Y-113156556D01*
X176225885Y-113156010D01*
X176209536Y-113158161D01*
X176206410Y-113158572D01*
X176191014Y-113159628D01*
X176176473Y-113159719D01*
X176171366Y-113159751D01*
X176163221Y-113161423D01*
X176154663Y-113163744D01*
X176146798Y-113166413D01*
X176129778Y-113176236D01*
X176115959Y-113183103D01*
X165548673Y-117637084D01*
X164547864Y-118058913D01*
X164095058Y-118249765D01*
X164046897Y-118259500D01*
X163414000Y-118259500D01*
X163346961Y-118239815D01*
X163301206Y-118187011D01*
X163290000Y-118135500D01*
X163290000Y-117980000D01*
X147510000Y-117980000D01*
X147510000Y-118135500D01*
X147490315Y-118202539D01*
X147437511Y-118248294D01*
X147386000Y-118259500D01*
X145903103Y-118259500D01*
X145854942Y-118249765D01*
X145402136Y-118058913D01*
X143729644Y-117353978D01*
X140306189Y-115911034D01*
X145959834Y-115911034D01*
X145984601Y-116035542D01*
X145984603Y-116035548D01*
X146033185Y-116152835D01*
X146033190Y-116152845D01*
X146103719Y-116258398D01*
X146103722Y-116258402D01*
X146193486Y-116348166D01*
X146193490Y-116348169D01*
X146299043Y-116418698D01*
X146299047Y-116418700D01*
X146299050Y-116418702D01*
X146416341Y-116467286D01*
X146416345Y-116467286D01*
X146416346Y-116467287D01*
X146540854Y-116492054D01*
X146540857Y-116492054D01*
X146667815Y-116492054D01*
X146751582Y-116475391D01*
X146792329Y-116467286D01*
X146909620Y-116418702D01*
X147015180Y-116348169D01*
X147104950Y-116258399D01*
X147175483Y-116152839D01*
X147224067Y-116035548D01*
X147248835Y-115911032D01*
X147248835Y-115784076D01*
X147248835Y-115784073D01*
X147224068Y-115659565D01*
X147224067Y-115659564D01*
X147224067Y-115659560D01*
X147175483Y-115542269D01*
X147175481Y-115542266D01*
X147175479Y-115542262D01*
X147104950Y-115436709D01*
X147104947Y-115436705D01*
X147015183Y-115346941D01*
X147015179Y-115346938D01*
X146909626Y-115276409D01*
X146909616Y-115276404D01*
X146792329Y-115227822D01*
X146792323Y-115227820D01*
X146667815Y-115203054D01*
X146667813Y-115203054D01*
X146540857Y-115203054D01*
X146540855Y-115203054D01*
X146416346Y-115227820D01*
X146416340Y-115227822D01*
X146299053Y-115276404D01*
X146299043Y-115276409D01*
X146193490Y-115346938D01*
X146193486Y-115346941D01*
X146103722Y-115436705D01*
X146103719Y-115436709D01*
X146033190Y-115542262D01*
X146033185Y-115542272D01*
X145984603Y-115659559D01*
X145984601Y-115659565D01*
X145959835Y-115784073D01*
X145959835Y-115784076D01*
X145959835Y-115911032D01*
X145959835Y-115911034D01*
X145959834Y-115911034D01*
X140306189Y-115911034D01*
X137504119Y-114729996D01*
X148434435Y-114729996D01*
X148434435Y-114730003D01*
X148454630Y-114909249D01*
X148454631Y-114909254D01*
X148514211Y-115079523D01*
X148571479Y-115170664D01*
X148610184Y-115232262D01*
X148737738Y-115359816D01*
X148890478Y-115455789D01*
X148998739Y-115493671D01*
X149060745Y-115515368D01*
X149060750Y-115515369D01*
X149239996Y-115535565D01*
X149240000Y-115535565D01*
X149240004Y-115535565D01*
X149419249Y-115515369D01*
X149419252Y-115515368D01*
X149419255Y-115515368D01*
X149589522Y-115455789D01*
X149742262Y-115359816D01*
X149869816Y-115232262D01*
X149965789Y-115079522D01*
X150025368Y-114909255D01*
X150027813Y-114887558D01*
X150045565Y-114730003D01*
X150045565Y-114729996D01*
X150025369Y-114550750D01*
X150025368Y-114550745D01*
X149965788Y-114380476D01*
X149869815Y-114227737D01*
X149742262Y-114100184D01*
X149589523Y-114004211D01*
X149419254Y-113944631D01*
X149419249Y-113944630D01*
X149240004Y-113924435D01*
X149239996Y-113924435D01*
X149060750Y-113944630D01*
X149060745Y-113944631D01*
X148890476Y-114004211D01*
X148737737Y-114100184D01*
X148610184Y-114227737D01*
X148514211Y-114380476D01*
X148454631Y-114550745D01*
X148454630Y-114550750D01*
X148434435Y-114729996D01*
X137504119Y-114729996D01*
X134054268Y-113275926D01*
X139691164Y-113275926D01*
X139715931Y-113400434D01*
X139715933Y-113400440D01*
X139764515Y-113517727D01*
X139764520Y-113517737D01*
X139835049Y-113623290D01*
X139835052Y-113623294D01*
X139924816Y-113713058D01*
X139924820Y-113713061D01*
X140030373Y-113783590D01*
X140030377Y-113783592D01*
X140030380Y-113783594D01*
X140147671Y-113832178D01*
X140147675Y-113832178D01*
X140147676Y-113832179D01*
X140272184Y-113856946D01*
X140272187Y-113856946D01*
X140399145Y-113856946D01*
X140482912Y-113840283D01*
X140523659Y-113832178D01*
X140640950Y-113783594D01*
X140746510Y-113713061D01*
X140836280Y-113623291D01*
X140906813Y-113517731D01*
X140955397Y-113400440D01*
X140963502Y-113359693D01*
X140980165Y-113275926D01*
X140980165Y-113148965D01*
X140955398Y-113024457D01*
X140955397Y-113024456D01*
X140955397Y-113024452D01*
X140906813Y-112907161D01*
X140906811Y-112907158D01*
X140906809Y-112907154D01*
X140836280Y-112801601D01*
X140836277Y-112801597D01*
X140746513Y-112711833D01*
X140746509Y-112711830D01*
X140640956Y-112641301D01*
X140640946Y-112641296D01*
X140523659Y-112592714D01*
X140523653Y-112592712D01*
X140399145Y-112567946D01*
X140399143Y-112567946D01*
X140272187Y-112567946D01*
X140272185Y-112567946D01*
X140147676Y-112592712D01*
X140147670Y-112592714D01*
X140030383Y-112641296D01*
X140030373Y-112641301D01*
X139924820Y-112711830D01*
X139924816Y-112711833D01*
X139835052Y-112801597D01*
X139835049Y-112801601D01*
X139764520Y-112907154D01*
X139764515Y-112907164D01*
X139715933Y-113024451D01*
X139715931Y-113024457D01*
X139691165Y-113148965D01*
X139691165Y-113148968D01*
X139691165Y-113275924D01*
X139691165Y-113275926D01*
X139691164Y-113275926D01*
X134054268Y-113275926D01*
X133834096Y-113183126D01*
X133820231Y-113176233D01*
X133803278Y-113166439D01*
X133795589Y-113163827D01*
X133786596Y-113161385D01*
X133778634Y-113159750D01*
X133759053Y-113159629D01*
X133743608Y-113158566D01*
X133724202Y-113156006D01*
X133724200Y-113156006D01*
X133724199Y-113156006D01*
X133716099Y-113156534D01*
X133706829Y-113157724D01*
X133698872Y-113159256D01*
X133680728Y-113166639D01*
X133666057Y-113171566D01*
X133647148Y-113176627D01*
X133639859Y-113180219D01*
X133631767Y-113184856D01*
X133624990Y-113189324D01*
X133611059Y-113203083D01*
X133599390Y-113213250D01*
X133583856Y-113225163D01*
X133578488Y-113231280D01*
X133572796Y-113238650D01*
X133568240Y-113245376D01*
X133560635Y-113263421D01*
X133553740Y-113277288D01*
X130989859Y-117715097D01*
X130939278Y-117763298D01*
X130870667Y-117776501D01*
X130826171Y-117763538D01*
X121706589Y-113114339D01*
X121655803Y-113066354D01*
X121639023Y-112998529D01*
X121650492Y-112951535D01*
X121671148Y-112907164D01*
X122405347Y-111329996D01*
X133534435Y-111329996D01*
X133534435Y-111330003D01*
X133554630Y-111509249D01*
X133554631Y-111509254D01*
X133614211Y-111679523D01*
X133710184Y-111832262D01*
X133837738Y-111959816D01*
X133990478Y-112055789D01*
X134160745Y-112115368D01*
X134160750Y-112115369D01*
X134339996Y-112135565D01*
X134340000Y-112135565D01*
X134340004Y-112135565D01*
X134519249Y-112115369D01*
X134519252Y-112115368D01*
X134519255Y-112115368D01*
X134689522Y-112055789D01*
X134842262Y-111959816D01*
X134969816Y-111832262D01*
X135065789Y-111679522D01*
X135125368Y-111509255D01*
X135145565Y-111330000D01*
X135125368Y-111150745D01*
X135065789Y-110980478D01*
X134969816Y-110827738D01*
X134842262Y-110700184D01*
X134689523Y-110604211D01*
X134519254Y-110544631D01*
X134519249Y-110544630D01*
X134340004Y-110524435D01*
X134339996Y-110524435D01*
X134160750Y-110544630D01*
X134160745Y-110544631D01*
X133990476Y-110604211D01*
X133837737Y-110700184D01*
X133710184Y-110827737D01*
X133614211Y-110980476D01*
X133554631Y-111150745D01*
X133554630Y-111150750D01*
X133534435Y-111329996D01*
X122405347Y-111329996D01*
X123462630Y-109058796D01*
X148294435Y-109058796D01*
X148294435Y-109058803D01*
X148314630Y-109238049D01*
X148314631Y-109238054D01*
X148374211Y-109408323D01*
X148456478Y-109539249D01*
X148470184Y-109561062D01*
X148597738Y-109688616D01*
X148750478Y-109784589D01*
X148894456Y-109834969D01*
X148920745Y-109844168D01*
X148920750Y-109844169D01*
X149099996Y-109864365D01*
X149100000Y-109864365D01*
X149100004Y-109864365D01*
X149279249Y-109844169D01*
X149279252Y-109844168D01*
X149279255Y-109844168D01*
X149449522Y-109784589D01*
X149602262Y-109688616D01*
X149729816Y-109561062D01*
X149825789Y-109408322D01*
X149842699Y-109359996D01*
X153444435Y-109359996D01*
X153444435Y-109360003D01*
X153464630Y-109539249D01*
X153464631Y-109539254D01*
X153524211Y-109709523D01*
X153603035Y-109834969D01*
X153620184Y-109862262D01*
X153747738Y-109989816D01*
X153900478Y-110085789D01*
X154043367Y-110135788D01*
X154070745Y-110145368D01*
X154070750Y-110145369D01*
X154249996Y-110165565D01*
X154250000Y-110165565D01*
X154250004Y-110165565D01*
X154429249Y-110145369D01*
X154429252Y-110145368D01*
X154429255Y-110145368D01*
X154599522Y-110085789D01*
X154752262Y-109989816D01*
X154873626Y-109868451D01*
X154934945Y-109834969D01*
X155004637Y-109839953D01*
X155060571Y-109881824D01*
X155066297Y-109890161D01*
X155080184Y-109912262D01*
X155207738Y-110039816D01*
X155360478Y-110135789D01*
X155445573Y-110165565D01*
X155530745Y-110195368D01*
X155530750Y-110195369D01*
X155709996Y-110215565D01*
X155710000Y-110215565D01*
X155710004Y-110215565D01*
X155889249Y-110195369D01*
X155889252Y-110195368D01*
X155889255Y-110195368D01*
X156059522Y-110135789D01*
X156212262Y-110039816D01*
X156339816Y-109912262D01*
X156435789Y-109759522D01*
X156495368Y-109589255D01*
X156501002Y-109539254D01*
X156515565Y-109410003D01*
X156515565Y-109409996D01*
X156495369Y-109230750D01*
X156495368Y-109230745D01*
X156477872Y-109180745D01*
X156435789Y-109060478D01*
X156429960Y-109051202D01*
X156396582Y-108998080D01*
X156339816Y-108907738D01*
X156212262Y-108780184D01*
X156132688Y-108730184D01*
X156059523Y-108684211D01*
X155889254Y-108624631D01*
X155889249Y-108624630D01*
X155710004Y-108604435D01*
X155709996Y-108604435D01*
X155530750Y-108624630D01*
X155530745Y-108624631D01*
X155360476Y-108684211D01*
X155207739Y-108780183D01*
X155086376Y-108901546D01*
X155025053Y-108935030D01*
X154955361Y-108930046D01*
X154899428Y-108888174D01*
X154893702Y-108879837D01*
X154879817Y-108857739D01*
X154752262Y-108730184D01*
X154599523Y-108634211D01*
X154429254Y-108574631D01*
X154429249Y-108574630D01*
X154250004Y-108554435D01*
X154249996Y-108554435D01*
X154070750Y-108574630D01*
X154070745Y-108574631D01*
X153900476Y-108634211D01*
X153747737Y-108730184D01*
X153620184Y-108857737D01*
X153524211Y-109010476D01*
X153464631Y-109180745D01*
X153464630Y-109180750D01*
X153444435Y-109359996D01*
X149842699Y-109359996D01*
X149885368Y-109238055D01*
X149891825Y-109180750D01*
X149905565Y-109058803D01*
X149905565Y-109058796D01*
X149885369Y-108879550D01*
X149885368Y-108879545D01*
X149825788Y-108709276D01*
X149741185Y-108574632D01*
X149729816Y-108556538D01*
X149602262Y-108428984D01*
X149449523Y-108333011D01*
X149279254Y-108273431D01*
X149279249Y-108273430D01*
X149100004Y-108253235D01*
X149099996Y-108253235D01*
X148920750Y-108273430D01*
X148920745Y-108273431D01*
X148750476Y-108333011D01*
X148597737Y-108428984D01*
X148470184Y-108556537D01*
X148374211Y-108709276D01*
X148314631Y-108879545D01*
X148314630Y-108879550D01*
X148294435Y-109058796D01*
X123462630Y-109058796D01*
X124300000Y-107260000D01*
X124246701Y-107260000D01*
X124179662Y-107240315D01*
X124133907Y-107187511D01*
X124128918Y-107174772D01*
X124127977Y-107171915D01*
X124124225Y-107165276D01*
X124119976Y-107158915D01*
X124115923Y-107154862D01*
X124100334Y-107139273D01*
X124094062Y-107132514D01*
X124075943Y-107111464D01*
X124075940Y-107111462D01*
X124069928Y-107106759D01*
X124063577Y-107102516D01*
X124063574Y-107102513D01*
X124037920Y-107091887D01*
X124029511Y-107088030D01*
X124004734Y-107075525D01*
X123997370Y-107073478D01*
X123989882Y-107071989D01*
X123962130Y-107071989D01*
X123952874Y-107071643D01*
X123951671Y-107071552D01*
X123925194Y-107069570D01*
X123913071Y-107071053D01*
X123912893Y-107069603D01*
X123897963Y-107071989D01*
X116724500Y-107071989D01*
X116657461Y-107052304D01*
X116611706Y-106999500D01*
X116600500Y-106947989D01*
X116600500Y-102989996D01*
X118134435Y-102989996D01*
X118134435Y-102990003D01*
X118154630Y-103169249D01*
X118154633Y-103169262D01*
X118214209Y-103339520D01*
X118226468Y-103359030D01*
X118245467Y-103426267D01*
X118226468Y-103490970D01*
X118214209Y-103510479D01*
X118154633Y-103680737D01*
X118154630Y-103680750D01*
X118134435Y-103859996D01*
X118134435Y-103860003D01*
X118154630Y-104039249D01*
X118154631Y-104039254D01*
X118214211Y-104209523D01*
X118286416Y-104324435D01*
X118310184Y-104362262D01*
X118437738Y-104489816D01*
X118590478Y-104585789D01*
X118760745Y-104645368D01*
X118760750Y-104645369D01*
X118939996Y-104665565D01*
X118940000Y-104665565D01*
X118940004Y-104665565D01*
X119119249Y-104645369D01*
X119119252Y-104645368D01*
X119119255Y-104645368D01*
X119289522Y-104585789D01*
X119442262Y-104489816D01*
X119569816Y-104362262D01*
X119665789Y-104209522D01*
X119725368Y-104039255D01*
X119729493Y-104002647D01*
X119745565Y-103860003D01*
X119745565Y-103859996D01*
X119725369Y-103680750D01*
X119725368Y-103680745D01*
X119705746Y-103624669D01*
X119665789Y-103510478D01*
X119653531Y-103490971D01*
X119634531Y-103423738D01*
X119653531Y-103359028D01*
X119665789Y-103339522D01*
X119725368Y-103169255D01*
X119725872Y-103164782D01*
X119745565Y-102990003D01*
X119745565Y-102989996D01*
X119741058Y-102949996D01*
X121534435Y-102949996D01*
X121534435Y-102950003D01*
X121554630Y-103129249D01*
X121554631Y-103129254D01*
X121614211Y-103299523D01*
X121649034Y-103354943D01*
X121668034Y-103422180D01*
X121649035Y-103486884D01*
X121642608Y-103497113D01*
X121634208Y-103510482D01*
X121574633Y-103680737D01*
X121574630Y-103680750D01*
X121554435Y-103859996D01*
X121554435Y-103860003D01*
X121574630Y-104039249D01*
X121574631Y-104039254D01*
X121634211Y-104209523D01*
X121706416Y-104324435D01*
X121730184Y-104362262D01*
X121857738Y-104489816D01*
X122010478Y-104585789D01*
X122180745Y-104645368D01*
X122180750Y-104645369D01*
X122359996Y-104665565D01*
X122360000Y-104665565D01*
X122360004Y-104665565D01*
X122539249Y-104645369D01*
X122539252Y-104645368D01*
X122539255Y-104645368D01*
X122709522Y-104585789D01*
X122862262Y-104489816D01*
X122989816Y-104362262D01*
X123085789Y-104209522D01*
X123145368Y-104039255D01*
X123149493Y-104002647D01*
X123165565Y-103860003D01*
X123165565Y-103859996D01*
X123145369Y-103680750D01*
X123145368Y-103680745D01*
X123125746Y-103624669D01*
X123085789Y-103510478D01*
X123050965Y-103455056D01*
X123031965Y-103387820D01*
X123050964Y-103323114D01*
X123065789Y-103299522D01*
X123125368Y-103129255D01*
X123128919Y-103097738D01*
X123145565Y-102950003D01*
X123145565Y-102949996D01*
X123125369Y-102770750D01*
X123125368Y-102770745D01*
X123096947Y-102689522D01*
X123065789Y-102600478D01*
X123058736Y-102589254D01*
X123014753Y-102519255D01*
X122969816Y-102447738D01*
X122842262Y-102320184D01*
X122781310Y-102281885D01*
X122689523Y-102224211D01*
X122519254Y-102164631D01*
X122519249Y-102164630D01*
X122340004Y-102144435D01*
X122339996Y-102144435D01*
X122160750Y-102164630D01*
X122160745Y-102164631D01*
X121990476Y-102224211D01*
X121837737Y-102320184D01*
X121710184Y-102447737D01*
X121614211Y-102600476D01*
X121554631Y-102770745D01*
X121554630Y-102770750D01*
X121534435Y-102949996D01*
X119741058Y-102949996D01*
X119725369Y-102810750D01*
X119725368Y-102810745D01*
X119707444Y-102759522D01*
X119665789Y-102640478D01*
X119660092Y-102631412D01*
X119624418Y-102574636D01*
X119569816Y-102487738D01*
X119442262Y-102360184D01*
X119410144Y-102340003D01*
X119289523Y-102264211D01*
X119119254Y-102204631D01*
X119119249Y-102204630D01*
X118940004Y-102184435D01*
X118939996Y-102184435D01*
X118760750Y-102204630D01*
X118760745Y-102204631D01*
X118590476Y-102264211D01*
X118437737Y-102360184D01*
X118310184Y-102487737D01*
X118214211Y-102640476D01*
X118154631Y-102810745D01*
X118154630Y-102810750D01*
X118134435Y-102989996D01*
X116600500Y-102989996D01*
X116600500Y-101779788D01*
X124401824Y-101779788D01*
X124401824Y-101779795D01*
X124422019Y-101959041D01*
X124422020Y-101959046D01*
X124481600Y-102129315D01*
X124557900Y-102250745D01*
X124577573Y-102282054D01*
X124705127Y-102409608D01*
X124795469Y-102466374D01*
X124839171Y-102493834D01*
X124857867Y-102505581D01*
X125027720Y-102565015D01*
X125084496Y-102605737D01*
X125109985Y-102668173D01*
X125126039Y-102810659D01*
X125126040Y-102810663D01*
X125185620Y-102980932D01*
X125278814Y-103129249D01*
X125281593Y-103133671D01*
X125409147Y-103261225D01*
X125456107Y-103290732D01*
X125533752Y-103339520D01*
X125561887Y-103357198D01*
X125649400Y-103387820D01*
X125732154Y-103416777D01*
X125732159Y-103416778D01*
X125793935Y-103423738D01*
X125849515Y-103430000D01*
X125913930Y-103457066D01*
X125953485Y-103514660D01*
X125955624Y-103584497D01*
X125934009Y-103628706D01*
X125785643Y-103822061D01*
X125785632Y-103822077D01*
X125659685Y-104040222D01*
X125659680Y-104040233D01*
X125563279Y-104272965D01*
X125498082Y-104516288D01*
X125498080Y-104516299D01*
X125465200Y-104766037D01*
X125465200Y-105017962D01*
X125480186Y-105131785D01*
X125498081Y-105267709D01*
X125502587Y-105284524D01*
X125563279Y-105511034D01*
X125659680Y-105743766D01*
X125659685Y-105743777D01*
X125785632Y-105961922D01*
X125785643Y-105961938D01*
X125938988Y-106161781D01*
X125938994Y-106161788D01*
X126117111Y-106339905D01*
X126117117Y-106339910D01*
X126316970Y-106493263D01*
X126316977Y-106493267D01*
X126535122Y-106619214D01*
X126535127Y-106619216D01*
X126535130Y-106619218D01*
X126767864Y-106715620D01*
X127011191Y-106780819D01*
X127019823Y-106781955D01*
X127083717Y-106810218D01*
X127122191Y-106868540D01*
X127123026Y-106938405D01*
X127085956Y-106997630D01*
X127069613Y-107009887D01*
X126957739Y-107080182D01*
X126830184Y-107207737D01*
X126734211Y-107360476D01*
X126674631Y-107530745D01*
X126674630Y-107530750D01*
X126654435Y-107709996D01*
X126654435Y-107710003D01*
X126674630Y-107889249D01*
X126674631Y-107889254D01*
X126734211Y-108059523D01*
X126789640Y-108147737D01*
X126830184Y-108212262D01*
X126957738Y-108339816D01*
X127110478Y-108435789D01*
X127195010Y-108465368D01*
X127280745Y-108495368D01*
X127280750Y-108495369D01*
X127459996Y-108515565D01*
X127460000Y-108515565D01*
X127460004Y-108515565D01*
X127639249Y-108495369D01*
X127639252Y-108495368D01*
X127639255Y-108495368D01*
X127809522Y-108435789D01*
X127962262Y-108339816D01*
X128089816Y-108212262D01*
X128185789Y-108059522D01*
X128245368Y-107889255D01*
X128245369Y-107889249D01*
X128265565Y-107710003D01*
X128265565Y-107709996D01*
X128245369Y-107530750D01*
X128245368Y-107530745D01*
X128234872Y-107500750D01*
X128185789Y-107360478D01*
X128183073Y-107356156D01*
X128122654Y-107260000D01*
X128089816Y-107207738D01*
X128019890Y-107137812D01*
X158525835Y-107137812D01*
X158525835Y-107137819D01*
X158546030Y-107317065D01*
X158546031Y-107317070D01*
X158605611Y-107487339D01*
X158701584Y-107640078D01*
X158829137Y-107767631D01*
X158829140Y-107767633D01*
X158867307Y-107791615D01*
X158913599Y-107843949D01*
X158924248Y-107913002D01*
X158895873Y-107976851D01*
X158867311Y-108001601D01*
X158837739Y-108020183D01*
X158837737Y-108020184D01*
X158710184Y-108147737D01*
X158614211Y-108300476D01*
X158554631Y-108470745D01*
X158554630Y-108470750D01*
X158534435Y-108649996D01*
X158534435Y-108650003D01*
X158554630Y-108829249D01*
X158554631Y-108829254D01*
X158614211Y-108999523D01*
X158652511Y-109060476D01*
X158710184Y-109152262D01*
X158837738Y-109279816D01*
X158928080Y-109336582D01*
X158965343Y-109359996D01*
X158990478Y-109375789D01*
X159088256Y-109410003D01*
X159160745Y-109435368D01*
X159160750Y-109435369D01*
X159339996Y-109455565D01*
X159340000Y-109455565D01*
X159340004Y-109455565D01*
X159519249Y-109435369D01*
X159519252Y-109435368D01*
X159519255Y-109435368D01*
X159689522Y-109375789D01*
X159842262Y-109279816D01*
X159969816Y-109152262D01*
X160065789Y-108999522D01*
X160125368Y-108829255D01*
X160138886Y-108709278D01*
X160145565Y-108650003D01*
X160145565Y-108649996D01*
X160125369Y-108470750D01*
X160125368Y-108470745D01*
X160123487Y-108465369D01*
X160065789Y-108300478D01*
X159969816Y-108147738D01*
X159842262Y-108020184D01*
X159804090Y-107996198D01*
X159757800Y-107943866D01*
X159747151Y-107874812D01*
X159775527Y-107810964D01*
X159804092Y-107786212D01*
X159833662Y-107767632D01*
X159921298Y-107679996D01*
X161744435Y-107679996D01*
X161744435Y-107680003D01*
X161764630Y-107859249D01*
X161764631Y-107859254D01*
X161824211Y-108029523D01*
X161898490Y-108147737D01*
X161920184Y-108182262D01*
X162047738Y-108309816D01*
X162200478Y-108405789D01*
X162370745Y-108465368D01*
X162370750Y-108465369D01*
X162549996Y-108485565D01*
X162550000Y-108485565D01*
X162550004Y-108485565D01*
X162729249Y-108465369D01*
X162729252Y-108465368D01*
X162729255Y-108465368D01*
X162899522Y-108405789D01*
X163052262Y-108309816D01*
X163179816Y-108182262D01*
X163275789Y-108029522D01*
X163335368Y-107859255D01*
X163343598Y-107786212D01*
X163355565Y-107680003D01*
X163355565Y-107679996D01*
X163335369Y-107500750D01*
X163335368Y-107500745D01*
X163297152Y-107391531D01*
X163275789Y-107330478D01*
X163244061Y-107279984D01*
X163214334Y-107232673D01*
X163179816Y-107177738D01*
X163052262Y-107050184D01*
X162899523Y-106954211D01*
X162729254Y-106894631D01*
X162729249Y-106894630D01*
X162550004Y-106874435D01*
X162549996Y-106874435D01*
X162370750Y-106894630D01*
X162370745Y-106894631D01*
X162200476Y-106954211D01*
X162047737Y-107050184D01*
X161920184Y-107177737D01*
X161824211Y-107330476D01*
X161764631Y-107500745D01*
X161764630Y-107500750D01*
X161744435Y-107679996D01*
X159921298Y-107679996D01*
X159961216Y-107640078D01*
X160057189Y-107487338D01*
X160116768Y-107317071D01*
X160117582Y-107309847D01*
X160136965Y-107137819D01*
X160136965Y-107137812D01*
X160116769Y-106958566D01*
X160116768Y-106958561D01*
X160094398Y-106894631D01*
X160057189Y-106788294D01*
X160053205Y-106781954D01*
X159961215Y-106635553D01*
X159833662Y-106508000D01*
X159680923Y-106412027D01*
X159510654Y-106352447D01*
X159510649Y-106352446D01*
X159331404Y-106332251D01*
X159331396Y-106332251D01*
X159152150Y-106352446D01*
X159152145Y-106352447D01*
X158981876Y-106412027D01*
X158829137Y-106508000D01*
X158701584Y-106635553D01*
X158605611Y-106788292D01*
X158546031Y-106958561D01*
X158546030Y-106958566D01*
X158525835Y-107137812D01*
X128019890Y-107137812D01*
X127962262Y-107080184D01*
X127951602Y-107073486D01*
X127809219Y-106984020D01*
X127762928Y-106931685D01*
X127752280Y-106862631D01*
X127780655Y-106798783D01*
X127839045Y-106760411D01*
X127843036Y-106759268D01*
X128005936Y-106715620D01*
X128238670Y-106619218D01*
X128456830Y-106493263D01*
X128656683Y-106339910D01*
X128834810Y-106161783D01*
X128988163Y-105961930D01*
X129114118Y-105743770D01*
X129210520Y-105511036D01*
X129275719Y-105267709D01*
X129293849Y-105129996D01*
X131004435Y-105129996D01*
X131004435Y-105130003D01*
X131024630Y-105309249D01*
X131024631Y-105309254D01*
X131084211Y-105479523D01*
X131180184Y-105632262D01*
X131307738Y-105759816D01*
X131460478Y-105855789D01*
X131630745Y-105915368D01*
X131630750Y-105915369D01*
X131809996Y-105935565D01*
X131810000Y-105935565D01*
X131810004Y-105935565D01*
X131989249Y-105915369D01*
X131989252Y-105915368D01*
X131989255Y-105915368D01*
X132159522Y-105855789D01*
X132312262Y-105759816D01*
X132438034Y-105634044D01*
X138050387Y-105634044D01*
X138050387Y-105634051D01*
X138070582Y-105813297D01*
X138070583Y-105813302D01*
X138130163Y-105983571D01*
X138226136Y-106136310D01*
X138353690Y-106263864D01*
X138506430Y-106359837D01*
X138676697Y-106419416D01*
X138676702Y-106419417D01*
X138855948Y-106439613D01*
X138855952Y-106439613D01*
X138855956Y-106439613D01*
X139035201Y-106419417D01*
X139035204Y-106419416D01*
X139035207Y-106419416D01*
X139205474Y-106359837D01*
X139358214Y-106263864D01*
X139485768Y-106136310D01*
X139581741Y-105983570D01*
X139641320Y-105813303D01*
X139641321Y-105813297D01*
X139661517Y-105634051D01*
X139661517Y-105634044D01*
X139641321Y-105454798D01*
X139641320Y-105454793D01*
X139590394Y-105309255D01*
X139581741Y-105284526D01*
X139575285Y-105274252D01*
X139485767Y-105131785D01*
X139358214Y-105004232D01*
X139205475Y-104908259D01*
X139035206Y-104848679D01*
X139035201Y-104848678D01*
X138855956Y-104828483D01*
X138855948Y-104828483D01*
X138676702Y-104848678D01*
X138676697Y-104848679D01*
X138506428Y-104908259D01*
X138353689Y-105004232D01*
X138226136Y-105131785D01*
X138130163Y-105284524D01*
X138070583Y-105454793D01*
X138070582Y-105454798D01*
X138050387Y-105634044D01*
X132438034Y-105634044D01*
X132439816Y-105632262D01*
X132535789Y-105479522D01*
X132595368Y-105309255D01*
X132595369Y-105309249D01*
X132615565Y-105130003D01*
X132615565Y-105129996D01*
X132595369Y-104950750D01*
X132595368Y-104950745D01*
X132535789Y-104780478D01*
X132439816Y-104627738D01*
X132312262Y-104500184D01*
X132294272Y-104488880D01*
X136029435Y-104488880D01*
X136029435Y-104488887D01*
X136049630Y-104668133D01*
X136049631Y-104668138D01*
X136109211Y-104838407D01*
X136190179Y-104967266D01*
X136205184Y-104991146D01*
X136332738Y-105118700D01*
X136485478Y-105214673D01*
X136637046Y-105267709D01*
X136655745Y-105274252D01*
X136655750Y-105274253D01*
X136834996Y-105294449D01*
X136835000Y-105294449D01*
X136835004Y-105294449D01*
X137014249Y-105274253D01*
X137014252Y-105274252D01*
X137014255Y-105274252D01*
X137184522Y-105214673D01*
X137337262Y-105118700D01*
X137464816Y-104991146D01*
X137560789Y-104838406D01*
X137620368Y-104668139D01*
X137629647Y-104585788D01*
X137640565Y-104488887D01*
X137640565Y-104488880D01*
X137620369Y-104309634D01*
X137620368Y-104309629D01*
X137592863Y-104231025D01*
X137560789Y-104139362D01*
X137464816Y-103986622D01*
X137337262Y-103859068D01*
X137184523Y-103763095D01*
X137014254Y-103703515D01*
X137014249Y-103703514D01*
X136835004Y-103683319D01*
X136834996Y-103683319D01*
X136655750Y-103703514D01*
X136655745Y-103703515D01*
X136485476Y-103763095D01*
X136332737Y-103859068D01*
X136205184Y-103986621D01*
X136109211Y-104139360D01*
X136049631Y-104309629D01*
X136049630Y-104309634D01*
X136029435Y-104488880D01*
X132294272Y-104488880D01*
X132159523Y-104404211D01*
X131989254Y-104344631D01*
X131989249Y-104344630D01*
X131810004Y-104324435D01*
X131809996Y-104324435D01*
X131630750Y-104344630D01*
X131630745Y-104344631D01*
X131460476Y-104404211D01*
X131307737Y-104500184D01*
X131180184Y-104627737D01*
X131084211Y-104780476D01*
X131024631Y-104950745D01*
X131024630Y-104950750D01*
X131004435Y-105129996D01*
X129293849Y-105129996D01*
X129308600Y-105017955D01*
X129308600Y-104766045D01*
X129275719Y-104516291D01*
X129210520Y-104272964D01*
X129114118Y-104040230D01*
X129114116Y-104040227D01*
X129114114Y-104040222D01*
X128988167Y-103822077D01*
X128988163Y-103822070D01*
X128879714Y-103680737D01*
X128834811Y-103622218D01*
X128834805Y-103622211D01*
X128812590Y-103599996D01*
X133394435Y-103599996D01*
X133394435Y-103600003D01*
X133414630Y-103779249D01*
X133414631Y-103779254D01*
X133474211Y-103949523D01*
X133570184Y-104102262D01*
X133697738Y-104229816D01*
X133766408Y-104272964D01*
X133824759Y-104309629D01*
X133850478Y-104325789D01*
X133951537Y-104361151D01*
X134020745Y-104385368D01*
X134020750Y-104385369D01*
X134199996Y-104405565D01*
X134200000Y-104405565D01*
X134200004Y-104405565D01*
X134379249Y-104385369D01*
X134379252Y-104385368D01*
X134379255Y-104385368D01*
X134549522Y-104325789D01*
X134702262Y-104229816D01*
X134829816Y-104102262D01*
X134925789Y-103949522D01*
X134985368Y-103779255D01*
X134993902Y-103703514D01*
X135005565Y-103600003D01*
X135005565Y-103599996D01*
X138194435Y-103599996D01*
X138194435Y-103600003D01*
X138214630Y-103779249D01*
X138214631Y-103779254D01*
X138274211Y-103949523D01*
X138370184Y-104102262D01*
X138497738Y-104229816D01*
X138566408Y-104272964D01*
X138624759Y-104309629D01*
X138650478Y-104325789D01*
X138751537Y-104361151D01*
X138820745Y-104385368D01*
X138820750Y-104385369D01*
X138999996Y-104405565D01*
X139000000Y-104405565D01*
X139000004Y-104405565D01*
X139179249Y-104385369D01*
X139179252Y-104385368D01*
X139179255Y-104385368D01*
X139349522Y-104325789D01*
X139502262Y-104229816D01*
X139574852Y-104157225D01*
X139636171Y-104123743D01*
X139705863Y-104128727D01*
X139761797Y-104170598D01*
X139785750Y-104231025D01*
X139800411Y-104361147D01*
X139800412Y-104361151D01*
X139859992Y-104531420D01*
X139944282Y-104665565D01*
X139955965Y-104684159D01*
X140083519Y-104811713D01*
X140236259Y-104907686D01*
X140237897Y-104908259D01*
X140406526Y-104967265D01*
X140406531Y-104967266D01*
X140585777Y-104987462D01*
X140585781Y-104987462D01*
X140585785Y-104987462D01*
X140765030Y-104967266D01*
X140765033Y-104967265D01*
X140765036Y-104967265D01*
X140935303Y-104907686D01*
X141088043Y-104811713D01*
X141215597Y-104684159D01*
X141311570Y-104531419D01*
X141371149Y-104361152D01*
X141371150Y-104361146D01*
X141391346Y-104181900D01*
X141391346Y-104181893D01*
X141371150Y-104002647D01*
X141371149Y-104002642D01*
X141352562Y-103949523D01*
X141311570Y-103832375D01*
X141305099Y-103822077D01*
X141230601Y-103703514D01*
X141215597Y-103679635D01*
X141088043Y-103552081D01*
X141021839Y-103510482D01*
X140935304Y-103456108D01*
X140765035Y-103396528D01*
X140765030Y-103396527D01*
X140585785Y-103376332D01*
X140585777Y-103376332D01*
X140406531Y-103396527D01*
X140406526Y-103396528D01*
X140236257Y-103456108D01*
X140083520Y-103552080D01*
X140010931Y-103624669D01*
X139949607Y-103658153D01*
X139879916Y-103653168D01*
X139823982Y-103611297D01*
X139800030Y-103550870D01*
X139785369Y-103420750D01*
X139785368Y-103420745D01*
X139763132Y-103357198D01*
X139725789Y-103250478D01*
X139629816Y-103097738D01*
X139502262Y-102970184D01*
X139470144Y-102950003D01*
X139349523Y-102874211D01*
X139179254Y-102814631D01*
X139179249Y-102814630D01*
X139000004Y-102794435D01*
X138999996Y-102794435D01*
X138820750Y-102814630D01*
X138820745Y-102814631D01*
X138650476Y-102874211D01*
X138497737Y-102970184D01*
X138370184Y-103097737D01*
X138274211Y-103250476D01*
X138214631Y-103420745D01*
X138214630Y-103420750D01*
X138194435Y-103599996D01*
X135005565Y-103599996D01*
X134985369Y-103420750D01*
X134985368Y-103420745D01*
X134963132Y-103357198D01*
X134925789Y-103250478D01*
X134829816Y-103097738D01*
X134702262Y-102970184D01*
X134670144Y-102950003D01*
X134549523Y-102874211D01*
X134379254Y-102814631D01*
X134379249Y-102814630D01*
X134200004Y-102794435D01*
X134199996Y-102794435D01*
X134020750Y-102814630D01*
X134020745Y-102814631D01*
X133850476Y-102874211D01*
X133697737Y-102970184D01*
X133570184Y-103097737D01*
X133474211Y-103250476D01*
X133414631Y-103420745D01*
X133414630Y-103420750D01*
X133394435Y-103599996D01*
X128812590Y-103599996D01*
X128656688Y-103444094D01*
X128656681Y-103444088D01*
X128456838Y-103290743D01*
X128456836Y-103290741D01*
X128456830Y-103290737D01*
X128456825Y-103290734D01*
X128456822Y-103290732D01*
X128238677Y-103164785D01*
X128238666Y-103164780D01*
X128005934Y-103068379D01*
X127884272Y-103035780D01*
X127762609Y-103003181D01*
X127720870Y-102997685D01*
X127512862Y-102970300D01*
X127512855Y-102970300D01*
X127260945Y-102970300D01*
X127260937Y-102970300D01*
X127038976Y-102999523D01*
X127011191Y-103003181D01*
X126976216Y-103012552D01*
X126816538Y-103055337D01*
X126746688Y-103053674D01*
X126688826Y-103014511D01*
X126661322Y-102950282D01*
X126667404Y-102894606D01*
X126696776Y-102810668D01*
X126696778Y-102810658D01*
X126716974Y-102631412D01*
X126716974Y-102631405D01*
X126696778Y-102452159D01*
X126696777Y-102452154D01*
X126682025Y-102409996D01*
X126637198Y-102281887D01*
X126626091Y-102264211D01*
X126563520Y-102164630D01*
X126541225Y-102129147D01*
X126413671Y-102001593D01*
X126377554Y-101978899D01*
X126260930Y-101905619D01*
X126130545Y-101859996D01*
X136744435Y-101859996D01*
X136744435Y-101860003D01*
X136764630Y-102039249D01*
X136764631Y-102039254D01*
X136824211Y-102209523D01*
X136897266Y-102325788D01*
X136920184Y-102362262D01*
X137047738Y-102489816D01*
X137200478Y-102585789D01*
X137356770Y-102640478D01*
X137370745Y-102645368D01*
X137370750Y-102645369D01*
X137549996Y-102665565D01*
X137550000Y-102665565D01*
X137550004Y-102665565D01*
X137729249Y-102645369D01*
X137729252Y-102645368D01*
X137729255Y-102645368D01*
X137899522Y-102585789D01*
X138052262Y-102489816D01*
X138179816Y-102362262D01*
X138275789Y-102209522D01*
X138335368Y-102039255D01*
X138337517Y-102020184D01*
X138355565Y-101860003D01*
X138355565Y-101859996D01*
X138335369Y-101680750D01*
X138335368Y-101680745D01*
X138317209Y-101628850D01*
X138275789Y-101510478D01*
X138179816Y-101357738D01*
X138052262Y-101230184D01*
X137986233Y-101188695D01*
X137899523Y-101134211D01*
X137729254Y-101074631D01*
X137729249Y-101074630D01*
X137550004Y-101054435D01*
X137549996Y-101054435D01*
X137370750Y-101074630D01*
X137370745Y-101074631D01*
X137200476Y-101134211D01*
X137047737Y-101230184D01*
X136920184Y-101357737D01*
X136824211Y-101510476D01*
X136764631Y-101680745D01*
X136764630Y-101680750D01*
X136744435Y-101859996D01*
X126130545Y-101859996D01*
X126091078Y-101846186D01*
X126034302Y-101805464D01*
X126008812Y-101743027D01*
X125992758Y-101600542D01*
X125992757Y-101600537D01*
X125954870Y-101492262D01*
X125933178Y-101430270D01*
X125925077Y-101417378D01*
X125876157Y-101339522D01*
X125837205Y-101277530D01*
X125709651Y-101149976D01*
X125674331Y-101127783D01*
X125556912Y-101054003D01*
X125386643Y-100994423D01*
X125386638Y-100994422D01*
X125207393Y-100974227D01*
X125207385Y-100974227D01*
X125028139Y-100994422D01*
X125028134Y-100994423D01*
X124857865Y-101054003D01*
X124705126Y-101149976D01*
X124577573Y-101277529D01*
X124481600Y-101430268D01*
X124422020Y-101600537D01*
X124422019Y-101600542D01*
X124401824Y-101779788D01*
X116600500Y-101779788D01*
X116600500Y-100969996D01*
X143634435Y-100969996D01*
X143634435Y-100970003D01*
X143654630Y-101149249D01*
X143654631Y-101149254D01*
X143714211Y-101319523D01*
X143810184Y-101472262D01*
X143937737Y-101599815D01*
X143943184Y-101604159D01*
X143941904Y-101605763D01*
X143981567Y-101650611D01*
X143992209Y-101719665D01*
X143963828Y-101783511D01*
X143956981Y-101790941D01*
X143840183Y-101907739D01*
X143744211Y-102060476D01*
X143684631Y-102230745D01*
X143684630Y-102230750D01*
X143664435Y-102409996D01*
X143664435Y-102410003D01*
X143684630Y-102589249D01*
X143684631Y-102589254D01*
X143744211Y-102759523D01*
X143788027Y-102829255D01*
X143840184Y-102912262D01*
X143967738Y-103039816D01*
X144058080Y-103096582D01*
X144110077Y-103129254D01*
X144120478Y-103135789D01*
X144290745Y-103195368D01*
X144290750Y-103195369D01*
X144469996Y-103215565D01*
X144470000Y-103215565D01*
X144470004Y-103215565D01*
X144649249Y-103195369D01*
X144649252Y-103195368D01*
X144649255Y-103195368D01*
X144819522Y-103135789D01*
X144972262Y-103039816D01*
X145099816Y-102912262D01*
X145195789Y-102759522D01*
X145255368Y-102589255D01*
X145258099Y-102565015D01*
X145275565Y-102410003D01*
X145275565Y-102409996D01*
X145255369Y-102230750D01*
X145255368Y-102230745D01*
X145230874Y-102160745D01*
X145195789Y-102060478D01*
X145099816Y-101907738D01*
X144972262Y-101780184D01*
X144966816Y-101775841D01*
X144968093Y-101774238D01*
X144928428Y-101729380D01*
X144917791Y-101660325D01*
X144946177Y-101596481D01*
X144952995Y-101589082D01*
X145069816Y-101472262D01*
X145165789Y-101319522D01*
X145225368Y-101149255D01*
X145227063Y-101134211D01*
X145237679Y-101039996D01*
X146408849Y-101039996D01*
X146408849Y-101040003D01*
X146429044Y-101219249D01*
X146429045Y-101219254D01*
X146488625Y-101389523D01*
X146564627Y-101510478D01*
X146584598Y-101542262D01*
X146712152Y-101669816D01*
X146799094Y-101724445D01*
X146845384Y-101776778D01*
X146856033Y-101845832D01*
X146827658Y-101909680D01*
X146820805Y-101917116D01*
X146810184Y-101927737D01*
X146714211Y-102080476D01*
X146654631Y-102250745D01*
X146654630Y-102250750D01*
X146634435Y-102429996D01*
X146634435Y-102430003D01*
X146654630Y-102609249D01*
X146654631Y-102609254D01*
X146714211Y-102779523D01*
X146745460Y-102829255D01*
X146810184Y-102932262D01*
X146937738Y-103059816D01*
X147028080Y-103116582D01*
X147084864Y-103152262D01*
X147090478Y-103155789D01*
X147260745Y-103215368D01*
X147260750Y-103215369D01*
X147439996Y-103235565D01*
X147440000Y-103235565D01*
X147440004Y-103235565D01*
X147619249Y-103215369D01*
X147619252Y-103215368D01*
X147619255Y-103215368D01*
X147789522Y-103155789D01*
X147942262Y-103059816D01*
X148069816Y-102932262D01*
X148165789Y-102779522D01*
X148225368Y-102609255D01*
X148225369Y-102609249D01*
X148245565Y-102430003D01*
X148245565Y-102429996D01*
X148225369Y-102250750D01*
X148225368Y-102250745D01*
X148193877Y-102160750D01*
X148165789Y-102080478D01*
X148069816Y-101927738D01*
X147942262Y-101800184D01*
X147855319Y-101745554D01*
X147809029Y-101693220D01*
X147798381Y-101624167D01*
X147809123Y-101599996D01*
X149764435Y-101599996D01*
X149764435Y-101600003D01*
X149784630Y-101779249D01*
X149784631Y-101779254D01*
X149844211Y-101949523D01*
X149869944Y-101990476D01*
X149940184Y-102102262D01*
X150067738Y-102229816D01*
X150144790Y-102278231D01*
X150211557Y-102320184D01*
X150220478Y-102325789D01*
X150324712Y-102362262D01*
X150390745Y-102385368D01*
X150390750Y-102385369D01*
X150569996Y-102405565D01*
X150570000Y-102405565D01*
X150570003Y-102405565D01*
X150711216Y-102389654D01*
X150780038Y-102401708D01*
X150831418Y-102449057D01*
X150849042Y-102516668D01*
X150848320Y-102526757D01*
X150834435Y-102649995D01*
X150834435Y-102650003D01*
X150854630Y-102829249D01*
X150854631Y-102829254D01*
X150914211Y-102999523D01*
X150975924Y-103097738D01*
X151010184Y-103152262D01*
X151137738Y-103279816D01*
X151206640Y-103323110D01*
X151260890Y-103357198D01*
X151290478Y-103375789D01*
X151431115Y-103425000D01*
X151460745Y-103435368D01*
X151460750Y-103435369D01*
X151639996Y-103455565D01*
X151640000Y-103455565D01*
X151640004Y-103455565D01*
X151819249Y-103435369D01*
X151819252Y-103435368D01*
X151819255Y-103435368D01*
X151989522Y-103375789D01*
X152142262Y-103279816D01*
X152269816Y-103152262D01*
X152365789Y-102999522D01*
X152425368Y-102829255D01*
X152427454Y-102810745D01*
X152445565Y-102650003D01*
X152445565Y-102649996D01*
X152425369Y-102470750D01*
X152425367Y-102470742D01*
X152403636Y-102408637D01*
X152400075Y-102338859D01*
X152434804Y-102278231D01*
X152496797Y-102246004D01*
X152561634Y-102250642D01*
X152594103Y-102262004D01*
X152594113Y-102262006D01*
X152773359Y-102282202D01*
X152773363Y-102282202D01*
X152773367Y-102282202D01*
X152952612Y-102262006D01*
X152952615Y-102262005D01*
X152952618Y-102262005D01*
X153122885Y-102202426D01*
X153275625Y-102106453D01*
X153403179Y-101978899D01*
X153444494Y-101913147D01*
X154448396Y-101913147D01*
X154448396Y-101913154D01*
X154468591Y-102092400D01*
X154468592Y-102092405D01*
X154528172Y-102262674D01*
X154615534Y-102401708D01*
X154624145Y-102415413D01*
X154751699Y-102542967D01*
X154904439Y-102638940D01*
X155048994Y-102689522D01*
X155074706Y-102698519D01*
X155074711Y-102698520D01*
X155253957Y-102718716D01*
X155253961Y-102718716D01*
X155253965Y-102718716D01*
X155433210Y-102698520D01*
X155433213Y-102698519D01*
X155433216Y-102698519D01*
X155603483Y-102638940D01*
X155756223Y-102542967D01*
X155883777Y-102415413D01*
X155931165Y-102339996D01*
X158302035Y-102339996D01*
X158302035Y-102340003D01*
X158322230Y-102519249D01*
X158322231Y-102519254D01*
X158381811Y-102689523D01*
X158469611Y-102829255D01*
X158477784Y-102842262D01*
X158605338Y-102969816D01*
X158658438Y-103003181D01*
X158741443Y-103055337D01*
X158758078Y-103065789D01*
X158849383Y-103097738D01*
X158928345Y-103125368D01*
X158928350Y-103125369D01*
X159107596Y-103145565D01*
X159107600Y-103145565D01*
X159107604Y-103145565D01*
X159286849Y-103125369D01*
X159286852Y-103125368D01*
X159286855Y-103125368D01*
X159457122Y-103065789D01*
X159609862Y-102969816D01*
X159737416Y-102842262D01*
X159833389Y-102689522D01*
X159892968Y-102519255D01*
X159892969Y-102519249D01*
X159913165Y-102340003D01*
X159913165Y-102339996D01*
X159892969Y-102160750D01*
X159892968Y-102160745D01*
X159850456Y-102039254D01*
X159833389Y-101990478D01*
X159826113Y-101978899D01*
X159791751Y-101924211D01*
X159737416Y-101837738D01*
X159609862Y-101710184D01*
X159582864Y-101693220D01*
X159457123Y-101614211D01*
X159286854Y-101554631D01*
X159286849Y-101554630D01*
X159107604Y-101534435D01*
X159107596Y-101534435D01*
X158928350Y-101554630D01*
X158928345Y-101554631D01*
X158758076Y-101614211D01*
X158605337Y-101710184D01*
X158477784Y-101837737D01*
X158381811Y-101990476D01*
X158322231Y-102160745D01*
X158322230Y-102160750D01*
X158302035Y-102339996D01*
X155931165Y-102339996D01*
X155979750Y-102262673D01*
X156039329Y-102092406D01*
X156040673Y-102080478D01*
X156059526Y-101913154D01*
X156059526Y-101913147D01*
X156039330Y-101733901D01*
X156039329Y-101733896D01*
X156000933Y-101624167D01*
X155979750Y-101563629D01*
X155883777Y-101410889D01*
X155756223Y-101283335D01*
X155727629Y-101265368D01*
X155603484Y-101187362D01*
X155433215Y-101127782D01*
X155433210Y-101127781D01*
X155253965Y-101107586D01*
X155253957Y-101107586D01*
X155074711Y-101127781D01*
X155074706Y-101127782D01*
X154904437Y-101187362D01*
X154751698Y-101283335D01*
X154624145Y-101410888D01*
X154528172Y-101563627D01*
X154468592Y-101733896D01*
X154468591Y-101733901D01*
X154448396Y-101913147D01*
X153444494Y-101913147D01*
X153499152Y-101826159D01*
X153558731Y-101655892D01*
X153562796Y-101619815D01*
X153578928Y-101476640D01*
X153578928Y-101476633D01*
X153558732Y-101297387D01*
X153558731Y-101297382D01*
X153547529Y-101265368D01*
X153499152Y-101127115D01*
X153403179Y-100974375D01*
X153275625Y-100846821D01*
X153248560Y-100829815D01*
X153122886Y-100750848D01*
X152952617Y-100691268D01*
X152952612Y-100691267D01*
X152773367Y-100671072D01*
X152766399Y-100671072D01*
X152766399Y-100669361D01*
X152706242Y-100658813D01*
X152654870Y-100611455D01*
X152637258Y-100543842D01*
X152658995Y-100477440D01*
X152695226Y-100442664D01*
X152768119Y-100396863D01*
X152895673Y-100269309D01*
X152991646Y-100116569D01*
X153051225Y-99946302D01*
X153052456Y-99935382D01*
X153061917Y-99851405D01*
X153088983Y-99786991D01*
X153119162Y-99760295D01*
X153255429Y-99674674D01*
X153382983Y-99547120D01*
X153478956Y-99394380D01*
X153538535Y-99224113D01*
X153538534Y-99224113D01*
X153539961Y-99220038D01*
X153580683Y-99163261D01*
X153591024Y-99156002D01*
X153712238Y-99079839D01*
X153839792Y-98952285D01*
X153935765Y-98799545D01*
X153935765Y-98799542D01*
X153936522Y-98798339D01*
X153988857Y-98752048D01*
X154000556Y-98747271D01*
X154138442Y-98699023D01*
X154291182Y-98603050D01*
X154418736Y-98475496D01*
X154514709Y-98322756D01*
X154535378Y-98263684D01*
X154576098Y-98206908D01*
X154611460Y-98187597D01*
X154759522Y-98135789D01*
X154912262Y-98039816D01*
X154991806Y-97960272D01*
X155053129Y-97926787D01*
X155122821Y-97931771D01*
X155145457Y-97942958D01*
X155161661Y-97953140D01*
X155285880Y-98031193D01*
X155456150Y-98090773D01*
X155456155Y-98090774D01*
X155635401Y-98110970D01*
X155635405Y-98110970D01*
X155635409Y-98110970D01*
X155814654Y-98090774D01*
X155814657Y-98090773D01*
X155814660Y-98090773D01*
X155984927Y-98031194D01*
X156137667Y-97935221D01*
X156265221Y-97807667D01*
X156361194Y-97654927D01*
X156396771Y-97553255D01*
X157813796Y-97553255D01*
X157813796Y-97553262D01*
X157833991Y-97732508D01*
X157833992Y-97732513D01*
X157893572Y-97902782D01*
X157974259Y-98031193D01*
X157989545Y-98055521D01*
X158117099Y-98183075D01*
X158183474Y-98224781D01*
X158266843Y-98277166D01*
X158269839Y-98279048D01*
X158288985Y-98285747D01*
X158298729Y-98289157D01*
X158355506Y-98329879D01*
X158374817Y-98365245D01*
X158425036Y-98508764D01*
X158484280Y-98603050D01*
X158521010Y-98661505D01*
X158648564Y-98789059D01*
X158690610Y-98815478D01*
X158792706Y-98879630D01*
X158801304Y-98885032D01*
X158882443Y-98913423D01*
X158939219Y-98954144D01*
X158958531Y-98989511D01*
X158988992Y-99076565D01*
X159043137Y-99162736D01*
X159084966Y-99229306D01*
X159212520Y-99356860D01*
X159272231Y-99394379D01*
X159334418Y-99433454D01*
X159365260Y-99452833D01*
X159412955Y-99469522D01*
X159467806Y-99488715D01*
X159524582Y-99529437D01*
X159543892Y-99564799D01*
X159548008Y-99576562D01*
X159637810Y-99719480D01*
X159643984Y-99729306D01*
X159771538Y-99856860D01*
X159813201Y-99883038D01*
X159859492Y-99935372D01*
X159870449Y-100001914D01*
X159861171Y-100084265D01*
X159861171Y-100084273D01*
X159881366Y-100263519D01*
X159881367Y-100263524D01*
X159940947Y-100433793D01*
X160008177Y-100540788D01*
X160036920Y-100586532D01*
X160164474Y-100714086D01*
X160247446Y-100766221D01*
X160292348Y-100794435D01*
X160317214Y-100810059D01*
X160422268Y-100846819D01*
X160487481Y-100869638D01*
X160487486Y-100869639D01*
X160666732Y-100889835D01*
X160666736Y-100889835D01*
X160666740Y-100889835D01*
X160845985Y-100869639D01*
X160845988Y-100869638D01*
X160845991Y-100869638D01*
X161016258Y-100810059D01*
X161168998Y-100714086D01*
X161296552Y-100586532D01*
X161298982Y-100582663D01*
X161351313Y-100536369D01*
X161390098Y-100525409D01*
X161505449Y-100512413D01*
X161505452Y-100512412D01*
X161505455Y-100512412D01*
X161675722Y-100452833D01*
X161828462Y-100356860D01*
X161956016Y-100229306D01*
X161974305Y-100200198D01*
X162026638Y-100153909D01*
X162095692Y-100143260D01*
X162159540Y-100171635D01*
X162197912Y-100230025D01*
X162202518Y-100252289D01*
X162212230Y-100338492D01*
X162212231Y-100338497D01*
X162271811Y-100508766D01*
X162367784Y-100661505D01*
X162481636Y-100775357D01*
X162515121Y-100836680D01*
X162517175Y-100876921D01*
X162504435Y-100989996D01*
X162504435Y-100990003D01*
X162524630Y-101169249D01*
X162524631Y-101169254D01*
X162584211Y-101339523D01*
X162641232Y-101430270D01*
X162680184Y-101492262D01*
X162807738Y-101619816D01*
X162896414Y-101675535D01*
X162951557Y-101710184D01*
X162960478Y-101715789D01*
X163103370Y-101765789D01*
X163130745Y-101775368D01*
X163130750Y-101775369D01*
X163309996Y-101795565D01*
X163310000Y-101795565D01*
X163310004Y-101795565D01*
X163489249Y-101775369D01*
X163489252Y-101775368D01*
X163489255Y-101775368D01*
X163659522Y-101715789D01*
X163812262Y-101619816D01*
X163939816Y-101492262D01*
X163986869Y-101417378D01*
X179246606Y-101417378D01*
X179276165Y-101604008D01*
X179276166Y-101604013D01*
X179334556Y-101783721D01*
X179334557Y-101783724D01*
X179334558Y-101783725D01*
X179420345Y-101952093D01*
X179531415Y-102104968D01*
X179665032Y-102238585D01*
X179817907Y-102349655D01*
X179986275Y-102435442D01*
X179986277Y-102435442D01*
X179986278Y-102435443D01*
X180165986Y-102493833D01*
X180165988Y-102493833D01*
X180165990Y-102493834D01*
X180192652Y-102498056D01*
X180352621Y-102523393D01*
X180352627Y-102523393D01*
X185837378Y-102523393D01*
X185970685Y-102502279D01*
X186024010Y-102493834D01*
X186203725Y-102435442D01*
X186372093Y-102349655D01*
X186524968Y-102238585D01*
X186658585Y-102104968D01*
X186769655Y-101952093D01*
X186855442Y-101783725D01*
X186913834Y-101604010D01*
X186922279Y-101550685D01*
X186943393Y-101417378D01*
X186943393Y-92502621D01*
X186913834Y-92315991D01*
X186913833Y-92315986D01*
X186855443Y-92136278D01*
X186855442Y-92136277D01*
X186855442Y-92136275D01*
X186769655Y-91967907D01*
X186658585Y-91815032D01*
X186524968Y-91681415D01*
X186372093Y-91570345D01*
X186203725Y-91484558D01*
X186203724Y-91484557D01*
X186203721Y-91484556D01*
X186024013Y-91426166D01*
X186024008Y-91426165D01*
X185837378Y-91396607D01*
X185837373Y-91396607D01*
X185794874Y-91396607D01*
X185793884Y-91396510D01*
X185742679Y-91396607D01*
X185691584Y-91396607D01*
X185690592Y-91396705D01*
X180447092Y-91406607D01*
X180352622Y-91406607D01*
X180165991Y-91436165D01*
X180165986Y-91436166D01*
X179986278Y-91494556D01*
X179817905Y-91580346D01*
X179817902Y-91580348D01*
X179665029Y-91691417D01*
X179531417Y-91825029D01*
X179420348Y-91977902D01*
X179420346Y-91977905D01*
X179334556Y-92146278D01*
X179276166Y-92325986D01*
X179276165Y-92325991D01*
X179246607Y-92512621D01*
X179246607Y-101417378D01*
X179246606Y-101417378D01*
X163986869Y-101417378D01*
X164035789Y-101339522D01*
X164068699Y-101245471D01*
X164109421Y-101188695D01*
X164174374Y-101162947D01*
X164242935Y-101176403D01*
X164251714Y-101181432D01*
X164290475Y-101205788D01*
X164460745Y-101265368D01*
X164460750Y-101265369D01*
X164639996Y-101285565D01*
X164640000Y-101285565D01*
X164640004Y-101285565D01*
X164819249Y-101265369D01*
X164819252Y-101265368D01*
X164819255Y-101265368D01*
X164989522Y-101205789D01*
X165142262Y-101109816D01*
X165269816Y-100982262D01*
X165365789Y-100829522D01*
X165425368Y-100659255D01*
X165428416Y-100632205D01*
X165445565Y-100480003D01*
X165445565Y-100479996D01*
X165425369Y-100300750D01*
X165425368Y-100300745D01*
X165409232Y-100254630D01*
X165390115Y-100199996D01*
X174994435Y-100199996D01*
X174994435Y-100200003D01*
X175014630Y-100379249D01*
X175014631Y-100379254D01*
X175074211Y-100549523D01*
X175149511Y-100669361D01*
X175170184Y-100702262D01*
X175297738Y-100829816D01*
X175450478Y-100925789D01*
X175577352Y-100970184D01*
X175620745Y-100985368D01*
X175620750Y-100985369D01*
X175799996Y-101005565D01*
X175800000Y-101005565D01*
X175800004Y-101005565D01*
X175979249Y-100985369D01*
X175979252Y-100985368D01*
X175979255Y-100985368D01*
X176149522Y-100925789D01*
X176302262Y-100829816D01*
X176429816Y-100702262D01*
X176525789Y-100549522D01*
X176585368Y-100379255D01*
X176587517Y-100360184D01*
X176605565Y-100200003D01*
X176605565Y-100199996D01*
X176585369Y-100020750D01*
X176585368Y-100020745D01*
X176574048Y-99988394D01*
X176525789Y-99850478D01*
X176525604Y-99850184D01*
X176451582Y-99732379D01*
X176429816Y-99697738D01*
X176302262Y-99570184D01*
X176213677Y-99514522D01*
X176149523Y-99474211D01*
X175979254Y-99414631D01*
X175979249Y-99414630D01*
X175800004Y-99394435D01*
X175799996Y-99394435D01*
X175620750Y-99414630D01*
X175620745Y-99414631D01*
X175450476Y-99474211D01*
X175297737Y-99570184D01*
X175170184Y-99697737D01*
X175074211Y-99850476D01*
X175014631Y-100020745D01*
X175014630Y-100020750D01*
X174994435Y-100199996D01*
X165390115Y-100199996D01*
X165365789Y-100130478D01*
X165359531Y-100120519D01*
X165280194Y-99994255D01*
X165269816Y-99977738D01*
X165142262Y-99850184D01*
X164989523Y-99754211D01*
X164819254Y-99694631D01*
X164819249Y-99694630D01*
X164640004Y-99674435D01*
X164639996Y-99674435D01*
X164460750Y-99694630D01*
X164460745Y-99694631D01*
X164290476Y-99754211D01*
X164137737Y-99850184D01*
X164010185Y-99977736D01*
X164000726Y-99992790D01*
X163948389Y-100039079D01*
X163879336Y-100049725D01*
X163815488Y-100021348D01*
X163778692Y-99967768D01*
X163772603Y-99950368D01*
X163723389Y-99809721D01*
X163627416Y-99656981D01*
X163499862Y-99529427D01*
X163459868Y-99504297D01*
X163347123Y-99433454D01*
X163176854Y-99373874D01*
X163176849Y-99373873D01*
X162997604Y-99353678D01*
X162997596Y-99353678D01*
X162818350Y-99373873D01*
X162818345Y-99373874D01*
X162648076Y-99433454D01*
X162495337Y-99529427D01*
X162367784Y-99656980D01*
X162367783Y-99656982D01*
X162349493Y-99686089D01*
X162297157Y-99732379D01*
X162228103Y-99743025D01*
X162164256Y-99714648D01*
X162125885Y-99656257D01*
X162121281Y-99633996D01*
X162111569Y-99547794D01*
X162111568Y-99547789D01*
X162090897Y-99488715D01*
X162051989Y-99377522D01*
X162050331Y-99374884D01*
X162009857Y-99310470D01*
X161956016Y-99224782D01*
X161828462Y-99097228D01*
X161801805Y-99080478D01*
X161675723Y-99001255D01*
X161505454Y-98941675D01*
X161505449Y-98941674D01*
X161326204Y-98921479D01*
X161326196Y-98921479D01*
X161146946Y-98941675D01*
X161140156Y-98943225D01*
X161139553Y-98940586D01*
X161082055Y-98943503D01*
X161021439Y-98908754D01*
X161003683Y-98883173D01*
X161003294Y-98883418D01*
X160947694Y-98794932D01*
X160903616Y-98724782D01*
X160776062Y-98597228D01*
X160700142Y-98549524D01*
X160623322Y-98501254D01*
X160623318Y-98501253D01*
X160520773Y-98465370D01*
X160463997Y-98424648D01*
X160444686Y-98389282D01*
X160441309Y-98379631D01*
X160440571Y-98377522D01*
X160344598Y-98224782D01*
X160319813Y-98199997D01*
X171450552Y-98199997D01*
X171450552Y-98200004D01*
X171470747Y-98379250D01*
X171470748Y-98379255D01*
X171530328Y-98549524D01*
X171563961Y-98603050D01*
X171626301Y-98702263D01*
X171753855Y-98829817D01*
X171906595Y-98925790D01*
X172027936Y-98968249D01*
X172076862Y-98985369D01*
X172076867Y-98985370D01*
X172256113Y-99005566D01*
X172256117Y-99005566D01*
X172256121Y-99005566D01*
X172435366Y-98985370D01*
X172435369Y-98985369D01*
X172435372Y-98985369D01*
X172605639Y-98925790D01*
X172758379Y-98829817D01*
X172885933Y-98702263D01*
X172981906Y-98549523D01*
X173041485Y-98379256D01*
X173042721Y-98368279D01*
X173069785Y-98303866D01*
X173099967Y-98277168D01*
X173215115Y-98204817D01*
X173342669Y-98077263D01*
X173438642Y-97924523D01*
X173498221Y-97754256D01*
X173500671Y-97732513D01*
X173518418Y-97575004D01*
X173518418Y-97574997D01*
X173498222Y-97395751D01*
X173498221Y-97395746D01*
X173446328Y-97247445D01*
X173438642Y-97225479D01*
X173431826Y-97214632D01*
X173399435Y-97163081D01*
X173342669Y-97072739D01*
X173215115Y-96945185D01*
X173180513Y-96923443D01*
X173062376Y-96849212D01*
X172892107Y-96789632D01*
X172892102Y-96789631D01*
X172712857Y-96769436D01*
X172712849Y-96769436D01*
X172533603Y-96789631D01*
X172533598Y-96789632D01*
X172363329Y-96849212D01*
X172210590Y-96945185D01*
X172083037Y-97072738D01*
X171987063Y-97225479D01*
X171927485Y-97395746D01*
X171926248Y-97406726D01*
X171899180Y-97471140D01*
X171869001Y-97497833D01*
X171753856Y-97570183D01*
X171626301Y-97697738D01*
X171530328Y-97850477D01*
X171470748Y-98020746D01*
X171470747Y-98020751D01*
X171450552Y-98199997D01*
X160319813Y-98199997D01*
X160217044Y-98097228D01*
X160150668Y-98055521D01*
X160064303Y-98001254D01*
X159983162Y-97972861D01*
X159926387Y-97932139D01*
X159907076Y-97896774D01*
X159876614Y-97809719D01*
X159806251Y-97697738D01*
X159780642Y-97656981D01*
X159653088Y-97529427D01*
X159500345Y-97433451D01*
X159471456Y-97423343D01*
X159414680Y-97382621D01*
X159395369Y-97347256D01*
X159386623Y-97322262D01*
X159345150Y-97203737D01*
X159249177Y-97050997D01*
X159121623Y-96923443D01*
X158968880Y-96827467D01*
X158906032Y-96805476D01*
X158849256Y-96764754D01*
X158823509Y-96699801D01*
X158836966Y-96631240D01*
X158885353Y-96580837D01*
X158933102Y-96565215D01*
X159012596Y-96556258D01*
X159109249Y-96545369D01*
X159109252Y-96545368D01*
X159109255Y-96545368D01*
X159279522Y-96485789D01*
X159432262Y-96389816D01*
X159559816Y-96262262D01*
X159655789Y-96109522D01*
X159715368Y-95939255D01*
X159731558Y-95795565D01*
X159735565Y-95760003D01*
X159735565Y-95759996D01*
X159715369Y-95580750D01*
X159715368Y-95580745D01*
X159711502Y-95569698D01*
X159655789Y-95410478D01*
X159559816Y-95257738D01*
X159432262Y-95130184D01*
X159279523Y-95034211D01*
X159109254Y-94974631D01*
X159109249Y-94974630D01*
X158930004Y-94954435D01*
X158929996Y-94954435D01*
X158750750Y-94974630D01*
X158750745Y-94974631D01*
X158580476Y-95034211D01*
X158427737Y-95130184D01*
X158300184Y-95257737D01*
X158204211Y-95410476D01*
X158144631Y-95580745D01*
X158144630Y-95580750D01*
X158124435Y-95759996D01*
X158124435Y-95760003D01*
X158144630Y-95939249D01*
X158144631Y-95939254D01*
X158204211Y-96109523D01*
X158253667Y-96188231D01*
X158300184Y-96262262D01*
X158427738Y-96389816D01*
X158554836Y-96469677D01*
X158580478Y-96485789D01*
X158643327Y-96507781D01*
X158700103Y-96548503D01*
X158725851Y-96613456D01*
X158712395Y-96682017D01*
X158664008Y-96732420D01*
X158616257Y-96748043D01*
X158440110Y-96767889D01*
X158440106Y-96767890D01*
X158269837Y-96827470D01*
X158117098Y-96923443D01*
X157989545Y-97050996D01*
X157893572Y-97203735D01*
X157833992Y-97374004D01*
X157833991Y-97374009D01*
X157813796Y-97553255D01*
X156396771Y-97553255D01*
X156420773Y-97484660D01*
X156420774Y-97484654D01*
X156440970Y-97305408D01*
X156440970Y-97305401D01*
X156420774Y-97126155D01*
X156420773Y-97126150D01*
X156418464Y-97119551D01*
X156361194Y-96955883D01*
X156330942Y-96907738D01*
X156292374Y-96846357D01*
X156265221Y-96803143D01*
X156137667Y-96675589D01*
X156082221Y-96640750D01*
X155984928Y-96579616D01*
X155814659Y-96520036D01*
X155814654Y-96520035D01*
X155635409Y-96499840D01*
X155635401Y-96499840D01*
X155456155Y-96520035D01*
X155456150Y-96520036D01*
X155285881Y-96579616D01*
X155133144Y-96675588D01*
X155053599Y-96755133D01*
X154992275Y-96788617D01*
X154922584Y-96783633D01*
X154899946Y-96772445D01*
X154759523Y-96684211D01*
X154589254Y-96624631D01*
X154589249Y-96624630D01*
X154410004Y-96604435D01*
X154409996Y-96604435D01*
X154230750Y-96624630D01*
X154230745Y-96624631D01*
X154060476Y-96684211D01*
X153907737Y-96780184D01*
X153780184Y-96907737D01*
X153684212Y-97060475D01*
X153684210Y-97060479D01*
X153663540Y-97119551D01*
X153622818Y-97176327D01*
X153587454Y-97195638D01*
X153439396Y-97247445D01*
X153286657Y-97343418D01*
X153159104Y-97470971D01*
X153062374Y-97624917D01*
X153010039Y-97671208D01*
X152998335Y-97675986D01*
X152860456Y-97724232D01*
X152707713Y-97820207D01*
X152580160Y-97947760D01*
X152484187Y-98100500D01*
X152423182Y-98274843D01*
X152382460Y-98331619D01*
X152372113Y-98338881D01*
X152250906Y-98415040D01*
X152123351Y-98542595D01*
X152027377Y-98695336D01*
X151967797Y-98865608D01*
X151957105Y-98960502D01*
X151930038Y-99024915D01*
X151899858Y-99051610D01*
X151763596Y-99137229D01*
X151636041Y-99264784D01*
X151540068Y-99417523D01*
X151480488Y-99587792D01*
X151480487Y-99587797D01*
X151460292Y-99767043D01*
X151460292Y-99767050D01*
X151480487Y-99946296D01*
X151480488Y-99946301D01*
X151540068Y-100116570D01*
X151602148Y-100215369D01*
X151636041Y-100269309D01*
X151763595Y-100396863D01*
X151822367Y-100433792D01*
X151895906Y-100480000D01*
X151916335Y-100492836D01*
X152028531Y-100532095D01*
X152086602Y-100552415D01*
X152086607Y-100552416D01*
X152265853Y-100572612D01*
X152272821Y-100572612D01*
X152272821Y-100574327D01*
X152332954Y-100584858D01*
X152384335Y-100632205D01*
X152401962Y-100699815D01*
X152380238Y-100766221D01*
X152343993Y-100801019D01*
X152271102Y-100846819D01*
X152143547Y-100974374D01*
X152047574Y-101127113D01*
X151987994Y-101297382D01*
X151987993Y-101297387D01*
X151967798Y-101476633D01*
X151967798Y-101476640D01*
X151987993Y-101655886D01*
X151987996Y-101655897D01*
X152009726Y-101718000D01*
X152013287Y-101787779D01*
X151978557Y-101848405D01*
X151916564Y-101880632D01*
X151851730Y-101875995D01*
X151819257Y-101864632D01*
X151819249Y-101864630D01*
X151640004Y-101844435D01*
X151639996Y-101844435D01*
X151498782Y-101860345D01*
X151429960Y-101848290D01*
X151378581Y-101800941D01*
X151360957Y-101733330D01*
X151361679Y-101723241D01*
X151375565Y-101600002D01*
X151375565Y-101599996D01*
X151355369Y-101420750D01*
X151355368Y-101420745D01*
X151333321Y-101357738D01*
X151295789Y-101250478D01*
X151283037Y-101230184D01*
X151252404Y-101181432D01*
X151199816Y-101097738D01*
X151072262Y-100970184D01*
X151001608Y-100925789D01*
X150919523Y-100874211D01*
X150749254Y-100814631D01*
X150749249Y-100814630D01*
X150570004Y-100794435D01*
X150569996Y-100794435D01*
X150390750Y-100814630D01*
X150390745Y-100814631D01*
X150220476Y-100874211D01*
X150067737Y-100970184D01*
X149940184Y-101097737D01*
X149844211Y-101250476D01*
X149784631Y-101420745D01*
X149784630Y-101420750D01*
X149764435Y-101599996D01*
X147809123Y-101599996D01*
X147826756Y-101560318D01*
X147833602Y-101552889D01*
X147844230Y-101542262D01*
X147940203Y-101389522D01*
X147999782Y-101219255D01*
X147999783Y-101219249D01*
X148019979Y-101040003D01*
X148019979Y-101039996D01*
X147999783Y-100860750D01*
X147999782Y-100860745D01*
X147969903Y-100775357D01*
X147940203Y-100690478D01*
X147928009Y-100671072D01*
X147896218Y-100620476D01*
X147844230Y-100537738D01*
X147716676Y-100410184D01*
X147688125Y-100392244D01*
X147563937Y-100314211D01*
X147393668Y-100254631D01*
X147393663Y-100254630D01*
X147214418Y-100234435D01*
X147214410Y-100234435D01*
X147035164Y-100254630D01*
X147035159Y-100254631D01*
X146864890Y-100314211D01*
X146712151Y-100410184D01*
X146584598Y-100537737D01*
X146488625Y-100690476D01*
X146429045Y-100860745D01*
X146429044Y-100860750D01*
X146408849Y-101039996D01*
X145237679Y-101039996D01*
X145245565Y-100970003D01*
X145245565Y-100969996D01*
X145225369Y-100790750D01*
X145225368Y-100790745D01*
X145224778Y-100789059D01*
X145165789Y-100620478D01*
X145160119Y-100611455D01*
X145097887Y-100512413D01*
X145069816Y-100467738D01*
X144942262Y-100340184D01*
X144939569Y-100338492D01*
X144789523Y-100244211D01*
X144619254Y-100184631D01*
X144619249Y-100184630D01*
X144440004Y-100164435D01*
X144439996Y-100164435D01*
X144260750Y-100184630D01*
X144260745Y-100184631D01*
X144090476Y-100244211D01*
X143937737Y-100340184D01*
X143810184Y-100467737D01*
X143714211Y-100620476D01*
X143654631Y-100790745D01*
X143654630Y-100790750D01*
X143634435Y-100969996D01*
X116600500Y-100969996D01*
X116600500Y-98903514D01*
X116620185Y-98836475D01*
X116672989Y-98790720D01*
X116742147Y-98780776D01*
X116805703Y-98809801D01*
X116816953Y-98820880D01*
X117016654Y-99044346D01*
X117271292Y-99271904D01*
X117271295Y-99271906D01*
X117271296Y-99271907D01*
X117549798Y-99469516D01*
X117549803Y-99469519D01*
X117549806Y-99469520D01*
X117549808Y-99469522D01*
X117848698Y-99634712D01*
X118164204Y-99765399D01*
X118492359Y-99859939D01*
X118829036Y-99917143D01*
X119170000Y-99936291D01*
X119510964Y-99917143D01*
X119847641Y-99859939D01*
X119876565Y-99851606D01*
X122230501Y-99851606D01*
X122230501Y-99988394D01*
X122264846Y-100116569D01*
X122265904Y-100120519D01*
X122265907Y-100120526D01*
X122334292Y-100238974D01*
X122334296Y-100238979D01*
X122334297Y-100238981D01*
X122431020Y-100335704D01*
X122431022Y-100335705D01*
X122431026Y-100335708D01*
X122536951Y-100396863D01*
X122549481Y-100404097D01*
X122681607Y-100439500D01*
X122681609Y-100439500D01*
X122818393Y-100439500D01*
X122818395Y-100439500D01*
X122950521Y-100404097D01*
X123068982Y-100335704D01*
X123165705Y-100238981D01*
X123219049Y-100146584D01*
X123269614Y-100098371D01*
X123338220Y-100085147D01*
X123392407Y-100103592D01*
X123435192Y-100130476D01*
X123475478Y-100155789D01*
X123645745Y-100215368D01*
X123645750Y-100215369D01*
X123824996Y-100235565D01*
X123825000Y-100235565D01*
X123825004Y-100235565D01*
X124004249Y-100215369D01*
X124004252Y-100215368D01*
X124004255Y-100215368D01*
X124174522Y-100155789D01*
X124327262Y-100059816D01*
X124454816Y-99932262D01*
X124550789Y-99779522D01*
X124610368Y-99609255D01*
X124611296Y-99601025D01*
X124622036Y-99505698D01*
X124649102Y-99441284D01*
X124706697Y-99401729D01*
X124776534Y-99399591D01*
X124836440Y-99435548D01*
X124862297Y-99478625D01*
X124874857Y-99514520D01*
X124951032Y-99635750D01*
X124970832Y-99667262D01*
X125098386Y-99794816D01*
X125177066Y-99844254D01*
X125251122Y-99890787D01*
X125251126Y-99890789D01*
X125381163Y-99936291D01*
X125421393Y-99950368D01*
X125421398Y-99950369D01*
X125600644Y-99970565D01*
X125600648Y-99970565D01*
X125600652Y-99970565D01*
X125779897Y-99950369D01*
X125779900Y-99950368D01*
X125779903Y-99950368D01*
X125950170Y-99890789D01*
X125963975Y-99882115D01*
X125966146Y-99880751D01*
X126033382Y-99861749D01*
X126100218Y-99882115D01*
X126145433Y-99935382D01*
X126149161Y-99944788D01*
X126173561Y-100014518D01*
X126229530Y-100103592D01*
X126269536Y-100167261D01*
X126397090Y-100294815D01*
X126466611Y-100338498D01*
X126531473Y-100379254D01*
X126549830Y-100390788D01*
X126672731Y-100433793D01*
X126720097Y-100450367D01*
X126720102Y-100450368D01*
X126899348Y-100470564D01*
X126899352Y-100470564D01*
X126899356Y-100470564D01*
X127078601Y-100450368D01*
X127078604Y-100450367D01*
X127078607Y-100450367D01*
X127248874Y-100390788D01*
X127401614Y-100294815D01*
X127529168Y-100167261D01*
X127588722Y-100072480D01*
X127641057Y-100026190D01*
X127710110Y-100015542D01*
X127773959Y-100043917D01*
X127810757Y-100097498D01*
X127834209Y-100164519D01*
X127875369Y-100230025D01*
X127930184Y-100317262D01*
X128057738Y-100444816D01*
X128070497Y-100452833D01*
X128205620Y-100537737D01*
X128210478Y-100540789D01*
X128301423Y-100572612D01*
X128380745Y-100600368D01*
X128380750Y-100600369D01*
X128559996Y-100620565D01*
X128560000Y-100620565D01*
X128560004Y-100620565D01*
X128739249Y-100600369D01*
X128739252Y-100600368D01*
X128739255Y-100600368D01*
X128909522Y-100540789D01*
X129062262Y-100444816D01*
X129189816Y-100317262D01*
X129285789Y-100164522D01*
X129345368Y-99994255D01*
X129345533Y-99992790D01*
X129365565Y-99815003D01*
X129365565Y-99814996D01*
X129345369Y-99635750D01*
X129345368Y-99635745D01*
X129328590Y-99587797D01*
X129285789Y-99465478D01*
X129189816Y-99312738D01*
X129062262Y-99185184D01*
X129033760Y-99167275D01*
X128909523Y-99089211D01*
X128739254Y-99029631D01*
X128739249Y-99029630D01*
X128560004Y-99009435D01*
X128559996Y-99009435D01*
X128380750Y-99029630D01*
X128380745Y-99029631D01*
X128210476Y-99089211D01*
X128057737Y-99185184D01*
X127930184Y-99312737D01*
X127930182Y-99312740D01*
X127870628Y-99407518D01*
X127818293Y-99453809D01*
X127749239Y-99464456D01*
X127685391Y-99436080D01*
X127648593Y-99382499D01*
X127625141Y-99315477D01*
X127567733Y-99224113D01*
X127529168Y-99162737D01*
X127401614Y-99035183D01*
X127392778Y-99029631D01*
X127248875Y-98939210D01*
X127078606Y-98879630D01*
X127078601Y-98879629D01*
X126899356Y-98859434D01*
X126899348Y-98859434D01*
X126720102Y-98879629D01*
X126720097Y-98879630D01*
X126549828Y-98939210D01*
X126533848Y-98949251D01*
X126466610Y-98968249D01*
X126399776Y-98947879D01*
X126354563Y-98894610D01*
X126350837Y-98885209D01*
X126326437Y-98815478D01*
X126312855Y-98793863D01*
X126230464Y-98662738D01*
X126102910Y-98535184D01*
X126065617Y-98511751D01*
X125950171Y-98439211D01*
X125779902Y-98379631D01*
X125779897Y-98379630D01*
X125600652Y-98359435D01*
X125600644Y-98359435D01*
X125421398Y-98379630D01*
X125421393Y-98379631D01*
X125251124Y-98439211D01*
X125098385Y-98535184D01*
X124970832Y-98662737D01*
X124874859Y-98815476D01*
X124815279Y-98985745D01*
X124815278Y-98985749D01*
X124803611Y-99089302D01*
X124776544Y-99153716D01*
X124718949Y-99193271D01*
X124649112Y-99195408D01*
X124589206Y-99159450D01*
X124563349Y-99116372D01*
X124550789Y-99080478D01*
X124522328Y-99035183D01*
X124454816Y-98927738D01*
X124327262Y-98800184D01*
X124324326Y-98798339D01*
X124174523Y-98704211D01*
X124004254Y-98644631D01*
X124004249Y-98644630D01*
X123825004Y-98624435D01*
X123824996Y-98624435D01*
X123645750Y-98644630D01*
X123645745Y-98644631D01*
X123475476Y-98704211D01*
X123322737Y-98800184D01*
X123195184Y-98927737D01*
X123099211Y-99080476D01*
X123039631Y-99250745D01*
X123039630Y-99250749D01*
X123032902Y-99310470D01*
X123005835Y-99374884D01*
X122948241Y-99414439D01*
X122878404Y-99416576D01*
X122877589Y-99416361D01*
X122871136Y-99414632D01*
X122818395Y-99400500D01*
X122681607Y-99400500D01*
X122549481Y-99435903D01*
X122549474Y-99435906D01*
X122431026Y-99504291D01*
X122431018Y-99504297D01*
X122334298Y-99601017D01*
X122334292Y-99601025D01*
X122265907Y-99719473D01*
X122265904Y-99719480D01*
X122230501Y-99851606D01*
X119876565Y-99851606D01*
X120175796Y-99765399D01*
X120491302Y-99634712D01*
X120790192Y-99469522D01*
X120790197Y-99469518D01*
X120790201Y-99469516D01*
X120919856Y-99377520D01*
X121068708Y-99271904D01*
X121323346Y-99044346D01*
X121550904Y-98789708D01*
X121726240Y-98542596D01*
X121748516Y-98511201D01*
X121748519Y-98511196D01*
X121748522Y-98511192D01*
X121913712Y-98212302D01*
X122044399Y-97896796D01*
X122138939Y-97568641D01*
X122196143Y-97231964D01*
X122215291Y-96891000D01*
X122211304Y-96819996D01*
X141934435Y-96819996D01*
X141934435Y-96820003D01*
X141954630Y-96999249D01*
X141954631Y-96999254D01*
X142014211Y-97169523D01*
X142099592Y-97305405D01*
X142110184Y-97322262D01*
X142237738Y-97449816D01*
X142390478Y-97545789D01*
X142560745Y-97605368D01*
X142560747Y-97605368D01*
X142567317Y-97607667D01*
X142566682Y-97609478D01*
X142619337Y-97638926D01*
X142635765Y-97659743D01*
X142700178Y-97762255D01*
X142700182Y-97762260D01*
X142700184Y-97762262D01*
X142827738Y-97889816D01*
X142980478Y-97985789D01*
X143150745Y-98045368D01*
X143228518Y-98054130D01*
X143292928Y-98081195D01*
X143332484Y-98138790D01*
X143337852Y-98163465D01*
X143339630Y-98179249D01*
X143399211Y-98349523D01*
X143458898Y-98444515D01*
X143477898Y-98511751D01*
X143477125Y-98524365D01*
X143475651Y-98537455D01*
X143475650Y-98537460D01*
X143475650Y-98537462D01*
X143495845Y-98716708D01*
X143495846Y-98716713D01*
X143555426Y-98886982D01*
X143617486Y-98985749D01*
X143651399Y-99039721D01*
X143778953Y-99167275D01*
X143862925Y-99220038D01*
X143911794Y-99250745D01*
X143931693Y-99263248D01*
X144073127Y-99312738D01*
X144101960Y-99322827D01*
X144101965Y-99322828D01*
X144281211Y-99343024D01*
X144281215Y-99343024D01*
X144281219Y-99343024D01*
X144460464Y-99322828D01*
X144460467Y-99322827D01*
X144460470Y-99322827D01*
X144630737Y-99263248D01*
X144783477Y-99167275D01*
X144911031Y-99039721D01*
X145007004Y-98886981D01*
X145066583Y-98716714D01*
X145067992Y-98704211D01*
X145086780Y-98537462D01*
X145086780Y-98537455D01*
X145066584Y-98358209D01*
X145066583Y-98358204D01*
X145059688Y-98338498D01*
X145007004Y-98187937D01*
X145003948Y-98183074D01*
X144947316Y-98092944D01*
X144928316Y-98025707D01*
X144929089Y-98013097D01*
X144930565Y-98000000D01*
X144927507Y-97972861D01*
X144910369Y-97820750D01*
X144910368Y-97820745D01*
X144887100Y-97754250D01*
X144850789Y-97650478D01*
X144843530Y-97638926D01*
X144803361Y-97574997D01*
X144754816Y-97497738D01*
X144627262Y-97370184D01*
X144524161Y-97305401D01*
X144474521Y-97274210D01*
X144304249Y-97214630D01*
X144226483Y-97205868D01*
X144162069Y-97178801D01*
X144122514Y-97121206D01*
X144117146Y-97096530D01*
X144115368Y-97080745D01*
X144055789Y-96910478D01*
X144054067Y-96907738D01*
X144015499Y-96846357D01*
X143959816Y-96757738D01*
X143832262Y-96630184D01*
X143704714Y-96550040D01*
X143679521Y-96534210D01*
X143581295Y-96499840D01*
X143509255Y-96474632D01*
X143509252Y-96474631D01*
X143502683Y-96472333D01*
X143503315Y-96470524D01*
X143450651Y-96441062D01*
X143434234Y-96420259D01*
X143369816Y-96317738D01*
X143242262Y-96190184D01*
X143239154Y-96188231D01*
X143089523Y-96094211D01*
X142919254Y-96034631D01*
X142919249Y-96034630D01*
X142740004Y-96014435D01*
X142739996Y-96014435D01*
X142560750Y-96034630D01*
X142560745Y-96034631D01*
X142390476Y-96094211D01*
X142237737Y-96190184D01*
X142110184Y-96317737D01*
X142014211Y-96470476D01*
X141954631Y-96640745D01*
X141954630Y-96640750D01*
X141934435Y-96819996D01*
X122211304Y-96819996D01*
X122196143Y-96550036D01*
X122138939Y-96213359D01*
X122044399Y-95885204D01*
X121913712Y-95569698D01*
X121748522Y-95270808D01*
X121748520Y-95270806D01*
X121748519Y-95270803D01*
X121748516Y-95270798D01*
X121550907Y-94992296D01*
X121550906Y-94992295D01*
X121550904Y-94992292D01*
X121323346Y-94737654D01*
X121068708Y-94510096D01*
X121068705Y-94510094D01*
X121068703Y-94510092D01*
X120790201Y-94312483D01*
X120790196Y-94312480D01*
X120551351Y-94180476D01*
X120491302Y-94147288D01*
X120308590Y-94071606D01*
X122230500Y-94071606D01*
X122230500Y-94208394D01*
X122262957Y-94329523D01*
X122265903Y-94340519D01*
X122265906Y-94340526D01*
X122334291Y-94458974D01*
X122334295Y-94458979D01*
X122334296Y-94458981D01*
X122431019Y-94555704D01*
X122431021Y-94555705D01*
X122431025Y-94555708D01*
X122549473Y-94624093D01*
X122549480Y-94624097D01*
X122681606Y-94659500D01*
X122681608Y-94659500D01*
X122818391Y-94659500D01*
X122818394Y-94659500D01*
X122877591Y-94643638D01*
X122947438Y-94645301D01*
X123005300Y-94684463D01*
X123032805Y-94748691D01*
X123032902Y-94749530D01*
X123039630Y-94809249D01*
X123039631Y-94809254D01*
X123099211Y-94979523D01*
X123133574Y-95034211D01*
X123195184Y-95132262D01*
X123322738Y-95259816D01*
X123475478Y-95355789D01*
X123631770Y-95410478D01*
X123645745Y-95415368D01*
X123645750Y-95415369D01*
X123824996Y-95435565D01*
X123825000Y-95435565D01*
X123825004Y-95435565D01*
X124004249Y-95415369D01*
X124004252Y-95415368D01*
X124004255Y-95415368D01*
X124174522Y-95355789D01*
X124327262Y-95259816D01*
X124454816Y-95132262D01*
X124550789Y-94979522D01*
X124610368Y-94809255D01*
X124610369Y-94809249D01*
X124630565Y-94630003D01*
X124630565Y-94629996D01*
X124624283Y-94574245D01*
X125911826Y-94574245D01*
X125911826Y-94574252D01*
X125932021Y-94753498D01*
X125932022Y-94753503D01*
X125991602Y-94923772D01*
X126059771Y-95032262D01*
X126087575Y-95076511D01*
X126215129Y-95204065D01*
X126281375Y-95245690D01*
X126360436Y-95295368D01*
X126367869Y-95300038D01*
X126480708Y-95339522D01*
X126538136Y-95359617D01*
X126538141Y-95359618D01*
X126717387Y-95379814D01*
X126717391Y-95379814D01*
X126717395Y-95379814D01*
X126896640Y-95359618D01*
X126896643Y-95359617D01*
X126896646Y-95359617D01*
X127066913Y-95300038D01*
X127219653Y-95204065D01*
X127347207Y-95076511D01*
X127443180Y-94923771D01*
X127502759Y-94753504D01*
X127503207Y-94749530D01*
X127522956Y-94574252D01*
X127522956Y-94574245D01*
X127517970Y-94529996D01*
X130844435Y-94529996D01*
X130844435Y-94530003D01*
X130864630Y-94709249D01*
X130864631Y-94709254D01*
X130924211Y-94879523D01*
X130995069Y-94992292D01*
X131020184Y-95032262D01*
X131147738Y-95159816D01*
X131218158Y-95204064D01*
X131284405Y-95245690D01*
X131300478Y-95255789D01*
X131470745Y-95315368D01*
X131470750Y-95315369D01*
X131649996Y-95335565D01*
X131650000Y-95335565D01*
X131650004Y-95335565D01*
X131829249Y-95315369D01*
X131829252Y-95315368D01*
X131829255Y-95315368D01*
X131999522Y-95255789D01*
X132152262Y-95159816D01*
X132279816Y-95032262D01*
X132306374Y-94989996D01*
X136149435Y-94989996D01*
X136149435Y-94990003D01*
X136169630Y-95169249D01*
X136169631Y-95169254D01*
X136229211Y-95339523D01*
X136276868Y-95415368D01*
X136325184Y-95492262D01*
X136452738Y-95619816D01*
X136605478Y-95715789D01*
X136775745Y-95775368D01*
X136775750Y-95775369D01*
X136954996Y-95795565D01*
X136955000Y-95795565D01*
X136955004Y-95795565D01*
X137134249Y-95775369D01*
X137134252Y-95775368D01*
X137134255Y-95775368D01*
X137304522Y-95715789D01*
X137457262Y-95619816D01*
X137504819Y-95572259D01*
X137566142Y-95538774D01*
X137635834Y-95543758D01*
X137680181Y-95572259D01*
X137727738Y-95619816D01*
X137880478Y-95715789D01*
X138050745Y-95775368D01*
X138050750Y-95775369D01*
X138229996Y-95795565D01*
X138230000Y-95795565D01*
X138230004Y-95795565D01*
X138409249Y-95775369D01*
X138409252Y-95775368D01*
X138409255Y-95775368D01*
X138579522Y-95715789D01*
X138732262Y-95619816D01*
X138859816Y-95492262D01*
X138955789Y-95339522D01*
X139015368Y-95169255D01*
X139019536Y-95132262D01*
X139035565Y-94990003D01*
X139035565Y-94989996D01*
X139017537Y-94829996D01*
X140024435Y-94829996D01*
X140024435Y-94830003D01*
X140044630Y-95009249D01*
X140044631Y-95009254D01*
X140104211Y-95179523D01*
X140179936Y-95300037D01*
X140200184Y-95332262D01*
X140327738Y-95459816D01*
X140480478Y-95555789D01*
X140650745Y-95615368D01*
X140650750Y-95615369D01*
X140829996Y-95635565D01*
X140830000Y-95635565D01*
X140830004Y-95635565D01*
X141009249Y-95615369D01*
X141009252Y-95615368D01*
X141009255Y-95615368D01*
X141179522Y-95555789D01*
X141332262Y-95459816D01*
X141459816Y-95332262D01*
X141555789Y-95179522D01*
X141615368Y-95009255D01*
X141616638Y-94997983D01*
X141635565Y-94830003D01*
X141635565Y-94829996D01*
X141615369Y-94650750D01*
X141615368Y-94650745D01*
X141582111Y-94555702D01*
X141566118Y-94509996D01*
X149744435Y-94509996D01*
X149744435Y-94510003D01*
X149764630Y-94689249D01*
X149764631Y-94689254D01*
X149824211Y-94859523D01*
X149909833Y-94995788D01*
X149920184Y-95012262D01*
X150047738Y-95139816D01*
X150200478Y-95235789D01*
X150300557Y-95270808D01*
X150370745Y-95295368D01*
X150370750Y-95295369D01*
X150549996Y-95315565D01*
X150550000Y-95315565D01*
X150550004Y-95315565D01*
X150729249Y-95295369D01*
X150729252Y-95295368D01*
X150729255Y-95295368D01*
X150899522Y-95235789D01*
X151052262Y-95139816D01*
X151179816Y-95012262D01*
X151275789Y-94859522D01*
X151335368Y-94689255D01*
X151338721Y-94659499D01*
X151355565Y-94510003D01*
X151355565Y-94509996D01*
X151335369Y-94330750D01*
X151335368Y-94330745D01*
X151314111Y-94269996D01*
X176574435Y-94269996D01*
X176574435Y-94270003D01*
X176594630Y-94449249D01*
X176594631Y-94449254D01*
X176654211Y-94619523D01*
X176745852Y-94765368D01*
X176750184Y-94772262D01*
X176877738Y-94899816D01*
X176959619Y-94951265D01*
X177024912Y-94992292D01*
X177030478Y-94995789D01*
X177134712Y-95032262D01*
X177200745Y-95055368D01*
X177200750Y-95055369D01*
X177379996Y-95075565D01*
X177380000Y-95075565D01*
X177380004Y-95075565D01*
X177559249Y-95055369D01*
X177559252Y-95055368D01*
X177559255Y-95055368D01*
X177729522Y-94995789D01*
X177882262Y-94899816D01*
X178009816Y-94772262D01*
X178105789Y-94619522D01*
X178165368Y-94449255D01*
X178166273Y-94441226D01*
X178185565Y-94270003D01*
X178185565Y-94269996D01*
X178165369Y-94090750D01*
X178165368Y-94090745D01*
X178143321Y-94027738D01*
X178105789Y-93920478D01*
X178093037Y-93900184D01*
X178043293Y-93821017D01*
X178009816Y-93767738D01*
X177882262Y-93640184D01*
X177850935Y-93620500D01*
X177729523Y-93544211D01*
X177559254Y-93484631D01*
X177559249Y-93484630D01*
X177380004Y-93464435D01*
X177379996Y-93464435D01*
X177200750Y-93484630D01*
X177200745Y-93484631D01*
X177030476Y-93544211D01*
X176877737Y-93640184D01*
X176750184Y-93767737D01*
X176654211Y-93920476D01*
X176594631Y-94090745D01*
X176594630Y-94090750D01*
X176574435Y-94269996D01*
X151314111Y-94269996D01*
X151298270Y-94224725D01*
X151275789Y-94160478D01*
X151255216Y-94127737D01*
X151179815Y-94007737D01*
X151052262Y-93880184D01*
X150899523Y-93784211D01*
X150729254Y-93724631D01*
X150729249Y-93724630D01*
X150550004Y-93704435D01*
X150549996Y-93704435D01*
X150370750Y-93724630D01*
X150370745Y-93724631D01*
X150200476Y-93784211D01*
X150047737Y-93880184D01*
X149920184Y-94007737D01*
X149824211Y-94160476D01*
X149764631Y-94330745D01*
X149764630Y-94330750D01*
X149744435Y-94509996D01*
X141566118Y-94509996D01*
X141555789Y-94480478D01*
X141537106Y-94450745D01*
X141467847Y-94340519D01*
X141459816Y-94327738D01*
X141332262Y-94200184D01*
X141300897Y-94180476D01*
X141179523Y-94104211D01*
X141009254Y-94044631D01*
X141009249Y-94044630D01*
X140830004Y-94024435D01*
X140829996Y-94024435D01*
X140650750Y-94044630D01*
X140650745Y-94044631D01*
X140480476Y-94104211D01*
X140327737Y-94200184D01*
X140200184Y-94327737D01*
X140104211Y-94480476D01*
X140044631Y-94650745D01*
X140044630Y-94650750D01*
X140024435Y-94829996D01*
X139017537Y-94829996D01*
X139015369Y-94810750D01*
X139015368Y-94810745D01*
X138999490Y-94765368D01*
X138955789Y-94640478D01*
X138945495Y-94624096D01*
X138873804Y-94510000D01*
X138859816Y-94487738D01*
X138732262Y-94360184D01*
X138700967Y-94340520D01*
X138579523Y-94264211D01*
X138409254Y-94204631D01*
X138409249Y-94204630D01*
X138230004Y-94184435D01*
X138229996Y-94184435D01*
X138050750Y-94204630D01*
X138050745Y-94204631D01*
X137880476Y-94264211D01*
X137727737Y-94360184D01*
X137680181Y-94407741D01*
X137618858Y-94441226D01*
X137549166Y-94436242D01*
X137504819Y-94407741D01*
X137457262Y-94360184D01*
X137304523Y-94264211D01*
X137134254Y-94204631D01*
X137134249Y-94204630D01*
X136955004Y-94184435D01*
X136954996Y-94184435D01*
X136775750Y-94204630D01*
X136775745Y-94204631D01*
X136605476Y-94264211D01*
X136452737Y-94360184D01*
X136325184Y-94487737D01*
X136229211Y-94640476D01*
X136169631Y-94810745D01*
X136169630Y-94810750D01*
X136149435Y-94989996D01*
X132306374Y-94989996D01*
X132375789Y-94879522D01*
X132385538Y-94851659D01*
X132426258Y-94794884D01*
X132491211Y-94769135D01*
X132516463Y-94769393D01*
X132659996Y-94785565D01*
X132660000Y-94785565D01*
X132660004Y-94785565D01*
X132839249Y-94765369D01*
X132839252Y-94765368D01*
X132839255Y-94765368D01*
X133009522Y-94705789D01*
X133162262Y-94609816D01*
X133289816Y-94482262D01*
X133385789Y-94329522D01*
X133445368Y-94159255D01*
X133445369Y-94159249D01*
X133465565Y-93980003D01*
X133465565Y-93979996D01*
X133445369Y-93800750D01*
X133445368Y-93800745D01*
X133441216Y-93788879D01*
X133385789Y-93630478D01*
X133379519Y-93620500D01*
X133310319Y-93510368D01*
X133289816Y-93477738D01*
X133162262Y-93350184D01*
X133152613Y-93344121D01*
X133009523Y-93254211D01*
X132839254Y-93194631D01*
X132839249Y-93194630D01*
X132660004Y-93174435D01*
X132659996Y-93174435D01*
X132480750Y-93194630D01*
X132480745Y-93194631D01*
X132310476Y-93254211D01*
X132157737Y-93350184D01*
X132030184Y-93477737D01*
X131934209Y-93630479D01*
X131924460Y-93658342D01*
X131883738Y-93715117D01*
X131818785Y-93740864D01*
X131793536Y-93740606D01*
X131650004Y-93724435D01*
X131649996Y-93724435D01*
X131470750Y-93744630D01*
X131470745Y-93744631D01*
X131300476Y-93804211D01*
X131147737Y-93900184D01*
X131020184Y-94027737D01*
X130924211Y-94180476D01*
X130864631Y-94350745D01*
X130864630Y-94350750D01*
X130844435Y-94529996D01*
X127517970Y-94529996D01*
X127502760Y-94394999D01*
X127502759Y-94394994D01*
X127459023Y-94270003D01*
X127443180Y-94224727D01*
X127430553Y-94204632D01*
X127382237Y-94127737D01*
X127347207Y-94071987D01*
X127219653Y-93944433D01*
X127170285Y-93913413D01*
X127066914Y-93848460D01*
X126896645Y-93788880D01*
X126896640Y-93788879D01*
X126717395Y-93768684D01*
X126717387Y-93768684D01*
X126538141Y-93788879D01*
X126538136Y-93788880D01*
X126367867Y-93848460D01*
X126215128Y-93944433D01*
X126087575Y-94071986D01*
X125991602Y-94224725D01*
X125932022Y-94394994D01*
X125932021Y-94394999D01*
X125911826Y-94574245D01*
X124624283Y-94574245D01*
X124610369Y-94450750D01*
X124610368Y-94450745D01*
X124571801Y-94340526D01*
X124550789Y-94280478D01*
X124454816Y-94127738D01*
X124327262Y-94000184D01*
X124295144Y-93980003D01*
X124174523Y-93904211D01*
X124004254Y-93844631D01*
X124004249Y-93844630D01*
X123825004Y-93824435D01*
X123824996Y-93824435D01*
X123645750Y-93844630D01*
X123645745Y-93844631D01*
X123475476Y-93904211D01*
X123392407Y-93956408D01*
X123325171Y-93975408D01*
X123258335Y-93955040D01*
X123219048Y-93913413D01*
X123165708Y-93821025D01*
X123165702Y-93821017D01*
X123068982Y-93724297D01*
X123068974Y-93724291D01*
X122950526Y-93655906D01*
X122950522Y-93655904D01*
X122950520Y-93655903D01*
X122818394Y-93620500D01*
X122681606Y-93620500D01*
X122549480Y-93655903D01*
X122549473Y-93655906D01*
X122431025Y-93724291D01*
X122431017Y-93724297D01*
X122334297Y-93821017D01*
X122334291Y-93821025D01*
X122265906Y-93939473D01*
X122265903Y-93939480D01*
X122230500Y-94071606D01*
X120308590Y-94071606D01*
X120175796Y-94016601D01*
X120048762Y-93980003D01*
X119847646Y-93922062D01*
X119847637Y-93922060D01*
X119510971Y-93864858D01*
X119510959Y-93864856D01*
X119170000Y-93845709D01*
X118829040Y-93864856D01*
X118829028Y-93864858D01*
X118492362Y-93922060D01*
X118492353Y-93922062D01*
X118164207Y-94016600D01*
X118164204Y-94016601D01*
X118137317Y-94027738D01*
X117848699Y-94147287D01*
X117549803Y-94312480D01*
X117549798Y-94312483D01*
X117271296Y-94510092D01*
X117016654Y-94737654D01*
X116816960Y-94961112D01*
X116757610Y-94997983D01*
X116687749Y-94996914D01*
X116629556Y-94958244D01*
X116601506Y-94894252D01*
X116600500Y-94878485D01*
X116600500Y-91808608D01*
X123294435Y-91808608D01*
X123294435Y-91808615D01*
X123314630Y-91987861D01*
X123314631Y-91987866D01*
X123374211Y-92158135D01*
X123464074Y-92301150D01*
X123470184Y-92310874D01*
X123597738Y-92438428D01*
X123750478Y-92534401D01*
X123920745Y-92593980D01*
X123920750Y-92593981D01*
X124099996Y-92614177D01*
X124100000Y-92614177D01*
X124100003Y-92614177D01*
X124220088Y-92600646D01*
X124256551Y-92596538D01*
X124325373Y-92608592D01*
X124376753Y-92655941D01*
X124391087Y-92707676D01*
X124393655Y-92707387D01*
X124414630Y-92893555D01*
X124414631Y-92893560D01*
X124474211Y-93063829D01*
X124480930Y-93074522D01*
X124570184Y-93216568D01*
X124697738Y-93344122D01*
X124850478Y-93440095D01*
X125020745Y-93499674D01*
X125020750Y-93499675D01*
X125199996Y-93519871D01*
X125200000Y-93519871D01*
X125200004Y-93519871D01*
X125379249Y-93499675D01*
X125379252Y-93499674D01*
X125379255Y-93499674D01*
X125549522Y-93440095D01*
X125702262Y-93344122D01*
X125829816Y-93216568D01*
X125925789Y-93063828D01*
X125985368Y-92893561D01*
X125986291Y-92885368D01*
X126004924Y-92719996D01*
X135524435Y-92719996D01*
X135524435Y-92720003D01*
X135544630Y-92899249D01*
X135544631Y-92899254D01*
X135604211Y-93069523D01*
X135607353Y-93074523D01*
X135700184Y-93222262D01*
X135827738Y-93349816D01*
X135980478Y-93445789D01*
X136134475Y-93499675D01*
X136150745Y-93505368D01*
X136150750Y-93505369D01*
X136329996Y-93525565D01*
X136330000Y-93525565D01*
X136330004Y-93525565D01*
X136509249Y-93505369D01*
X136509252Y-93505368D01*
X136509255Y-93505368D01*
X136679522Y-93445789D01*
X136832262Y-93349816D01*
X136959816Y-93222262D01*
X137055789Y-93069522D01*
X137115368Y-92899255D01*
X137116010Y-92893560D01*
X137135565Y-92720003D01*
X137135565Y-92719996D01*
X137115369Y-92540750D01*
X137115368Y-92540745D01*
X137080907Y-92442262D01*
X137055789Y-92370478D01*
X136959816Y-92217738D01*
X136842074Y-92099996D01*
X139164435Y-92099996D01*
X139164435Y-92100003D01*
X139184630Y-92279249D01*
X139184631Y-92279254D01*
X139244211Y-92449523D01*
X139311885Y-92557225D01*
X139340184Y-92602262D01*
X139467738Y-92729816D01*
X139558080Y-92786582D01*
X139604206Y-92815565D01*
X139620478Y-92825789D01*
X139790739Y-92885366D01*
X139790745Y-92885368D01*
X139790750Y-92885369D01*
X139969996Y-92905565D01*
X139970000Y-92905565D01*
X139970004Y-92905565D01*
X140149249Y-92885369D01*
X140149251Y-92885368D01*
X140149255Y-92885368D01*
X140149258Y-92885366D01*
X140149262Y-92885366D01*
X140316209Y-92826949D01*
X140385988Y-92823387D01*
X140446615Y-92858115D01*
X140474206Y-92903036D01*
X140474631Y-92904252D01*
X140474632Y-92904255D01*
X140501612Y-92981359D01*
X140534210Y-93074521D01*
X140627042Y-93222262D01*
X140630184Y-93227262D01*
X140757738Y-93354816D01*
X140848080Y-93411582D01*
X140902520Y-93445789D01*
X140910478Y-93450789D01*
X140987491Y-93477737D01*
X141080745Y-93510368D01*
X141080750Y-93510369D01*
X141259996Y-93530565D01*
X141260000Y-93530565D01*
X141260004Y-93530565D01*
X141439249Y-93510369D01*
X141439252Y-93510368D01*
X141439255Y-93510368D01*
X141609522Y-93450789D01*
X141762262Y-93354816D01*
X141889816Y-93227262D01*
X141985789Y-93074522D01*
X142045368Y-92904255D01*
X142045369Y-92904249D01*
X142065565Y-92725003D01*
X142065565Y-92724996D01*
X142045369Y-92545750D01*
X142045368Y-92545745D01*
X142041398Y-92534400D01*
X141985789Y-92375478D01*
X141982647Y-92370478D01*
X141889815Y-92222737D01*
X141762262Y-92095184D01*
X141609523Y-91999211D01*
X141439254Y-91939631D01*
X141439249Y-91939630D01*
X141260004Y-91919435D01*
X141259996Y-91919435D01*
X141080750Y-91939630D01*
X141080742Y-91939632D01*
X140913790Y-91998051D01*
X140844011Y-92001612D01*
X140783384Y-91966883D01*
X140755794Y-91921963D01*
X140754909Y-91919435D01*
X140695789Y-91750478D01*
X140638935Y-91659996D01*
X144244433Y-91659996D01*
X144244433Y-91660003D01*
X144264628Y-91839249D01*
X144264629Y-91839254D01*
X144324209Y-92009523D01*
X144381060Y-92100000D01*
X144420182Y-92162262D01*
X144547736Y-92289816D01*
X144605300Y-92325986D01*
X144676108Y-92370478D01*
X144700476Y-92385789D01*
X144850907Y-92438427D01*
X144870743Y-92445368D01*
X144870748Y-92445369D01*
X145049994Y-92465565D01*
X145049998Y-92465565D01*
X145050002Y-92465565D01*
X145229247Y-92445369D01*
X145229250Y-92445368D01*
X145229253Y-92445368D01*
X145399520Y-92385789D01*
X145448799Y-92354824D01*
X145516031Y-92335825D01*
X145582867Y-92356191D01*
X145619762Y-92393846D01*
X145650184Y-92442262D01*
X145777738Y-92569816D01*
X145930478Y-92665789D01*
X146050184Y-92707676D01*
X146100745Y-92725368D01*
X146100750Y-92725369D01*
X146279996Y-92745565D01*
X146280000Y-92745565D01*
X146280004Y-92745565D01*
X146459249Y-92725369D01*
X146459252Y-92725368D01*
X146459255Y-92725368D01*
X146629522Y-92665789D01*
X146782262Y-92569816D01*
X146909816Y-92442262D01*
X147005789Y-92289522D01*
X147065368Y-92119255D01*
X147067537Y-92100003D01*
X147077679Y-92009996D01*
X162994435Y-92009996D01*
X162994435Y-92010003D01*
X163014630Y-92189249D01*
X163014631Y-92189254D01*
X163074211Y-92359523D01*
X163128152Y-92445369D01*
X163170184Y-92512262D01*
X163297738Y-92639816D01*
X163323401Y-92655941D01*
X163433894Y-92725369D01*
X163450478Y-92735789D01*
X163620745Y-92795368D01*
X163620750Y-92795369D01*
X163799996Y-92815565D01*
X163800000Y-92815565D01*
X163800004Y-92815565D01*
X163979249Y-92795369D01*
X163979252Y-92795368D01*
X163979255Y-92795368D01*
X164149522Y-92735789D01*
X164302262Y-92639816D01*
X164429816Y-92512262D01*
X164525789Y-92359522D01*
X164585368Y-92189255D01*
X164585369Y-92189249D01*
X164605565Y-92010003D01*
X164605565Y-92009996D01*
X164585369Y-91830750D01*
X164585368Y-91830745D01*
X164577245Y-91807531D01*
X164525789Y-91660478D01*
X164429816Y-91507738D01*
X164302262Y-91380184D01*
X164292756Y-91374211D01*
X164149523Y-91284211D01*
X163979254Y-91224631D01*
X163979249Y-91224630D01*
X163800004Y-91204435D01*
X163799996Y-91204435D01*
X163620750Y-91224630D01*
X163620745Y-91224631D01*
X163450476Y-91284211D01*
X163297737Y-91380184D01*
X163170184Y-91507737D01*
X163074211Y-91660476D01*
X163014631Y-91830745D01*
X163014630Y-91830750D01*
X162994435Y-92009996D01*
X147077679Y-92009996D01*
X147085565Y-91940003D01*
X147085565Y-91939996D01*
X147065369Y-91760750D01*
X147065368Y-91760745D01*
X147005788Y-91590476D01*
X146909815Y-91437737D01*
X146782262Y-91310184D01*
X146629523Y-91214211D01*
X146459254Y-91154631D01*
X146459249Y-91154630D01*
X146280004Y-91134435D01*
X146279996Y-91134435D01*
X146100750Y-91154630D01*
X146100745Y-91154631D01*
X145930476Y-91214211D01*
X145881200Y-91245174D01*
X145813963Y-91264174D01*
X145747128Y-91243806D01*
X145710235Y-91206153D01*
X145679814Y-91157738D01*
X145552260Y-91030184D01*
X145541215Y-91023244D01*
X145399521Y-90934211D01*
X145229252Y-90874631D01*
X145229247Y-90874630D01*
X145050002Y-90854435D01*
X145049994Y-90854435D01*
X144870748Y-90874630D01*
X144870743Y-90874631D01*
X144700474Y-90934211D01*
X144547735Y-91030184D01*
X144420182Y-91157737D01*
X144324209Y-91310476D01*
X144264629Y-91480745D01*
X144264628Y-91480750D01*
X144244433Y-91659996D01*
X140638935Y-91659996D01*
X140599816Y-91597738D01*
X140472262Y-91470184D01*
X140402208Y-91426166D01*
X140319523Y-91374211D01*
X140149254Y-91314631D01*
X140149249Y-91314630D01*
X139970004Y-91294435D01*
X139969996Y-91294435D01*
X139790750Y-91314630D01*
X139790745Y-91314631D01*
X139620476Y-91374211D01*
X139467737Y-91470184D01*
X139340184Y-91597737D01*
X139244211Y-91750476D01*
X139184631Y-91920745D01*
X139184630Y-91920750D01*
X139164435Y-92099996D01*
X136842074Y-92099996D01*
X136832262Y-92090184D01*
X136823200Y-92084490D01*
X136679523Y-91994211D01*
X136509254Y-91934631D01*
X136509249Y-91934630D01*
X136330004Y-91914435D01*
X136329996Y-91914435D01*
X136150750Y-91934630D01*
X136150745Y-91934631D01*
X135980476Y-91994211D01*
X135827737Y-92090184D01*
X135700184Y-92217737D01*
X135604211Y-92370476D01*
X135544631Y-92540745D01*
X135544630Y-92540750D01*
X135524435Y-92719996D01*
X126004924Y-92719996D01*
X126005565Y-92714309D01*
X126005565Y-92714302D01*
X125985369Y-92535056D01*
X125985368Y-92535051D01*
X125985140Y-92534400D01*
X125925789Y-92364784D01*
X125922483Y-92359523D01*
X125877727Y-92288294D01*
X125829816Y-92212044D01*
X125702262Y-92084490D01*
X125549523Y-91988517D01*
X125379254Y-91928937D01*
X125379249Y-91928936D01*
X125200004Y-91908741D01*
X125199996Y-91908741D01*
X125043448Y-91926379D01*
X124974626Y-91914324D01*
X124923247Y-91866975D01*
X124908913Y-91815242D01*
X124906345Y-91815532D01*
X124885369Y-91629362D01*
X124885368Y-91629357D01*
X124864719Y-91570345D01*
X124825789Y-91459090D01*
X124805101Y-91426166D01*
X124735019Y-91314631D01*
X124729816Y-91306350D01*
X124602262Y-91178796D01*
X124594122Y-91173681D01*
X124449523Y-91082823D01*
X124279254Y-91023243D01*
X124279249Y-91023242D01*
X124100004Y-91003047D01*
X124099996Y-91003047D01*
X123920750Y-91023242D01*
X123920745Y-91023243D01*
X123750476Y-91082823D01*
X123597737Y-91178796D01*
X123470184Y-91306349D01*
X123374211Y-91459088D01*
X123314631Y-91629357D01*
X123314630Y-91629362D01*
X123294435Y-91808608D01*
X116600500Y-91808608D01*
X116600500Y-90399996D01*
X174994435Y-90399996D01*
X174994435Y-90400003D01*
X175014630Y-90579249D01*
X175014631Y-90579254D01*
X175074211Y-90749523D01*
X175113279Y-90811699D01*
X175170184Y-90902262D01*
X175297738Y-91029816D01*
X175298324Y-91030184D01*
X175450479Y-91125790D01*
X175470966Y-91132959D01*
X175527741Y-91173681D01*
X175553488Y-91238634D01*
X175540031Y-91307196D01*
X175491643Y-91357598D01*
X175470966Y-91367041D01*
X175450479Y-91374209D01*
X175297737Y-91470184D01*
X175170184Y-91597737D01*
X175074211Y-91750476D01*
X175014631Y-91920745D01*
X175014630Y-91920750D01*
X174994435Y-92099996D01*
X174994435Y-92100003D01*
X175014630Y-92279249D01*
X175014631Y-92279254D01*
X175074211Y-92449523D01*
X175141885Y-92557225D01*
X175170184Y-92602262D01*
X175297738Y-92729816D01*
X175388080Y-92786582D01*
X175434206Y-92815565D01*
X175450478Y-92825789D01*
X175620739Y-92885366D01*
X175620745Y-92885368D01*
X175620750Y-92885369D01*
X175799996Y-92905565D01*
X175800000Y-92905565D01*
X175800004Y-92905565D01*
X175979249Y-92885369D01*
X175979252Y-92885368D01*
X175979255Y-92885368D01*
X176149522Y-92825789D01*
X176302262Y-92729816D01*
X176429816Y-92602262D01*
X176525789Y-92449522D01*
X176585368Y-92279255D01*
X176591736Y-92222737D01*
X176605565Y-92100003D01*
X176605565Y-92099996D01*
X176585369Y-91920750D01*
X176585368Y-91920745D01*
X176553877Y-91830750D01*
X176525789Y-91750478D01*
X176429816Y-91597738D01*
X176302262Y-91470184D01*
X176232208Y-91426166D01*
X176149521Y-91374210D01*
X176129035Y-91367042D01*
X176072258Y-91326320D01*
X176046511Y-91261367D01*
X176059967Y-91192806D01*
X176108354Y-91142403D01*
X176129035Y-91132958D01*
X176138295Y-91129717D01*
X176149522Y-91125789D01*
X176302262Y-91029816D01*
X176429816Y-90902262D01*
X176525789Y-90749522D01*
X176585368Y-90579255D01*
X176595282Y-90491267D01*
X176605565Y-90400003D01*
X176605565Y-90399996D01*
X176585369Y-90220750D01*
X176585368Y-90220745D01*
X176562492Y-90155369D01*
X176525789Y-90050478D01*
X176429816Y-89897738D01*
X176302262Y-89770184D01*
X176257053Y-89741777D01*
X176149523Y-89674211D01*
X175979254Y-89614631D01*
X175979249Y-89614630D01*
X175800004Y-89594435D01*
X175799996Y-89594435D01*
X175620750Y-89614630D01*
X175620745Y-89614631D01*
X175450476Y-89674211D01*
X175297737Y-89770184D01*
X175170184Y-89897737D01*
X175074211Y-90050476D01*
X175014631Y-90220745D01*
X175014630Y-90220750D01*
X174994435Y-90399996D01*
X116600500Y-90399996D01*
X116600500Y-88780732D01*
X117781700Y-88780732D01*
X117781700Y-88999267D01*
X117812028Y-89190750D01*
X117815884Y-89215094D01*
X117883412Y-89422922D01*
X117982619Y-89617628D01*
X118111064Y-89794417D01*
X118265583Y-89948936D01*
X118442372Y-90077381D01*
X118637078Y-90176588D01*
X118844906Y-90244116D01*
X118917193Y-90255565D01*
X119060733Y-90278300D01*
X119060738Y-90278300D01*
X119279267Y-90278300D01*
X119399168Y-90259308D01*
X119495094Y-90244116D01*
X119702922Y-90176588D01*
X119897628Y-90077381D01*
X120074417Y-89948936D01*
X120228936Y-89794417D01*
X120357381Y-89617628D01*
X120456588Y-89422922D01*
X120524116Y-89215094D01*
X120542269Y-89100478D01*
X120558300Y-88999267D01*
X120558300Y-88899996D01*
X126924435Y-88899996D01*
X126924435Y-88900003D01*
X126944630Y-89079249D01*
X126944631Y-89079254D01*
X127004211Y-89249523D01*
X127037849Y-89303057D01*
X127100184Y-89402262D01*
X127227738Y-89529816D01*
X127258675Y-89549255D01*
X127362721Y-89614632D01*
X127380478Y-89625789D01*
X127518860Y-89674211D01*
X127550745Y-89685368D01*
X127550750Y-89685369D01*
X127729996Y-89705565D01*
X127730000Y-89705565D01*
X127730004Y-89705565D01*
X127909249Y-89685369D01*
X127909252Y-89685368D01*
X127909255Y-89685368D01*
X128079522Y-89625789D01*
X128232262Y-89529816D01*
X128359816Y-89402262D01*
X128380090Y-89369996D01*
X132221935Y-89369996D01*
X132221935Y-89370003D01*
X132242130Y-89549249D01*
X132242131Y-89549254D01*
X132301711Y-89719523D01*
X132348771Y-89794418D01*
X132397684Y-89872262D01*
X132525238Y-89999816D01*
X132571439Y-90028846D01*
X132652555Y-90079815D01*
X132677978Y-90095789D01*
X132714653Y-90108622D01*
X132848245Y-90155368D01*
X132848250Y-90155369D01*
X133027496Y-90175565D01*
X133027500Y-90175565D01*
X133027504Y-90175565D01*
X133206749Y-90155369D01*
X133206752Y-90155368D01*
X133206755Y-90155368D01*
X133377022Y-90095789D01*
X133529762Y-89999816D01*
X133657316Y-89872262D01*
X133753289Y-89719522D01*
X133812868Y-89549255D01*
X133812869Y-89549249D01*
X133833065Y-89370003D01*
X133833065Y-89369996D01*
X133812869Y-89190750D01*
X133812868Y-89190745D01*
X133781282Y-89100478D01*
X133753289Y-89020478D01*
X133750451Y-89015962D01*
X133677589Y-88900003D01*
X133657316Y-88867738D01*
X133529762Y-88740184D01*
X133495941Y-88718933D01*
X133377023Y-88644211D01*
X133206754Y-88584631D01*
X133206749Y-88584630D01*
X133027504Y-88564435D01*
X133027496Y-88564435D01*
X132848250Y-88584630D01*
X132848245Y-88584631D01*
X132677976Y-88644211D01*
X132525237Y-88740184D01*
X132397684Y-88867737D01*
X132301711Y-89020476D01*
X132242131Y-89190745D01*
X132242130Y-89190750D01*
X132221935Y-89369996D01*
X128380090Y-89369996D01*
X128455789Y-89249522D01*
X128515368Y-89079255D01*
X128521991Y-89020476D01*
X128535565Y-88900003D01*
X128535565Y-88899996D01*
X128515369Y-88720750D01*
X128515368Y-88720745D01*
X128507376Y-88697904D01*
X128455789Y-88550478D01*
X128359816Y-88397738D01*
X128232262Y-88270184D01*
X128157682Y-88223322D01*
X128079523Y-88174211D01*
X127909254Y-88114631D01*
X127909249Y-88114630D01*
X127730004Y-88094435D01*
X127729996Y-88094435D01*
X127550750Y-88114630D01*
X127550745Y-88114631D01*
X127380476Y-88174211D01*
X127227737Y-88270184D01*
X127100184Y-88397737D01*
X127004211Y-88550476D01*
X126944631Y-88720745D01*
X126944630Y-88720750D01*
X126924435Y-88899996D01*
X120558300Y-88899996D01*
X120558300Y-88780732D01*
X120524116Y-88564909D01*
X120524116Y-88564906D01*
X120456588Y-88357078D01*
X120357381Y-88162372D01*
X120228936Y-87985583D01*
X120074417Y-87831064D01*
X119897628Y-87702619D01*
X119702922Y-87603412D01*
X119495094Y-87535884D01*
X119495092Y-87535883D01*
X119495090Y-87535883D01*
X119279267Y-87501700D01*
X119279262Y-87501700D01*
X119060738Y-87501700D01*
X119060733Y-87501700D01*
X118844909Y-87535883D01*
X118637075Y-87603413D01*
X118442371Y-87702619D01*
X118392965Y-87738515D01*
X118265583Y-87831064D01*
X118265581Y-87831066D01*
X118265580Y-87831066D01*
X118111066Y-87985580D01*
X118111066Y-87985581D01*
X118111064Y-87985583D01*
X118062043Y-88053055D01*
X117982619Y-88162371D01*
X117883413Y-88357075D01*
X117815883Y-88564909D01*
X117781700Y-88780732D01*
X116600500Y-88780732D01*
X116600500Y-87164996D01*
X130219435Y-87164996D01*
X130219435Y-87165003D01*
X130239630Y-87344249D01*
X130239631Y-87344254D01*
X130299211Y-87514523D01*
X130383426Y-87648549D01*
X130395184Y-87667262D01*
X130522738Y-87794816D01*
X130613080Y-87851582D01*
X130657121Y-87879255D01*
X130675478Y-87890789D01*
X130845745Y-87950368D01*
X130845750Y-87950369D01*
X131024996Y-87970565D01*
X131025000Y-87970565D01*
X131025004Y-87970565D01*
X131204249Y-87950369D01*
X131204252Y-87950368D01*
X131204255Y-87950368D01*
X131374522Y-87890789D01*
X131527262Y-87794816D01*
X131583567Y-87738511D01*
X135982119Y-87738511D01*
X135982119Y-87738518D01*
X136002314Y-87917764D01*
X136002315Y-87917769D01*
X136061895Y-88088038D01*
X136117990Y-88177312D01*
X136157868Y-88240777D01*
X136285422Y-88368331D01*
X136438162Y-88464304D01*
X136556079Y-88505565D01*
X136608429Y-88523883D01*
X136608434Y-88523884D01*
X136787680Y-88544080D01*
X136787684Y-88544080D01*
X136787688Y-88544080D01*
X136966933Y-88523884D01*
X136966936Y-88523883D01*
X136966939Y-88523883D01*
X137137206Y-88464304D01*
X137289946Y-88368331D01*
X137417500Y-88240777D01*
X137513473Y-88088037D01*
X137573052Y-87917770D01*
X137573566Y-87913208D01*
X137593249Y-87738518D01*
X137593249Y-87738511D01*
X137588909Y-87699996D01*
X141484435Y-87699996D01*
X141484435Y-87700003D01*
X141504630Y-87879249D01*
X141504631Y-87879254D01*
X141564211Y-88049523D01*
X141621062Y-88140000D01*
X141660184Y-88202262D01*
X141787738Y-88329816D01*
X141831125Y-88357078D01*
X141895833Y-88397737D01*
X141940478Y-88425789D01*
X142050545Y-88464303D01*
X142110745Y-88485368D01*
X142110750Y-88485369D01*
X142289996Y-88505565D01*
X142290000Y-88505565D01*
X142290004Y-88505565D01*
X142469249Y-88485369D01*
X142469252Y-88485368D01*
X142469255Y-88485368D01*
X142639522Y-88425789D01*
X142792262Y-88329816D01*
X142919816Y-88202262D01*
X143015789Y-88049522D01*
X143075368Y-87879255D01*
X143082036Y-87820077D01*
X143095565Y-87700003D01*
X143095565Y-87699996D01*
X143075369Y-87520750D01*
X143075368Y-87520745D01*
X143068704Y-87501700D01*
X143015789Y-87350478D01*
X143014354Y-87348195D01*
X142971501Y-87279994D01*
X144824435Y-87279994D01*
X144824435Y-87280001D01*
X144844630Y-87459247D01*
X144844631Y-87459252D01*
X144904211Y-87629521D01*
X144972697Y-87738515D01*
X145000184Y-87782260D01*
X145127738Y-87909814D01*
X145280478Y-88005787D01*
X145413931Y-88052484D01*
X145470707Y-88093206D01*
X145496197Y-88155643D01*
X145514630Y-88319249D01*
X145514631Y-88319254D01*
X145574211Y-88489523D01*
X145670184Y-88642262D01*
X145670185Y-88642263D01*
X145710241Y-88682320D01*
X145743726Y-88743643D01*
X145738740Y-88813335D01*
X145710241Y-88857681D01*
X145620183Y-88947739D01*
X145524211Y-89100476D01*
X145464631Y-89270745D01*
X145464630Y-89270750D01*
X145444435Y-89449996D01*
X145444435Y-89450003D01*
X145464630Y-89629249D01*
X145464631Y-89629254D01*
X145524211Y-89799523D01*
X145585924Y-89897738D01*
X145620184Y-89952262D01*
X145747738Y-90079816D01*
X145838080Y-90136582D01*
X145900121Y-90175565D01*
X145900478Y-90175789D01*
X146028955Y-90220745D01*
X146070745Y-90235368D01*
X146070750Y-90235369D01*
X146249996Y-90255565D01*
X146250000Y-90255565D01*
X146250004Y-90255565D01*
X146429249Y-90235369D01*
X146429252Y-90235368D01*
X146429255Y-90235368D01*
X146599522Y-90175789D01*
X146752262Y-90079816D01*
X146879816Y-89952262D01*
X146975789Y-89799522D01*
X147035368Y-89629255D01*
X147037016Y-89614630D01*
X147055565Y-89450003D01*
X147055565Y-89449996D01*
X147039009Y-89303053D01*
X170407494Y-89303053D01*
X170407494Y-89303060D01*
X170427689Y-89482306D01*
X170427690Y-89482311D01*
X170487270Y-89652580D01*
X170543310Y-89741766D01*
X170583243Y-89805319D01*
X170710797Y-89932873D01*
X170863537Y-90028846D01*
X170925358Y-90050478D01*
X171033804Y-90088425D01*
X171033809Y-90088426D01*
X171213055Y-90108622D01*
X171213059Y-90108622D01*
X171213063Y-90108622D01*
X171392308Y-90088426D01*
X171392311Y-90088425D01*
X171392314Y-90088425D01*
X171562581Y-90028846D01*
X171715321Y-89932873D01*
X171842875Y-89805319D01*
X171938848Y-89652579D01*
X171998427Y-89482312D01*
X171998428Y-89482306D01*
X172018624Y-89303060D01*
X172018624Y-89303053D01*
X171998428Y-89123807D01*
X171998427Y-89123802D01*
X171962272Y-89020478D01*
X171938848Y-88953535D01*
X171935205Y-88947738D01*
X171850754Y-88813335D01*
X171842875Y-88800795D01*
X171806117Y-88764037D01*
X180710200Y-88764037D01*
X180710200Y-89015962D01*
X180724398Y-89123802D01*
X180743081Y-89265709D01*
X180753089Y-89303060D01*
X180808279Y-89509034D01*
X180904680Y-89741766D01*
X180904685Y-89741777D01*
X181030632Y-89959922D01*
X181030643Y-89959938D01*
X181183988Y-90159781D01*
X181183994Y-90159788D01*
X181362111Y-90337905D01*
X181362117Y-90337910D01*
X181561970Y-90491263D01*
X181561977Y-90491267D01*
X181780122Y-90617214D01*
X181780127Y-90617216D01*
X181780130Y-90617218D01*
X182012864Y-90713620D01*
X182256191Y-90778819D01*
X182505945Y-90811700D01*
X182505952Y-90811700D01*
X182757848Y-90811700D01*
X182757855Y-90811700D01*
X183007609Y-90778819D01*
X183250936Y-90713620D01*
X183483670Y-90617218D01*
X183701830Y-90491263D01*
X183901683Y-90337910D01*
X184079810Y-90159783D01*
X184233163Y-89959930D01*
X184359118Y-89741770D01*
X184455520Y-89509036D01*
X184520719Y-89265709D01*
X184553600Y-89015955D01*
X184553600Y-88764045D01*
X184553512Y-88763380D01*
X184549423Y-88732319D01*
X184520719Y-88514291D01*
X184455520Y-88270964D01*
X184359118Y-88038230D01*
X184359116Y-88038227D01*
X184359114Y-88038222D01*
X184233167Y-87820077D01*
X184233163Y-87820070D01*
X184170586Y-87738518D01*
X184079811Y-87620218D01*
X184079805Y-87620211D01*
X183901688Y-87442094D01*
X183901681Y-87442088D01*
X183701838Y-87288743D01*
X183701836Y-87288741D01*
X183701830Y-87288737D01*
X183701825Y-87288734D01*
X183701822Y-87288732D01*
X183483677Y-87162785D01*
X183483666Y-87162780D01*
X183250934Y-87066379D01*
X183129272Y-87033780D01*
X183007609Y-87001181D01*
X182965870Y-86995685D01*
X182757862Y-86968300D01*
X182757855Y-86968300D01*
X182505945Y-86968300D01*
X182505937Y-86968300D01*
X182268213Y-86999598D01*
X182256191Y-87001181D01*
X182230108Y-87008170D01*
X182012865Y-87066379D01*
X181780133Y-87162780D01*
X181780122Y-87162785D01*
X181561977Y-87288732D01*
X181561961Y-87288743D01*
X181362118Y-87442088D01*
X181362111Y-87442094D01*
X181183994Y-87620211D01*
X181183988Y-87620218D01*
X181030643Y-87820061D01*
X181030632Y-87820077D01*
X180904685Y-88038222D01*
X180904680Y-88038233D01*
X180808279Y-88270965D01*
X180780119Y-88376062D01*
X180745942Y-88503616D01*
X180743082Y-88514288D01*
X180743080Y-88514299D01*
X180710200Y-88764037D01*
X171806117Y-88764037D01*
X171715321Y-88673241D01*
X171666020Y-88642263D01*
X171562582Y-88577268D01*
X171392313Y-88517688D01*
X171392308Y-88517687D01*
X171213063Y-88497492D01*
X171213055Y-88497492D01*
X171033809Y-88517687D01*
X171033804Y-88517688D01*
X170863535Y-88577268D01*
X170710796Y-88673241D01*
X170583243Y-88800794D01*
X170487270Y-88953533D01*
X170427690Y-89123802D01*
X170427689Y-89123807D01*
X170407494Y-89303053D01*
X147039009Y-89303053D01*
X147035369Y-89270750D01*
X147035368Y-89270745D01*
X147015893Y-89215090D01*
X146975789Y-89100478D01*
X146879816Y-88947738D01*
X146839759Y-88907681D01*
X146806274Y-88846358D01*
X146811258Y-88776666D01*
X146839759Y-88732319D01*
X146874174Y-88697904D01*
X146929816Y-88642262D01*
X147025789Y-88489522D01*
X147085368Y-88319255D01*
X147090897Y-88270184D01*
X147105565Y-88140003D01*
X147105565Y-88139996D01*
X147085369Y-87960750D01*
X147085368Y-87960745D01*
X147039991Y-87831066D01*
X147025789Y-87790478D01*
X147020625Y-87782260D01*
X146968935Y-87699996D01*
X146929816Y-87637738D01*
X146802262Y-87510184D01*
X146747459Y-87475749D01*
X146649521Y-87414210D01*
X146577447Y-87388991D01*
X146516066Y-87367512D01*
X146459292Y-87326792D01*
X146433802Y-87264355D01*
X146433669Y-87263178D01*
X146422608Y-87164996D01*
X146415369Y-87100747D01*
X146415368Y-87100743D01*
X146403344Y-87066380D01*
X146355789Y-86930476D01*
X146355458Y-86929950D01*
X146309608Y-86856979D01*
X146259816Y-86777736D01*
X146146020Y-86663940D01*
X146112535Y-86602617D01*
X146117519Y-86532925D01*
X146159391Y-86476992D01*
X146224855Y-86452575D01*
X146247579Y-86453038D01*
X146270000Y-86455565D01*
X146270001Y-86455564D01*
X146270002Y-86455565D01*
X146270004Y-86455565D01*
X146449249Y-86435369D01*
X146449252Y-86435368D01*
X146449255Y-86435368D01*
X146619522Y-86375789D01*
X146772262Y-86279816D01*
X146899816Y-86152262D01*
X146995789Y-85999522D01*
X147037613Y-85879996D01*
X147304435Y-85879996D01*
X147304435Y-85880003D01*
X147324630Y-86059249D01*
X147324631Y-86059254D01*
X147384211Y-86229523D01*
X147476116Y-86375788D01*
X147480184Y-86382262D01*
X147607738Y-86509816D01*
X147677375Y-86553572D01*
X147755429Y-86602617D01*
X147760478Y-86605789D01*
X147899123Y-86654303D01*
X147930745Y-86665368D01*
X147930750Y-86665369D01*
X148018919Y-86675303D01*
X148083333Y-86702369D01*
X148122888Y-86759964D01*
X148125026Y-86829801D01*
X148122078Y-86839478D01*
X148063051Y-87008165D01*
X148063050Y-87008170D01*
X148042855Y-87187416D01*
X148042855Y-87187423D01*
X148063050Y-87366669D01*
X148063051Y-87366674D01*
X148122631Y-87536943D01*
X148218604Y-87689682D01*
X148346158Y-87817236D01*
X148498898Y-87913209D01*
X148662812Y-87970565D01*
X148669165Y-87972788D01*
X148669170Y-87972789D01*
X148848416Y-87992985D01*
X148848420Y-87992985D01*
X148860976Y-87991570D01*
X148929798Y-88003623D01*
X148981179Y-88050972D01*
X148991902Y-88073832D01*
X149006178Y-88114630D01*
X149044210Y-88223321D01*
X149073656Y-88270184D01*
X149140184Y-88376062D01*
X149267738Y-88503616D01*
X149332136Y-88544080D01*
X149396672Y-88584631D01*
X149420478Y-88599589D01*
X149590739Y-88659166D01*
X149590745Y-88659168D01*
X149590750Y-88659169D01*
X149769996Y-88679365D01*
X149770000Y-88679365D01*
X149770004Y-88679365D01*
X149949249Y-88659169D01*
X149949251Y-88659168D01*
X149949255Y-88659168D01*
X149949258Y-88659166D01*
X149949262Y-88659166D01*
X150047973Y-88624625D01*
X150105393Y-88604532D01*
X150175170Y-88600970D01*
X150223658Y-88624625D01*
X150227734Y-88627875D01*
X150227738Y-88627879D01*
X150314380Y-88682320D01*
X150363049Y-88712901D01*
X150380478Y-88723852D01*
X150493434Y-88763377D01*
X150550745Y-88783431D01*
X150550750Y-88783432D01*
X150729996Y-88803628D01*
X150730000Y-88803628D01*
X150730004Y-88803628D01*
X150909249Y-88783432D01*
X150909252Y-88783431D01*
X150909255Y-88783431D01*
X151079522Y-88723852D01*
X151232262Y-88627879D01*
X151359816Y-88500325D01*
X151455789Y-88347585D01*
X151515368Y-88177318D01*
X151517052Y-88162371D01*
X151535565Y-87998067D01*
X160866152Y-87998067D01*
X160866152Y-87998074D01*
X160886347Y-88177320D01*
X160886348Y-88177325D01*
X160945928Y-88347594D01*
X160977436Y-88397738D01*
X161041901Y-88500333D01*
X161169455Y-88627887D01*
X161251382Y-88679365D01*
X161322180Y-88723851D01*
X161322195Y-88723860D01*
X161453530Y-88769816D01*
X161492462Y-88783439D01*
X161492467Y-88783440D01*
X161671713Y-88803636D01*
X161671717Y-88803636D01*
X161671721Y-88803636D01*
X161850966Y-88783440D01*
X161850968Y-88783439D01*
X161850972Y-88783439D01*
X161850975Y-88783437D01*
X161850979Y-88783437D01*
X162027812Y-88721560D01*
X162028301Y-88722958D01*
X162089352Y-88712901D01*
X162115176Y-88718933D01*
X162242188Y-88763377D01*
X162242194Y-88763378D01*
X162242196Y-88763379D01*
X162242197Y-88763379D01*
X162242201Y-88763380D01*
X162421447Y-88783576D01*
X162421451Y-88783576D01*
X162421455Y-88783576D01*
X162600700Y-88763380D01*
X162600703Y-88763379D01*
X162600706Y-88763379D01*
X162770973Y-88703800D01*
X162923713Y-88607827D01*
X163051267Y-88480273D01*
X163147240Y-88327533D01*
X163206819Y-88157266D01*
X163208764Y-88140003D01*
X163227016Y-87978014D01*
X163227016Y-87978007D01*
X163206820Y-87798761D01*
X163206819Y-87798756D01*
X163154259Y-87648549D01*
X163147240Y-87628489D01*
X163142042Y-87620217D01*
X163067573Y-87501700D01*
X163051267Y-87475749D01*
X162923713Y-87348195D01*
X162910699Y-87340018D01*
X162770974Y-87252222D01*
X162600705Y-87192642D01*
X162600700Y-87192641D01*
X162421455Y-87172446D01*
X162421447Y-87172446D01*
X162242201Y-87192641D01*
X162242188Y-87192644D01*
X162065357Y-87254521D01*
X162064869Y-87253126D01*
X162003798Y-87263178D01*
X161977991Y-87257148D01*
X161850979Y-87212704D01*
X161850966Y-87212701D01*
X161671721Y-87192506D01*
X161671713Y-87192506D01*
X161492467Y-87212701D01*
X161492462Y-87212702D01*
X161322193Y-87272282D01*
X161169454Y-87368255D01*
X161041901Y-87495808D01*
X160945928Y-87648547D01*
X160886348Y-87818816D01*
X160886347Y-87818821D01*
X160866152Y-87998067D01*
X151535565Y-87998067D01*
X151535565Y-87998066D01*
X151535565Y-87998059D01*
X151515369Y-87818813D01*
X151515368Y-87818808D01*
X151508353Y-87798761D01*
X151455789Y-87648541D01*
X151449000Y-87637737D01*
X151385667Y-87536943D01*
X151359816Y-87495801D01*
X151232262Y-87368247D01*
X151201368Y-87348835D01*
X151079523Y-87272274D01*
X150934421Y-87221501D01*
X150877645Y-87180779D01*
X150852156Y-87118342D01*
X150837352Y-86986950D01*
X150837351Y-86986945D01*
X150817591Y-86930474D01*
X150777772Y-86816678D01*
X150770665Y-86805368D01*
X150728489Y-86738245D01*
X150681799Y-86663938D01*
X150554245Y-86536384D01*
X150531770Y-86522262D01*
X150401506Y-86440411D01*
X150231237Y-86380831D01*
X150231232Y-86380830D01*
X150051987Y-86360635D01*
X150051979Y-86360635D01*
X149872733Y-86380830D01*
X149872728Y-86380831D01*
X149702459Y-86440411D01*
X149549717Y-86536386D01*
X149549715Y-86536387D01*
X149527268Y-86558834D01*
X149465944Y-86592317D01*
X149396252Y-86587330D01*
X149356338Y-86561677D01*
X149356125Y-86561945D01*
X149353512Y-86559861D01*
X149351909Y-86558831D01*
X149350682Y-86557604D01*
X149197943Y-86461631D01*
X149027674Y-86402051D01*
X149027670Y-86402050D01*
X148939499Y-86392116D01*
X148875085Y-86365049D01*
X148835530Y-86307454D01*
X148833393Y-86237617D01*
X148836342Y-86227941D01*
X148895366Y-86059262D01*
X148895369Y-86059249D01*
X148899792Y-86019996D01*
X166144435Y-86019996D01*
X166144435Y-86020003D01*
X166164630Y-86199249D01*
X166164631Y-86199254D01*
X166224211Y-86369523D01*
X166291739Y-86476992D01*
X166320184Y-86522262D01*
X166447738Y-86649816D01*
X166504632Y-86685565D01*
X166595117Y-86742421D01*
X166600478Y-86745789D01*
X166715735Y-86786119D01*
X166770745Y-86805368D01*
X166770750Y-86805369D01*
X166949996Y-86825565D01*
X166950000Y-86825565D01*
X166950004Y-86825565D01*
X167129249Y-86805369D01*
X167129252Y-86805368D01*
X167129255Y-86805368D01*
X167299522Y-86745789D01*
X167452262Y-86649816D01*
X167579816Y-86522262D01*
X167675789Y-86369522D01*
X167735368Y-86199255D01*
X167740688Y-86152037D01*
X167755565Y-86020003D01*
X167755565Y-86019996D01*
X167735369Y-85840750D01*
X167735368Y-85840745D01*
X167713855Y-85779264D01*
X167675789Y-85670478D01*
X167656523Y-85639817D01*
X167580769Y-85519255D01*
X167579816Y-85517738D01*
X167452262Y-85390184D01*
X167412768Y-85365368D01*
X167299523Y-85294211D01*
X167129254Y-85234631D01*
X167129249Y-85234630D01*
X166950004Y-85214435D01*
X166949996Y-85214435D01*
X166770750Y-85234630D01*
X166770745Y-85234631D01*
X166600476Y-85294211D01*
X166447737Y-85390184D01*
X166320184Y-85517737D01*
X166224211Y-85670476D01*
X166164631Y-85840745D01*
X166164630Y-85840750D01*
X166144435Y-86019996D01*
X148899792Y-86019996D01*
X148915565Y-85880003D01*
X148915565Y-85879996D01*
X148895369Y-85700750D01*
X148895368Y-85700745D01*
X148877613Y-85650003D01*
X148835789Y-85530478D01*
X148828736Y-85519254D01*
X148739815Y-85377737D01*
X148612262Y-85250184D01*
X148459523Y-85154211D01*
X148445900Y-85149444D01*
X149564416Y-85149444D01*
X149564416Y-85149451D01*
X149584611Y-85328697D01*
X149584612Y-85328702D01*
X149644192Y-85498971D01*
X149714071Y-85610182D01*
X149740165Y-85651710D01*
X149867719Y-85779264D01*
X149925495Y-85815567D01*
X150010424Y-85868932D01*
X150020459Y-85875237D01*
X150140560Y-85917262D01*
X150190726Y-85934816D01*
X150190731Y-85934817D01*
X150369977Y-85955013D01*
X150369981Y-85955013D01*
X150369985Y-85955013D01*
X150549230Y-85934817D01*
X150549233Y-85934816D01*
X150549236Y-85934816D01*
X150719503Y-85875237D01*
X150872243Y-85779264D01*
X150999797Y-85651710D01*
X151095770Y-85498970D01*
X151155349Y-85328703D01*
X151156024Y-85322713D01*
X151175546Y-85149451D01*
X151175546Y-85149444D01*
X151159698Y-85008787D01*
X151171753Y-84939965D01*
X151219102Y-84888586D01*
X151286712Y-84870962D01*
X151296802Y-84871684D01*
X151419997Y-84885565D01*
X151420000Y-84885565D01*
X151420004Y-84885565D01*
X151599249Y-84865369D01*
X151599252Y-84865368D01*
X151599255Y-84865368D01*
X151769522Y-84805789D01*
X151922262Y-84709816D01*
X152049816Y-84582262D01*
X152145789Y-84429522D01*
X152205368Y-84259255D01*
X152205369Y-84259249D01*
X152225565Y-84080003D01*
X152225565Y-84079996D01*
X152209069Y-83933591D01*
X158210635Y-83933591D01*
X158210635Y-83933598D01*
X158230830Y-84112844D01*
X158230831Y-84112849D01*
X158290411Y-84283118D01*
X158364322Y-84400745D01*
X158386384Y-84435857D01*
X158513938Y-84563411D01*
X158666678Y-84659384D01*
X158811856Y-84710184D01*
X158836945Y-84718963D01*
X158836950Y-84718964D01*
X159016196Y-84739160D01*
X159016200Y-84739160D01*
X159016204Y-84739160D01*
X159195449Y-84718964D01*
X159195452Y-84718963D01*
X159195455Y-84718963D01*
X159365722Y-84659384D01*
X159518462Y-84563411D01*
X159646016Y-84435857D01*
X159741989Y-84283117D01*
X159801568Y-84112850D01*
X159805269Y-84080003D01*
X159821765Y-83933598D01*
X159821765Y-83933591D01*
X159806610Y-83799083D01*
X164127888Y-83799083D01*
X164127888Y-83799090D01*
X164148083Y-83978336D01*
X164148084Y-83978341D01*
X164207664Y-84148610D01*
X164303637Y-84301349D01*
X164319929Y-84317641D01*
X164353414Y-84378964D01*
X164355468Y-84419205D01*
X164344433Y-84517145D01*
X164344433Y-84517151D01*
X164364628Y-84696397D01*
X164364629Y-84696402D01*
X164424209Y-84866671D01*
X164502003Y-84990478D01*
X164520182Y-85019410D01*
X164647736Y-85146964D01*
X164715035Y-85189251D01*
X164787258Y-85234632D01*
X164800476Y-85242937D01*
X164913475Y-85282477D01*
X164970743Y-85302516D01*
X164970748Y-85302517D01*
X165149994Y-85322713D01*
X165149998Y-85322713D01*
X165150002Y-85322713D01*
X165329247Y-85302517D01*
X165329250Y-85302516D01*
X165329253Y-85302516D01*
X165499520Y-85242937D01*
X165652260Y-85146964D01*
X165779814Y-85019410D01*
X165875787Y-84866670D01*
X165935366Y-84696403D01*
X165935367Y-84696397D01*
X165955563Y-84517151D01*
X165955563Y-84517144D01*
X165935367Y-84337898D01*
X165935366Y-84337893D01*
X165875787Y-84167626D01*
X165863838Y-84148610D01*
X165820725Y-84079996D01*
X165779814Y-84014886D01*
X165763521Y-83998593D01*
X165730036Y-83937270D01*
X165727981Y-83897035D01*
X165732888Y-83853483D01*
X165759952Y-83789075D01*
X165768415Y-83779700D01*
X166137673Y-83410444D01*
X166213597Y-83278940D01*
X166252898Y-83132266D01*
X166252898Y-82980418D01*
X166252898Y-81475958D01*
X166241243Y-81432462D01*
X166213597Y-81329284D01*
X166137673Y-81197780D01*
X165784973Y-80845080D01*
X165751488Y-80783757D01*
X165749434Y-80771281D01*
X165735368Y-80646433D01*
X165735367Y-80646428D01*
X165705655Y-80561515D01*
X165675788Y-80476161D01*
X165579815Y-80323421D01*
X165452261Y-80195867D01*
X165330175Y-80119155D01*
X165299522Y-80099894D01*
X165129253Y-80040314D01*
X165129248Y-80040313D01*
X164950003Y-80020118D01*
X164949995Y-80020118D01*
X164770749Y-80040313D01*
X164770744Y-80040314D01*
X164600475Y-80099894D01*
X164447736Y-80195867D01*
X164320183Y-80323420D01*
X164224210Y-80476159D01*
X164164630Y-80646428D01*
X164164629Y-80646433D01*
X164144434Y-80825679D01*
X164144434Y-80825686D01*
X164164629Y-81004932D01*
X164164631Y-81004940D01*
X164223872Y-81174241D01*
X164227433Y-81244019D01*
X164223872Y-81256149D01*
X164164634Y-81425441D01*
X164164632Y-81425449D01*
X164144437Y-81604695D01*
X164144437Y-81604702D01*
X164164632Y-81783948D01*
X164164633Y-81783953D01*
X164224213Y-81954222D01*
X164320186Y-82106961D01*
X164447082Y-82233857D01*
X164480567Y-82295180D01*
X164475583Y-82364872D01*
X164447083Y-82409218D01*
X164399065Y-82457236D01*
X164303092Y-82609975D01*
X164243512Y-82780244D01*
X164243511Y-82780249D01*
X164223316Y-82959495D01*
X164223316Y-82959502D01*
X164243512Y-83138752D01*
X164243512Y-83138753D01*
X164280822Y-83245382D01*
X164284383Y-83315161D01*
X164268775Y-83352306D01*
X164207661Y-83449569D01*
X164148086Y-83619824D01*
X164148083Y-83619837D01*
X164127888Y-83799083D01*
X159806610Y-83799083D01*
X159801569Y-83754345D01*
X159801568Y-83754340D01*
X159754503Y-83619837D01*
X159741989Y-83584073D01*
X159738008Y-83577738D01*
X159646015Y-83431332D01*
X159518462Y-83303779D01*
X159365723Y-83207806D01*
X159195454Y-83148226D01*
X159195449Y-83148225D01*
X159016204Y-83128030D01*
X159016196Y-83128030D01*
X158836950Y-83148225D01*
X158836945Y-83148226D01*
X158666676Y-83207806D01*
X158513937Y-83303779D01*
X158386384Y-83431332D01*
X158290411Y-83584071D01*
X158230831Y-83754340D01*
X158230830Y-83754345D01*
X158210635Y-83933591D01*
X152209069Y-83933591D01*
X152205369Y-83900750D01*
X152205368Y-83900745D01*
X152166293Y-83789075D01*
X152145789Y-83730478D01*
X152049816Y-83577738D01*
X151922262Y-83450184D01*
X151892259Y-83431332D01*
X151769523Y-83354211D01*
X151599254Y-83294631D01*
X151599249Y-83294630D01*
X151420004Y-83274435D01*
X151419996Y-83274435D01*
X151240750Y-83294630D01*
X151240745Y-83294631D01*
X151070476Y-83354211D01*
X150917737Y-83450184D01*
X150790184Y-83577737D01*
X150694211Y-83730476D01*
X150634631Y-83900745D01*
X150634630Y-83900750D01*
X150614435Y-84079996D01*
X150614435Y-84080004D01*
X150630282Y-84220660D01*
X150618227Y-84289482D01*
X150570878Y-84340861D01*
X150503267Y-84358485D01*
X150493179Y-84357763D01*
X150369985Y-84343883D01*
X150369977Y-84343883D01*
X150190731Y-84364078D01*
X150190726Y-84364079D01*
X150020457Y-84423659D01*
X149867718Y-84519632D01*
X149740165Y-84647185D01*
X149644192Y-84799924D01*
X149584612Y-84970193D01*
X149584611Y-84970198D01*
X149564416Y-85149444D01*
X148445900Y-85149444D01*
X148289254Y-85094631D01*
X148289249Y-85094630D01*
X148110004Y-85074435D01*
X148109996Y-85074435D01*
X147930750Y-85094630D01*
X147930745Y-85094631D01*
X147760476Y-85154211D01*
X147607737Y-85250184D01*
X147480184Y-85377737D01*
X147384211Y-85530476D01*
X147324631Y-85700745D01*
X147324630Y-85700750D01*
X147304435Y-85879996D01*
X147037613Y-85879996D01*
X147055368Y-85829255D01*
X147055369Y-85829249D01*
X147075565Y-85650003D01*
X147075565Y-85649996D01*
X147055369Y-85470750D01*
X147055368Y-85470745D01*
X147035862Y-85415000D01*
X146995789Y-85300478D01*
X146899816Y-85147738D01*
X146772262Y-85020184D01*
X146756062Y-85010005D01*
X146619523Y-84924211D01*
X146449254Y-84864631D01*
X146449249Y-84864630D01*
X146270004Y-84844435D01*
X146269996Y-84844435D01*
X146090750Y-84864630D01*
X146090745Y-84864631D01*
X145920476Y-84924211D01*
X145767737Y-85020184D01*
X145640184Y-85147737D01*
X145544211Y-85300476D01*
X145484631Y-85470745D01*
X145484630Y-85470750D01*
X145464435Y-85649996D01*
X145464435Y-85650003D01*
X145484630Y-85829249D01*
X145484631Y-85829254D01*
X145544211Y-85999523D01*
X145640184Y-86152262D01*
X145753979Y-86266057D01*
X145787464Y-86327380D01*
X145782480Y-86397072D01*
X145740608Y-86453005D01*
X145675144Y-86477422D01*
X145652415Y-86476958D01*
X145630004Y-86474433D01*
X145629996Y-86474433D01*
X145450750Y-86494628D01*
X145450745Y-86494629D01*
X145280476Y-86554209D01*
X145127737Y-86650182D01*
X145000184Y-86777735D01*
X144904211Y-86930474D01*
X144844631Y-87100743D01*
X144844630Y-87100748D01*
X144824435Y-87279994D01*
X142971501Y-87279994D01*
X142955495Y-87254521D01*
X142919816Y-87197738D01*
X142792262Y-87070184D01*
X142787338Y-87065260D01*
X142788900Y-87063697D01*
X142754831Y-87015142D01*
X142751992Y-86945330D01*
X142787346Y-86885066D01*
X142806316Y-86870410D01*
X142807262Y-86869816D01*
X142934816Y-86742262D01*
X143030789Y-86589522D01*
X143090368Y-86419255D01*
X143090369Y-86419249D01*
X143110565Y-86240003D01*
X143110565Y-86239996D01*
X143090369Y-86060750D01*
X143090368Y-86060745D01*
X143068945Y-85999522D01*
X143030789Y-85890478D01*
X143021212Y-85875237D01*
X142971029Y-85795371D01*
X142934816Y-85737738D01*
X142807262Y-85610184D01*
X142781902Y-85594249D01*
X142654523Y-85514211D01*
X142484254Y-85454631D01*
X142484249Y-85454630D01*
X142305004Y-85434435D01*
X142304996Y-85434435D01*
X142125750Y-85454630D01*
X142125742Y-85454632D01*
X141995281Y-85500282D01*
X141945019Y-85502846D01*
X141917942Y-85537521D01*
X141911645Y-85541752D01*
X141802739Y-85610182D01*
X141675184Y-85737737D01*
X141579211Y-85890476D01*
X141519631Y-86060745D01*
X141519630Y-86060750D01*
X141499435Y-86239996D01*
X141499435Y-86240003D01*
X141519630Y-86419249D01*
X141519631Y-86419254D01*
X141579211Y-86589523D01*
X141675184Y-86742262D01*
X141807662Y-86874740D01*
X141806098Y-86876303D01*
X141840167Y-86924851D01*
X141843009Y-86994663D01*
X141807657Y-87054929D01*
X141788689Y-87069585D01*
X141787747Y-87070176D01*
X141787737Y-87070184D01*
X141660184Y-87197737D01*
X141564211Y-87350476D01*
X141504631Y-87520745D01*
X141504630Y-87520750D01*
X141484435Y-87699996D01*
X137588909Y-87699996D01*
X137573053Y-87559265D01*
X137573052Y-87559260D01*
X137557397Y-87514522D01*
X137513473Y-87388993D01*
X137482700Y-87340018D01*
X137463700Y-87272782D01*
X137484068Y-87205946D01*
X137500010Y-87186366D01*
X137529816Y-87156562D01*
X137625789Y-87003822D01*
X137685368Y-86833555D01*
X137685791Y-86829801D01*
X137705565Y-86654303D01*
X137705565Y-86654296D01*
X137685369Y-86475050D01*
X137685368Y-86475045D01*
X137658084Y-86397072D01*
X137625789Y-86304778D01*
X137529816Y-86152038D01*
X137402262Y-86024484D01*
X137362537Y-85999523D01*
X137249523Y-85928511D01*
X137079254Y-85868931D01*
X137079249Y-85868930D01*
X136900004Y-85848735D01*
X136899996Y-85848735D01*
X136720750Y-85868930D01*
X136720745Y-85868931D01*
X136550476Y-85928511D01*
X136397737Y-86024484D01*
X136270184Y-86152037D01*
X136174211Y-86304776D01*
X136114631Y-86475045D01*
X136114630Y-86475050D01*
X136094435Y-86654296D01*
X136094435Y-86654303D01*
X136114630Y-86833549D01*
X136114633Y-86833562D01*
X136174209Y-87003820D01*
X136204983Y-87052797D01*
X136223983Y-87120034D01*
X136203615Y-87186869D01*
X136187672Y-87206448D01*
X136157868Y-87236251D01*
X136061895Y-87388991D01*
X136002315Y-87559260D01*
X136002314Y-87559265D01*
X135982119Y-87738511D01*
X131583567Y-87738511D01*
X131654816Y-87667262D01*
X131750789Y-87514522D01*
X131810368Y-87344255D01*
X131810369Y-87344249D01*
X131830565Y-87165003D01*
X131830565Y-87164996D01*
X131810369Y-86985750D01*
X131810368Y-86985745D01*
X131795431Y-86943057D01*
X131750789Y-86815478D01*
X131744436Y-86805368D01*
X131702260Y-86738245D01*
X131654816Y-86662738D01*
X131527262Y-86535184D01*
X131486888Y-86509815D01*
X131374523Y-86439211D01*
X131204254Y-86379631D01*
X131204249Y-86379630D01*
X131025004Y-86359435D01*
X131024996Y-86359435D01*
X130845750Y-86379630D01*
X130845745Y-86379631D01*
X130675476Y-86439211D01*
X130522737Y-86535184D01*
X130395184Y-86662737D01*
X130299211Y-86815476D01*
X130239631Y-86985745D01*
X130239630Y-86985750D01*
X130219435Y-87164996D01*
X116600500Y-87164996D01*
X116600500Y-86996989D01*
X116620185Y-86929950D01*
X116672989Y-86884195D01*
X116724500Y-86872989D01*
X123897998Y-86872989D01*
X123913207Y-86873925D01*
X123924929Y-86875373D01*
X123924930Y-86875374D01*
X123924930Y-86875373D01*
X123924931Y-86875374D01*
X123952820Y-86873323D01*
X123961915Y-86872989D01*
X123989880Y-86872989D01*
X123989882Y-86872989D01*
X123989883Y-86872988D01*
X123997250Y-86871522D01*
X124004473Y-86869524D01*
X124004479Y-86869524D01*
X124029488Y-86856942D01*
X124037707Y-86853179D01*
X124063574Y-86842465D01*
X124063578Y-86842460D01*
X124069810Y-86838296D01*
X124075726Y-86833680D01*
X124075734Y-86833677D01*
X124094016Y-86812491D01*
X124100190Y-86805848D01*
X124119976Y-86786063D01*
X124119978Y-86786057D01*
X124124135Y-86779837D01*
X124127842Y-86773295D01*
X124127847Y-86773291D01*
X124136629Y-86746724D01*
X124139799Y-86738202D01*
X124140497Y-86736517D01*
X124184352Y-86682126D01*
X124250652Y-86660078D01*
X124255046Y-86660000D01*
X124400000Y-86660000D01*
X123777498Y-85414996D01*
X126904435Y-85414996D01*
X126904435Y-85415003D01*
X126924630Y-85594249D01*
X126924631Y-85594254D01*
X126984211Y-85764523D01*
X127063353Y-85890476D01*
X127080184Y-85917262D01*
X127207738Y-86044816D01*
X127298080Y-86101582D01*
X127335935Y-86125368D01*
X127360478Y-86140789D01*
X127527547Y-86199249D01*
X127530745Y-86200368D01*
X127530750Y-86200369D01*
X127709996Y-86220565D01*
X127710000Y-86220565D01*
X127710004Y-86220565D01*
X127889249Y-86200369D01*
X127889252Y-86200368D01*
X127889255Y-86200368D01*
X128059522Y-86140789D01*
X128212262Y-86044816D01*
X128339816Y-85917262D01*
X128435789Y-85764522D01*
X128495368Y-85594255D01*
X128501284Y-85541752D01*
X128515565Y-85415003D01*
X128515565Y-85414996D01*
X128507115Y-85339996D01*
X138184435Y-85339996D01*
X138184435Y-85340003D01*
X138204630Y-85519249D01*
X138204631Y-85519254D01*
X138264211Y-85689523D01*
X138352011Y-85829255D01*
X138360184Y-85842262D01*
X138487738Y-85969816D01*
X138567599Y-86019996D01*
X138632450Y-86060745D01*
X138640478Y-86065789D01*
X138810745Y-86125368D01*
X138810750Y-86125369D01*
X138989996Y-86145565D01*
X138990000Y-86145565D01*
X138990004Y-86145565D01*
X139169249Y-86125369D01*
X139169252Y-86125368D01*
X139169255Y-86125368D01*
X139339522Y-86065789D01*
X139492262Y-85969816D01*
X139619816Y-85842262D01*
X139715789Y-85689522D01*
X139775368Y-85519255D01*
X139775539Y-85517737D01*
X139795565Y-85340003D01*
X139795565Y-85339996D01*
X139775369Y-85160750D01*
X139775368Y-85160745D01*
X139752233Y-85094630D01*
X139715789Y-84990478D01*
X139619816Y-84837738D01*
X139492262Y-84710184D01*
X139413159Y-84660480D01*
X139339523Y-84614211D01*
X139241743Y-84579996D01*
X140689435Y-84579996D01*
X140689435Y-84580003D01*
X140709630Y-84759249D01*
X140709631Y-84759254D01*
X140769211Y-84929523D01*
X140819777Y-85009998D01*
X140865184Y-85082262D01*
X140992738Y-85209816D01*
X141034004Y-85235745D01*
X141140270Y-85302517D01*
X141145478Y-85305789D01*
X141243256Y-85340003D01*
X141315745Y-85365368D01*
X141315750Y-85365369D01*
X141494996Y-85385565D01*
X141495000Y-85385565D01*
X141495004Y-85385565D01*
X141674249Y-85365369D01*
X141674251Y-85365368D01*
X141674255Y-85365368D01*
X141674258Y-85365366D01*
X141674262Y-85365366D01*
X141804717Y-85319718D01*
X141854979Y-85317152D01*
X141882058Y-85282477D01*
X141888334Y-85278259D01*
X141997262Y-85209816D01*
X142124816Y-85082262D01*
X142170223Y-85009998D01*
X143344435Y-85009998D01*
X143344435Y-85010005D01*
X143364630Y-85189251D01*
X143364631Y-85189256D01*
X143424211Y-85359525D01*
X143483970Y-85454630D01*
X143520184Y-85512264D01*
X143647738Y-85639818D01*
X143800478Y-85735791D01*
X143924714Y-85779263D01*
X143970745Y-85795370D01*
X143970750Y-85795371D01*
X144149996Y-85815567D01*
X144150000Y-85815567D01*
X144150004Y-85815567D01*
X144329249Y-85795371D01*
X144329252Y-85795370D01*
X144329255Y-85795370D01*
X144499522Y-85735791D01*
X144652262Y-85639818D01*
X144779816Y-85512264D01*
X144875789Y-85359524D01*
X144935368Y-85189257D01*
X144939853Y-85149451D01*
X144955565Y-85010005D01*
X144955565Y-85009998D01*
X144935369Y-84830752D01*
X144935368Y-84830747D01*
X144910352Y-84759255D01*
X144875789Y-84660480D01*
X144875100Y-84659384D01*
X144809280Y-84554632D01*
X144779816Y-84507740D01*
X144652262Y-84380186D01*
X144650317Y-84378964D01*
X144499523Y-84284213D01*
X144329254Y-84224633D01*
X144329249Y-84224632D01*
X144150004Y-84204437D01*
X144149996Y-84204437D01*
X143970750Y-84224632D01*
X143970745Y-84224633D01*
X143800476Y-84284213D01*
X143647737Y-84380186D01*
X143520184Y-84507739D01*
X143424211Y-84660478D01*
X143364631Y-84830747D01*
X143364630Y-84830752D01*
X143344435Y-85009998D01*
X142170223Y-85009998D01*
X142220789Y-84929522D01*
X142280368Y-84759255D01*
X142285897Y-84710184D01*
X142300565Y-84580003D01*
X142300565Y-84579996D01*
X142280369Y-84400750D01*
X142280368Y-84400745D01*
X142241435Y-84289482D01*
X142220789Y-84230478D01*
X142217116Y-84224633D01*
X142146878Y-84112850D01*
X142124816Y-84077738D01*
X141997262Y-83950184D01*
X141970861Y-83933595D01*
X141844523Y-83854211D01*
X141674254Y-83794631D01*
X141674249Y-83794630D01*
X141495004Y-83774435D01*
X141494996Y-83774435D01*
X141315750Y-83794630D01*
X141315745Y-83794631D01*
X141145476Y-83854211D01*
X140992737Y-83950184D01*
X140865184Y-84077737D01*
X140769211Y-84230476D01*
X140709631Y-84400745D01*
X140709630Y-84400750D01*
X140689435Y-84579996D01*
X139241743Y-84579996D01*
X139169254Y-84554631D01*
X139169249Y-84554630D01*
X138990004Y-84534435D01*
X138989996Y-84534435D01*
X138810750Y-84554630D01*
X138810745Y-84554631D01*
X138640476Y-84614211D01*
X138487737Y-84710184D01*
X138360184Y-84837737D01*
X138264211Y-84990476D01*
X138204631Y-85160745D01*
X138204630Y-85160750D01*
X138184435Y-85339996D01*
X128507115Y-85339996D01*
X128495369Y-85235750D01*
X128495368Y-85235745D01*
X128445990Y-85094631D01*
X128435789Y-85065478D01*
X128339816Y-84912738D01*
X128212262Y-84785184D01*
X128059523Y-84689211D01*
X127889254Y-84629631D01*
X127889249Y-84629630D01*
X127710004Y-84609435D01*
X127709996Y-84609435D01*
X127530750Y-84629630D01*
X127530745Y-84629631D01*
X127360476Y-84689211D01*
X127207737Y-84785184D01*
X127080184Y-84912737D01*
X126984211Y-85065476D01*
X126924631Y-85235745D01*
X126924630Y-85235750D01*
X126904435Y-85414996D01*
X123777498Y-85414996D01*
X122443114Y-82746228D01*
X147690667Y-82746228D01*
X147690667Y-82746235D01*
X147710862Y-82925481D01*
X147710863Y-82925486D01*
X147770443Y-83095755D01*
X147803413Y-83148226D01*
X147866416Y-83248494D01*
X147993970Y-83376048D01*
X148048711Y-83410444D01*
X148111956Y-83450184D01*
X148146710Y-83472021D01*
X148316977Y-83531600D01*
X148316982Y-83531601D01*
X148496228Y-83551797D01*
X148496232Y-83551797D01*
X148496236Y-83551797D01*
X148675481Y-83531601D01*
X148675484Y-83531600D01*
X148675487Y-83531600D01*
X148845754Y-83472021D01*
X148998494Y-83376048D01*
X149126048Y-83248494D01*
X149222021Y-83095754D01*
X149281600Y-82925487D01*
X149281601Y-82925481D01*
X149301797Y-82746235D01*
X149301797Y-82746228D01*
X149281601Y-82566982D01*
X149281600Y-82566977D01*
X149239101Y-82445522D01*
X149222021Y-82396710D01*
X149126048Y-82243970D01*
X148998494Y-82116416D01*
X148845755Y-82020443D01*
X148675486Y-81960863D01*
X148675481Y-81960862D01*
X148496236Y-81940667D01*
X148496228Y-81940667D01*
X148316982Y-81960862D01*
X148316977Y-81960863D01*
X148146708Y-82020443D01*
X147993969Y-82116416D01*
X147866416Y-82243969D01*
X147770443Y-82396708D01*
X147710863Y-82566977D01*
X147710862Y-82566982D01*
X147690667Y-82746228D01*
X122443114Y-82746228D01*
X121556213Y-80972426D01*
X121543839Y-80903664D01*
X121570607Y-80839125D01*
X121613181Y-80805322D01*
X123156000Y-80060000D01*
X130961278Y-76289333D01*
X131030198Y-76277898D01*
X131094367Y-76305542D01*
X131122494Y-76338810D01*
X133565731Y-80554398D01*
X133573004Y-80569116D01*
X133580026Y-80586065D01*
X133580028Y-80586069D01*
X133580030Y-80586071D01*
X133582828Y-80590259D01*
X133593209Y-80603764D01*
X133604594Y-80616702D01*
X133602203Y-80618805D01*
X133631948Y-80659396D01*
X133636221Y-80729135D01*
X133620324Y-80767514D01*
X133524211Y-80920476D01*
X133464631Y-81090745D01*
X133464630Y-81090750D01*
X133444435Y-81269996D01*
X133444435Y-81270003D01*
X133464630Y-81449249D01*
X133464631Y-81449254D01*
X133524211Y-81619523D01*
X133603983Y-81746478D01*
X133620184Y-81772262D01*
X133747738Y-81899816D01*
X133900478Y-81995789D01*
X134070745Y-82055368D01*
X134070750Y-82055369D01*
X134249996Y-82075565D01*
X134250000Y-82075565D01*
X134250004Y-82075565D01*
X134429249Y-82055369D01*
X134429252Y-82055368D01*
X134429255Y-82055368D01*
X134599522Y-81995789D01*
X134752262Y-81899816D01*
X134879816Y-81772262D01*
X134975789Y-81619522D01*
X135014679Y-81508382D01*
X139167518Y-81508382D01*
X139167518Y-81508389D01*
X139187713Y-81687635D01*
X139187714Y-81687640D01*
X139247294Y-81857909D01*
X139333930Y-81995788D01*
X139343267Y-82010648D01*
X139470821Y-82138202D01*
X139521031Y-82169751D01*
X139597549Y-82217831D01*
X139623561Y-82234175D01*
X139740958Y-82275254D01*
X139793828Y-82293754D01*
X139793833Y-82293755D01*
X139973079Y-82313951D01*
X139973083Y-82313951D01*
X139973087Y-82313951D01*
X140152332Y-82293755D01*
X140152335Y-82293754D01*
X140152338Y-82293754D01*
X140322605Y-82234175D01*
X140475345Y-82138202D01*
X140602899Y-82010648D01*
X140698872Y-81857908D01*
X140758451Y-81687641D01*
X140765710Y-81623216D01*
X140778648Y-81508389D01*
X140778648Y-81508382D01*
X140770093Y-81432458D01*
X149704435Y-81432458D01*
X149704435Y-81432462D01*
X149724630Y-81611711D01*
X149724631Y-81611716D01*
X149784211Y-81781985D01*
X149831917Y-81857908D01*
X149880184Y-81934724D01*
X150007738Y-82062278D01*
X150061400Y-82095996D01*
X150128568Y-82138201D01*
X150160478Y-82158251D01*
X150275026Y-82198333D01*
X150330745Y-82217830D01*
X150330750Y-82217831D01*
X150509996Y-82238027D01*
X150510000Y-82238027D01*
X150510004Y-82238027D01*
X150689249Y-82217831D01*
X150689252Y-82217830D01*
X150689255Y-82217830D01*
X150859522Y-82158251D01*
X151012262Y-82062278D01*
X151139816Y-81934724D01*
X151235789Y-81781984D01*
X151295368Y-81611717D01*
X151296159Y-81604702D01*
X151314270Y-81443958D01*
X161218236Y-81443958D01*
X161218236Y-81443965D01*
X161238431Y-81623211D01*
X161238432Y-81623216D01*
X161298012Y-81793485D01*
X161338492Y-81857908D01*
X161393985Y-81946224D01*
X161521539Y-82073778D01*
X161674279Y-82169751D01*
X161682416Y-82172598D01*
X161739194Y-82213317D01*
X161761823Y-82268746D01*
X161763079Y-82268460D01*
X161764629Y-82275252D01*
X161824208Y-82445521D01*
X161831569Y-82457236D01*
X161920182Y-82598262D01*
X162047736Y-82725816D01*
X162200476Y-82821789D01*
X162370743Y-82881368D01*
X162370748Y-82881369D01*
X162549994Y-82901565D01*
X162549998Y-82901565D01*
X162550002Y-82901565D01*
X162729247Y-82881369D01*
X162729250Y-82881368D01*
X162729253Y-82881368D01*
X162899520Y-82821789D01*
X163052260Y-82725816D01*
X163179814Y-82598262D01*
X163275787Y-82445522D01*
X163335366Y-82275255D01*
X163335367Y-82275249D01*
X163355563Y-82096003D01*
X163355563Y-82095996D01*
X163335367Y-81916750D01*
X163335366Y-81916745D01*
X163275786Y-81746476D01*
X163186701Y-81604699D01*
X163179814Y-81593738D01*
X163052260Y-81466184D01*
X162998592Y-81432462D01*
X162899522Y-81370212D01*
X162899520Y-81370211D01*
X162891373Y-81367360D01*
X162834598Y-81326636D01*
X162811975Y-81271208D01*
X162810718Y-81271495D01*
X162809169Y-81264711D01*
X162809169Y-81264707D01*
X162749590Y-81094440D01*
X162653617Y-80941700D01*
X162526063Y-80814146D01*
X162507761Y-80802646D01*
X162373324Y-80718173D01*
X162203055Y-80658593D01*
X162203050Y-80658592D01*
X162023805Y-80638397D01*
X162023797Y-80638397D01*
X161844551Y-80658592D01*
X161844546Y-80658593D01*
X161674277Y-80718173D01*
X161521538Y-80814146D01*
X161393985Y-80941699D01*
X161298012Y-81094438D01*
X161238432Y-81264707D01*
X161238431Y-81264712D01*
X161218236Y-81443958D01*
X151314270Y-81443958D01*
X151315565Y-81432462D01*
X151315565Y-81432458D01*
X151295369Y-81253212D01*
X151295368Y-81253207D01*
X151268074Y-81175205D01*
X151235789Y-81082940D01*
X151139816Y-80930200D01*
X151012262Y-80802646D01*
X150859523Y-80706673D01*
X150689254Y-80647093D01*
X150689249Y-80647092D01*
X150510004Y-80626897D01*
X150509996Y-80626897D01*
X150330750Y-80647092D01*
X150330745Y-80647093D01*
X150160476Y-80706673D01*
X150007737Y-80802646D01*
X149880184Y-80930199D01*
X149784211Y-81082938D01*
X149724631Y-81253207D01*
X149724630Y-81253212D01*
X149704435Y-81432458D01*
X140770093Y-81432458D01*
X140758452Y-81329136D01*
X140758451Y-81329131D01*
X140704590Y-81175205D01*
X140698872Y-81158864D01*
X140602899Y-81006124D01*
X140475345Y-80878570D01*
X140373218Y-80814399D01*
X140322606Y-80782597D01*
X140152337Y-80723017D01*
X140152332Y-80723016D01*
X139973087Y-80702821D01*
X139973079Y-80702821D01*
X139793833Y-80723016D01*
X139793828Y-80723017D01*
X139623559Y-80782597D01*
X139470820Y-80878570D01*
X139343267Y-81006123D01*
X139247294Y-81158862D01*
X139187714Y-81329131D01*
X139187713Y-81329136D01*
X139167518Y-81508382D01*
X135014679Y-81508382D01*
X135035368Y-81449255D01*
X135035964Y-81443965D01*
X135055565Y-81270003D01*
X135055565Y-81269996D01*
X135035369Y-81090750D01*
X135035368Y-81090745D01*
X135005757Y-81006123D01*
X134975789Y-80920478D01*
X134949456Y-80878570D01*
X134908976Y-80814146D01*
X134879816Y-80767738D01*
X134763341Y-80651263D01*
X134729856Y-80589940D01*
X134734840Y-80520248D01*
X134776712Y-80464315D01*
X134801287Y-80449994D01*
X138399067Y-78875000D01*
X154265000Y-78875000D01*
X155855000Y-78875000D01*
X155855000Y-77125000D01*
X154265000Y-77125000D01*
X154265000Y-78875000D01*
X138399067Y-78875000D01*
X143135374Y-76801595D01*
X143137483Y-76800697D01*
X145842367Y-75680185D01*
X145867096Y-75669941D01*
X145914553Y-75660500D01*
X146655141Y-75660500D01*
X146722180Y-75680185D01*
G37*
G04 #@! TD.AperFunction*
M02*
