G04 #@! TF.GenerationSoftware,KiCad,Pcbnew,8.0.6*
G04 #@! TF.CreationDate,2025-05-29T10:34:23-07:00*
G04 #@! TF.ProjectId,Drone PCB,44726f6e-6520-4504-9342-2e6b69636164,rev?*
G04 #@! TF.SameCoordinates,Original*
G04 #@! TF.FileFunction,Paste,Bot*
G04 #@! TF.FilePolarity,Positive*
%FSLAX46Y46*%
G04 Gerber Fmt 4.6, Leading zero omitted, Abs format (unit mm)*
G04 Created by KiCad (PCBNEW 8.0.6) date 2025-05-29 10:34:23*
%MOMM*%
%LPD*%
G01*
G04 APERTURE LIST*
G04 Aperture macros list*
%AMRoundRect*
0 Rectangle with rounded corners*
0 $1 Rounding radius*
0 $2 $3 $4 $5 $6 $7 $8 $9 X,Y pos of 4 corners*
0 Add a 4 corners polygon primitive as box body*
4,1,4,$2,$3,$4,$5,$6,$7,$8,$9,$2,$3,0*
0 Add four circle primitives for the rounded corners*
1,1,$1+$1,$2,$3*
1,1,$1+$1,$4,$5*
1,1,$1+$1,$6,$7*
1,1,$1+$1,$8,$9*
0 Add four rect primitives between the rounded corners*
20,1,$1+$1,$2,$3,$4,$5,0*
20,1,$1+$1,$4,$5,$6,$7,0*
20,1,$1+$1,$6,$7,$8,$9,0*
20,1,$1+$1,$8,$9,$2,$3,0*%
%AMRotRect*
0 Rectangle, with rotation*
0 The origin of the aperture is its center*
0 $1 length*
0 $2 width*
0 $3 Rotation angle, in degrees counterclockwise*
0 Add horizontal line*
21,1,$1,$2,0,0,$3*%
G04 Aperture macros list end*
%ADD10RotRect,1.000000X2.450000X119.000000*%
%ADD11RotRect,1.000000X2.450000X209.000000*%
%ADD12RotRect,1.000000X2.450000X151.000000*%
%ADD13RotRect,1.000000X2.450000X241.000000*%
%ADD14R,2.450000X1.000000*%
%ADD15R,1.000000X2.450000*%
%ADD16RoundRect,0.200000X0.053033X-0.335876X0.335876X-0.053033X-0.053033X0.335876X-0.335876X0.053033X0*%
%ADD17RoundRect,0.150000X0.150000X-0.587500X0.150000X0.587500X-0.150000X0.587500X-0.150000X-0.587500X0*%
%ADD18R,2.000000X1.100000*%
%ADD19RoundRect,0.200000X0.200000X0.275000X-0.200000X0.275000X-0.200000X-0.275000X0.200000X-0.275000X0*%
%ADD20RoundRect,0.060000X-0.240000X-0.060000X0.240000X-0.060000X0.240000X0.060000X-0.240000X0.060000X0*%
%ADD21RoundRect,0.025000X-0.100000X-0.145000X0.100000X-0.145000X0.100000X0.145000X-0.100000X0.145000X0*%
%ADD22RoundRect,0.106000X-0.644000X-0.424000X0.644000X-0.424000X0.644000X0.424000X-0.644000X0.424000X0*%
%ADD23RoundRect,0.225000X-0.250000X0.225000X-0.250000X-0.225000X0.250000X-0.225000X0.250000X0.225000X0*%
%ADD24RoundRect,0.225000X0.225000X0.250000X-0.225000X0.250000X-0.225000X-0.250000X0.225000X-0.250000X0*%
%ADD25RoundRect,0.075000X-0.260000X-0.075000X0.260000X-0.075000X0.260000X0.075000X-0.260000X0.075000X0*%
%ADD26RoundRect,0.225000X-0.225000X-0.250000X0.225000X-0.250000X0.225000X0.250000X-0.225000X0.250000X0*%
%ADD27RoundRect,0.200000X-0.200000X-0.275000X0.200000X-0.275000X0.200000X0.275000X-0.200000X0.275000X0*%
%ADD28RoundRect,0.225000X0.225000X-0.225000X0.225000X0.225000X-0.225000X0.225000X-0.225000X-0.225000X0*%
%ADD29RoundRect,0.062500X0.062500X-0.337500X0.062500X0.337500X-0.062500X0.337500X-0.062500X-0.337500X0*%
%ADD30RoundRect,0.062500X0.337500X-0.062500X0.337500X0.062500X-0.337500X0.062500X-0.337500X-0.062500X0*%
%ADD31RoundRect,0.250000X-0.325000X-0.650000X0.325000X-0.650000X0.325000X0.650000X-0.325000X0.650000X0*%
%ADD32R,1.500000X0.900000*%
%ADD33R,0.900000X1.500000*%
%ADD34R,0.900000X0.900000*%
%ADD35RoundRect,0.200000X0.275000X-0.200000X0.275000X0.200000X-0.275000X0.200000X-0.275000X-0.200000X0*%
%ADD36RoundRect,0.200000X-0.053033X0.335876X-0.335876X0.053033X0.053033X-0.335876X0.335876X-0.053033X0*%
%ADD37RoundRect,0.200000X-0.275000X0.200000X-0.275000X-0.200000X0.275000X-0.200000X0.275000X0.200000X0*%
%ADD38RoundRect,0.250000X0.850000X-0.375000X0.850000X0.375000X-0.850000X0.375000X-0.850000X-0.375000X0*%
%ADD39RoundRect,0.167500X0.000000X-0.236881X0.236881X0.000000X0.000000X0.236881X-0.236881X0.000000X0*%
%ADD40RoundRect,0.050000X-0.229810X-0.300520X0.300520X0.229810X0.229810X0.300520X-0.300520X-0.229810X0*%
%ADD41RoundRect,0.050000X0.229810X-0.300520X0.300520X-0.229810X-0.229810X0.300520X-0.300520X0.229810X0*%
%ADD42RoundRect,0.093750X-0.156250X-0.093750X0.156250X-0.093750X0.156250X0.093750X-0.156250X0.093750X0*%
%ADD43RoundRect,0.075000X-0.250000X-0.075000X0.250000X-0.075000X0.250000X0.075000X-0.250000X0.075000X0*%
%ADD44RoundRect,0.225000X-0.017678X0.335876X-0.335876X0.017678X0.017678X-0.335876X0.335876X-0.017678X0*%
%ADD45O,1.800000X1.000000*%
%ADD46O,2.100000X1.000000*%
%ADD47RoundRect,0.150000X0.425000X-0.150000X0.425000X0.150000X-0.425000X0.150000X-0.425000X-0.150000X0*%
%ADD48RoundRect,0.075000X0.500000X-0.075000X0.500000X0.075000X-0.500000X0.075000X-0.500000X-0.075000X0*%
G04 APERTURE END LIST*
D10*
X177007183Y-140254922D03*
X173613515Y-134132582D03*
X174970984Y-136581516D03*
D11*
X181793222Y-140225971D03*
X183017691Y-139547237D03*
D10*
X172934781Y-132908116D03*
X176328450Y-139030453D03*
X175649714Y-137805983D03*
D11*
X179344289Y-141583438D03*
X185466625Y-138189771D03*
X184242158Y-138868504D03*
X187915559Y-136832307D03*
D10*
X174292250Y-135357051D03*
D11*
X180568755Y-140904702D03*
D10*
X172256051Y-131683646D03*
D11*
X186691094Y-137511038D03*
D12*
X125360366Y-139526962D03*
X127809301Y-140884429D03*
X121686963Y-137490761D03*
X122911431Y-138169494D03*
X129033769Y-141563162D03*
X126584833Y-140205695D03*
X124135898Y-138848228D03*
D13*
X137695356Y-133558793D03*
X137016623Y-134783261D03*
X136337890Y-136007728D03*
X135659156Y-137232196D03*
X134980423Y-138456663D03*
X134301689Y-139681132D03*
X133622955Y-140905598D03*
X132944221Y-142130066D03*
D12*
X130258236Y-142241895D03*
D14*
X161700000Y-117458800D03*
X161700000Y-116058800D03*
X161700000Y-114658800D03*
X161700000Y-113258800D03*
X161700000Y-111858800D03*
X161700000Y-110458800D03*
X161700000Y-109060000D03*
X161700000Y-107660000D03*
D15*
X160300000Y-105363800D03*
X158900000Y-105363800D03*
X157500000Y-105363800D03*
X156100000Y-105363800D03*
X154700000Y-105363800D03*
X153300000Y-105363800D03*
X151900000Y-105363800D03*
X150500000Y-105363800D03*
D14*
X149100000Y-107658800D03*
X149100000Y-109058800D03*
X149100000Y-110458800D03*
X149100000Y-111858800D03*
X149100000Y-113258800D03*
X149100000Y-114658800D03*
X149100000Y-116058800D03*
X149100000Y-117458800D03*
D16*
X127460000Y-107740000D03*
X126293274Y-108906726D03*
D17*
X118940000Y-103440000D03*
X117990000Y-105315000D03*
X119890000Y-105315000D03*
X122340000Y-103445000D03*
X121390000Y-105320000D03*
X123290000Y-105320000D03*
D18*
X175800000Y-90400000D03*
X175800000Y-92100000D03*
X175800000Y-93800000D03*
X171000000Y-93800000D03*
X171000000Y-92100000D03*
X171000000Y-90400000D03*
D19*
X126200000Y-101565000D03*
X127850000Y-101565000D03*
X129295000Y-100000000D03*
X130945000Y-100000000D03*
D18*
X139000000Y-90400000D03*
X139000000Y-92100000D03*
X139000000Y-93800000D03*
X134200000Y-93800000D03*
X134200000Y-92100000D03*
X134200000Y-90400000D03*
D20*
X147245000Y-100720000D03*
X147245000Y-100220000D03*
X147245000Y-99720000D03*
X147245000Y-99220000D03*
X147245000Y-98720000D03*
X144445000Y-98720000D03*
X144445000Y-99220000D03*
X144445000Y-99720000D03*
X144445000Y-100220000D03*
X144445000Y-100720000D03*
D21*
X146095000Y-98190000D03*
X146095000Y-101250000D03*
D22*
X145845000Y-99090000D03*
X145845000Y-100350000D03*
D21*
X145595000Y-98190000D03*
X145595000Y-101250000D03*
D19*
X131025000Y-87165000D03*
X132675000Y-87165000D03*
X129295000Y-102950000D03*
X130945000Y-102950000D03*
X120150000Y-90950000D03*
X121800000Y-90950000D03*
D23*
X121740000Y-87915000D03*
X121740000Y-89465000D03*
D19*
X129305000Y-101460000D03*
X130955000Y-101460000D03*
D24*
X144470000Y-102410000D03*
X142920000Y-102410000D03*
D25*
X127730000Y-100165000D03*
X127730000Y-99665000D03*
X127730000Y-99165000D03*
X127730000Y-98665000D03*
X126250000Y-98665000D03*
X126250000Y-99165000D03*
X126250000Y-99665000D03*
X126250000Y-100165000D03*
D19*
X143965000Y-87730000D03*
X142315000Y-87730000D03*
D26*
X142915000Y-97010000D03*
X144465000Y-97010000D03*
D19*
X124825000Y-87970000D03*
X123175000Y-87970000D03*
D27*
X128055000Y-87130000D03*
X129705000Y-87130000D03*
D28*
X129720000Y-93620000D03*
X128600000Y-93620000D03*
X127480000Y-93620000D03*
X129720000Y-92500000D03*
X128600000Y-92500000D03*
X127480000Y-92500000D03*
X129720000Y-91380000D03*
X128600000Y-91380000D03*
X127480000Y-91380000D03*
D29*
X130100000Y-94950000D03*
X129600000Y-94950000D03*
X129100000Y-94950000D03*
X128600000Y-94950000D03*
X128100000Y-94950000D03*
X127600000Y-94950000D03*
X127100000Y-94950000D03*
D30*
X126150000Y-94000000D03*
X126150000Y-93500000D03*
X126150000Y-93000000D03*
X126150000Y-92500000D03*
X126150000Y-92000000D03*
X126150000Y-91500000D03*
X126150000Y-91000000D03*
D29*
X127100000Y-90050000D03*
X127600000Y-90050000D03*
X128100000Y-90050000D03*
X128600000Y-90050000D03*
X129100000Y-90050000D03*
X129600000Y-90050000D03*
X130100000Y-90050000D03*
D30*
X131050000Y-91000000D03*
X131050000Y-91500000D03*
X131050000Y-92000000D03*
X131050000Y-92500000D03*
X131050000Y-93000000D03*
X131050000Y-93500000D03*
X131050000Y-94000000D03*
D31*
X166115000Y-86700000D03*
X169065000Y-86700000D03*
D19*
X147515000Y-97010000D03*
X145865000Y-97010000D03*
D32*
X163750000Y-76750000D03*
X163750000Y-78020000D03*
X163750000Y-79290000D03*
X163750000Y-80560000D03*
X163750000Y-81830000D03*
X163750000Y-83100000D03*
X163750000Y-84370000D03*
X163750000Y-85640000D03*
X163750000Y-86910000D03*
X163750000Y-88180000D03*
X163750000Y-89450000D03*
X163750000Y-90720000D03*
X163750000Y-91990000D03*
X163750000Y-93260000D03*
D33*
X160710000Y-94510000D03*
X159440000Y-94510000D03*
X158170000Y-94510000D03*
X156900000Y-94510000D03*
X155630000Y-94510000D03*
X154360000Y-94510000D03*
X153090000Y-94510000D03*
X151820000Y-94510000D03*
X150550000Y-94510000D03*
X149280000Y-94510000D03*
D32*
X146250000Y-93260000D03*
X146250000Y-91990000D03*
X146250000Y-90720000D03*
X146250000Y-89450000D03*
X146250000Y-88180000D03*
X146250000Y-86910000D03*
X146250000Y-85640000D03*
X146250000Y-84370000D03*
X146250000Y-83100000D03*
X146250000Y-81830000D03*
X146250000Y-80560000D03*
X146250000Y-79290000D03*
X146250000Y-78020000D03*
X146250000Y-76750000D03*
D34*
X157900000Y-83070000D03*
X157900000Y-84470000D03*
X157900000Y-85870000D03*
X156500000Y-83070000D03*
X156500000Y-84470000D03*
X156500000Y-85870000D03*
X155100000Y-83070000D03*
X155100000Y-84470000D03*
X155100000Y-85870000D03*
D35*
X164030000Y-114760000D03*
X164030000Y-113110000D03*
D19*
X143955000Y-86240000D03*
X142305000Y-86240000D03*
D36*
X151733363Y-100436637D03*
X150566637Y-101603363D03*
D18*
X171000000Y-100200000D03*
X171000000Y-101900000D03*
X171000000Y-103600000D03*
X175800000Y-103600000D03*
X175800000Y-101900000D03*
X175800000Y-100200000D03*
D37*
X129300000Y-98325000D03*
X129300000Y-96675000D03*
D18*
X171400000Y-110000000D03*
X171400000Y-111700000D03*
X171400000Y-113400000D03*
X166600000Y-113400000D03*
X166600000Y-111700000D03*
X166600000Y-110000000D03*
D23*
X148550000Y-98535000D03*
X148550000Y-100085000D03*
D38*
X142545000Y-100795000D03*
X142545000Y-98645000D03*
D39*
X155050000Y-100379828D03*
X154470172Y-99800000D03*
X155629828Y-99800000D03*
X155050000Y-99220172D03*
D40*
X154590381Y-101390990D03*
X154307538Y-101108148D03*
X154024695Y-100825305D03*
X153741852Y-100542462D03*
X153459010Y-100259619D03*
D41*
X153459010Y-99340381D03*
X153741852Y-99057538D03*
X154024695Y-98774695D03*
X154307538Y-98491852D03*
X154590381Y-98209010D03*
D40*
X155509619Y-98209010D03*
X155792462Y-98491852D03*
X156075305Y-98774695D03*
X156358148Y-99057538D03*
X156640990Y-99340381D03*
D41*
X156640990Y-100259619D03*
X156358148Y-100542462D03*
X156075305Y-100825305D03*
X155792462Y-101108148D03*
X155509619Y-101390990D03*
D17*
X129610000Y-85415000D03*
X127710000Y-85415000D03*
X128660000Y-83540000D03*
D42*
X126150000Y-97475000D03*
D43*
X126075000Y-96937500D03*
D42*
X126150000Y-96400000D03*
X127850000Y-96400000D03*
D43*
X127925000Y-96937500D03*
D42*
X127850000Y-97475000D03*
D36*
X152773363Y-101476637D03*
X151606637Y-102643363D03*
D18*
X143400000Y-80610000D03*
X143400000Y-82310000D03*
X143400000Y-84010000D03*
X138600000Y-84010000D03*
X138600000Y-82310000D03*
X138600000Y-80610000D03*
D24*
X147440000Y-102430000D03*
X145890000Y-102430000D03*
D26*
X130765000Y-96360000D03*
X132315000Y-96360000D03*
D23*
X165490000Y-77255000D03*
X165490000Y-78805000D03*
D18*
X166600000Y-80610000D03*
X166600000Y-82310000D03*
X166600000Y-84010000D03*
X171400000Y-84010000D03*
X171400000Y-82310000D03*
X171400000Y-80610000D03*
D19*
X123165000Y-89520000D03*
X124815000Y-89520000D03*
D44*
X157288008Y-101641992D03*
X156191992Y-102738008D03*
D19*
X123145000Y-90980000D03*
X124795000Y-90980000D03*
D18*
X134200000Y-100200000D03*
X134200000Y-101900000D03*
X134200000Y-103600000D03*
X139000000Y-103600000D03*
X139000000Y-101900000D03*
X139000000Y-100200000D03*
D17*
X133030000Y-85415000D03*
X131130000Y-85415000D03*
X132080000Y-83540000D03*
D19*
X127835000Y-88610000D03*
X126185000Y-88610000D03*
D45*
X119070000Y-92710001D03*
D46*
X123250000Y-92710000D03*
D45*
X119070000Y-101350001D03*
D46*
X123250000Y-101350000D03*
D47*
X123825000Y-100230000D03*
X123825000Y-99430000D03*
D48*
X123825000Y-98780001D03*
X123825000Y-97780000D03*
X123825000Y-96280000D03*
X123824999Y-95280000D03*
D47*
X123825000Y-94630000D03*
X123825000Y-93830001D03*
X123825000Y-93830001D03*
X123825000Y-94630000D03*
D48*
X123825000Y-95780000D03*
X123825000Y-96780000D03*
X123825000Y-97280000D03*
X123825000Y-98280000D03*
D47*
X123825000Y-99430000D03*
X123825000Y-100230000D03*
D18*
X143400000Y-110000000D03*
X143400000Y-111700000D03*
X143400000Y-113400000D03*
X138600000Y-113400000D03*
X138600000Y-111700000D03*
X138600000Y-110000000D03*
D26*
X130775000Y-97840000D03*
X132325000Y-97840000D03*
M02*
