M48
; DRILL file {KiCad 8.0.6} date 2025-05-29T10:34:43-0700
; FORMAT={-:-/ absolute / metric / decimal}
; #@! TF.CreationDate,2025-05-29T10:34:43-07:00
; #@! TF.GenerationSoftware,Kicad,Pcbnew,8.0.6
; #@! TF.FileFunction,Plated,1,4,PTH
FMAT,2
METRIC
; #@! TA.AperFunction,Plated,PTH,ComponentDrill
T1C0.200
; #@! TA.AperFunction,Plated,PTH,ViaDrill
T2C0.300
; #@! TA.AperFunction,Plated,PTH,ComponentDrill
T3C0.600
; #@! TA.AperFunction,Plated,PTH,ComponentDrill
T4C2.388
%
G90
G05
T1
X145.27Y-99.72
X145.845Y-98.77
X145.845Y-100.67
X146.42Y-99.72
X155.1Y-83.77
X155.1Y-85.17
X155.8Y-83.07
X155.8Y-84.47
X155.8Y-85.87
X156.525Y-83.77
X156.525Y-85.17
X157.2Y-83.07
X157.2Y-84.47
X157.2Y-85.87
X157.9Y-83.77
X157.9Y-85.17
T2
X112.686Y-60.786
X113.222Y-61.818
X113.715Y-60.15
X113.759Y-62.85
X114.303Y-61.23
X114.696Y-59.615
X114.839Y-62.262
X115.283Y-60.645
X115.819Y-61.677
X116.235Y-63.564
X116.531Y-135.496
X116.942Y-63.739
X117.057Y-134.434
X117.523Y-136.012
X117.613Y-133.413
X117.99Y-104.88
X117.99Y-105.76
X118.09Y-134.92
X118.626Y-136.508
X118.645Y-133.898
X118.694Y-131.329
X118.94Y-102.99
X118.94Y-103.86
X118.944Y-132.013
X119.181Y-135.487
X119.737Y-134.465
X120.3Y-90.95
X121.39Y-104.88
X121.41Y-105.74
X122.021Y-136.887
X122.34Y-102.95
X122.36Y-103.86
X123.175Y-87.97
X123.246Y-137.566
X123.304Y-113.293
X123.413Y-78.221
X123.676Y-112.529
X123.825Y-93.83
X123.825Y-94.63
X123.825Y-99.43
X123.825Y-100.23
X124.1Y-91.809
X124.445Y-111.291
X124.47Y-138.245
X124.83Y-81.005
X125.166Y-77.432
X125.2Y-92.714
X125.207Y-101.78
X125.446Y-116.852
X125.47Y-96.91
X125.601Y-99.165
X125.695Y-138.923
X125.911Y-102.631
X126.25Y-100.315
X126.717Y-94.574
X126.899Y-99.665
X126.905Y-139.628
X127.151Y-98.672
X127.208Y-117.753
X127.46Y-107.71
X127.71Y-85.415
X127.73Y-88.9
X128.129Y-140.307
X128.56Y-99.815
X128.561Y-115.132
X128.61Y-92.5
X129.194Y-95.734
X129.316Y-77.646
X129.354Y-140.986
X129.742Y-78.382
X130.285Y-79.68
X130.578Y-141.665
X130.97Y-102.93
X131.025Y-87.165
X131.65Y-94.53
X131.81Y-105.13
X132.363Y-141.808
X132.49Y-95.24
X132.66Y-93.98
X133.028Y-89.37
X133.041Y-140.583
X133.72Y-139.359
X134.2Y-103.6
X134.25Y-81.27
X134.34Y-111.33
X134.399Y-138.134
X135.078Y-136.91
X135.756Y-135.685
X136.33Y-92.72
X136.435Y-134.461
X136.788Y-87.739
X136.835Y-104.489
X136.9Y-86.654
X136.955Y-94.99
X137.114Y-133.236
X137.55Y-101.86
X138.23Y-94.99
X138.856Y-105.634
X138.99Y-85.34
X139.0Y-103.6
X139.97Y-92.1
X139.973Y-81.508
X140.586Y-104.182
X140.83Y-94.83
X141.26Y-92.725
X141.495Y-84.58
X142.29Y-87.7
X142.305Y-86.24
X142.74Y-96.82
X142.775Y-109.0
X142.925Y-102.41
X143.33Y-97.26
X144.08Y-79.56
X144.125Y-98.0
X144.15Y-85.01
X144.281Y-98.537
X144.44Y-100.97
X144.47Y-102.41
X144.48Y-97.01
X145.05Y-91.66
X145.63Y-87.28
X146.25Y-89.45
X146.27Y-85.65
X146.28Y-91.94
X146.3Y-88.14
X147.07Y-76.915
X147.214Y-101.04
X147.44Y-102.43
X147.448Y-76.26
X148.011Y-77.917
X148.11Y-85.88
X148.496Y-82.746
X148.848Y-87.187
X149.1Y-109.059
X149.13Y-107.67
X149.141Y-76.786
X149.24Y-114.73
X149.77Y-87.874
X150.052Y-87.166
X150.37Y-85.149
X150.51Y-81.432
X150.55Y-94.51
X150.57Y-101.6
X150.71Y-78.31
X150.73Y-87.998
X151.42Y-84.08
X151.455Y-81.29
X151.64Y-102.65
X152.266Y-99.767
X152.753Y-99.045
X152.773Y-101.477
X152.8Y-109.45
X153.21Y-98.45
X153.789Y-97.973
X154.25Y-109.36
X154.28Y-115.86
X154.41Y-97.41
X155.06Y-99.84
X155.254Y-101.913
X155.557Y-100.307
X155.635Y-97.305
X155.71Y-109.41
X156.26Y-79.595
X158.197Y-78.46
X158.619Y-97.553
X158.93Y-95.76
X159.016Y-83.934
X159.108Y-102.34
X159.151Y-98.159
X159.331Y-107.138
X159.34Y-108.65
X159.64Y-109.55
X159.715Y-98.727
X160.274Y-99.227
X160.34Y-105.39
X160.667Y-100.084
X160.72Y-94.47
X161.326Y-99.727
X161.672Y-87.998
X161.7Y-116.059
X161.849Y-113.41
X162.024Y-81.444
X162.421Y-87.978
X162.55Y-82.096
X162.55Y-107.68
X162.998Y-100.159
X163.31Y-100.99
X163.8Y-92.01
X163.81Y-76.36
X164.64Y-100.48
X164.933Y-83.799
X164.95Y-80.826
X164.95Y-81.605
X165.029Y-82.959
X165.15Y-84.517
X166.95Y-86.02
X169.22Y-84.52
X169.361Y-79.359
X171.213Y-89.303
X172.256Y-98.2
X172.713Y-97.575
X172.86Y-131.349
X173.538Y-132.574
X174.217Y-133.798
X174.896Y-135.023
X175.548Y-136.262
X175.8Y-90.4
X175.8Y-92.1
X175.8Y-100.2
X176.227Y-137.486
X176.906Y-138.71
X177.38Y-94.27
X177.584Y-139.935
X179.022Y-141.002
X179.697Y-114.182
X180.246Y-140.323
X180.293Y-115.512
X181.353Y-78.816
X181.471Y-139.644
X182.695Y-138.966
X182.742Y-76.197
X183.92Y-138.287
X184.504Y-77.098
X184.867Y-116.462
X185.144Y-137.608
X185.205Y-112.889
X185.505Y-82.659
X186.274Y-81.421
X186.369Y-136.929
X186.622Y-115.673
X186.646Y-80.657
X187.593Y-136.251
X190.213Y-59.485
X190.769Y-58.463
X191.006Y-61.937
X191.256Y-62.621
X191.305Y-60.052
X191.324Y-57.442
X191.86Y-59.03
X192.337Y-60.537
X192.427Y-57.938
X192.893Y-59.516
X193.094Y-130.154
X193.419Y-58.454
X193.8Y-130.33
X194.216Y-132.216
X194.753Y-133.248
X195.196Y-131.632
X195.339Y-134.278
X195.733Y-132.664
X196.277Y-131.044
X196.321Y-133.744
X196.813Y-132.076
X197.349Y-133.107
T4
X119.17Y-96.891
X190.849Y-96.891
T3
X118.67Y-92.71G85X119.47Y-92.71
G05
X118.67Y-101.35G85X119.47Y-101.35
G05
X122.7Y-92.71G85X123.8Y-92.71
G05
X122.7Y-101.35G85X123.8Y-101.35
G05
M30
