G04 #@! TF.GenerationSoftware,KiCad,Pcbnew,8.0.6*
G04 #@! TF.CreationDate,2025-05-29T10:34:23-07:00*
G04 #@! TF.ProjectId,Drone PCB,44726f6e-6520-4504-9342-2e6b69636164,rev?*
G04 #@! TF.SameCoordinates,Original*
G04 #@! TF.FileFunction,Copper,L2,Inr*
G04 #@! TF.FilePolarity,Positive*
%FSLAX46Y46*%
G04 Gerber Fmt 4.6, Leading zero omitted, Abs format (unit mm)*
G04 Created by KiCad (PCBNEW 8.0.6) date 2025-05-29 10:34:23*
%MOMM*%
%LPD*%
G01*
G04 APERTURE LIST*
G04 #@! TA.AperFunction,ComponentPad*
%ADD10C,0.500000*%
G04 #@! TD*
G04 #@! TA.AperFunction,HeatsinkPad*
%ADD11C,0.600000*%
G04 #@! TD*
G04 #@! TA.AperFunction,ComponentPad*
%ADD12O,1.800000X1.000000*%
G04 #@! TD*
G04 #@! TA.AperFunction,ComponentPad*
%ADD13O,2.100000X1.000000*%
G04 #@! TD*
G04 #@! TA.AperFunction,ComponentPad*
%ADD14C,5.080000*%
G04 #@! TD*
G04 #@! TA.AperFunction,ViaPad*
%ADD15C,0.600000*%
G04 #@! TD*
G04 #@! TA.AperFunction,Conductor*
%ADD16C,0.152400*%
G04 #@! TD*
G04 APERTURE END LIST*
D10*
X146420000Y-99720000D03*
X145845000Y-98770000D03*
X145845000Y-100670000D03*
X145270000Y-99720000D03*
D11*
X157900000Y-83770000D03*
X157900000Y-85170000D03*
X157200000Y-83070000D03*
X157200000Y-84470000D03*
X157200000Y-85870000D03*
X156525000Y-83770000D03*
X156525000Y-85170000D03*
X155800000Y-83070000D03*
X155800000Y-84470000D03*
X155800000Y-85870000D03*
X155100000Y-83770000D03*
X155100000Y-85170000D03*
D12*
X119070000Y-92710001D03*
D13*
X123250000Y-92710000D03*
D12*
X119070000Y-101350001D03*
D13*
X123250000Y-101350000D03*
D14*
X119170000Y-96891000D03*
X190848800Y-96891000D03*
D15*
X181470824Y-139644349D03*
X174217002Y-133798067D03*
X187593162Y-136250684D03*
X186368696Y-136929418D03*
X185144226Y-137608147D03*
X182695292Y-138965618D03*
X173538270Y-132573596D03*
X174895737Y-135022533D03*
X183919759Y-138286883D03*
X172859536Y-131349130D03*
X175548231Y-136261544D03*
X179021890Y-141001819D03*
X177584431Y-139934946D03*
X176226964Y-137486010D03*
X176905696Y-138710479D03*
X180246359Y-140323080D03*
X137113733Y-133236394D03*
X136435001Y-134460861D03*
X135756267Y-135685329D03*
X135077533Y-136909798D03*
X134398800Y-138134264D03*
X133720067Y-139358732D03*
X133041333Y-140583199D03*
X132362600Y-141807668D03*
X130578211Y-141664646D03*
X129353742Y-140985913D03*
X128129276Y-140307179D03*
X126904808Y-139628445D03*
X125694885Y-138923474D03*
X124470416Y-138244741D03*
X123245949Y-137566007D03*
X122021481Y-136887274D03*
X163310000Y-100990000D03*
X164640000Y-100480000D03*
X159107600Y-102340000D03*
X160666736Y-100084270D03*
X127151333Y-98671936D03*
X150369981Y-85149448D03*
X123175000Y-87970000D03*
X162997600Y-100159243D03*
X162550000Y-107680000D03*
X159331400Y-107137816D03*
X155635405Y-97305405D03*
X149240000Y-114730000D03*
X150550000Y-94510000D03*
X175800000Y-92100000D03*
X172712853Y-97575001D03*
X158930000Y-95760000D03*
X160273800Y-99227044D03*
X159714782Y-98727044D03*
X159150826Y-98159243D03*
X158619361Y-97553259D03*
X160720000Y-94470000D03*
X164933453Y-83799087D03*
X161671717Y-87998071D03*
X162549998Y-82096000D03*
X132660000Y-93980000D03*
X159016200Y-83933595D03*
X136330000Y-92720000D03*
X141260000Y-92725000D03*
X152753167Y-99044858D03*
X153209976Y-98450023D03*
X153788920Y-97973234D03*
X154410000Y-97410000D03*
X139970000Y-92100000D03*
X140830000Y-94830000D03*
X161326200Y-99727044D03*
X163800000Y-92010000D03*
X172256117Y-98200001D03*
X175800000Y-100200000D03*
X177380000Y-94270000D03*
X171213059Y-89303057D03*
X175800000Y-90400000D03*
X165149998Y-84517148D03*
X125207389Y-101779792D03*
X125911409Y-102631409D03*
X130970000Y-102930000D03*
X127460000Y-107710000D03*
X121410000Y-105740000D03*
X121390000Y-104880000D03*
X117990000Y-105760000D03*
X117990000Y-104880000D03*
X122360000Y-103860000D03*
X122340000Y-102950000D03*
X118940000Y-103860000D03*
X118940000Y-102990000D03*
X140585781Y-104181897D03*
X138855952Y-105634048D03*
X136835000Y-104488884D03*
X134200000Y-103600000D03*
X137550000Y-101860000D03*
X139000000Y-103600000D03*
X136955000Y-94990000D03*
X138230000Y-94990000D03*
X151420000Y-84080000D03*
X141495000Y-84580000D03*
X138990000Y-85340000D03*
X146250000Y-89450000D03*
X142305000Y-86240000D03*
X136900000Y-86654300D03*
X142290000Y-87700000D03*
X136787684Y-87738515D03*
X155710000Y-109410000D03*
X152265857Y-99767047D03*
X152773363Y-101476637D03*
X146280000Y-91940000D03*
X146300000Y-88140000D03*
X150730000Y-87998063D03*
X148496232Y-82746232D03*
X146270000Y-85650000D03*
X144150000Y-85010002D03*
X145630000Y-87279998D03*
X162421451Y-87978011D03*
X165028881Y-82959499D03*
X164950002Y-81604699D03*
X148848420Y-87187420D03*
X149770000Y-87873800D03*
X150051983Y-87166200D03*
X139973083Y-81508386D03*
X148010697Y-77916840D03*
X149141339Y-76786200D03*
X150510000Y-81432462D03*
X162023801Y-81443962D03*
X145049998Y-91660000D03*
X127710000Y-85415000D03*
X147448220Y-76260000D03*
X134250000Y-81270000D03*
X164949999Y-80825683D03*
X163810000Y-76360000D03*
X169361091Y-79358909D03*
X147070000Y-76915000D03*
X160340000Y-105390000D03*
X134340000Y-111330000D03*
X142775000Y-108999998D03*
X131810000Y-105130000D03*
X149130000Y-107670000D03*
X124100000Y-91808612D03*
X125200000Y-92714306D03*
X132490000Y-95240000D03*
X126717391Y-94574249D03*
X131650000Y-94530000D03*
X128610000Y-92500000D03*
X155060000Y-99840000D03*
X155556675Y-100306687D03*
X155253961Y-101913151D03*
X151640000Y-102650000D03*
X150570000Y-101600000D03*
X131025000Y-87165000D03*
X133027500Y-89370000D03*
X152800000Y-109450000D03*
X159640000Y-109550000D03*
X159340000Y-108650000D03*
X154250000Y-109360000D03*
X149100000Y-109058800D03*
X161848800Y-113410002D03*
X161700000Y-116058800D03*
X154280000Y-115860000D03*
X144080000Y-79559998D03*
X148110000Y-85880000D03*
X169219862Y-84520000D03*
X166950000Y-86020000D03*
X158197500Y-78460000D03*
X150710000Y-78310000D03*
X156260000Y-79595066D03*
X151455000Y-81290000D03*
X144281215Y-98537459D03*
X143330000Y-97260000D03*
X142740000Y-96820000D03*
X144480000Y-97010000D03*
X144125000Y-98000000D03*
X142925000Y-102410000D03*
X147440000Y-102430000D03*
X147214414Y-101040000D03*
X144470000Y-102410000D03*
X144440000Y-100970000D03*
X129194118Y-95733812D03*
X128560000Y-99815000D03*
X126899352Y-99664999D03*
X123825000Y-94630000D03*
X123825000Y-99430000D03*
X125600648Y-99165000D03*
X126250000Y-100315000D03*
X120300000Y-90950000D03*
X123825000Y-93830001D03*
X123825000Y-100230000D03*
X125470000Y-96910000D03*
X128561317Y-115132053D03*
X127208304Y-117753481D03*
X124444812Y-111290504D03*
X123304273Y-113293416D03*
X117612616Y-133412627D03*
X117057043Y-134434313D03*
X123675920Y-112528974D03*
X116530858Y-135496443D03*
X118625733Y-136508366D03*
X119181308Y-135486685D03*
X125445670Y-116851716D03*
X118645360Y-133898362D03*
X118089789Y-134920046D03*
X119736883Y-134464999D03*
X117523149Y-136011570D03*
X118944024Y-132012679D03*
X118694379Y-131328810D03*
X125166236Y-77432024D03*
X184866743Y-116461615D03*
X184504330Y-77098284D03*
X182741696Y-76196519D03*
X181353062Y-78816014D03*
X191324267Y-57441634D03*
X190213117Y-59485001D03*
X186274080Y-81421026D03*
X185505188Y-82659496D03*
X192337384Y-60537373D03*
X191005976Y-61937321D03*
X193419142Y-58453557D03*
X191860211Y-59029954D03*
X190768692Y-58463315D03*
X191304640Y-60051638D03*
X192892957Y-59515687D03*
X192426851Y-57938430D03*
X186645727Y-80656584D03*
X191255621Y-62621190D03*
X185204847Y-112888553D03*
X197349186Y-133107459D03*
X196276506Y-131043638D03*
X180293397Y-115511558D03*
X179696618Y-114181574D03*
X194216174Y-132216257D03*
X193800079Y-130329629D03*
X195338824Y-134278333D03*
X186622046Y-115672926D03*
X195732711Y-132663602D03*
X196812846Y-132075548D03*
X195196371Y-131631692D03*
X194752515Y-133248167D03*
X196320765Y-133743738D03*
X193093525Y-130154180D03*
X124830438Y-81005005D03*
X123413239Y-78220632D03*
X116941760Y-63739378D03*
X116235206Y-63563929D03*
X114302574Y-61229956D03*
X114838914Y-62261866D03*
X113714520Y-60149820D03*
X115282770Y-60645391D03*
X113222439Y-61818010D03*
X113758779Y-62849920D03*
X115819111Y-61677301D03*
X114696461Y-59615225D03*
X112686099Y-60786099D03*
X130285493Y-79679798D03*
X129741888Y-78382000D03*
X129315957Y-77646417D03*
X127730000Y-88900000D03*
D16*
X147448220Y-76260000D02*
X147262037Y-76073817D01*
X147262037Y-76073817D02*
X145873817Y-76073817D01*
X136733206Y-79860364D02*
X134356230Y-80845039D01*
X134269599Y-80931670D02*
X134269599Y-81123171D01*
X145873817Y-76073817D02*
X140300442Y-78382617D01*
X140300442Y-78382617D02*
X136733206Y-79860364D01*
X134356230Y-80845039D02*
X134269599Y-80931670D01*
X134250000Y-81270000D02*
X134250000Y-81142770D01*
X134250000Y-81142770D02*
X134269599Y-81123171D01*
G04 #@! TA.AperFunction,Conductor*
G36*
X117752529Y-53325619D02*
G01*
X117808237Y-53367790D01*
X117815856Y-53379387D01*
X133565731Y-80554398D01*
X133573004Y-80569116D01*
X133580026Y-80586065D01*
X133580028Y-80586069D01*
X133580030Y-80586071D01*
X133582828Y-80590259D01*
X133593209Y-80603764D01*
X133604594Y-80616702D01*
X133602203Y-80618805D01*
X133631948Y-80659396D01*
X133636221Y-80729135D01*
X133620324Y-80767514D01*
X133524211Y-80920476D01*
X133464631Y-81090745D01*
X133464630Y-81090750D01*
X133444435Y-81269996D01*
X133444435Y-81270003D01*
X133464630Y-81449249D01*
X133464631Y-81449254D01*
X133524211Y-81619523D01*
X133603983Y-81746478D01*
X133620184Y-81772262D01*
X133747738Y-81899816D01*
X133900478Y-81995789D01*
X134070745Y-82055368D01*
X134070750Y-82055369D01*
X134249996Y-82075565D01*
X134250000Y-82075565D01*
X134250004Y-82075565D01*
X134429249Y-82055369D01*
X134429252Y-82055368D01*
X134429255Y-82055368D01*
X134599522Y-81995789D01*
X134752262Y-81899816D01*
X134879816Y-81772262D01*
X134975789Y-81619522D01*
X135014679Y-81508382D01*
X139167518Y-81508382D01*
X139167518Y-81508389D01*
X139187713Y-81687635D01*
X139187714Y-81687640D01*
X139247294Y-81857909D01*
X139333930Y-81995788D01*
X139343267Y-82010648D01*
X139470821Y-82138202D01*
X139521031Y-82169751D01*
X139598706Y-82218558D01*
X139623561Y-82234175D01*
X139740958Y-82275254D01*
X139793828Y-82293754D01*
X139793833Y-82293755D01*
X139973079Y-82313951D01*
X139973083Y-82313951D01*
X139973087Y-82313951D01*
X140152332Y-82293755D01*
X140152335Y-82293754D01*
X140152338Y-82293754D01*
X140322605Y-82234175D01*
X140475345Y-82138202D01*
X140602899Y-82010648D01*
X140698872Y-81857908D01*
X140758451Y-81687641D01*
X140763873Y-81639522D01*
X140778648Y-81508389D01*
X140778648Y-81508382D01*
X140770093Y-81432458D01*
X149704435Y-81432458D01*
X149704435Y-81432465D01*
X149724630Y-81611711D01*
X149724631Y-81611716D01*
X149784211Y-81781985D01*
X149842108Y-81874127D01*
X149880184Y-81934724D01*
X150007738Y-82062278D01*
X150060714Y-82095565D01*
X150158857Y-82157233D01*
X150160478Y-82158251D01*
X150275026Y-82198333D01*
X150330745Y-82217830D01*
X150330750Y-82217831D01*
X150509996Y-82238027D01*
X150510000Y-82238027D01*
X150510004Y-82238027D01*
X150689249Y-82217831D01*
X150689252Y-82217830D01*
X150689255Y-82217830D01*
X150859522Y-82158251D01*
X151012262Y-82062278D01*
X151015764Y-82058776D01*
X151077085Y-82025287D01*
X151144405Y-82029411D01*
X151275737Y-82075366D01*
X151275743Y-82075367D01*
X151275745Y-82075368D01*
X151275746Y-82075368D01*
X151275750Y-82075369D01*
X151454996Y-82095565D01*
X151455000Y-82095565D01*
X151455004Y-82095565D01*
X151634249Y-82075369D01*
X151634252Y-82075368D01*
X151634255Y-82075368D01*
X151804522Y-82015789D01*
X151957262Y-81919816D01*
X152084816Y-81792262D01*
X152180789Y-81639522D01*
X152240368Y-81469255D01*
X152240714Y-81466184D01*
X152243218Y-81443958D01*
X161218236Y-81443958D01*
X161218236Y-81443965D01*
X161238431Y-81623211D01*
X161238432Y-81623216D01*
X161298012Y-81793485D01*
X161348683Y-81874127D01*
X161393985Y-81946224D01*
X161521539Y-82073778D01*
X161674279Y-82169751D01*
X161682416Y-82172598D01*
X161739194Y-82213317D01*
X161761823Y-82268746D01*
X161763079Y-82268460D01*
X161764629Y-82275252D01*
X161824208Y-82445521D01*
X161890008Y-82550241D01*
X161920182Y-82598262D01*
X162047736Y-82725816D01*
X162200476Y-82821789D01*
X162248948Y-82838750D01*
X162370743Y-82881368D01*
X162370748Y-82881369D01*
X162549994Y-82901565D01*
X162549998Y-82901565D01*
X162550002Y-82901565D01*
X162729247Y-82881369D01*
X162729250Y-82881368D01*
X162729253Y-82881368D01*
X162899520Y-82821789D01*
X163052260Y-82725816D01*
X163179814Y-82598262D01*
X163275787Y-82445522D01*
X163335366Y-82275255D01*
X163336069Y-82269017D01*
X163355563Y-82096003D01*
X163355563Y-82095996D01*
X163335367Y-81916750D01*
X163335366Y-81916745D01*
X163292235Y-81793484D01*
X163275787Y-81746478D01*
X163265931Y-81730793D01*
X163236580Y-81684080D01*
X163179814Y-81593738D01*
X163052260Y-81466184D01*
X162998592Y-81432462D01*
X162899522Y-81370212D01*
X162899520Y-81370211D01*
X162891373Y-81367360D01*
X162834598Y-81326636D01*
X162811975Y-81271208D01*
X162810718Y-81271495D01*
X162809169Y-81264711D01*
X162809169Y-81264707D01*
X162749590Y-81094440D01*
X162653617Y-80941700D01*
X162526063Y-80814146D01*
X162484035Y-80787738D01*
X162373324Y-80718173D01*
X162203055Y-80658593D01*
X162203050Y-80658592D01*
X162023805Y-80638397D01*
X162023797Y-80638397D01*
X161844551Y-80658592D01*
X161844546Y-80658593D01*
X161674277Y-80718173D01*
X161521538Y-80814146D01*
X161393985Y-80941699D01*
X161298012Y-81094438D01*
X161238432Y-81264707D01*
X161238431Y-81264712D01*
X161218236Y-81443958D01*
X152243218Y-81443958D01*
X152260565Y-81290003D01*
X152260565Y-81289996D01*
X152240369Y-81110750D01*
X152240368Y-81110745D01*
X152226636Y-81071502D01*
X152180789Y-80940478D01*
X152084816Y-80787738D01*
X151957262Y-80660184D01*
X151937383Y-80647693D01*
X151804523Y-80564211D01*
X151634254Y-80504631D01*
X151634249Y-80504630D01*
X151455004Y-80484435D01*
X151454996Y-80484435D01*
X151275750Y-80504630D01*
X151275745Y-80504631D01*
X151105476Y-80564211D01*
X150952734Y-80660186D01*
X150952731Y-80660188D01*
X150949225Y-80663695D01*
X150887900Y-80697177D01*
X150820595Y-80693051D01*
X150689257Y-80647094D01*
X150689249Y-80647092D01*
X150510004Y-80626897D01*
X150509996Y-80626897D01*
X150330750Y-80647092D01*
X150330745Y-80647093D01*
X150160476Y-80706673D01*
X150007737Y-80802646D01*
X149880184Y-80930199D01*
X149784211Y-81082938D01*
X149724631Y-81253207D01*
X149724630Y-81253212D01*
X149704435Y-81432458D01*
X140770093Y-81432458D01*
X140758452Y-81329136D01*
X140758451Y-81329131D01*
X140746140Y-81293948D01*
X140698872Y-81158864D01*
X140697189Y-81156186D01*
X140602898Y-81006123D01*
X140475345Y-80878570D01*
X140322606Y-80782597D01*
X140152337Y-80723017D01*
X140152332Y-80723016D01*
X139973087Y-80702821D01*
X139973079Y-80702821D01*
X139793833Y-80723016D01*
X139793828Y-80723017D01*
X139623559Y-80782597D01*
X139470820Y-80878570D01*
X139343267Y-81006123D01*
X139247294Y-81158862D01*
X139187714Y-81329131D01*
X139187713Y-81329136D01*
X139167518Y-81508382D01*
X135014679Y-81508382D01*
X135035368Y-81449255D01*
X135035965Y-81443962D01*
X135055565Y-81270002D01*
X135055565Y-81263036D01*
X135058626Y-81263036D01*
X135068275Y-81207614D01*
X135115571Y-81156186D01*
X135132032Y-81147882D01*
X136872488Y-80426889D01*
X136872497Y-80426887D01*
X138965133Y-79560001D01*
X138965150Y-79559994D01*
X143274435Y-79559994D01*
X143274435Y-79560001D01*
X143294630Y-79739247D01*
X143294631Y-79739252D01*
X143354211Y-79909521D01*
X143376246Y-79944589D01*
X143450184Y-80062260D01*
X143577738Y-80189814D01*
X143730478Y-80285787D01*
X143798569Y-80309613D01*
X143900745Y-80345366D01*
X143900750Y-80345367D01*
X144079996Y-80365563D01*
X144080000Y-80365563D01*
X144080004Y-80365563D01*
X144259249Y-80345367D01*
X144259252Y-80345366D01*
X144259255Y-80345366D01*
X144429522Y-80285787D01*
X144582262Y-80189814D01*
X144709816Y-80062260D01*
X144805789Y-79909520D01*
X144865368Y-79739253D01*
X144872067Y-79679798D01*
X144885565Y-79560001D01*
X144885565Y-79559994D01*
X144865369Y-79380748D01*
X144865368Y-79380743D01*
X144818059Y-79245542D01*
X144805789Y-79210476D01*
X144790276Y-79185788D01*
X144733462Y-79095368D01*
X144709816Y-79057736D01*
X144582262Y-78930182D01*
X144509181Y-78884262D01*
X144429523Y-78834209D01*
X144259254Y-78774629D01*
X144259249Y-78774628D01*
X144080004Y-78754433D01*
X144079996Y-78754433D01*
X143900750Y-78774628D01*
X143900745Y-78774629D01*
X143730476Y-78834209D01*
X143577737Y-78930182D01*
X143450184Y-79057735D01*
X143354211Y-79210474D01*
X143294631Y-79380743D01*
X143294630Y-79380748D01*
X143274435Y-79559994D01*
X138965150Y-79559994D01*
X140591299Y-78886353D01*
X140591299Y-78886352D01*
X140626031Y-78871965D01*
X140626046Y-78871957D01*
X144448559Y-77288462D01*
X145965750Y-76659958D01*
X146013207Y-76650517D01*
X146155479Y-76650517D01*
X146222518Y-76670202D01*
X146268273Y-76723006D01*
X146278699Y-76788401D01*
X146264435Y-76914997D01*
X146264435Y-76915003D01*
X146284630Y-77094249D01*
X146284631Y-77094254D01*
X146344211Y-77264523D01*
X146364551Y-77296893D01*
X146440184Y-77417262D01*
X146567738Y-77544816D01*
X146720478Y-77640789D01*
X146890745Y-77700368D01*
X146890750Y-77700369D01*
X146980372Y-77710466D01*
X147070000Y-77720565D01*
X147074751Y-77720029D01*
X147143570Y-77732080D01*
X147194952Y-77779427D01*
X147212580Y-77847036D01*
X147211859Y-77857131D01*
X147209312Y-77879737D01*
X147205133Y-77916836D01*
X147205132Y-77916843D01*
X147225327Y-78096089D01*
X147225328Y-78096094D01*
X147284908Y-78266363D01*
X147340718Y-78355183D01*
X147380881Y-78419102D01*
X147508435Y-78546656D01*
X147598777Y-78603422D01*
X147655803Y-78639254D01*
X147661175Y-78642629D01*
X147831442Y-78702208D01*
X147831447Y-78702209D01*
X148010693Y-78722405D01*
X148010697Y-78722405D01*
X148010701Y-78722405D01*
X148189946Y-78702209D01*
X148189949Y-78702208D01*
X148189952Y-78702208D01*
X148360219Y-78642629D01*
X148512959Y-78546656D01*
X148640513Y-78419102D01*
X148709069Y-78309996D01*
X149904435Y-78309996D01*
X149904435Y-78310003D01*
X149924630Y-78489249D01*
X149924631Y-78489254D01*
X149984211Y-78659523D01*
X150056538Y-78774630D01*
X150080184Y-78812262D01*
X150207738Y-78939816D01*
X150230326Y-78954009D01*
X150322323Y-79011815D01*
X150360478Y-79035789D01*
X150514878Y-79089816D01*
X150530745Y-79095368D01*
X150530750Y-79095369D01*
X150709996Y-79115565D01*
X150710000Y-79115565D01*
X150710004Y-79115565D01*
X150889249Y-79095369D01*
X150889252Y-79095368D01*
X150889255Y-79095368D01*
X151059522Y-79035789D01*
X151212262Y-78939816D01*
X151277078Y-78875000D01*
X154265000Y-78875000D01*
X155548626Y-78875000D01*
X155615665Y-78894685D01*
X155661420Y-78947489D01*
X155671364Y-79016647D01*
X155642339Y-79080203D01*
X155636307Y-79086681D01*
X155630184Y-79092803D01*
X155534211Y-79245542D01*
X155474631Y-79415811D01*
X155474630Y-79415816D01*
X155454435Y-79595062D01*
X155454435Y-79595069D01*
X155474630Y-79774315D01*
X155474631Y-79774320D01*
X155534211Y-79944589D01*
X155594360Y-80040315D01*
X155630184Y-80097328D01*
X155757738Y-80224882D01*
X155844210Y-80279216D01*
X155888526Y-80307062D01*
X155910478Y-80320855D01*
X156038246Y-80365563D01*
X156080745Y-80380434D01*
X156080750Y-80380435D01*
X156259996Y-80400631D01*
X156260000Y-80400631D01*
X156260004Y-80400631D01*
X156439249Y-80380435D01*
X156439252Y-80380434D01*
X156439255Y-80380434D01*
X156609522Y-80320855D01*
X156762262Y-80224882D01*
X156889816Y-80097328D01*
X156985789Y-79944588D01*
X157045368Y-79774321D01*
X157045369Y-79774315D01*
X157065565Y-79595069D01*
X157065565Y-79595062D01*
X157045369Y-79415816D01*
X157045368Y-79415811D01*
X157025456Y-79358905D01*
X168555526Y-79358905D01*
X168555526Y-79358912D01*
X168575721Y-79538158D01*
X168575722Y-79538163D01*
X168635302Y-79708432D01*
X168676703Y-79774321D01*
X168731275Y-79861171D01*
X168858829Y-79988725D01*
X169011569Y-80084698D01*
X169054997Y-80099894D01*
X169181836Y-80144277D01*
X169181841Y-80144278D01*
X169361087Y-80164474D01*
X169361091Y-80164474D01*
X169361095Y-80164474D01*
X169540340Y-80144278D01*
X169540343Y-80144277D01*
X169540346Y-80144277D01*
X169710613Y-80084698D01*
X169863353Y-79988725D01*
X169990907Y-79861171D01*
X170086880Y-79708431D01*
X170146459Y-79538164D01*
X170146460Y-79538158D01*
X170166656Y-79358912D01*
X170166656Y-79358905D01*
X170146460Y-79179659D01*
X170146459Y-79179654D01*
X170116069Y-79092804D01*
X170086880Y-79009387D01*
X170078008Y-78995268D01*
X170014808Y-78894685D01*
X169990907Y-78856647D01*
X169863353Y-78729093D01*
X169852709Y-78722405D01*
X169710614Y-78633120D01*
X169540345Y-78573540D01*
X169540340Y-78573539D01*
X169361095Y-78553344D01*
X169361087Y-78553344D01*
X169181841Y-78573539D01*
X169181836Y-78573540D01*
X169011567Y-78633120D01*
X168858828Y-78729093D01*
X168731275Y-78856646D01*
X168635302Y-79009385D01*
X168575722Y-79179654D01*
X168575721Y-79179659D01*
X168555526Y-79358905D01*
X157025456Y-79358905D01*
X157011239Y-79318276D01*
X156985789Y-79245544D01*
X156985678Y-79245368D01*
X156922320Y-79144534D01*
X156889816Y-79092804D01*
X156762262Y-78965250D01*
X156744372Y-78954009D01*
X156609523Y-78869277D01*
X156439254Y-78809697D01*
X156439249Y-78809696D01*
X156260004Y-78789501D01*
X156259996Y-78789501D01*
X156080750Y-78809696D01*
X156080742Y-78809698D01*
X156019954Y-78830969D01*
X155950175Y-78834530D01*
X155889548Y-78799801D01*
X155857321Y-78737807D01*
X155855000Y-78713927D01*
X155855000Y-78459996D01*
X157391935Y-78459996D01*
X157391935Y-78460003D01*
X157412130Y-78639249D01*
X157412131Y-78639254D01*
X157471711Y-78809523D01*
X157539410Y-78917264D01*
X157567684Y-78962262D01*
X157695238Y-79089816D01*
X157782321Y-79144534D01*
X157847129Y-79185256D01*
X157847978Y-79185789D01*
X158018245Y-79245368D01*
X158018250Y-79245369D01*
X158197496Y-79265565D01*
X158197500Y-79265565D01*
X158197504Y-79265565D01*
X158376749Y-79245369D01*
X158376752Y-79245368D01*
X158376755Y-79245368D01*
X158547022Y-79185789D01*
X158699762Y-79089816D01*
X158827316Y-78962262D01*
X158923289Y-78809522D01*
X158982868Y-78639255D01*
X158983149Y-78636764D01*
X159003065Y-78460003D01*
X159003065Y-78459996D01*
X158982869Y-78280750D01*
X158982868Y-78280745D01*
X158981289Y-78276232D01*
X158923289Y-78110478D01*
X158827316Y-77957738D01*
X158699762Y-77830184D01*
X158692572Y-77825666D01*
X158547023Y-77734211D01*
X158376754Y-77674631D01*
X158376749Y-77674630D01*
X158197504Y-77654435D01*
X158197496Y-77654435D01*
X158018250Y-77674630D01*
X158018245Y-77674631D01*
X157847976Y-77734211D01*
X157695237Y-77830184D01*
X157567684Y-77957737D01*
X157471711Y-78110476D01*
X157412131Y-78280745D01*
X157412130Y-78280750D01*
X157391935Y-78459996D01*
X155855000Y-78459996D01*
X155855000Y-77125000D01*
X154265000Y-77125000D01*
X154265000Y-78875000D01*
X151277078Y-78875000D01*
X151339816Y-78812262D01*
X151435789Y-78659522D01*
X151495368Y-78489255D01*
X151498664Y-78460003D01*
X151515565Y-78310003D01*
X151515565Y-78309996D01*
X151495369Y-78130750D01*
X151495368Y-78130745D01*
X151460341Y-78030644D01*
X151435789Y-77960478D01*
X151434067Y-77957738D01*
X151370852Y-77857131D01*
X151339816Y-77807738D01*
X151212262Y-77680184D01*
X151203426Y-77674632D01*
X151059523Y-77584211D01*
X150889254Y-77524631D01*
X150889249Y-77524630D01*
X150710004Y-77504435D01*
X150709996Y-77504435D01*
X150530750Y-77524630D01*
X150530745Y-77524631D01*
X150360476Y-77584211D01*
X150207737Y-77680184D01*
X150080184Y-77807737D01*
X149984211Y-77960476D01*
X149924631Y-78130745D01*
X149924630Y-78130750D01*
X149904435Y-78309996D01*
X148709069Y-78309996D01*
X148736486Y-78266362D01*
X148796065Y-78096095D01*
X148796066Y-78096089D01*
X148816262Y-77916843D01*
X148816262Y-77916836D01*
X148796066Y-77737590D01*
X148796064Y-77737582D01*
X148791749Y-77725251D01*
X148788185Y-77655472D01*
X148822911Y-77594843D01*
X148884904Y-77562614D01*
X148949744Y-77567251D01*
X148962076Y-77571566D01*
X148962082Y-77571567D01*
X148962084Y-77571568D01*
X148962085Y-77571568D01*
X148962089Y-77571569D01*
X149141335Y-77591765D01*
X149141339Y-77591765D01*
X149141343Y-77591765D01*
X149320588Y-77571569D01*
X149320591Y-77571568D01*
X149320594Y-77571568D01*
X149490861Y-77511989D01*
X149643601Y-77416016D01*
X149771155Y-77288462D01*
X149867128Y-77135722D01*
X149926707Y-76965455D01*
X149932392Y-76915000D01*
X149946904Y-76786203D01*
X149946904Y-76786196D01*
X149926708Y-76606950D01*
X149926707Y-76606945D01*
X149903019Y-76539249D01*
X149867128Y-76436678D01*
X149771155Y-76283938D01*
X149643601Y-76156384D01*
X149543043Y-76093199D01*
X149490862Y-76060411D01*
X149320593Y-76000831D01*
X149320588Y-76000830D01*
X149141343Y-75980635D01*
X149141335Y-75980635D01*
X148962089Y-76000830D01*
X148962084Y-76000831D01*
X148791815Y-76060411D01*
X148639076Y-76156384D01*
X148511523Y-76283937D01*
X148511521Y-76283940D01*
X148482778Y-76329684D01*
X148430443Y-76375975D01*
X148361389Y-76386622D01*
X148297541Y-76358246D01*
X148259170Y-76299856D01*
X148253785Y-76263711D01*
X148253785Y-76259996D01*
X148233589Y-76080750D01*
X148233588Y-76080745D01*
X148213529Y-76023420D01*
X148174009Y-75910478D01*
X148174008Y-75910476D01*
X148136305Y-75850472D01*
X148117305Y-75783235D01*
X148137673Y-75716400D01*
X148190941Y-75671186D01*
X148241299Y-75660500D01*
X163079988Y-75660500D01*
X163147027Y-75680185D01*
X163192782Y-75732989D01*
X163202726Y-75802147D01*
X163181805Y-75850532D01*
X163183889Y-75851842D01*
X163084211Y-76010476D01*
X163024631Y-76180745D01*
X163024630Y-76180750D01*
X163004435Y-76359996D01*
X163004435Y-76360003D01*
X163024630Y-76539249D01*
X163024631Y-76539254D01*
X163084211Y-76709523D01*
X163132391Y-76786200D01*
X163180184Y-76862262D01*
X163307738Y-76989816D01*
X163460478Y-77085789D01*
X163591033Y-77131472D01*
X163630745Y-77145368D01*
X163630750Y-77145369D01*
X163809996Y-77165565D01*
X163810000Y-77165565D01*
X163810004Y-77165565D01*
X163989249Y-77145369D01*
X163989252Y-77145368D01*
X163989255Y-77145368D01*
X164159522Y-77085789D01*
X164312262Y-76989816D01*
X164439816Y-76862262D01*
X164535789Y-76709522D01*
X164595368Y-76539255D01*
X164595369Y-76539249D01*
X164615565Y-76360003D01*
X164615565Y-76359996D01*
X164595369Y-76180750D01*
X164595366Y-76180737D01*
X164564735Y-76093199D01*
X164561173Y-76023420D01*
X164595901Y-75962793D01*
X164657895Y-75930565D01*
X164727470Y-75936970D01*
X164729157Y-75937654D01*
X175909369Y-80569116D01*
X176103375Y-80649484D01*
X176118095Y-80656758D01*
X176133967Y-80665958D01*
X176133970Y-80665958D01*
X176138754Y-80667592D01*
X176155175Y-80672006D01*
X176160108Y-80672988D01*
X176160111Y-80672988D01*
X176178454Y-80672988D01*
X176194850Y-80674076D01*
X176213030Y-80676502D01*
X176213035Y-80676500D01*
X176218077Y-80676179D01*
X176234916Y-80673976D01*
X176239867Y-80672990D01*
X176239875Y-80672991D01*
X176256837Y-80665964D01*
X176272383Y-80660702D01*
X176290111Y-80655985D01*
X176290112Y-80655983D01*
X176294650Y-80653755D01*
X176309380Y-80645268D01*
X176313567Y-80642470D01*
X176313567Y-80642469D01*
X176313569Y-80642469D01*
X176326546Y-80629491D01*
X176338906Y-80618671D01*
X176353469Y-80607535D01*
X176353468Y-80607535D01*
X176353472Y-80607533D01*
X176353474Y-80607528D01*
X176356823Y-80603723D01*
X176367165Y-80590269D01*
X176369969Y-80586073D01*
X176369969Y-80586071D01*
X176369972Y-80586069D01*
X176376997Y-80569108D01*
X176384270Y-80554391D01*
X176414204Y-80502743D01*
X177391787Y-78816010D01*
X180547497Y-78816010D01*
X180547497Y-78816017D01*
X180567692Y-78995263D01*
X180567693Y-78995268D01*
X180627273Y-79165537D01*
X180690125Y-79265565D01*
X180723246Y-79318276D01*
X180850800Y-79445830D01*
X180937862Y-79500535D01*
X180997748Y-79538164D01*
X181003540Y-79541803D01*
X181173807Y-79601382D01*
X181173812Y-79601383D01*
X181353058Y-79621579D01*
X181353062Y-79621579D01*
X181353066Y-79621579D01*
X181532311Y-79601383D01*
X181532314Y-79601382D01*
X181532317Y-79601382D01*
X181702584Y-79541803D01*
X181855324Y-79445830D01*
X181982878Y-79318276D01*
X182078851Y-79165536D01*
X182138430Y-78995269D01*
X182138431Y-78995263D01*
X182158627Y-78816017D01*
X182158627Y-78816010D01*
X182138431Y-78636764D01*
X182138430Y-78636759D01*
X182109242Y-78553344D01*
X182078851Y-78466492D01*
X182074769Y-78459996D01*
X182025761Y-78382000D01*
X181982878Y-78313752D01*
X181855324Y-78186198D01*
X181795613Y-78148679D01*
X181702585Y-78090225D01*
X181532316Y-78030645D01*
X181532311Y-78030644D01*
X181353066Y-78010449D01*
X181353058Y-78010449D01*
X181173812Y-78030644D01*
X181173807Y-78030645D01*
X181003538Y-78090225D01*
X180850799Y-78186198D01*
X180723246Y-78313751D01*
X180627273Y-78466490D01*
X180567693Y-78636759D01*
X180567692Y-78636764D01*
X180547497Y-78816010D01*
X177391787Y-78816010D01*
X191956108Y-53686568D01*
X192006752Y-53638441D01*
X192075381Y-53625332D01*
X192140203Y-53651408D01*
X192151070Y-53661070D01*
X198894923Y-60404923D01*
X198928408Y-60466246D01*
X198923424Y-60535938D01*
X198918014Y-60548331D01*
X185844274Y-86535896D01*
X185836629Y-86549023D01*
X185829987Y-86558970D01*
X185819314Y-86584761D01*
X185815512Y-86593067D01*
X185802963Y-86618013D01*
X185800957Y-86625264D01*
X185799486Y-86632673D01*
X185799495Y-86660591D01*
X185799161Y-86669720D01*
X185797114Y-86697554D01*
X185798040Y-86705046D01*
X185799513Y-86712438D01*
X185810205Y-86738230D01*
X185813389Y-86746786D01*
X185822152Y-86773291D01*
X185822153Y-86773292D01*
X185825873Y-86779858D01*
X185830061Y-86786119D01*
X185849802Y-86805848D01*
X185856023Y-86812540D01*
X185874264Y-86833676D01*
X185880214Y-86838317D01*
X185886482Y-86842502D01*
X185912273Y-86853175D01*
X185920582Y-86856978D01*
X185945521Y-86869524D01*
X185945525Y-86869524D01*
X185952799Y-86871535D01*
X185960181Y-86873001D01*
X185960181Y-86873000D01*
X185960184Y-86873002D01*
X185988106Y-86872992D01*
X185997217Y-86873325D01*
X186025069Y-86875374D01*
X186025075Y-86875372D01*
X186036935Y-86873907D01*
X186052095Y-86872971D01*
X193285460Y-86870605D01*
X193352505Y-86890268D01*
X193398278Y-86943057D01*
X193409500Y-86994605D01*
X193409500Y-106945605D01*
X193389815Y-107012644D01*
X193337011Y-107058399D01*
X193285541Y-107069605D01*
X192034999Y-107070014D01*
X192025448Y-107069649D01*
X186700000Y-106660000D01*
X186816685Y-106892050D01*
X186829215Y-106960787D01*
X186802595Y-107025386D01*
X186745275Y-107065339D01*
X186705943Y-107071756D01*
X186052022Y-107071971D01*
X186037069Y-107069879D01*
X186036926Y-107071052D01*
X186024807Y-107069570D01*
X185997073Y-107071646D01*
X185987862Y-107071992D01*
X185960054Y-107072001D01*
X185952601Y-107073486D01*
X185945262Y-107075526D01*
X185920443Y-107088052D01*
X185912066Y-107091896D01*
X185886373Y-107102548D01*
X185880052Y-107106774D01*
X185874056Y-107111464D01*
X185855916Y-107132539D01*
X185849649Y-107139294D01*
X185829989Y-107158967D01*
X185825756Y-107165307D01*
X185822022Y-107171916D01*
X185813324Y-107198339D01*
X185810120Y-107206977D01*
X185799487Y-107232671D01*
X185798001Y-107240153D01*
X185797081Y-107247683D01*
X185799157Y-107275414D01*
X185799503Y-107284626D01*
X185799512Y-107312436D01*
X185800996Y-107319882D01*
X185803036Y-107327223D01*
X185815561Y-107352041D01*
X185819403Y-107360415D01*
X185830059Y-107386116D01*
X185836851Y-107396273D01*
X185835621Y-107397095D01*
X185844478Y-107409335D01*
X199100415Y-133674287D01*
X199113048Y-133743005D01*
X199086523Y-133807644D01*
X199073962Y-133821143D01*
X192138362Y-140242995D01*
X192075797Y-140274099D01*
X192006348Y-140266439D01*
X191952065Y-140222449D01*
X191946671Y-140213911D01*
X189594661Y-136131525D01*
X189594011Y-136130380D01*
X189578089Y-136101906D01*
X189575490Y-136097258D01*
X189575185Y-136096910D01*
X189574143Y-136095705D01*
X189573881Y-136095397D01*
X189553754Y-136079925D01*
X189543761Y-136072242D01*
X189542554Y-136071302D01*
X189512850Y-136047855D01*
X189512406Y-136047636D01*
X189510974Y-136046917D01*
X189510654Y-136046754D01*
X189473972Y-136036889D01*
X189472442Y-136036467D01*
X189428276Y-136023981D01*
X189369120Y-135986801D01*
X189359838Y-135973906D01*
X189355667Y-135968470D01*
X189291529Y-135904332D01*
X189285851Y-135899975D01*
X189244650Y-135843546D01*
X189241565Y-135833694D01*
X189236651Y-135815354D01*
X189221023Y-135757028D01*
X189212632Y-135742494D01*
X189175673Y-135678478D01*
X189175667Y-135678470D01*
X189111527Y-135614330D01*
X189102201Y-135608946D01*
X189093312Y-135603814D01*
X189045097Y-135553248D01*
X189035537Y-135528520D01*
X189034500Y-135524649D01*
X189034500Y-135524646D01*
X189011023Y-135437028D01*
X188991041Y-135402418D01*
X188965673Y-135358478D01*
X188965667Y-135358470D01*
X188901530Y-135294333D01*
X188901528Y-135294331D01*
X188896497Y-135291426D01*
X188848284Y-135240860D01*
X188834500Y-135184041D01*
X188834500Y-135174648D01*
X188834500Y-135174646D01*
X188811023Y-135087028D01*
X188792828Y-135055513D01*
X188765673Y-135008478D01*
X188765667Y-135008470D01*
X188701529Y-134944332D01*
X188695077Y-134939381D01*
X188696844Y-134937077D01*
X188658280Y-134896626D01*
X188644500Y-134839814D01*
X188644500Y-134824648D01*
X188644500Y-134824646D01*
X188621023Y-134737028D01*
X188584063Y-134673011D01*
X188575673Y-134658478D01*
X188575667Y-134658470D01*
X188511530Y-134594333D01*
X188511528Y-134594331D01*
X188496496Y-134585652D01*
X188448284Y-134535087D01*
X188434500Y-134478268D01*
X188434500Y-134454648D01*
X188434500Y-134454646D01*
X188411023Y-134367028D01*
X188370445Y-134296744D01*
X188365673Y-134288478D01*
X188365670Y-134288475D01*
X188365669Y-134288472D01*
X188365666Y-134288469D01*
X188360723Y-134282027D01*
X188362462Y-134280692D01*
X188334477Y-134229442D01*
X188339461Y-134159750D01*
X188343431Y-134150315D01*
X188343684Y-134149777D01*
X188344679Y-134147713D01*
X188344956Y-134147149D01*
X188344995Y-134146991D01*
X188344996Y-134146990D01*
X188353875Y-134111198D01*
X188354414Y-134109108D01*
X188363989Y-134073397D01*
X188363988Y-134073394D01*
X188364031Y-134073236D01*
X188364060Y-134072629D01*
X188364188Y-134070349D01*
X188364228Y-134069735D01*
X188359989Y-134041594D01*
X188358704Y-134033065D01*
X188358403Y-134030929D01*
X188353588Y-133994315D01*
X188353587Y-133994313D01*
X188353566Y-133994152D01*
X188353378Y-133993629D01*
X188352614Y-133991445D01*
X188352410Y-133990844D01*
X188351780Y-133989799D01*
X188333297Y-133959117D01*
X188332127Y-133957133D01*
X188240318Y-133798067D01*
X176918177Y-114181570D01*
X178891053Y-114181570D01*
X178891053Y-114181577D01*
X178911248Y-114360823D01*
X178911249Y-114360828D01*
X178970829Y-114531097D01*
X179032843Y-114629791D01*
X179066802Y-114683836D01*
X179194356Y-114811390D01*
X179347096Y-114907363D01*
X179512276Y-114965162D01*
X179569053Y-115005884D01*
X179594800Y-115070837D01*
X179581344Y-115139398D01*
X179576317Y-115148174D01*
X179567608Y-115162033D01*
X179508028Y-115332303D01*
X179508027Y-115332308D01*
X179487832Y-115511554D01*
X179487832Y-115511561D01*
X179508027Y-115690807D01*
X179508028Y-115690812D01*
X179567608Y-115861081D01*
X179579210Y-115879545D01*
X179663581Y-116013820D01*
X179791135Y-116141374D01*
X179943875Y-116237347D01*
X180004047Y-116258402D01*
X180114142Y-116296926D01*
X180114147Y-116296927D01*
X180293393Y-116317123D01*
X180293397Y-116317123D01*
X180293401Y-116317123D01*
X180472646Y-116296927D01*
X180472649Y-116296926D01*
X180472652Y-116296926D01*
X180642919Y-116237347D01*
X180795659Y-116141374D01*
X180923213Y-116013820D01*
X181019186Y-115861080D01*
X181078765Y-115690813D01*
X181079899Y-115680750D01*
X181098962Y-115511561D01*
X181098962Y-115511554D01*
X181078766Y-115332308D01*
X181078765Y-115332303D01*
X181019186Y-115162036D01*
X181001702Y-115134211D01*
X180923212Y-115009295D01*
X180795659Y-114881742D01*
X180642918Y-114785768D01*
X180533537Y-114747494D01*
X180477737Y-114727969D01*
X180420962Y-114687248D01*
X180395214Y-114622296D01*
X180408670Y-114553734D01*
X180413699Y-114544954D01*
X180422406Y-114531097D01*
X180422407Y-114531096D01*
X180481986Y-114360829D01*
X180483580Y-114346683D01*
X180502183Y-114181577D01*
X180502183Y-114181570D01*
X180481987Y-114002324D01*
X180481986Y-114002319D01*
X180422451Y-113832178D01*
X180422407Y-113832052D01*
X180326434Y-113679312D01*
X180198880Y-113551758D01*
X180145742Y-113518369D01*
X180046141Y-113455785D01*
X179875872Y-113396205D01*
X179875867Y-113396204D01*
X179696622Y-113376009D01*
X179696614Y-113376009D01*
X179517368Y-113396204D01*
X179517363Y-113396205D01*
X179347094Y-113455785D01*
X179194355Y-113551758D01*
X179066802Y-113679311D01*
X178970829Y-113832050D01*
X178911249Y-114002319D01*
X178911248Y-114002324D01*
X178891053Y-114181570D01*
X176918177Y-114181570D01*
X176396253Y-113277295D01*
X176389390Y-113263484D01*
X176381758Y-113245375D01*
X176381755Y-113245372D01*
X176377070Y-113238453D01*
X176371715Y-113231518D01*
X176366203Y-113225230D01*
X176350618Y-113213268D01*
X176338992Y-113203134D01*
X176325009Y-113189324D01*
X176325007Y-113189323D01*
X176325004Y-113189320D01*
X176318056Y-113184740D01*
X176310414Y-113180358D01*
X176302926Y-113176664D01*
X176283953Y-113171577D01*
X176269327Y-113166662D01*
X176251129Y-113159256D01*
X176251128Y-113159256D01*
X176251126Y-113159255D01*
X176242967Y-113157684D01*
X176234194Y-113156556D01*
X176225885Y-113156010D01*
X176209536Y-113158161D01*
X176206410Y-113158572D01*
X176191014Y-113159628D01*
X176176473Y-113159719D01*
X176171366Y-113159751D01*
X176163221Y-113161423D01*
X176154663Y-113163744D01*
X176146798Y-113166413D01*
X176129778Y-113176236D01*
X176115959Y-113183103D01*
X167429905Y-116844168D01*
X164735089Y-117980000D01*
X164095058Y-118249765D01*
X164046897Y-118259500D01*
X163414000Y-118259500D01*
X163346961Y-118239815D01*
X163301206Y-118187011D01*
X163290000Y-118135500D01*
X163290000Y-117980000D01*
X147510000Y-117980000D01*
X147510000Y-118135500D01*
X147490315Y-118202539D01*
X147437511Y-118248294D01*
X147386000Y-118259500D01*
X145965155Y-118259500D01*
X145916824Y-118249693D01*
X140391171Y-115911034D01*
X145959834Y-115911034D01*
X145984601Y-116035542D01*
X145984603Y-116035548D01*
X146033185Y-116152835D01*
X146033190Y-116152845D01*
X146103719Y-116258398D01*
X146103722Y-116258402D01*
X146193486Y-116348166D01*
X146193490Y-116348169D01*
X146299043Y-116418698D01*
X146299047Y-116418700D01*
X146299050Y-116418702D01*
X146416341Y-116467286D01*
X146416345Y-116467286D01*
X146416346Y-116467287D01*
X146540854Y-116492054D01*
X146540857Y-116492054D01*
X146667815Y-116492054D01*
X146751582Y-116475391D01*
X146792329Y-116467286D01*
X146909620Y-116418702D01*
X147015180Y-116348169D01*
X147104950Y-116258399D01*
X147175483Y-116152839D01*
X147224067Y-116035548D01*
X147247564Y-115917422D01*
X147248835Y-115911034D01*
X147248835Y-115859996D01*
X153474435Y-115859996D01*
X153474435Y-115860003D01*
X153494630Y-116039249D01*
X153494631Y-116039254D01*
X153554211Y-116209523D01*
X153609131Y-116296927D01*
X153650184Y-116362262D01*
X153777738Y-116489816D01*
X153930478Y-116585789D01*
X154100745Y-116645368D01*
X154100750Y-116645369D01*
X154279996Y-116665565D01*
X154280000Y-116665565D01*
X154280004Y-116665565D01*
X154459249Y-116645369D01*
X154459252Y-116645368D01*
X154459255Y-116645368D01*
X154629522Y-116585789D01*
X154782262Y-116489816D01*
X154909816Y-116362262D01*
X155005789Y-116209522D01*
X155058530Y-116058796D01*
X160894435Y-116058796D01*
X160894435Y-116058803D01*
X160914630Y-116238049D01*
X160914631Y-116238054D01*
X160974211Y-116408323D01*
X161011261Y-116467287D01*
X161070184Y-116561062D01*
X161197738Y-116688616D01*
X161350478Y-116784589D01*
X161520745Y-116844168D01*
X161520750Y-116844169D01*
X161699996Y-116864365D01*
X161700000Y-116864365D01*
X161700004Y-116864365D01*
X161879249Y-116844169D01*
X161879252Y-116844168D01*
X161879255Y-116844168D01*
X162049522Y-116784589D01*
X162202262Y-116688616D01*
X162329816Y-116561062D01*
X162425789Y-116408322D01*
X162485368Y-116238055D01*
X162494969Y-116152845D01*
X162505565Y-116058803D01*
X162505565Y-116058796D01*
X162485369Y-115879550D01*
X162485368Y-115879545D01*
X162478529Y-115860000D01*
X162425789Y-115709278D01*
X162394548Y-115659559D01*
X162329815Y-115556537D01*
X162202262Y-115428984D01*
X162049523Y-115333011D01*
X161879254Y-115273431D01*
X161879249Y-115273430D01*
X161700004Y-115253235D01*
X161699996Y-115253235D01*
X161520750Y-115273430D01*
X161520745Y-115273431D01*
X161350476Y-115333011D01*
X161197737Y-115428984D01*
X161070184Y-115556537D01*
X160974211Y-115709276D01*
X160914631Y-115879545D01*
X160914630Y-115879550D01*
X160894435Y-116058796D01*
X155058530Y-116058796D01*
X155065368Y-116039255D01*
X155065786Y-116035548D01*
X155085565Y-115860003D01*
X155085565Y-115859996D01*
X155065369Y-115680750D01*
X155065368Y-115680745D01*
X155016913Y-115542269D01*
X155005789Y-115510478D01*
X154909816Y-115357738D01*
X154782262Y-115230184D01*
X154739085Y-115203054D01*
X154629523Y-115134211D01*
X154459254Y-115074631D01*
X154459249Y-115074630D01*
X154280004Y-115054435D01*
X154279996Y-115054435D01*
X154100750Y-115074630D01*
X154100745Y-115074631D01*
X153930476Y-115134211D01*
X153777737Y-115230184D01*
X153650184Y-115357737D01*
X153554211Y-115510476D01*
X153494631Y-115680745D01*
X153494630Y-115680750D01*
X153474435Y-115859996D01*
X147248835Y-115859996D01*
X147248835Y-115784073D01*
X147224068Y-115659565D01*
X147224067Y-115659564D01*
X147224067Y-115659560D01*
X147175483Y-115542269D01*
X147175481Y-115542266D01*
X147175479Y-115542262D01*
X147104950Y-115436709D01*
X147104947Y-115436705D01*
X147015183Y-115346941D01*
X147015179Y-115346938D01*
X146909626Y-115276409D01*
X146909616Y-115276404D01*
X146792329Y-115227822D01*
X146792323Y-115227820D01*
X146667815Y-115203054D01*
X146667813Y-115203054D01*
X146540857Y-115203054D01*
X146540855Y-115203054D01*
X146416346Y-115227820D01*
X146416340Y-115227822D01*
X146299053Y-115276404D01*
X146299043Y-115276409D01*
X146193490Y-115346938D01*
X146193486Y-115346941D01*
X146103722Y-115436705D01*
X146103719Y-115436709D01*
X146033190Y-115542262D01*
X146033185Y-115542272D01*
X145984603Y-115659559D01*
X145984601Y-115659565D01*
X145959835Y-115784073D01*
X145959835Y-115784076D01*
X145959835Y-115911032D01*
X145959835Y-115911034D01*
X145959834Y-115911034D01*
X140391171Y-115911034D01*
X137600680Y-114729996D01*
X148434435Y-114729996D01*
X148434435Y-114730003D01*
X148454630Y-114909249D01*
X148454631Y-114909254D01*
X148514211Y-115079523D01*
X148566058Y-115162036D01*
X148610184Y-115232262D01*
X148737738Y-115359816D01*
X148890478Y-115455789D01*
X149046770Y-115510478D01*
X149060745Y-115515368D01*
X149060750Y-115515369D01*
X149239996Y-115535565D01*
X149240000Y-115535565D01*
X149240004Y-115535565D01*
X149419249Y-115515369D01*
X149419252Y-115515368D01*
X149419255Y-115515368D01*
X149589522Y-115455789D01*
X149742262Y-115359816D01*
X149869816Y-115232262D01*
X149965789Y-115079522D01*
X150025368Y-114909255D01*
X150036395Y-114811389D01*
X150045565Y-114730003D01*
X150045565Y-114729996D01*
X150025369Y-114550750D01*
X150025368Y-114550745D01*
X150018493Y-114531097D01*
X149965789Y-114380478D01*
X149944555Y-114346685D01*
X149869815Y-114227737D01*
X149742262Y-114100184D01*
X149589523Y-114004211D01*
X149419254Y-113944631D01*
X149419249Y-113944630D01*
X149240004Y-113924435D01*
X149239996Y-113924435D01*
X149060750Y-113944630D01*
X149060745Y-113944631D01*
X148890476Y-114004211D01*
X148737737Y-114100184D01*
X148610184Y-114227737D01*
X148514211Y-114380476D01*
X148454631Y-114550745D01*
X148454630Y-114550750D01*
X148434435Y-114729996D01*
X137600680Y-114729996D01*
X134599999Y-113459998D01*
X134583454Y-113465514D01*
X134513630Y-113468040D01*
X134496080Y-113462143D01*
X134054269Y-113275926D01*
X139691164Y-113275926D01*
X139715931Y-113400434D01*
X139715933Y-113400440D01*
X139764515Y-113517727D01*
X139764520Y-113517737D01*
X139835049Y-113623290D01*
X139835052Y-113623294D01*
X139924816Y-113713058D01*
X139924820Y-113713061D01*
X140030373Y-113783590D01*
X140030377Y-113783592D01*
X140030380Y-113783594D01*
X140147671Y-113832178D01*
X140147675Y-113832178D01*
X140147676Y-113832179D01*
X140272184Y-113856946D01*
X140272187Y-113856946D01*
X140399145Y-113856946D01*
X140482912Y-113840283D01*
X140523659Y-113832178D01*
X140640950Y-113783594D01*
X140746510Y-113713061D01*
X140836280Y-113623291D01*
X140906813Y-113517731D01*
X140951438Y-113409998D01*
X161043235Y-113409998D01*
X161043235Y-113410005D01*
X161063430Y-113589251D01*
X161063431Y-113589256D01*
X161123011Y-113759525D01*
X161168663Y-113832179D01*
X161218984Y-113912264D01*
X161346538Y-114039818D01*
X161499278Y-114135791D01*
X161630107Y-114181570D01*
X161669545Y-114195370D01*
X161669550Y-114195371D01*
X161848796Y-114215567D01*
X161848800Y-114215567D01*
X161848804Y-114215567D01*
X162028049Y-114195371D01*
X162028052Y-114195370D01*
X162028055Y-114195370D01*
X162198322Y-114135791D01*
X162351062Y-114039818D01*
X162478616Y-113912264D01*
X162574589Y-113759524D01*
X162634168Y-113589257D01*
X162642155Y-113518369D01*
X162654365Y-113410005D01*
X162654365Y-113409998D01*
X162634169Y-113230752D01*
X162634168Y-113230747D01*
X162618069Y-113184740D01*
X162574589Y-113060480D01*
X162551950Y-113024451D01*
X162478615Y-112907739D01*
X162459425Y-112888549D01*
X184399282Y-112888549D01*
X184399282Y-112888556D01*
X184419477Y-113067802D01*
X184419478Y-113067807D01*
X184479058Y-113238076D01*
X184565728Y-113376009D01*
X184575031Y-113390815D01*
X184702585Y-113518369D01*
X184855325Y-113614342D01*
X184937048Y-113642938D01*
X185025592Y-113673921D01*
X185025597Y-113673922D01*
X185204843Y-113694118D01*
X185204847Y-113694118D01*
X185204851Y-113694118D01*
X185384096Y-113673922D01*
X185384099Y-113673921D01*
X185384102Y-113673921D01*
X185554369Y-113614342D01*
X185707109Y-113518369D01*
X185834663Y-113390815D01*
X185930636Y-113238075D01*
X185990215Y-113067808D01*
X185994336Y-113031236D01*
X186010412Y-112888556D01*
X186010412Y-112888549D01*
X185990216Y-112709303D01*
X185990215Y-112709298D01*
X185981437Y-112684213D01*
X185930636Y-112539031D01*
X185834663Y-112386291D01*
X185707109Y-112258737D01*
X185554370Y-112162764D01*
X185384101Y-112103184D01*
X185384096Y-112103183D01*
X185204851Y-112082988D01*
X185204843Y-112082988D01*
X185025597Y-112103183D01*
X185025592Y-112103184D01*
X184855323Y-112162764D01*
X184702584Y-112258737D01*
X184575031Y-112386290D01*
X184479058Y-112539029D01*
X184419478Y-112709298D01*
X184419477Y-112709303D01*
X184399282Y-112888549D01*
X162459425Y-112888549D01*
X162351062Y-112780186D01*
X162198323Y-112684213D01*
X162028054Y-112624633D01*
X162028049Y-112624632D01*
X161848804Y-112604437D01*
X161848796Y-112604437D01*
X161669550Y-112624632D01*
X161669545Y-112624633D01*
X161499276Y-112684213D01*
X161346537Y-112780186D01*
X161218984Y-112907739D01*
X161123011Y-113060478D01*
X161063431Y-113230747D01*
X161063430Y-113230752D01*
X161043235Y-113409998D01*
X140951438Y-113409998D01*
X140955397Y-113400440D01*
X140976686Y-113293416D01*
X140980165Y-113275926D01*
X140980165Y-113148965D01*
X140955398Y-113024457D01*
X140955397Y-113024456D01*
X140955397Y-113024452D01*
X140906813Y-112907161D01*
X140906811Y-112907158D01*
X140906809Y-112907154D01*
X140836280Y-112801601D01*
X140836277Y-112801597D01*
X140746513Y-112711833D01*
X140746509Y-112711830D01*
X140640956Y-112641301D01*
X140640946Y-112641296D01*
X140523659Y-112592714D01*
X140523653Y-112592712D01*
X140399145Y-112567946D01*
X140399143Y-112567946D01*
X140272187Y-112567946D01*
X140272185Y-112567946D01*
X140147676Y-112592712D01*
X140147670Y-112592714D01*
X140030383Y-112641296D01*
X140030373Y-112641301D01*
X139924820Y-112711830D01*
X139924816Y-112711833D01*
X139835052Y-112801597D01*
X139835049Y-112801601D01*
X139764520Y-112907154D01*
X139764515Y-112907164D01*
X139715933Y-113024451D01*
X139715931Y-113024457D01*
X139691165Y-113148965D01*
X139691165Y-113148968D01*
X139691165Y-113275924D01*
X139691165Y-113275926D01*
X139691164Y-113275926D01*
X134054269Y-113275926D01*
X133834096Y-113183126D01*
X133820231Y-113176233D01*
X133803278Y-113166439D01*
X133795589Y-113163827D01*
X133786596Y-113161385D01*
X133778634Y-113159750D01*
X133759053Y-113159629D01*
X133743608Y-113158566D01*
X133724202Y-113156006D01*
X133724200Y-113156006D01*
X133724199Y-113156006D01*
X133716099Y-113156534D01*
X133706829Y-113157724D01*
X133698872Y-113159256D01*
X133680728Y-113166639D01*
X133666057Y-113171566D01*
X133647148Y-113176627D01*
X133639859Y-113180219D01*
X133631767Y-113184856D01*
X133624990Y-113189324D01*
X133611059Y-113203083D01*
X133599390Y-113213250D01*
X133583856Y-113225163D01*
X133578488Y-113231280D01*
X133572796Y-113238650D01*
X133568240Y-113245376D01*
X133560635Y-113263421D01*
X133553740Y-113277288D01*
X120838189Y-135286585D01*
X120836790Y-135288947D01*
X120817819Y-135320165D01*
X120817617Y-135320763D01*
X120816697Y-135323375D01*
X120816472Y-135323991D01*
X120811695Y-135360190D01*
X120811306Y-135362905D01*
X120805725Y-135399016D01*
X120805767Y-135399658D01*
X120805917Y-135402418D01*
X120805945Y-135403086D01*
X120815389Y-135438375D01*
X120816067Y-135441026D01*
X120824645Y-135476176D01*
X120824727Y-135476509D01*
X120825019Y-135477101D01*
X120826210Y-135479588D01*
X120826484Y-135480176D01*
X120848714Y-135509165D01*
X120850362Y-135511364D01*
X120875494Y-135545686D01*
X120899219Y-135611405D01*
X120895223Y-135651036D01*
X120875500Y-135724644D01*
X120875500Y-135742494D01*
X120855815Y-135809533D01*
X120813499Y-135849882D01*
X120788473Y-135864330D01*
X120788470Y-135864332D01*
X120724332Y-135928470D01*
X120724326Y-135928478D01*
X120678980Y-136007021D01*
X120678977Y-136007028D01*
X120655500Y-136094646D01*
X120655500Y-136102494D01*
X120635815Y-136169533D01*
X120593499Y-136209882D01*
X120568473Y-136224330D01*
X120568470Y-136224332D01*
X120504332Y-136288470D01*
X120504326Y-136288478D01*
X120458980Y-136367021D01*
X120458977Y-136367028D01*
X120435500Y-136454646D01*
X120435500Y-136474041D01*
X120415815Y-136541080D01*
X120373502Y-136581426D01*
X120368472Y-136584331D01*
X120314426Y-136638377D01*
X120253102Y-136671861D01*
X120213903Y-136674027D01*
X120197887Y-136672360D01*
X120184978Y-136671016D01*
X120181782Y-136670641D01*
X120146082Y-136665984D01*
X120145339Y-136666053D01*
X120142138Y-136666308D01*
X120141394Y-136666357D01*
X120106900Y-136676612D01*
X120103800Y-136677490D01*
X120069066Y-136686840D01*
X120068436Y-136687173D01*
X120065553Y-136688647D01*
X120064879Y-136688980D01*
X120036927Y-136711660D01*
X120034400Y-136713657D01*
X120005897Y-136735580D01*
X120005443Y-136736128D01*
X120003334Y-136738603D01*
X120002849Y-136739157D01*
X119985701Y-136770812D01*
X119984129Y-136773624D01*
X117832311Y-140510604D01*
X117781800Y-140558878D01*
X117713208Y-140572180D01*
X117648313Y-140546287D01*
X117636560Y-140535793D01*
X111001976Y-133807644D01*
X110919193Y-133723694D01*
X110886139Y-133662139D01*
X110891611Y-133592484D01*
X110896782Y-133580771D01*
X120207862Y-115132049D01*
X127755752Y-115132049D01*
X127755752Y-115132056D01*
X127775947Y-115311302D01*
X127775948Y-115311307D01*
X127835528Y-115481576D01*
X127882630Y-115556538D01*
X127931501Y-115634315D01*
X128059055Y-115761869D01*
X128211795Y-115857842D01*
X128221049Y-115861080D01*
X128382062Y-115917421D01*
X128382067Y-115917422D01*
X128561313Y-115937618D01*
X128561317Y-115937618D01*
X128561321Y-115937618D01*
X128740566Y-115917422D01*
X128740569Y-115917421D01*
X128740572Y-115917421D01*
X128910839Y-115857842D01*
X129063579Y-115761869D01*
X129191133Y-115634315D01*
X129287106Y-115481575D01*
X129346685Y-115311308D01*
X129350617Y-115276409D01*
X129366882Y-115132056D01*
X129366882Y-115132049D01*
X129346686Y-114952803D01*
X129346685Y-114952798D01*
X129331448Y-114909254D01*
X129287106Y-114782531D01*
X129191133Y-114629791D01*
X129063579Y-114502237D01*
X128910840Y-114406264D01*
X128740571Y-114346684D01*
X128740566Y-114346683D01*
X128561321Y-114326488D01*
X128561313Y-114326488D01*
X128382067Y-114346683D01*
X128382062Y-114346684D01*
X128211793Y-114406264D01*
X128059054Y-114502237D01*
X127931501Y-114629790D01*
X127835528Y-114782529D01*
X127775948Y-114952798D01*
X127775947Y-114952803D01*
X127755752Y-115132049D01*
X120207862Y-115132049D01*
X121135823Y-113293412D01*
X122498708Y-113293412D01*
X122498708Y-113293419D01*
X122518903Y-113472665D01*
X122518904Y-113472670D01*
X122578484Y-113642939D01*
X122666862Y-113783590D01*
X122674457Y-113795678D01*
X122802011Y-113923232D01*
X122954751Y-114019205D01*
X123013657Y-114039817D01*
X123125018Y-114078784D01*
X123125023Y-114078785D01*
X123304269Y-114098981D01*
X123304273Y-114098981D01*
X123304277Y-114098981D01*
X123483522Y-114078785D01*
X123483525Y-114078784D01*
X123483528Y-114078784D01*
X123653795Y-114019205D01*
X123806535Y-113923232D01*
X123934089Y-113795678D01*
X124030062Y-113642938D01*
X124089641Y-113472671D01*
X124090448Y-113465514D01*
X124100532Y-113376009D01*
X124109838Y-113293416D01*
X124108914Y-113285221D01*
X124120965Y-113216403D01*
X124166166Y-113166339D01*
X124178182Y-113158790D01*
X124305736Y-113031236D01*
X124401709Y-112878496D01*
X124461288Y-112708229D01*
X124463994Y-112684213D01*
X124481485Y-112528977D01*
X124481485Y-112528970D01*
X124461289Y-112349724D01*
X124461286Y-112349711D01*
X124426630Y-112250670D01*
X124423068Y-112180891D01*
X124457796Y-112120264D01*
X124519790Y-112088036D01*
X124529788Y-112086495D01*
X124624061Y-112075873D01*
X124624064Y-112075872D01*
X124624067Y-112075872D01*
X124794334Y-112016293D01*
X124947074Y-111920320D01*
X125074628Y-111792766D01*
X125170601Y-111640026D01*
X125230180Y-111469759D01*
X125245927Y-111330000D01*
X125245927Y-111329996D01*
X133534435Y-111329996D01*
X133534435Y-111330003D01*
X133554630Y-111509249D01*
X133554631Y-111509254D01*
X133614211Y-111679523D01*
X133685367Y-111792766D01*
X133710184Y-111832262D01*
X133837738Y-111959816D01*
X133990478Y-112055789D01*
X134072498Y-112084489D01*
X134160745Y-112115368D01*
X134160750Y-112115369D01*
X134339996Y-112135565D01*
X134340000Y-112135565D01*
X134340004Y-112135565D01*
X134519249Y-112115369D01*
X134519252Y-112115368D01*
X134519255Y-112115368D01*
X134689522Y-112055789D01*
X134842262Y-111959816D01*
X134969816Y-111832262D01*
X135065789Y-111679522D01*
X135125368Y-111509255D01*
X135129818Y-111469759D01*
X135145565Y-111330003D01*
X135145565Y-111329996D01*
X135125369Y-111150750D01*
X135125368Y-111150745D01*
X135065789Y-110980478D01*
X134969816Y-110827738D01*
X134842262Y-110700184D01*
X134779405Y-110660688D01*
X134689523Y-110604211D01*
X134519254Y-110544631D01*
X134519249Y-110544630D01*
X134340004Y-110524435D01*
X134339996Y-110524435D01*
X134160750Y-110544630D01*
X134160745Y-110544631D01*
X133990476Y-110604211D01*
X133837737Y-110700184D01*
X133710184Y-110827737D01*
X133614211Y-110980476D01*
X133554631Y-111150745D01*
X133554630Y-111150750D01*
X133534435Y-111329996D01*
X125245927Y-111329996D01*
X125250377Y-111290507D01*
X125250377Y-111290500D01*
X125230181Y-111111254D01*
X125230180Y-111111249D01*
X125184421Y-110980478D01*
X125170601Y-110940982D01*
X125074628Y-110788242D01*
X124947074Y-110660688D01*
X124794335Y-110564715D01*
X124624066Y-110505135D01*
X124624061Y-110505134D01*
X124444816Y-110484939D01*
X124444808Y-110484939D01*
X124265562Y-110505134D01*
X124265557Y-110505135D01*
X124095288Y-110564715D01*
X123942549Y-110660688D01*
X123814996Y-110788241D01*
X123719023Y-110940980D01*
X123659443Y-111111249D01*
X123659442Y-111111254D01*
X123639247Y-111290500D01*
X123639247Y-111290507D01*
X123659442Y-111469753D01*
X123659444Y-111469761D01*
X123694102Y-111568808D01*
X123697663Y-111638587D01*
X123662934Y-111699214D01*
X123600941Y-111731441D01*
X123590944Y-111732982D01*
X123496669Y-111743604D01*
X123496665Y-111743605D01*
X123326396Y-111803185D01*
X123173657Y-111899158D01*
X123046104Y-112026711D01*
X122950131Y-112179450D01*
X122890551Y-112349719D01*
X122890550Y-112349724D01*
X122870355Y-112528970D01*
X122870355Y-112528979D01*
X122871278Y-112537172D01*
X122859223Y-112605994D01*
X122814033Y-112656046D01*
X122802011Y-112663599D01*
X122674457Y-112791153D01*
X122578484Y-112943892D01*
X122518904Y-113114161D01*
X122518903Y-113114166D01*
X122498708Y-113293412D01*
X121135823Y-113293412D01*
X124105546Y-107409284D01*
X124114483Y-107397086D01*
X124113188Y-107396221D01*
X124119974Y-107386065D01*
X124119974Y-107386064D01*
X124119976Y-107386063D01*
X124130612Y-107360381D01*
X124134449Y-107352018D01*
X124146964Y-107327223D01*
X124146964Y-107327219D01*
X124146965Y-107327218D01*
X124149010Y-107319858D01*
X124150500Y-107312373D01*
X124150500Y-107284618D01*
X124150846Y-107275361D01*
X124152918Y-107247683D01*
X124151992Y-107240111D01*
X124150499Y-107232604D01*
X124139877Y-107206961D01*
X124136653Y-107198273D01*
X124127979Y-107171919D01*
X124124544Y-107165841D01*
X124108698Y-107097792D01*
X124132158Y-107031978D01*
X124172068Y-106996555D01*
X124396811Y-106871134D01*
X124464941Y-106855655D01*
X124530627Y-106879467D01*
X124544715Y-106891533D01*
X124548266Y-106895068D01*
X124641323Y-106945605D01*
X124674704Y-106963733D01*
X124740224Y-106988000D01*
X124740227Y-106988001D01*
X124880879Y-107018261D01*
X124880880Y-107018260D01*
X124880885Y-107018262D01*
X125024375Y-107007670D01*
X125092614Y-106992662D01*
X125092616Y-106992661D01*
X125092618Y-106992659D01*
X125097071Y-106991084D01*
X125098661Y-106990390D01*
X125227309Y-106942072D01*
X125960349Y-106539619D01*
X126053059Y-106474190D01*
X126087182Y-106443833D01*
X126150351Y-106413983D01*
X126219634Y-106423023D01*
X126245085Y-106438104D01*
X126281165Y-106465789D01*
X126316970Y-106493263D01*
X126316977Y-106493267D01*
X126535122Y-106619214D01*
X126535127Y-106619216D01*
X126535130Y-106619218D01*
X126767864Y-106715620D01*
X127011191Y-106780819D01*
X127260945Y-106813700D01*
X127260952Y-106813700D01*
X127512848Y-106813700D01*
X127512855Y-106813700D01*
X127762609Y-106780819D01*
X128005936Y-106715620D01*
X128238670Y-106619218D01*
X128456830Y-106493263D01*
X128656683Y-106339910D01*
X128834810Y-106161783D01*
X128988163Y-105961930D01*
X129114118Y-105743770D01*
X129210520Y-105511036D01*
X129275719Y-105267709D01*
X129308600Y-105017955D01*
X129308600Y-104766045D01*
X129307984Y-104761366D01*
X129318749Y-104692331D01*
X129365128Y-104640075D01*
X129404263Y-104624080D01*
X129406319Y-104623627D01*
X129408284Y-104623233D01*
X129408524Y-104623143D01*
X129408525Y-104623143D01*
X129543218Y-104572553D01*
X129625672Y-104527284D01*
X129625691Y-104527272D01*
X129685803Y-104488492D01*
X129713804Y-104467479D01*
X129713803Y-104467479D01*
X129713820Y-104467467D01*
X129767865Y-104420579D01*
X129788518Y-104392986D01*
X129844446Y-104351112D01*
X129914138Y-104346123D01*
X129931111Y-104351105D01*
X130243145Y-104467467D01*
X130300566Y-104488880D01*
X131272707Y-104851403D01*
X131285554Y-104855751D01*
X131301973Y-104861308D01*
X131316474Y-104865727D01*
X131346318Y-104873833D01*
X131489592Y-104887024D01*
X131556216Y-104883623D01*
X131558249Y-104883572D01*
X131559362Y-104883463D01*
X131559371Y-104883463D01*
X131559374Y-104883463D01*
X131700561Y-104855754D01*
X131730750Y-104845190D01*
X131757813Y-104839012D01*
X131796128Y-104834696D01*
X131823874Y-104834696D01*
X131862174Y-104839011D01*
X131889237Y-104845187D01*
X131925620Y-104857918D01*
X131950636Y-104869966D01*
X131983266Y-104890469D01*
X132004975Y-104907781D01*
X132032215Y-104935021D01*
X132049527Y-104956729D01*
X132087438Y-105017064D01*
X132098786Y-105034331D01*
X132104533Y-105042697D01*
X132116529Y-105059419D01*
X132116533Y-105059425D01*
X132218267Y-105161147D01*
X132218270Y-105161149D01*
X132218275Y-105161154D01*
X132274211Y-105203022D01*
X132274212Y-105203022D01*
X132277654Y-105205598D01*
X132283950Y-105208339D01*
X132322750Y-105229522D01*
X132400497Y-105271969D01*
X133371437Y-105634044D01*
X133371436Y-105634044D01*
X133845075Y-105810669D01*
X134641548Y-106107683D01*
X137403942Y-107137812D01*
X138831047Y-107669996D01*
X138831046Y-107669996D01*
X140101158Y-108143635D01*
X141895961Y-108812937D01*
X141951898Y-108854805D01*
X141976319Y-108920267D01*
X141975856Y-108943002D01*
X141969435Y-109000000D01*
X141969435Y-109000001D01*
X141989630Y-109179247D01*
X141989631Y-109179252D01*
X142049211Y-109349521D01*
X142098649Y-109428200D01*
X142145184Y-109502260D01*
X142272738Y-109629814D01*
X142425478Y-109725787D01*
X142595745Y-109785366D01*
X142595750Y-109785367D01*
X142774996Y-109805563D01*
X142775000Y-109805563D01*
X142775004Y-109805563D01*
X142954249Y-109785367D01*
X142954252Y-109785366D01*
X142954255Y-109785366D01*
X143124522Y-109725787D01*
X143277262Y-109629814D01*
X143404816Y-109502260D01*
X143415572Y-109485140D01*
X143467904Y-109438850D01*
X143536957Y-109428200D01*
X143563885Y-109434926D01*
X145747578Y-110249251D01*
X146462028Y-110515678D01*
X146462030Y-110515678D01*
X146462034Y-110515680D01*
X146550487Y-110539792D01*
X146594599Y-110547606D01*
X146685972Y-110555345D01*
X151990025Y-110521755D01*
X152093324Y-110510419D01*
X152142897Y-110499735D01*
X152241683Y-110467520D01*
X152363511Y-110390973D01*
X152416779Y-110345760D01*
X152416779Y-110345759D01*
X152423829Y-110339776D01*
X152428803Y-110332165D01*
X152484358Y-110269358D01*
X152543517Y-110232187D01*
X152613383Y-110232901D01*
X152618162Y-110234464D01*
X152620745Y-110235368D01*
X152620748Y-110235368D01*
X152620750Y-110235369D01*
X152799996Y-110255565D01*
X152800000Y-110255565D01*
X152800004Y-110255565D01*
X152979247Y-110235369D01*
X152979247Y-110235368D01*
X152979255Y-110235368D01*
X152992504Y-110230731D01*
X153062278Y-110227167D01*
X153122907Y-110261894D01*
X153126655Y-110265976D01*
X153137525Y-110278361D01*
X153174161Y-110320103D01*
X153283487Y-110413629D01*
X153414741Y-110472570D01*
X153481903Y-110491830D01*
X153481907Y-110491831D01*
X153624449Y-110511405D01*
X154913526Y-110503241D01*
X155016823Y-110491905D01*
X155066397Y-110481221D01*
X155165195Y-110449002D01*
X155287021Y-110372452D01*
X155340288Y-110327238D01*
X155420912Y-110236087D01*
X155480071Y-110198915D01*
X155527675Y-110195022D01*
X155530744Y-110195367D01*
X155530745Y-110195368D01*
X155562226Y-110198915D01*
X155709997Y-110215565D01*
X155710000Y-110215565D01*
X155710004Y-110215565D01*
X155889246Y-110195369D01*
X155889245Y-110195369D01*
X155889255Y-110195368D01*
X155889263Y-110195364D01*
X155892096Y-110194719D01*
X155893991Y-110194834D01*
X155896175Y-110194589D01*
X155896218Y-110194971D01*
X155961835Y-110198985D01*
X156018197Y-110240278D01*
X156023583Y-110247899D01*
X156024460Y-110249244D01*
X156024465Y-110249249D01*
X156024466Y-110249251D01*
X156055980Y-110285159D01*
X156070548Y-110301757D01*
X156179879Y-110395288D01*
X156311132Y-110454228D01*
X156375094Y-110472570D01*
X156377054Y-110473132D01*
X156378212Y-110473477D01*
X156378296Y-110473488D01*
X156378297Y-110473489D01*
X156520840Y-110493063D01*
X158769263Y-110478825D01*
X158769284Y-110478823D01*
X158769306Y-110478823D01*
X158802853Y-110477036D01*
X158816566Y-110476306D01*
X158839661Y-110473987D01*
X158886508Y-110467053D01*
X159022315Y-110419533D01*
X159084309Y-110387306D01*
X159092070Y-110381740D01*
X159168059Y-110327238D01*
X159201226Y-110303450D01*
X159201226Y-110303449D01*
X159204031Y-110301438D01*
X159269980Y-110278361D01*
X159317256Y-110285159D01*
X159460737Y-110335366D01*
X159460743Y-110335367D01*
X159460745Y-110335368D01*
X159460746Y-110335368D01*
X159460750Y-110335369D01*
X159639996Y-110355565D01*
X159640000Y-110355565D01*
X159640004Y-110355565D01*
X159819249Y-110335369D01*
X159819252Y-110335368D01*
X159819255Y-110335368D01*
X159819256Y-110335367D01*
X159819259Y-110335367D01*
X159862880Y-110320103D01*
X159980408Y-110278977D01*
X160050184Y-110275415D01*
X160101967Y-110301793D01*
X160181632Y-110369945D01*
X160312885Y-110428885D01*
X160371735Y-110445761D01*
X160378807Y-110447789D01*
X160379965Y-110448134D01*
X160380049Y-110448145D01*
X160380050Y-110448146D01*
X160522593Y-110467720D01*
X163990387Y-110445761D01*
X164000679Y-110445454D01*
X164014078Y-110445056D01*
X164025656Y-110444439D01*
X164025655Y-110444439D01*
X164025675Y-110444438D01*
X164049295Y-110442624D01*
X164049301Y-110442622D01*
X164049304Y-110442622D01*
X164117797Y-110425650D01*
X164188952Y-110408021D01*
X164253689Y-110381737D01*
X164377937Y-110309192D01*
X175572170Y-101417378D01*
X179246606Y-101417378D01*
X179276165Y-101604008D01*
X179276166Y-101604013D01*
X179334556Y-101783721D01*
X179334557Y-101783724D01*
X179334558Y-101783725D01*
X179420345Y-101952093D01*
X179531415Y-102104968D01*
X179665032Y-102238585D01*
X179817907Y-102349655D01*
X179986275Y-102435442D01*
X179986277Y-102435442D01*
X179986278Y-102435443D01*
X180165986Y-102493833D01*
X180165988Y-102493833D01*
X180165990Y-102493834D01*
X180192652Y-102498056D01*
X180352621Y-102523393D01*
X180352627Y-102523393D01*
X185837378Y-102523393D01*
X185970685Y-102502279D01*
X186024010Y-102493834D01*
X186203725Y-102435442D01*
X186372093Y-102349655D01*
X186524968Y-102238585D01*
X186658585Y-102104968D01*
X186769655Y-101952093D01*
X186855442Y-101783725D01*
X186913834Y-101604010D01*
X186922279Y-101550685D01*
X186943393Y-101417378D01*
X186943393Y-92502621D01*
X186913834Y-92315991D01*
X186913833Y-92315986D01*
X186855443Y-92136278D01*
X186855442Y-92136277D01*
X186855442Y-92136275D01*
X186769655Y-91967907D01*
X186658585Y-91815032D01*
X186524968Y-91681415D01*
X186372093Y-91570345D01*
X186203725Y-91484558D01*
X186203724Y-91484557D01*
X186203721Y-91484556D01*
X186024013Y-91426166D01*
X186024008Y-91426165D01*
X185837378Y-91396607D01*
X185837373Y-91396607D01*
X185794874Y-91396607D01*
X185793884Y-91396510D01*
X185742679Y-91396607D01*
X185691584Y-91396607D01*
X185690592Y-91396705D01*
X180447092Y-91406607D01*
X180352622Y-91406607D01*
X180165991Y-91436165D01*
X180165986Y-91436166D01*
X179986278Y-91494556D01*
X179817905Y-91580346D01*
X179817902Y-91580348D01*
X179665029Y-91691417D01*
X179531417Y-91825029D01*
X179420348Y-91977902D01*
X179420346Y-91977905D01*
X179334556Y-92146278D01*
X179276166Y-92325986D01*
X179276165Y-92325991D01*
X179246607Y-92512621D01*
X179246607Y-101417378D01*
X179246606Y-101417378D01*
X175572170Y-101417378D01*
X175592448Y-101401271D01*
X175687007Y-101302557D01*
X175726064Y-101248795D01*
X175790723Y-101128337D01*
X175798963Y-101090456D01*
X175832445Y-101029134D01*
X175893768Y-100995647D01*
X175906220Y-100993596D01*
X175979255Y-100985368D01*
X176149522Y-100925789D01*
X176302262Y-100829816D01*
X176429816Y-100702262D01*
X176525789Y-100549522D01*
X176548344Y-100485060D01*
X176589065Y-100428286D01*
X176654018Y-100402538D01*
X176670673Y-100402129D01*
X176688677Y-100402899D01*
X176828334Y-100368296D01*
X176893071Y-100342012D01*
X177017319Y-100269467D01*
X177328785Y-100022063D01*
X177385666Y-99969274D01*
X177411426Y-99941392D01*
X177459556Y-99880520D01*
X177522061Y-99750926D01*
X177543149Y-99684314D01*
X177543150Y-99684310D01*
X177566611Y-99542355D01*
X177659025Y-95140087D01*
X177658819Y-95111578D01*
X177658818Y-95111563D01*
X177658806Y-95109829D01*
X177659441Y-95109824D01*
X177676134Y-95044482D01*
X177723939Y-94999993D01*
X177723626Y-94999494D01*
X177726243Y-94997849D01*
X177727282Y-94996883D01*
X177728974Y-94996052D01*
X177729509Y-94995793D01*
X177729522Y-94995789D01*
X177882262Y-94899816D01*
X178009816Y-94772262D01*
X178105789Y-94619522D01*
X178165368Y-94449255D01*
X178165369Y-94449249D01*
X178185565Y-94270003D01*
X178185565Y-94269996D01*
X178165369Y-94090750D01*
X178165368Y-94090745D01*
X178105788Y-93920476D01*
X178009815Y-93767737D01*
X177882262Y-93640184D01*
X177729523Y-93544211D01*
X177559254Y-93484631D01*
X177559249Y-93484630D01*
X177380004Y-93464435D01*
X177379996Y-93464435D01*
X177200750Y-93484630D01*
X177200742Y-93484632D01*
X177052604Y-93536468D01*
X176982825Y-93540029D01*
X176922198Y-93505300D01*
X176920755Y-93503771D01*
X176900726Y-93482187D01*
X176900721Y-93482183D01*
X176250361Y-92956306D01*
X176210608Y-92898848D01*
X176208230Y-92829019D01*
X176243982Y-92768989D01*
X176262349Y-92754894D01*
X176302262Y-92729816D01*
X176429816Y-92602262D01*
X176525789Y-92449522D01*
X176585368Y-92279255D01*
X176600351Y-92146275D01*
X176605565Y-92100003D01*
X176605565Y-92099996D01*
X176585369Y-91920750D01*
X176585368Y-91920745D01*
X176556558Y-91838410D01*
X176525789Y-91750478D01*
X176500041Y-91709501D01*
X176478859Y-91675789D01*
X176429816Y-91597738D01*
X176302262Y-91470184D01*
X176232208Y-91426166D01*
X176149521Y-91374210D01*
X176129035Y-91367042D01*
X176072258Y-91326320D01*
X176046511Y-91261367D01*
X176059967Y-91192806D01*
X176108354Y-91142403D01*
X176129035Y-91132958D01*
X176139617Y-91129255D01*
X176149522Y-91125789D01*
X176302262Y-91029816D01*
X176429816Y-90902262D01*
X176525789Y-90749522D01*
X176585368Y-90579255D01*
X176595282Y-90491267D01*
X176605565Y-90400003D01*
X176605565Y-90399996D01*
X176585369Y-90220750D01*
X176585368Y-90220745D01*
X176525788Y-90050476D01*
X176429815Y-89897737D01*
X176302262Y-89770184D01*
X176149523Y-89674211D01*
X175979254Y-89614631D01*
X175979249Y-89614630D01*
X175800004Y-89594435D01*
X175799996Y-89594435D01*
X175620750Y-89614630D01*
X175620745Y-89614631D01*
X175450476Y-89674211D01*
X175297737Y-89770184D01*
X175170184Y-89897737D01*
X175074211Y-90050476D01*
X175014631Y-90220745D01*
X175014630Y-90220750D01*
X174994435Y-90399996D01*
X174994435Y-90400003D01*
X175014630Y-90579249D01*
X175014631Y-90579254D01*
X175074211Y-90749523D01*
X175113279Y-90811699D01*
X175170184Y-90902262D01*
X175297738Y-91029816D01*
X175301706Y-91032309D01*
X175450479Y-91125790D01*
X175470966Y-91132959D01*
X175527741Y-91173681D01*
X175553488Y-91238634D01*
X175540031Y-91307196D01*
X175491643Y-91357598D01*
X175470966Y-91367041D01*
X175450479Y-91374209D01*
X175297737Y-91470184D01*
X175170184Y-91597737D01*
X175074210Y-91750478D01*
X175062849Y-91782945D01*
X175022126Y-91839720D01*
X174957172Y-91865466D01*
X174888611Y-91852008D01*
X174867842Y-91838410D01*
X174849241Y-91823369D01*
X172097530Y-89598354D01*
X172077779Y-89583173D01*
X172067918Y-89575973D01*
X172054551Y-89566709D01*
X172010665Y-89512344D01*
X172001965Y-89450909D01*
X172005119Y-89422922D01*
X172018624Y-89303057D01*
X172014416Y-89265711D01*
X171998428Y-89123807D01*
X171998427Y-89123802D01*
X171960687Y-89015948D01*
X171938848Y-88953535D01*
X171842875Y-88800795D01*
X171806117Y-88764037D01*
X180710200Y-88764037D01*
X180710200Y-89015962D01*
X180724398Y-89123802D01*
X180743081Y-89265709D01*
X180753089Y-89303059D01*
X180808279Y-89509034D01*
X180904680Y-89741766D01*
X180904685Y-89741777D01*
X181030632Y-89959922D01*
X181030643Y-89959938D01*
X181183988Y-90159781D01*
X181183994Y-90159788D01*
X181362111Y-90337905D01*
X181362117Y-90337910D01*
X181561970Y-90491263D01*
X181561977Y-90491267D01*
X181780122Y-90617214D01*
X181780127Y-90617216D01*
X181780130Y-90617218D01*
X182012864Y-90713620D01*
X182256191Y-90778819D01*
X182505945Y-90811700D01*
X182505952Y-90811700D01*
X182757848Y-90811700D01*
X182757855Y-90811700D01*
X183007609Y-90778819D01*
X183250936Y-90713620D01*
X183483670Y-90617218D01*
X183701830Y-90491263D01*
X183901683Y-90337910D01*
X184079810Y-90159783D01*
X184233163Y-89959930D01*
X184359118Y-89741770D01*
X184455520Y-89509036D01*
X184520719Y-89265709D01*
X184553600Y-89015955D01*
X184553600Y-88764045D01*
X184520719Y-88514291D01*
X184455520Y-88270964D01*
X184359118Y-88038230D01*
X184359116Y-88038227D01*
X184359114Y-88038222D01*
X184233167Y-87820077D01*
X184233163Y-87820070D01*
X184189017Y-87762538D01*
X184079811Y-87620218D01*
X184079805Y-87620211D01*
X183901688Y-87442094D01*
X183901681Y-87442088D01*
X183701838Y-87288743D01*
X183701836Y-87288741D01*
X183701830Y-87288737D01*
X183701825Y-87288734D01*
X183701822Y-87288732D01*
X183483677Y-87162785D01*
X183483666Y-87162780D01*
X183250934Y-87066379D01*
X183129272Y-87033780D01*
X183007609Y-87001181D01*
X182957660Y-86994605D01*
X182757862Y-86968300D01*
X182757855Y-86968300D01*
X182505945Y-86968300D01*
X182505937Y-86968300D01*
X182268213Y-86999598D01*
X182256191Y-87001181D01*
X182246335Y-87003822D01*
X182012865Y-87066379D01*
X181780133Y-87162780D01*
X181780122Y-87162785D01*
X181561977Y-87288732D01*
X181561961Y-87288743D01*
X181362118Y-87442088D01*
X181362111Y-87442094D01*
X181183994Y-87620211D01*
X181183988Y-87620218D01*
X181030643Y-87820061D01*
X181030632Y-87820077D01*
X180904685Y-88038222D01*
X180904680Y-88038233D01*
X180808279Y-88270965D01*
X180774311Y-88397737D01*
X180746125Y-88502933D01*
X180743082Y-88514288D01*
X180743080Y-88514299D01*
X180710200Y-88764037D01*
X171806117Y-88764037D01*
X171715321Y-88673241D01*
X171669120Y-88644211D01*
X171562582Y-88577268D01*
X171392313Y-88517688D01*
X171392308Y-88517687D01*
X171213063Y-88497492D01*
X171213055Y-88497492D01*
X171033809Y-88517687D01*
X171033804Y-88517688D01*
X170900406Y-88564367D01*
X170830627Y-88567928D01*
X170769999Y-88533199D01*
X170768556Y-88531670D01*
X170739132Y-88499961D01*
X170739127Y-88499957D01*
X167801464Y-86124581D01*
X167761711Y-86067123D01*
X167757537Y-86026964D01*
X167755565Y-86026964D01*
X167755565Y-86019996D01*
X167735369Y-85840750D01*
X167735368Y-85840745D01*
X167704131Y-85751475D01*
X167675789Y-85670478D01*
X167579816Y-85517738D01*
X167452262Y-85390184D01*
X167396525Y-85355162D01*
X167299523Y-85294211D01*
X167129254Y-85234631D01*
X167129249Y-85234630D01*
X166950004Y-85214435D01*
X166949996Y-85214435D01*
X166763825Y-85235411D01*
X166763550Y-85232972D01*
X166705211Y-85229394D01*
X166669399Y-85209201D01*
X166605484Y-85157520D01*
X166397313Y-84989194D01*
X166115657Y-84761448D01*
X166095905Y-84746266D01*
X166086030Y-84739055D01*
X166065562Y-84724870D01*
X166065556Y-84724867D01*
X166019373Y-84703204D01*
X165967038Y-84656913D01*
X165948038Y-84589676D01*
X165948810Y-84577076D01*
X165955242Y-84519996D01*
X168414297Y-84519996D01*
X168414297Y-84520003D01*
X168434492Y-84699249D01*
X168434493Y-84699254D01*
X168494073Y-84869523D01*
X168570075Y-84990478D01*
X168590046Y-85022262D01*
X168717600Y-85149816D01*
X168792780Y-85197055D01*
X168853823Y-85235411D01*
X168870340Y-85245789D01*
X168968121Y-85280004D01*
X169040607Y-85305368D01*
X169040612Y-85305369D01*
X169219858Y-85325565D01*
X169219862Y-85325565D01*
X169219866Y-85325565D01*
X169399111Y-85305369D01*
X169399114Y-85305368D01*
X169399117Y-85305368D01*
X169569384Y-85245789D01*
X169722124Y-85149816D01*
X169849678Y-85022262D01*
X169945651Y-84869522D01*
X170005230Y-84699255D01*
X170006362Y-84689211D01*
X170025427Y-84520003D01*
X170025427Y-84519996D01*
X170005231Y-84340750D01*
X170005230Y-84340745D01*
X169945650Y-84170476D01*
X169906444Y-84108080D01*
X169849678Y-84017738D01*
X169722124Y-83890184D01*
X169569385Y-83794211D01*
X169399116Y-83734631D01*
X169399111Y-83734630D01*
X169219866Y-83714435D01*
X169219858Y-83714435D01*
X169040612Y-83734630D01*
X169040607Y-83734631D01*
X168870338Y-83794211D01*
X168717599Y-83890184D01*
X168590046Y-84017737D01*
X168494073Y-84170476D01*
X168434493Y-84340745D01*
X168434492Y-84340750D01*
X168414297Y-84519996D01*
X165955242Y-84519996D01*
X165955563Y-84517148D01*
X165942448Y-84400750D01*
X165935367Y-84337898D01*
X165935366Y-84337893D01*
X165875786Y-84167624D01*
X165836580Y-84105228D01*
X165779814Y-84014886D01*
X165763521Y-83998593D01*
X165730036Y-83937270D01*
X165727982Y-83897027D01*
X165739018Y-83799088D01*
X165739018Y-83799084D01*
X165718822Y-83619837D01*
X165718819Y-83619824D01*
X165681511Y-83513205D01*
X165677949Y-83443426D01*
X165693557Y-83406280D01*
X165754670Y-83309021D01*
X165814249Y-83138754D01*
X165814250Y-83138748D01*
X165834446Y-82959502D01*
X165834446Y-82959495D01*
X165814250Y-82780249D01*
X165814249Y-82780244D01*
X165771996Y-82659492D01*
X184699623Y-82659492D01*
X184699623Y-82659499D01*
X184719818Y-82838745D01*
X184719819Y-82838750D01*
X184779399Y-83009019D01*
X184875372Y-83161758D01*
X185002926Y-83289312D01*
X185155666Y-83385285D01*
X185314890Y-83441000D01*
X185325933Y-83444864D01*
X185325938Y-83444865D01*
X185505184Y-83465061D01*
X185505188Y-83465061D01*
X185505192Y-83465061D01*
X185684437Y-83444865D01*
X185684440Y-83444864D01*
X185684443Y-83444864D01*
X185854710Y-83385285D01*
X186007450Y-83289312D01*
X186135004Y-83161758D01*
X186230977Y-83009018D01*
X186290556Y-82838751D01*
X186292467Y-82821789D01*
X186310753Y-82659499D01*
X186310753Y-82659492D01*
X186290557Y-82480246D01*
X186290554Y-82480233D01*
X186255898Y-82381192D01*
X186252336Y-82311413D01*
X186287064Y-82250786D01*
X186349058Y-82218558D01*
X186359056Y-82217017D01*
X186453329Y-82206395D01*
X186453332Y-82206394D01*
X186453335Y-82206394D01*
X186623602Y-82146815D01*
X186776342Y-82050842D01*
X186903896Y-81923288D01*
X186999869Y-81770548D01*
X187059448Y-81600281D01*
X187060186Y-81593738D01*
X187074211Y-81469254D01*
X187079645Y-81421026D01*
X187078721Y-81412831D01*
X187090772Y-81344013D01*
X187135973Y-81293949D01*
X187147989Y-81286400D01*
X187275543Y-81158846D01*
X187371516Y-81006106D01*
X187431095Y-80835839D01*
X187431096Y-80835833D01*
X187451292Y-80656587D01*
X187451292Y-80656580D01*
X187431096Y-80477334D01*
X187431095Y-80477329D01*
X187413446Y-80426891D01*
X187371516Y-80307062D01*
X187358147Y-80285786D01*
X187316583Y-80219637D01*
X187275543Y-80154322D01*
X187147989Y-80026768D01*
X187087444Y-79988725D01*
X186995250Y-79930795D01*
X186824981Y-79871215D01*
X186824976Y-79871214D01*
X186645731Y-79851019D01*
X186645723Y-79851019D01*
X186466477Y-79871214D01*
X186466472Y-79871215D01*
X186296203Y-79930795D01*
X186143464Y-80026768D01*
X186015911Y-80154321D01*
X185919938Y-80307060D01*
X185860358Y-80477329D01*
X185860357Y-80477334D01*
X185840162Y-80656580D01*
X185840162Y-80656589D01*
X185841085Y-80664782D01*
X185829030Y-80733604D01*
X185783840Y-80783656D01*
X185771818Y-80791209D01*
X185644264Y-80918763D01*
X185548291Y-81071502D01*
X185488711Y-81241771D01*
X185488710Y-81241776D01*
X185468515Y-81421022D01*
X185468515Y-81421029D01*
X185488710Y-81600275D01*
X185488712Y-81600283D01*
X185523370Y-81699330D01*
X185526931Y-81769109D01*
X185492202Y-81829736D01*
X185430209Y-81861963D01*
X185420212Y-81863504D01*
X185325937Y-81874126D01*
X185325933Y-81874127D01*
X185155664Y-81933707D01*
X185002925Y-82029680D01*
X184875372Y-82157233D01*
X184779399Y-82309972D01*
X184719819Y-82480241D01*
X184719818Y-82480246D01*
X184699623Y-82659492D01*
X165771996Y-82659492D01*
X165754669Y-82609975D01*
X165715463Y-82547579D01*
X165658697Y-82457237D01*
X165531800Y-82330340D01*
X165498315Y-82269017D01*
X165503299Y-82199325D01*
X165531799Y-82154979D01*
X165579818Y-82106961D01*
X165675791Y-81954221D01*
X165735370Y-81783954D01*
X165735592Y-81781984D01*
X165755567Y-81604702D01*
X165755567Y-81604695D01*
X165735371Y-81425449D01*
X165735370Y-81425444D01*
X165676128Y-81256140D01*
X165672567Y-81186361D01*
X165676129Y-81174230D01*
X165735365Y-81004945D01*
X165735368Y-81004932D01*
X165755564Y-80825686D01*
X165755564Y-80825679D01*
X165735368Y-80646433D01*
X165735367Y-80646428D01*
X165705655Y-80561515D01*
X165675788Y-80476161D01*
X165668879Y-80465166D01*
X165612343Y-80375189D01*
X165579815Y-80323421D01*
X165452261Y-80195867D01*
X165430287Y-80182060D01*
X165299522Y-80099894D01*
X165129253Y-80040314D01*
X165129248Y-80040313D01*
X164950003Y-80020118D01*
X164949995Y-80020118D01*
X164770749Y-80040313D01*
X164770744Y-80040314D01*
X164600475Y-80099894D01*
X164447736Y-80195867D01*
X164320183Y-80323420D01*
X164224210Y-80476159D01*
X164164630Y-80646428D01*
X164164629Y-80646433D01*
X164144434Y-80825679D01*
X164144434Y-80825686D01*
X164164629Y-81004932D01*
X164164631Y-81004940D01*
X164223872Y-81174241D01*
X164227433Y-81244019D01*
X164223872Y-81256149D01*
X164164634Y-81425441D01*
X164164632Y-81425449D01*
X164144437Y-81604695D01*
X164144437Y-81604702D01*
X164164632Y-81783948D01*
X164164633Y-81783953D01*
X164224213Y-81954222D01*
X164320186Y-82106961D01*
X164447082Y-82233857D01*
X164480567Y-82295180D01*
X164475583Y-82364872D01*
X164447083Y-82409218D01*
X164399065Y-82457236D01*
X164303092Y-82609975D01*
X164243512Y-82780244D01*
X164243511Y-82780249D01*
X164223316Y-82959495D01*
X164223316Y-82959502D01*
X164243512Y-83138751D01*
X164280822Y-83245380D01*
X164284383Y-83315159D01*
X164268774Y-83352305D01*
X164213044Y-83441000D01*
X164160710Y-83487292D01*
X164091657Y-83497941D01*
X164090427Y-83497770D01*
X164067681Y-83494500D01*
X159925097Y-83494500D01*
X159845519Y-83500803D01*
X159845513Y-83500803D01*
X159845512Y-83500804D01*
X159806962Y-83506949D01*
X159795159Y-83509802D01*
X159725371Y-83506415D01*
X159668494Y-83465835D01*
X159661039Y-83455242D01*
X159654518Y-83444864D01*
X159646016Y-83431333D01*
X159518462Y-83303779D01*
X159503903Y-83294631D01*
X159365723Y-83207806D01*
X159195454Y-83148226D01*
X159195449Y-83148225D01*
X159016204Y-83128030D01*
X159016196Y-83128030D01*
X158836950Y-83148225D01*
X158836937Y-83148228D01*
X158666681Y-83207804D01*
X158629548Y-83231135D01*
X158562311Y-83250133D01*
X158495476Y-83229763D01*
X158475898Y-83213820D01*
X158402262Y-83140184D01*
X158249521Y-83044210D01*
X158148946Y-83009018D01*
X158079255Y-82984632D01*
X158079251Y-82984631D01*
X158079250Y-82984631D01*
X158078777Y-82984523D01*
X158078501Y-82984369D01*
X158072683Y-82982333D01*
X158073039Y-82981313D01*
X158017798Y-82950416D01*
X157988626Y-82896982D01*
X157987668Y-82897318D01*
X157985630Y-82891496D01*
X157985473Y-82891207D01*
X157985369Y-82890754D01*
X157985368Y-82890745D01*
X157925789Y-82720478D01*
X157829816Y-82567738D01*
X157702262Y-82440184D01*
X157633074Y-82396710D01*
X157549523Y-82344211D01*
X157379254Y-82284631D01*
X157379249Y-82284630D01*
X157200004Y-82264435D01*
X157199996Y-82264435D01*
X157020750Y-82284630D01*
X157020745Y-82284631D01*
X156850476Y-82344211D01*
X156697737Y-82440184D01*
X156587681Y-82550241D01*
X156526358Y-82583726D01*
X156456666Y-82578742D01*
X156412319Y-82550241D01*
X156302262Y-82440184D01*
X156149523Y-82344211D01*
X155979254Y-82284631D01*
X155979249Y-82284630D01*
X155800004Y-82264435D01*
X155799996Y-82264435D01*
X155620750Y-82284630D01*
X155620745Y-82284631D01*
X155450476Y-82344211D01*
X155297737Y-82440184D01*
X155170184Y-82567737D01*
X155074210Y-82720478D01*
X155014628Y-82890755D01*
X155014518Y-82891241D01*
X155014360Y-82891522D01*
X155012333Y-82897317D01*
X155011317Y-82896961D01*
X154980400Y-82952215D01*
X154926984Y-82981381D01*
X154927317Y-82982333D01*
X154921541Y-82984353D01*
X154921241Y-82984518D01*
X154920755Y-82984628D01*
X154750478Y-83044210D01*
X154597737Y-83140184D01*
X154470184Y-83267737D01*
X154374210Y-83420477D01*
X154371893Y-83425291D01*
X154325071Y-83477151D01*
X154257644Y-83495465D01*
X154248825Y-83494745D01*
X154248820Y-83494816D01*
X154244408Y-83494500D01*
X154244406Y-83494500D01*
X154244403Y-83494500D01*
X152017940Y-83494500D01*
X151950901Y-83474815D01*
X151930259Y-83458181D01*
X151922262Y-83450184D01*
X151769523Y-83354211D01*
X151599254Y-83294631D01*
X151599249Y-83294630D01*
X151420004Y-83274435D01*
X151419996Y-83274435D01*
X151240750Y-83294630D01*
X151240745Y-83294631D01*
X151070476Y-83354211D01*
X150917737Y-83450184D01*
X150909741Y-83458181D01*
X150848418Y-83491666D01*
X150822060Y-83494500D01*
X149179404Y-83494500D01*
X149112365Y-83474815D01*
X149066610Y-83422011D01*
X149056666Y-83352853D01*
X149085691Y-83289297D01*
X149091723Y-83282819D01*
X149106805Y-83267737D01*
X149126048Y-83248494D01*
X149222021Y-83095754D01*
X149281600Y-82925487D01*
X149281601Y-82925481D01*
X149301797Y-82746235D01*
X149301797Y-82746228D01*
X149281601Y-82566982D01*
X149281600Y-82566977D01*
X149275744Y-82550241D01*
X149222021Y-82396710D01*
X149212270Y-82381192D01*
X149157329Y-82293754D01*
X149126048Y-82243970D01*
X148998494Y-82116416D01*
X148845755Y-82020443D01*
X148675486Y-81960863D01*
X148675481Y-81960862D01*
X148496236Y-81940667D01*
X148496228Y-81940667D01*
X148316982Y-81960862D01*
X148316977Y-81960863D01*
X148146708Y-82020443D01*
X147993969Y-82116416D01*
X147866416Y-82243969D01*
X147770443Y-82396708D01*
X147710863Y-82566977D01*
X147710862Y-82566982D01*
X147690667Y-82746228D01*
X147690667Y-82746235D01*
X147710862Y-82925481D01*
X147710863Y-82925486D01*
X147770443Y-83095755D01*
X147866416Y-83248494D01*
X147900741Y-83282819D01*
X147934226Y-83344142D01*
X147929242Y-83413834D01*
X147887370Y-83469767D01*
X147821906Y-83494184D01*
X147813060Y-83494500D01*
X145793362Y-83494500D01*
X145771142Y-83496574D01*
X145699798Y-83503235D01*
X145699785Y-83503236D01*
X145699783Y-83503237D01*
X145684742Y-83506070D01*
X145654659Y-83511737D01*
X145564304Y-83537652D01*
X145564289Y-83537657D01*
X143508633Y-84340750D01*
X142470644Y-84746266D01*
X142464480Y-84748674D01*
X142394874Y-84754734D01*
X142333041Y-84722200D01*
X142298613Y-84661401D01*
X142296138Y-84619291D01*
X142300565Y-84580002D01*
X142300565Y-84579996D01*
X142280369Y-84400750D01*
X142280368Y-84400745D01*
X142220788Y-84230476D01*
X142124815Y-84077737D01*
X141997262Y-83950184D01*
X141844523Y-83854211D01*
X141674254Y-83794631D01*
X141674249Y-83794630D01*
X141495004Y-83774435D01*
X141494996Y-83774435D01*
X141315750Y-83794630D01*
X141315745Y-83794631D01*
X141145476Y-83854211D01*
X140992737Y-83950184D01*
X140865184Y-84077737D01*
X140769211Y-84230476D01*
X140709631Y-84400745D01*
X140709630Y-84400750D01*
X140689435Y-84579996D01*
X140689435Y-84580003D01*
X140709630Y-84759249D01*
X140709631Y-84759254D01*
X140769211Y-84929523D01*
X140865184Y-85082262D01*
X140940442Y-85157520D01*
X140973927Y-85218843D01*
X140968943Y-85288535D01*
X140927071Y-85344468D01*
X140897884Y-85360700D01*
X140157385Y-85649996D01*
X140157384Y-85649996D01*
X139913140Y-85745415D01*
X139843534Y-85751475D01*
X139781701Y-85718940D01*
X139747273Y-85658142D01*
X139750977Y-85588960D01*
X139775367Y-85519259D01*
X139775369Y-85519249D01*
X139795565Y-85340003D01*
X139795565Y-85339996D01*
X139775369Y-85160750D01*
X139775368Y-85160745D01*
X139771543Y-85149815D01*
X139715789Y-84990478D01*
X139619816Y-84837738D01*
X139492262Y-84710184D01*
X139458884Y-84689211D01*
X139339523Y-84614211D01*
X139169254Y-84554631D01*
X139169249Y-84554630D01*
X138990004Y-84534435D01*
X138989996Y-84534435D01*
X138810750Y-84554630D01*
X138810745Y-84554631D01*
X138640476Y-84614211D01*
X138487737Y-84710184D01*
X138360184Y-84837737D01*
X138264211Y-84990476D01*
X138204631Y-85160745D01*
X138204630Y-85160750D01*
X138184435Y-85339996D01*
X138184435Y-85340003D01*
X138204630Y-85519249D01*
X138204631Y-85519254D01*
X138264211Y-85689523D01*
X138311337Y-85764523D01*
X138360184Y-85842262D01*
X138487738Y-85969816D01*
X138605617Y-86043884D01*
X138651908Y-86096219D01*
X138662556Y-86165272D01*
X138634181Y-86229121D01*
X138584767Y-86264377D01*
X137848396Y-86552058D01*
X137778790Y-86558118D01*
X137716957Y-86525584D01*
X137686232Y-86477514D01*
X137652210Y-86380286D01*
X137625789Y-86304778D01*
X137529816Y-86152038D01*
X137402262Y-86024484D01*
X137395119Y-86019996D01*
X137249523Y-85928511D01*
X137079254Y-85868931D01*
X137079249Y-85868930D01*
X136900004Y-85848735D01*
X136899996Y-85848735D01*
X136720750Y-85868930D01*
X136720745Y-85868931D01*
X136550476Y-85928511D01*
X136397737Y-86024484D01*
X136270184Y-86152037D01*
X136174211Y-86304776D01*
X136114631Y-86475045D01*
X136114630Y-86475050D01*
X136094435Y-86654296D01*
X136094435Y-86654303D01*
X136114630Y-86833549D01*
X136114633Y-86833562D01*
X136174209Y-87003820D01*
X136204983Y-87052797D01*
X136223983Y-87120034D01*
X136203615Y-87186869D01*
X136187672Y-87206448D01*
X136157867Y-87236253D01*
X136108878Y-87314219D01*
X136056543Y-87360510D01*
X135996949Y-87372053D01*
X135877036Y-87365335D01*
X135816321Y-87370621D01*
X135812797Y-87370928D01*
X135810677Y-87371020D01*
X135807435Y-87371394D01*
X135667331Y-87404144D01*
X133544474Y-88233490D01*
X133533830Y-88237790D01*
X133528561Y-88239989D01*
X133517985Y-88244544D01*
X133396161Y-88321092D01*
X133396160Y-88321093D01*
X133342896Y-88366304D01*
X133342887Y-88366312D01*
X133247570Y-88474074D01*
X133234033Y-88502933D01*
X133187741Y-88555267D01*
X133120504Y-88574266D01*
X133107888Y-88573492D01*
X133027504Y-88564435D01*
X133027496Y-88564435D01*
X132848250Y-88584630D01*
X132848245Y-88584631D01*
X132677976Y-88644211D01*
X132525239Y-88740183D01*
X132420528Y-88844894D01*
X132359205Y-88878378D01*
X132291314Y-88874049D01*
X132232759Y-88853234D01*
X132232754Y-88853232D01*
X132089101Y-88845184D01*
X132024863Y-88850777D01*
X132022739Y-88850869D01*
X132019500Y-88851242D01*
X131879394Y-88883994D01*
X130028502Y-89607089D01*
X129958896Y-89613149D01*
X129912673Y-89593455D01*
X128503500Y-88615323D01*
X128459652Y-88560926D01*
X128457164Y-88554407D01*
X128455790Y-88550480D01*
X128435186Y-88517689D01*
X128359816Y-88397738D01*
X128232262Y-88270184D01*
X128079521Y-88174210D01*
X127909249Y-88114630D01*
X127788642Y-88101041D01*
X127731819Y-88079686D01*
X126414045Y-87164996D01*
X130219435Y-87164996D01*
X130219435Y-87165003D01*
X130239630Y-87344249D01*
X130239631Y-87344254D01*
X130299211Y-87514523D01*
X130395184Y-87667262D01*
X130522738Y-87794816D01*
X130675478Y-87890789D01*
X130845745Y-87950368D01*
X130845750Y-87950369D01*
X131024996Y-87970565D01*
X131025000Y-87970565D01*
X131025004Y-87970565D01*
X131204249Y-87950369D01*
X131204252Y-87950368D01*
X131204255Y-87950368D01*
X131374522Y-87890789D01*
X131527262Y-87794816D01*
X131654816Y-87667262D01*
X131750789Y-87514522D01*
X131810368Y-87344255D01*
X131810827Y-87340184D01*
X131830565Y-87165003D01*
X131830565Y-87164996D01*
X131810369Y-86985750D01*
X131810368Y-86985745D01*
X131776959Y-86890268D01*
X131750789Y-86815478D01*
X131732341Y-86786119D01*
X131702251Y-86738230D01*
X131654816Y-86662738D01*
X131527262Y-86535184D01*
X131511984Y-86525584D01*
X131374523Y-86439211D01*
X131204254Y-86379631D01*
X131204249Y-86379630D01*
X131025004Y-86359435D01*
X131024996Y-86359435D01*
X130845750Y-86379630D01*
X130845745Y-86379631D01*
X130675476Y-86439211D01*
X130522737Y-86535184D01*
X130395184Y-86662737D01*
X130299211Y-86815476D01*
X130239631Y-86985745D01*
X130239630Y-86985750D01*
X130219435Y-87164996D01*
X126414045Y-87164996D01*
X125283535Y-86380289D01*
X125283532Y-86380288D01*
X125283531Y-86380287D01*
X125283529Y-86380286D01*
X125179768Y-86324918D01*
X125126409Y-86304002D01*
X125114052Y-86300754D01*
X125012647Y-86274107D01*
X125012640Y-86274106D01*
X125012639Y-86274106D01*
X124983864Y-86274176D01*
X124868761Y-86274459D01*
X124868754Y-86274459D01*
X124799631Y-86284571D01*
X124799628Y-86284571D01*
X124799627Y-86284572D01*
X124776543Y-86291411D01*
X124722563Y-86307404D01*
X124652693Y-86307574D01*
X124593823Y-86269942D01*
X124578124Y-86247231D01*
X124130774Y-85414996D01*
X126904435Y-85414996D01*
X126904435Y-85415003D01*
X126924630Y-85594249D01*
X126924631Y-85594254D01*
X126984211Y-85764523D01*
X127080184Y-85917262D01*
X127207738Y-86044816D01*
X127266652Y-86081834D01*
X127335935Y-86125368D01*
X127360478Y-86140789D01*
X127530745Y-86200368D01*
X127530750Y-86200369D01*
X127709996Y-86220565D01*
X127710000Y-86220565D01*
X127710004Y-86220565D01*
X127889249Y-86200369D01*
X127889252Y-86200368D01*
X127889255Y-86200368D01*
X128059522Y-86140789D01*
X128212262Y-86044816D01*
X128339816Y-85917262D01*
X128435789Y-85764522D01*
X128495368Y-85594255D01*
X128503818Y-85519259D01*
X128515565Y-85415003D01*
X128515565Y-85414996D01*
X128495369Y-85235750D01*
X128495368Y-85235745D01*
X128435788Y-85065476D01*
X128388662Y-84990476D01*
X128339816Y-84912738D01*
X128212262Y-84785184D01*
X128205775Y-84781108D01*
X128059523Y-84689211D01*
X127889254Y-84629631D01*
X127889249Y-84629630D01*
X127710004Y-84609435D01*
X127709996Y-84609435D01*
X127530750Y-84629630D01*
X127530745Y-84629631D01*
X127360476Y-84689211D01*
X127207737Y-84785184D01*
X127080184Y-84912737D01*
X126984211Y-85065476D01*
X126924631Y-85235745D01*
X126924630Y-85235750D01*
X126904435Y-85414996D01*
X124130774Y-85414996D01*
X121760277Y-81005001D01*
X124024873Y-81005001D01*
X124024873Y-81005008D01*
X124045068Y-81184254D01*
X124045069Y-81184259D01*
X124104649Y-81354528D01*
X124174808Y-81466184D01*
X124200622Y-81507267D01*
X124328176Y-81634821D01*
X124480916Y-81730794D01*
X124632821Y-81783948D01*
X124651183Y-81790373D01*
X124651188Y-81790374D01*
X124830434Y-81810570D01*
X124830438Y-81810570D01*
X124830442Y-81810570D01*
X125009687Y-81790374D01*
X125009690Y-81790373D01*
X125009693Y-81790373D01*
X125179960Y-81730794D01*
X125332700Y-81634821D01*
X125460254Y-81507267D01*
X125556227Y-81354527D01*
X125615806Y-81184260D01*
X125615881Y-81183593D01*
X125636003Y-81005008D01*
X125636003Y-81005001D01*
X125615807Y-80825755D01*
X125615806Y-80825750D01*
X125580448Y-80724703D01*
X125556227Y-80655483D01*
X125550537Y-80646428D01*
X125492711Y-80554398D01*
X125460254Y-80502743D01*
X125332700Y-80375189D01*
X125250312Y-80323421D01*
X125179961Y-80279216D01*
X125009692Y-80219636D01*
X125009687Y-80219635D01*
X124830442Y-80199440D01*
X124830434Y-80199440D01*
X124651188Y-80219635D01*
X124651183Y-80219636D01*
X124480914Y-80279216D01*
X124328175Y-80375189D01*
X124200622Y-80502742D01*
X124104649Y-80655481D01*
X124045069Y-80825750D01*
X124045068Y-80825755D01*
X124024873Y-81005001D01*
X121760277Y-81005001D01*
X120523162Y-78703513D01*
X119954941Y-77646413D01*
X128510392Y-77646413D01*
X128510392Y-77646420D01*
X128530587Y-77825666D01*
X128530588Y-77825671D01*
X128590168Y-77995940D01*
X128653100Y-78096095D01*
X128686141Y-78148679D01*
X128813695Y-78276233D01*
X128867440Y-78310003D01*
X128882278Y-78319326D01*
X128928569Y-78371660D01*
X128939526Y-78410436D01*
X128956518Y-78561250D01*
X128956519Y-78561254D01*
X129016099Y-78731523D01*
X129080823Y-78834530D01*
X129112072Y-78884262D01*
X129239626Y-79011816D01*
X129277779Y-79035789D01*
X129392366Y-79107789D01*
X129497377Y-79144534D01*
X129554153Y-79185256D01*
X129579901Y-79250209D01*
X129566445Y-79318770D01*
X129561425Y-79327535D01*
X129559704Y-79330274D01*
X129559703Y-79330276D01*
X129500126Y-79500535D01*
X129500123Y-79500548D01*
X129479928Y-79679794D01*
X129479928Y-79679801D01*
X129500123Y-79859047D01*
X129500124Y-79859052D01*
X129559704Y-80029321D01*
X129631936Y-80144277D01*
X129655677Y-80182060D01*
X129783231Y-80309614D01*
X129805205Y-80323421D01*
X129928083Y-80400631D01*
X129935971Y-80405587D01*
X130106238Y-80465166D01*
X130106243Y-80465167D01*
X130285489Y-80485363D01*
X130285493Y-80485363D01*
X130285497Y-80485363D01*
X130464742Y-80465167D01*
X130464745Y-80465166D01*
X130464748Y-80465166D01*
X130635015Y-80405587D01*
X130787755Y-80309614D01*
X130915309Y-80182060D01*
X131011282Y-80029320D01*
X131070861Y-79859053D01*
X131070862Y-79859047D01*
X131091058Y-79679801D01*
X131091058Y-79679794D01*
X131070862Y-79500548D01*
X131070861Y-79500543D01*
X131021301Y-79358909D01*
X131011282Y-79330276D01*
X131004052Y-79318770D01*
X130970621Y-79265565D01*
X130915309Y-79177536D01*
X130787755Y-79049982D01*
X130727013Y-79011815D01*
X130635014Y-78954008D01*
X130562240Y-78928544D01*
X130530002Y-78917263D01*
X130473227Y-78876542D01*
X130447479Y-78811590D01*
X130460935Y-78743028D01*
X130465964Y-78734248D01*
X130467676Y-78731523D01*
X130467677Y-78731522D01*
X130527256Y-78561255D01*
X130527257Y-78561249D01*
X130547453Y-78382003D01*
X130547453Y-78381996D01*
X130527257Y-78202750D01*
X130527256Y-78202745D01*
X130494970Y-78110476D01*
X130467677Y-78032478D01*
X130371704Y-77879738D01*
X130244150Y-77752184D01*
X130175565Y-77709089D01*
X130129275Y-77656755D01*
X130118318Y-77617979D01*
X130101326Y-77467167D01*
X130101325Y-77467162D01*
X130041745Y-77296893D01*
X129959226Y-77165565D01*
X129945773Y-77144155D01*
X129818219Y-77016601D01*
X129775591Y-76989816D01*
X129665480Y-76920628D01*
X129495211Y-76861048D01*
X129495206Y-76861047D01*
X129315961Y-76840852D01*
X129315953Y-76840852D01*
X129136707Y-76861047D01*
X129136702Y-76861048D01*
X128966433Y-76920628D01*
X128813694Y-77016601D01*
X128686141Y-77144154D01*
X128590168Y-77296893D01*
X128530588Y-77467162D01*
X128530587Y-77467167D01*
X128510392Y-77646413D01*
X119954941Y-77646413D01*
X114942519Y-68321471D01*
X114941025Y-68318598D01*
X110846945Y-60180518D01*
X110843167Y-60172271D01*
X110841850Y-60169093D01*
X110834366Y-60099628D01*
X110865626Y-60037141D01*
X110869116Y-60033542D01*
X117621366Y-53353412D01*
X117682865Y-53320260D01*
X117752529Y-53325619D01*
G37*
G04 #@! TD.AperFunction*
G04 #@! TA.AperFunction,Conductor*
G36*
X123439973Y-94533481D02*
G01*
X123475475Y-94555789D01*
X123645745Y-94615369D01*
X123645750Y-94615370D01*
X123824996Y-94635566D01*
X123825000Y-94635566D01*
X123825004Y-94635566D01*
X124004249Y-94615370D01*
X124004251Y-94615369D01*
X124004255Y-94615369D01*
X124004258Y-94615367D01*
X124004262Y-94615367D01*
X124149107Y-94564683D01*
X124218885Y-94561120D01*
X124279513Y-94595849D01*
X124311741Y-94657842D01*
X124314062Y-94681420D01*
X124314198Y-94737340D01*
X124314198Y-94737344D01*
X124314199Y-94737349D01*
X124316455Y-94757901D01*
X124325964Y-94844547D01*
X124325966Y-94844558D01*
X124337246Y-94895922D01*
X124337248Y-94895930D01*
X124337249Y-94895931D01*
X124371484Y-94998191D01*
X124371485Y-94998192D01*
X124371486Y-94998194D01*
X124411597Y-95060398D01*
X124449458Y-95119111D01*
X124495294Y-95171845D01*
X124604167Y-95265895D01*
X124735136Y-95325467D01*
X124735137Y-95325467D01*
X124735141Y-95325469D01*
X124739293Y-95327011D01*
X124738701Y-95328603D01*
X124791531Y-95362416D01*
X124814021Y-95400116D01*
X125075612Y-96095199D01*
X125080802Y-96164876D01*
X125047499Y-96226297D01*
X125025533Y-96243868D01*
X124967736Y-96280185D01*
X124840184Y-96407737D01*
X124744211Y-96560476D01*
X124684631Y-96730745D01*
X124684630Y-96730750D01*
X124664435Y-96909996D01*
X124664435Y-96910003D01*
X124684630Y-97089249D01*
X124684631Y-97089254D01*
X124744211Y-97259523D01*
X124796602Y-97342902D01*
X124840184Y-97412262D01*
X124967738Y-97539816D01*
X125120478Y-97635789D01*
X125239584Y-97677466D01*
X125290745Y-97695368D01*
X125290750Y-97695369D01*
X125469996Y-97715565D01*
X125470000Y-97715565D01*
X125470003Y-97715565D01*
X125580730Y-97703089D01*
X125649552Y-97715143D01*
X125700932Y-97762492D01*
X125710667Y-97782633D01*
X126146055Y-98939518D01*
X126152002Y-98961013D01*
X126198210Y-99215162D01*
X126190835Y-99284641D01*
X126181207Y-99303310D01*
X126173561Y-99315478D01*
X126127102Y-99448251D01*
X126086380Y-99505027D01*
X126026667Y-99530179D01*
X124528762Y-99732598D01*
X124459690Y-99722069D01*
X124424475Y-99697397D01*
X124381980Y-99654902D01*
X124327262Y-99600184D01*
X124244411Y-99548125D01*
X124174523Y-99504211D01*
X124004254Y-99444631D01*
X124004249Y-99444630D01*
X123825004Y-99424435D01*
X123824996Y-99424435D01*
X123645750Y-99444630D01*
X123645745Y-99444631D01*
X123475474Y-99504212D01*
X123439971Y-99526520D01*
X123372734Y-99545520D01*
X123305899Y-99525152D01*
X123260686Y-99471883D01*
X123250000Y-99421526D01*
X123250000Y-94638474D01*
X123269685Y-94571435D01*
X123322489Y-94525680D01*
X123391647Y-94515736D01*
X123439973Y-94533481D01*
G37*
G04 #@! TD.AperFunction*
G04 #@! TA.AperFunction,Conductor*
G36*
X141573130Y-95310030D02*
G01*
X141604303Y-95319132D01*
X141605294Y-95319432D01*
X141605359Y-95319441D01*
X141605362Y-95319442D01*
X141605364Y-95319443D01*
X141747811Y-95339702D01*
X142323265Y-95338825D01*
X142390334Y-95358407D01*
X142424877Y-95391485D01*
X142684085Y-95759996D01*
X143332747Y-96682188D01*
X143332757Y-96682202D01*
X143338880Y-96690908D01*
X143343286Y-96697074D01*
X143345404Y-96699991D01*
X143345423Y-96700017D01*
X143349842Y-96706011D01*
X143451579Y-96807751D01*
X143451585Y-96807755D01*
X143451588Y-96807758D01*
X143507506Y-96849619D01*
X143507509Y-96849620D01*
X143507512Y-96849623D01*
X143507519Y-96849627D01*
X143507521Y-96849628D01*
X143609863Y-96905513D01*
X143659268Y-96954918D01*
X143671618Y-97003310D01*
X143673655Y-97003081D01*
X143694630Y-97189249D01*
X143694631Y-97189254D01*
X143754211Y-97359523D01*
X143801140Y-97434209D01*
X143850184Y-97512262D01*
X143977738Y-97639816D01*
X144130478Y-97735789D01*
X144300745Y-97795368D01*
X144301805Y-97795487D01*
X144302443Y-97795755D01*
X144307532Y-97796917D01*
X144307328Y-97797808D01*
X144366218Y-97822553D01*
X144405774Y-97880147D01*
X144411142Y-97904825D01*
X144422135Y-98002395D01*
X144422794Y-98019571D01*
X144422842Y-98020554D01*
X144441863Y-98163162D01*
X144441864Y-98163167D01*
X144460864Y-98230403D01*
X144460866Y-98230409D01*
X144519291Y-98361878D01*
X144541251Y-98396827D01*
X144553295Y-98421836D01*
X144558348Y-98436275D01*
X144558359Y-98436300D01*
X144618757Y-98555450D01*
X144618762Y-98555459D01*
X144618766Y-98555466D01*
X144655550Y-98609036D01*
X144655555Y-98609042D01*
X144655557Y-98609044D01*
X144712546Y-98672178D01*
X144742855Y-98735132D01*
X144744486Y-98753400D01*
X144750079Y-99125311D01*
X144731405Y-99192639D01*
X144713775Y-99214856D01*
X144679525Y-99249105D01*
X144679520Y-99249112D01*
X144589547Y-99392302D01*
X144589545Y-99392305D01*
X144533685Y-99551943D01*
X144514751Y-99719997D01*
X144514751Y-99720002D01*
X144524411Y-99805737D01*
X144512357Y-99874559D01*
X144465008Y-99925939D01*
X144400897Y-99943621D01*
X141810906Y-99937476D01*
X141743913Y-99917632D01*
X141742448Y-99916671D01*
X139991498Y-98750117D01*
X139987851Y-98747710D01*
X139986041Y-98746527D01*
X139982809Y-98744431D01*
X139851940Y-98684664D01*
X139851935Y-98684662D01*
X139851934Y-98684662D01*
X139784895Y-98664977D01*
X139784897Y-98664977D01*
X139784892Y-98664976D01*
X139722822Y-98656052D01*
X139642475Y-98644500D01*
X130024000Y-98644500D01*
X130023991Y-98644500D01*
X130023990Y-98644501D01*
X129916549Y-98656052D01*
X129916537Y-98656054D01*
X129865027Y-98667260D01*
X129762502Y-98701383D01*
X129762496Y-98701386D01*
X129641462Y-98779171D01*
X129641451Y-98779179D01*
X129588659Y-98824923D01*
X129494433Y-98933664D01*
X129494430Y-98933668D01*
X129434664Y-99064534D01*
X129414976Y-99131582D01*
X129394500Y-99274001D01*
X129394500Y-103713916D01*
X129394821Y-103731917D01*
X129395138Y-103740798D01*
X129396104Y-103758834D01*
X129396106Y-103758852D01*
X129426698Y-103899432D01*
X129426700Y-103899440D01*
X129438898Y-103932138D01*
X129443887Y-104001829D01*
X129410405Y-104063154D01*
X129382395Y-104084174D01*
X129299941Y-104129443D01*
X129231703Y-104144451D01*
X129166182Y-104120184D01*
X129125704Y-104068200D01*
X129114120Y-104040234D01*
X129114114Y-104040222D01*
X128988167Y-103822077D01*
X128988163Y-103822070D01*
X128834810Y-103622217D01*
X128834805Y-103622211D01*
X128656688Y-103444094D01*
X128656681Y-103444088D01*
X128456838Y-103290743D01*
X128456836Y-103290741D01*
X128456830Y-103290737D01*
X128456825Y-103290734D01*
X128456822Y-103290732D01*
X128238677Y-103164785D01*
X128238666Y-103164780D01*
X128005934Y-103068379D01*
X127884272Y-103035780D01*
X127762609Y-103003181D01*
X127720870Y-102997685D01*
X127512862Y-102970300D01*
X127512855Y-102970300D01*
X127260945Y-102970300D01*
X127260937Y-102970300D01*
X127023213Y-103001598D01*
X127011191Y-103003181D01*
X126976216Y-103012552D01*
X126816538Y-103055337D01*
X126746688Y-103053674D01*
X126688826Y-103014511D01*
X126661322Y-102950282D01*
X126667404Y-102894606D01*
X126696776Y-102810668D01*
X126696778Y-102810658D01*
X126716974Y-102631412D01*
X126716974Y-102631405D01*
X126696778Y-102452159D01*
X126696777Y-102452154D01*
X126682025Y-102409996D01*
X126637198Y-102281887D01*
X126631870Y-102273408D01*
X126592777Y-102211192D01*
X126541225Y-102129147D01*
X126413671Y-102001593D01*
X126391691Y-101987782D01*
X126260930Y-101905619D01*
X126091078Y-101846186D01*
X126034302Y-101805464D01*
X126008812Y-101743027D01*
X125992758Y-101600542D01*
X125992757Y-101600537D01*
X125972517Y-101542694D01*
X125933178Y-101430270D01*
X125837205Y-101277530D01*
X125823135Y-101263460D01*
X125789650Y-101202137D01*
X125794634Y-101132445D01*
X125836506Y-101076512D01*
X125901970Y-101052095D01*
X125951771Y-101058738D01*
X126070737Y-101100366D01*
X126070743Y-101100367D01*
X126070745Y-101100368D01*
X126070746Y-101100368D01*
X126070750Y-101100369D01*
X126249996Y-101120565D01*
X126250000Y-101120565D01*
X126250004Y-101120565D01*
X126429249Y-101100369D01*
X126429252Y-101100368D01*
X126429255Y-101100368D01*
X126599522Y-101040789D01*
X126752262Y-100944816D01*
X126879816Y-100817262D01*
X126975789Y-100664522D01*
X127035368Y-100494255D01*
X127035369Y-100494249D01*
X127055565Y-100315003D01*
X127055565Y-100314996D01*
X127035369Y-100135750D01*
X127035368Y-100135745D01*
X127016796Y-100082670D01*
X126975789Y-99965478D01*
X126967409Y-99952142D01*
X126904653Y-99852266D01*
X126879816Y-99812738D01*
X126752262Y-99685184D01*
X126697230Y-99650605D01*
X126650940Y-99598271D01*
X126640292Y-99529218D01*
X126650687Y-99493496D01*
X126658117Y-99477457D01*
X126658117Y-99477456D01*
X126660534Y-99472239D01*
X126661740Y-99472798D01*
X126698853Y-99421546D01*
X126763922Y-99396093D01*
X126815685Y-99402580D01*
X126972070Y-99457302D01*
X126972076Y-99457303D01*
X126972078Y-99457304D01*
X126972079Y-99457304D01*
X126972083Y-99457305D01*
X127151329Y-99477501D01*
X127151333Y-99477501D01*
X127151337Y-99477501D01*
X127330582Y-99457305D01*
X127330585Y-99457304D01*
X127330588Y-99457304D01*
X127500855Y-99397725D01*
X127653595Y-99301752D01*
X127781149Y-99174198D01*
X127877122Y-99021458D01*
X127936701Y-98851191D01*
X127936702Y-98851185D01*
X127956898Y-98671939D01*
X127956898Y-98671932D01*
X127936702Y-98492686D01*
X127936701Y-98492681D01*
X127916972Y-98436300D01*
X127877122Y-98322414D01*
X127855528Y-98288048D01*
X127819309Y-98230406D01*
X127781149Y-98169674D01*
X127653595Y-98042120D01*
X127643857Y-98036001D01*
X127500856Y-97946147D01*
X127330587Y-97886567D01*
X127330582Y-97886566D01*
X127151337Y-97866371D01*
X127151329Y-97866371D01*
X126972083Y-97886566D01*
X126972078Y-97886567D01*
X126801809Y-97946147D01*
X126649072Y-98042119D01*
X126566634Y-98124557D01*
X126505310Y-98158041D01*
X126435619Y-98153057D01*
X126379685Y-98111185D01*
X126362900Y-98080551D01*
X126183772Y-97604582D01*
X126183760Y-97604554D01*
X126183755Y-97604541D01*
X126165801Y-97562672D01*
X126165790Y-97562648D01*
X126161250Y-97553255D01*
X126156057Y-97542511D01*
X126134346Y-97502334D01*
X126134345Y-97502332D01*
X126132056Y-97498910D01*
X126111151Y-97432241D01*
X126129608Y-97364854D01*
X126130028Y-97364178D01*
X126195789Y-97259522D01*
X126255368Y-97089255D01*
X126265052Y-97003310D01*
X126275565Y-96910003D01*
X126275565Y-96909996D01*
X126255369Y-96730750D01*
X126255368Y-96730745D01*
X126195788Y-96560476D01*
X126099815Y-96407737D01*
X125972262Y-96280184D01*
X125819521Y-96184210D01*
X125693904Y-96140255D01*
X125655152Y-96126695D01*
X125598377Y-96085974D01*
X125575020Y-96036370D01*
X125548717Y-95917148D01*
X125403808Y-95532107D01*
X125398619Y-95462433D01*
X125431922Y-95401011D01*
X125493146Y-95367345D01*
X125519670Y-95364433D01*
X126559678Y-95362847D01*
X126573725Y-95363626D01*
X126698951Y-95377736D01*
X126717390Y-95379814D01*
X126717391Y-95379814D01*
X126717393Y-95379814D01*
X126762264Y-95374758D01*
X126865372Y-95363140D01*
X126879047Y-95362361D01*
X128301809Y-95360193D01*
X128368878Y-95379776D01*
X128414714Y-95432510D01*
X128424763Y-95501653D01*
X128419040Y-95525146D01*
X128408751Y-95554550D01*
X128408748Y-95554562D01*
X128388553Y-95733808D01*
X128388553Y-95733815D01*
X128408748Y-95913061D01*
X128408749Y-95913066D01*
X128468329Y-96083335D01*
X128531714Y-96184211D01*
X128564302Y-96236074D01*
X128691856Y-96363628D01*
X128844596Y-96459601D01*
X129014863Y-96519180D01*
X129014868Y-96519181D01*
X129194114Y-96539377D01*
X129194118Y-96539377D01*
X129194122Y-96539377D01*
X129373367Y-96519181D01*
X129373370Y-96519180D01*
X129373373Y-96519180D01*
X129543640Y-96459601D01*
X129696380Y-96363628D01*
X129823934Y-96236074D01*
X129919907Y-96083334D01*
X129979486Y-95913067D01*
X129984359Y-95869816D01*
X129999683Y-95733815D01*
X129999683Y-95733808D01*
X129979487Y-95554562D01*
X129979485Y-95554554D01*
X129968244Y-95522428D01*
X129964683Y-95452650D01*
X129999412Y-95392022D01*
X130061405Y-95359795D01*
X130085087Y-95357474D01*
X131594039Y-95355175D01*
X131661107Y-95374758D01*
X131706943Y-95427492D01*
X131711265Y-95438211D01*
X131722590Y-95470575D01*
X131764210Y-95589521D01*
X131854876Y-95733815D01*
X131860184Y-95742262D01*
X131987738Y-95869816D01*
X132140478Y-95965789D01*
X132215665Y-95992098D01*
X132310745Y-96025368D01*
X132310750Y-96025369D01*
X132489996Y-96045565D01*
X132490000Y-96045565D01*
X132490004Y-96045565D01*
X132669249Y-96025369D01*
X132669252Y-96025368D01*
X132669255Y-96025368D01*
X132839522Y-95965789D01*
X132992262Y-95869816D01*
X133119816Y-95742262D01*
X133215789Y-95589522D01*
X133269687Y-95435489D01*
X133310409Y-95378714D01*
X133375361Y-95352966D01*
X133386539Y-95352444D01*
X135662105Y-95348976D01*
X136071377Y-95348353D01*
X136074777Y-95348271D01*
X136094183Y-95347804D01*
X136105361Y-95347282D01*
X136128117Y-95345704D01*
X136132882Y-95344565D01*
X136202660Y-95348123D01*
X136259438Y-95388841D01*
X136266706Y-95399195D01*
X136325184Y-95492262D01*
X136452738Y-95619816D01*
X136543080Y-95676582D01*
X136570705Y-95693940D01*
X136605478Y-95715789D01*
X136731820Y-95759998D01*
X136775745Y-95775368D01*
X136775750Y-95775369D01*
X136954996Y-95795565D01*
X136955000Y-95795565D01*
X136955004Y-95795565D01*
X137134249Y-95775369D01*
X137134252Y-95775368D01*
X137134255Y-95775368D01*
X137304522Y-95715789D01*
X137457262Y-95619816D01*
X137504819Y-95572259D01*
X137566142Y-95538774D01*
X137635834Y-95543758D01*
X137680181Y-95572259D01*
X137727738Y-95619816D01*
X137818080Y-95676582D01*
X137845705Y-95693940D01*
X137880478Y-95715789D01*
X138006820Y-95759998D01*
X138050745Y-95775368D01*
X138050750Y-95775369D01*
X138229996Y-95795565D01*
X138230000Y-95795565D01*
X138230004Y-95795565D01*
X138409249Y-95775369D01*
X138409252Y-95775368D01*
X138409255Y-95775368D01*
X138579522Y-95715789D01*
X138732262Y-95619816D01*
X138859816Y-95492262D01*
X138923539Y-95390846D01*
X138975872Y-95344556D01*
X139044925Y-95333907D01*
X139045835Y-95334032D01*
X139113923Y-95343716D01*
X139913791Y-95342497D01*
X139992988Y-95336133D01*
X140031356Y-95329986D01*
X140097802Y-95313900D01*
X140167590Y-95317257D01*
X140214659Y-95346737D01*
X140327738Y-95459816D01*
X140379805Y-95492532D01*
X140478512Y-95554554D01*
X140480478Y-95555789D01*
X140650745Y-95615368D01*
X140650750Y-95615369D01*
X140829996Y-95635565D01*
X140830000Y-95635565D01*
X140830004Y-95635565D01*
X141009249Y-95615369D01*
X141009252Y-95615368D01*
X141009255Y-95615368D01*
X141179522Y-95555789D01*
X141332262Y-95459816D01*
X141450700Y-95341377D01*
X141512019Y-95307895D01*
X141573130Y-95310030D01*
G37*
G04 #@! TD.AperFunction*
G04 #@! TA.AperFunction,Conductor*
G36*
X154311445Y-84019685D02*
G01*
X154357200Y-84072489D01*
X154361447Y-84083045D01*
X154374210Y-84119521D01*
X154374212Y-84119524D01*
X154470184Y-84272262D01*
X154580241Y-84382319D01*
X154613726Y-84443642D01*
X154608742Y-84513334D01*
X154580241Y-84557681D01*
X154470184Y-84667737D01*
X154374211Y-84820476D01*
X154314631Y-84990745D01*
X154314630Y-84990750D01*
X154294435Y-85169996D01*
X154294435Y-85170003D01*
X154314630Y-85349249D01*
X154314631Y-85349254D01*
X154374211Y-85519523D01*
X154421169Y-85594255D01*
X154470184Y-85672262D01*
X154597738Y-85799816D01*
X154675592Y-85848735D01*
X154742025Y-85890478D01*
X154750478Y-85895789D01*
X154920745Y-85955368D01*
X154920754Y-85955369D01*
X154921207Y-85955473D01*
X154921477Y-85955624D01*
X154927318Y-85957668D01*
X154926960Y-85958690D01*
X154982191Y-85989573D01*
X155011377Y-86043017D01*
X155012333Y-86042683D01*
X155014362Y-86048483D01*
X155014523Y-86048777D01*
X155014631Y-86049250D01*
X155014632Y-86049255D01*
X155041265Y-86125368D01*
X155074210Y-86219521D01*
X155112096Y-86279816D01*
X155170184Y-86372262D01*
X155297738Y-86499816D01*
X155384304Y-86554209D01*
X155440505Y-86589523D01*
X155450478Y-86595789D01*
X155595439Y-86646513D01*
X155620745Y-86655368D01*
X155620750Y-86655369D01*
X155799996Y-86675565D01*
X155800000Y-86675565D01*
X155800004Y-86675565D01*
X155979249Y-86655369D01*
X155979252Y-86655368D01*
X155979255Y-86655368D01*
X156149522Y-86595789D01*
X156302262Y-86499816D01*
X156412319Y-86389759D01*
X156473642Y-86356274D01*
X156543334Y-86361258D01*
X156587681Y-86389759D01*
X156697738Y-86499816D01*
X156784304Y-86554209D01*
X156840505Y-86589523D01*
X156850478Y-86595789D01*
X156995439Y-86646513D01*
X157020745Y-86655368D01*
X157020750Y-86655369D01*
X157199996Y-86675565D01*
X157200000Y-86675565D01*
X157200004Y-86675565D01*
X157379249Y-86655369D01*
X157379252Y-86655368D01*
X157379255Y-86655368D01*
X157549522Y-86595789D01*
X157702262Y-86499816D01*
X157829816Y-86372262D01*
X157925789Y-86219522D01*
X157985368Y-86049255D01*
X157985369Y-86049243D01*
X157985473Y-86048793D01*
X157985624Y-86048522D01*
X157987668Y-86042682D01*
X157988690Y-86043039D01*
X158019573Y-85987809D01*
X158073017Y-85958626D01*
X158072682Y-85957668D01*
X158078504Y-85955630D01*
X158078793Y-85955473D01*
X158079243Y-85955369D01*
X158079255Y-85955368D01*
X158249522Y-85895789D01*
X158402262Y-85799816D01*
X158529816Y-85672262D01*
X158625789Y-85519522D01*
X158685368Y-85349255D01*
X158687684Y-85328702D01*
X158705565Y-85170003D01*
X158705565Y-85169996D01*
X158685369Y-84990750D01*
X158685366Y-84990737D01*
X158640894Y-84863644D01*
X158637332Y-84793865D01*
X158672060Y-84733238D01*
X158734054Y-84701010D01*
X158798890Y-84705647D01*
X158836945Y-84718963D01*
X158836950Y-84718964D01*
X159016196Y-84739160D01*
X159016200Y-84739160D01*
X159016204Y-84739160D01*
X159195449Y-84718964D01*
X159195452Y-84718963D01*
X159195455Y-84718963D01*
X159365722Y-84659384D01*
X159518462Y-84563411D01*
X159646016Y-84435857D01*
X159741989Y-84283117D01*
X159801568Y-84112850D01*
X159801691Y-84111749D01*
X159801877Y-84110112D01*
X159802568Y-84108466D01*
X159803117Y-84106063D01*
X159803538Y-84106159D01*
X159828946Y-84045699D01*
X159886543Y-84006146D01*
X159925097Y-84000000D01*
X164067681Y-84000000D01*
X164134720Y-84019685D01*
X164180475Y-84072489D01*
X164184722Y-84083045D01*
X164207663Y-84148608D01*
X164207665Y-84148611D01*
X164303637Y-84301349D01*
X164319929Y-84317641D01*
X164353414Y-84378964D01*
X164355468Y-84419205D01*
X164344433Y-84517145D01*
X164344433Y-84517151D01*
X164364628Y-84696397D01*
X164364629Y-84696402D01*
X164424209Y-84866671D01*
X164502174Y-84990750D01*
X164520182Y-85019410D01*
X164647736Y-85146964D01*
X164800476Y-85242937D01*
X164848811Y-85259850D01*
X164970743Y-85302516D01*
X164970748Y-85302517D01*
X165149994Y-85322713D01*
X165149998Y-85322713D01*
X165150002Y-85322713D01*
X165329247Y-85302517D01*
X165329250Y-85302516D01*
X165329253Y-85302516D01*
X165499520Y-85242937D01*
X165652260Y-85146964D01*
X165652262Y-85146961D01*
X165653874Y-85145949D01*
X165721111Y-85126948D01*
X165787946Y-85147315D01*
X165797804Y-85154513D01*
X170421294Y-88893038D01*
X170461046Y-88950495D01*
X170463424Y-89020324D01*
X170460368Y-89030414D01*
X170427692Y-89123794D01*
X170427689Y-89123807D01*
X170407494Y-89303053D01*
X170407494Y-89303060D01*
X170427689Y-89482306D01*
X170427690Y-89482311D01*
X170487270Y-89652580D01*
X170561166Y-89770184D01*
X170583243Y-89805319D01*
X170710797Y-89932873D01*
X170863537Y-90028846D01*
X170925358Y-90050478D01*
X171033804Y-90088425D01*
X171033809Y-90088426D01*
X171213055Y-90108622D01*
X171213059Y-90108622D01*
X171213063Y-90108622D01*
X171392308Y-90088426D01*
X171392311Y-90088425D01*
X171392314Y-90088425D01*
X171562581Y-90028846D01*
X171635763Y-89982862D01*
X171702995Y-89963863D01*
X171769830Y-89984230D01*
X171779691Y-89991430D01*
X176582888Y-93875264D01*
X176622639Y-93932720D01*
X176625017Y-94002549D01*
X176621962Y-94012638D01*
X176594631Y-94090747D01*
X176574435Y-94269996D01*
X176574435Y-94270003D01*
X176594630Y-94449249D01*
X176594631Y-94449254D01*
X176654211Y-94619523D01*
X176719913Y-94724086D01*
X176750184Y-94772262D01*
X176877738Y-94899816D01*
X176922986Y-94928247D01*
X176996803Y-94974630D01*
X177030478Y-94995789D01*
X177070617Y-95009834D01*
X177127393Y-95050556D01*
X177153141Y-95115508D01*
X177153636Y-95129478D01*
X177061222Y-99531746D01*
X177040134Y-99598358D01*
X177014374Y-99626240D01*
X176702908Y-99873644D01*
X176638171Y-99899928D01*
X176569500Y-99887039D01*
X176520789Y-99842520D01*
X176451582Y-99732379D01*
X176429816Y-99697738D01*
X176302262Y-99570184D01*
X176273232Y-99551943D01*
X176149523Y-99474211D01*
X175979254Y-99414631D01*
X175979249Y-99414630D01*
X175800004Y-99394435D01*
X175799996Y-99394435D01*
X175620750Y-99414630D01*
X175620745Y-99414631D01*
X175450476Y-99474211D01*
X175297737Y-99570184D01*
X175170184Y-99697737D01*
X175074211Y-99850476D01*
X175014631Y-100020745D01*
X175014630Y-100020750D01*
X174994435Y-100199996D01*
X174994435Y-100200003D01*
X175014630Y-100379249D01*
X175014631Y-100379254D01*
X175074211Y-100549523D01*
X175170184Y-100702262D01*
X175288593Y-100820671D01*
X175322078Y-100881994D01*
X175317094Y-100951686D01*
X175278037Y-101005448D01*
X164063526Y-109913369D01*
X163998789Y-109939653D01*
X163987186Y-109940271D01*
X160519392Y-109962230D01*
X160452229Y-109942970D01*
X160406141Y-109890457D01*
X160395760Y-109821363D01*
X160401566Y-109797276D01*
X160425367Y-109729259D01*
X160425369Y-109729249D01*
X160445565Y-109550003D01*
X160445565Y-109549996D01*
X160425369Y-109370750D01*
X160425368Y-109370745D01*
X160390376Y-109270745D01*
X160365789Y-109200478D01*
X160352452Y-109179253D01*
X160302955Y-109100478D01*
X160269816Y-109047738D01*
X160142262Y-108920184D01*
X160081609Y-108882073D01*
X159989523Y-108824211D01*
X159819254Y-108764631D01*
X159819249Y-108764630D01*
X159640004Y-108744435D01*
X159639996Y-108744435D01*
X159460750Y-108764630D01*
X159460745Y-108764631D01*
X159290476Y-108824211D01*
X159137737Y-108920184D01*
X159010184Y-109047737D01*
X158914211Y-109200476D01*
X158854631Y-109370745D01*
X158854630Y-109370750D01*
X158834435Y-109549996D01*
X158834435Y-109550003D01*
X158854630Y-109729249D01*
X158854632Y-109729257D01*
X158882319Y-109808383D01*
X158885880Y-109878162D01*
X158851151Y-109938789D01*
X158789157Y-109971016D01*
X158766062Y-109973335D01*
X156517639Y-109987573D01*
X156450476Y-109968313D01*
X156404388Y-109915800D01*
X156394007Y-109846706D01*
X156411862Y-109797601D01*
X156412067Y-109797276D01*
X156435789Y-109759522D01*
X156495368Y-109589255D01*
X156499791Y-109550000D01*
X156515565Y-109410003D01*
X156515565Y-109409996D01*
X156495369Y-109230750D01*
X156495368Y-109230745D01*
X156477350Y-109179253D01*
X156435789Y-109060478D01*
X156339816Y-108907738D01*
X156212262Y-108780184D01*
X156123182Y-108724211D01*
X156059523Y-108684211D01*
X155889254Y-108624631D01*
X155889249Y-108624630D01*
X155710004Y-108604435D01*
X155709996Y-108604435D01*
X155530750Y-108624630D01*
X155530745Y-108624631D01*
X155360476Y-108684211D01*
X155207737Y-108780184D01*
X155080184Y-108907737D01*
X154984211Y-109060476D01*
X154924631Y-109230745D01*
X154924630Y-109230750D01*
X154904435Y-109409996D01*
X154904435Y-109410003D01*
X154924630Y-109589249D01*
X154924631Y-109589254D01*
X154984211Y-109759523D01*
X155014534Y-109807781D01*
X155033534Y-109875018D01*
X155013166Y-109941853D01*
X154959899Y-109987067D01*
X154910325Y-109997751D01*
X153621248Y-110005915D01*
X153554086Y-109986655D01*
X153507997Y-109934142D01*
X153497616Y-109865048D01*
X153515470Y-109815944D01*
X153525789Y-109799522D01*
X153585368Y-109629255D01*
X153589876Y-109589249D01*
X153605565Y-109450003D01*
X153605565Y-109449996D01*
X153585369Y-109270750D01*
X153585368Y-109270745D01*
X153571371Y-109230745D01*
X153525789Y-109100478D01*
X153429816Y-108947738D01*
X153302262Y-108820184D01*
X153149523Y-108724211D01*
X152979254Y-108664631D01*
X152979249Y-108664630D01*
X152800004Y-108644435D01*
X152799996Y-108644435D01*
X152620750Y-108664630D01*
X152620745Y-108664631D01*
X152450476Y-108724211D01*
X152297737Y-108820184D01*
X152170184Y-108947737D01*
X152074211Y-109100476D01*
X152014631Y-109270745D01*
X152014630Y-109270750D01*
X151994435Y-109449996D01*
X151994435Y-109450003D01*
X152014630Y-109629249D01*
X152014631Y-109629254D01*
X152074212Y-109799525D01*
X152091033Y-109826296D01*
X152110033Y-109893533D01*
X152089665Y-109960368D01*
X152036397Y-110005581D01*
X151986824Y-110016265D01*
X146682771Y-110049855D01*
X146638659Y-110042041D01*
X143640362Y-108923941D01*
X143584426Y-108882073D01*
X143562732Y-108827343D01*
X143561917Y-108827530D01*
X143560710Y-108822243D01*
X143560468Y-108821631D01*
X143560368Y-108820743D01*
X143500789Y-108650476D01*
X143484549Y-108624631D01*
X143461582Y-108588078D01*
X143404816Y-108497736D01*
X143277262Y-108370182D01*
X143228935Y-108339816D01*
X143124523Y-108274209D01*
X142954254Y-108214629D01*
X142954249Y-108214628D01*
X142775004Y-108194433D01*
X142774996Y-108194433D01*
X142595750Y-108214628D01*
X142595745Y-108214629D01*
X142425476Y-108274209D01*
X142280920Y-108365040D01*
X142213683Y-108384040D01*
X142171621Y-108376230D01*
X140277783Y-107669996D01*
X148324435Y-107669996D01*
X148324435Y-107670003D01*
X148344630Y-107849249D01*
X148344631Y-107849254D01*
X148404211Y-108019523D01*
X148500184Y-108172262D01*
X148627738Y-108299816D01*
X148643653Y-108309816D01*
X148761779Y-108384040D01*
X148780478Y-108395789D01*
X148950745Y-108455368D01*
X148950750Y-108455369D01*
X149129996Y-108475565D01*
X149130000Y-108475565D01*
X149130004Y-108475565D01*
X149309249Y-108455369D01*
X149309252Y-108455368D01*
X149309255Y-108455368D01*
X149479522Y-108395789D01*
X149632262Y-108299816D01*
X149759816Y-108172262D01*
X149855789Y-108019522D01*
X149915368Y-107849255D01*
X149934438Y-107680003D01*
X149935565Y-107670003D01*
X149935565Y-107669996D01*
X149915369Y-107490750D01*
X149915368Y-107490745D01*
X149914176Y-107487338D01*
X149855789Y-107320478D01*
X149853644Y-107317065D01*
X149816582Y-107258080D01*
X149759816Y-107167738D01*
X149729890Y-107137812D01*
X158525835Y-107137812D01*
X158525835Y-107137819D01*
X158546030Y-107317065D01*
X158546031Y-107317070D01*
X158605611Y-107487339D01*
X158614035Y-107500745D01*
X158701584Y-107640078D01*
X158829138Y-107767632D01*
X158919480Y-107824398D01*
X158959038Y-107849254D01*
X158981878Y-107863605D01*
X159152145Y-107923184D01*
X159152150Y-107923185D01*
X159331396Y-107943381D01*
X159331400Y-107943381D01*
X159331404Y-107943381D01*
X159510649Y-107923185D01*
X159510652Y-107923184D01*
X159510655Y-107923184D01*
X159680922Y-107863605D01*
X159833662Y-107767632D01*
X159921298Y-107679996D01*
X161744435Y-107679996D01*
X161744435Y-107680003D01*
X161764630Y-107859249D01*
X161764631Y-107859254D01*
X161824211Y-108029523D01*
X161843061Y-108059522D01*
X161920184Y-108182262D01*
X162047738Y-108309816D01*
X162095483Y-108339816D01*
X162184561Y-108395788D01*
X162200478Y-108405789D01*
X162370745Y-108465368D01*
X162370750Y-108465369D01*
X162549996Y-108485565D01*
X162550000Y-108485565D01*
X162550004Y-108485565D01*
X162729249Y-108465369D01*
X162729252Y-108465368D01*
X162729255Y-108465368D01*
X162899522Y-108405789D01*
X163052262Y-108309816D01*
X163179816Y-108182262D01*
X163275789Y-108029522D01*
X163335368Y-107859255D01*
X163336495Y-107849254D01*
X163355565Y-107680003D01*
X163355565Y-107679996D01*
X163335369Y-107500750D01*
X163335368Y-107500745D01*
X163275788Y-107330476D01*
X163179815Y-107177737D01*
X163052262Y-107050184D01*
X162899523Y-106954211D01*
X162729254Y-106894631D01*
X162729249Y-106894630D01*
X162550004Y-106874435D01*
X162549996Y-106874435D01*
X162370750Y-106894630D01*
X162370745Y-106894631D01*
X162200476Y-106954211D01*
X162047737Y-107050184D01*
X161920184Y-107177737D01*
X161824211Y-107330476D01*
X161764631Y-107500745D01*
X161764630Y-107500750D01*
X161744435Y-107679996D01*
X159921298Y-107679996D01*
X159961216Y-107640078D01*
X160057189Y-107487338D01*
X160116768Y-107317071D01*
X160136965Y-107137816D01*
X160130471Y-107080184D01*
X160116769Y-106958566D01*
X160116768Y-106958561D01*
X160094398Y-106894631D01*
X160057189Y-106788294D01*
X159961216Y-106635554D01*
X159833662Y-106508000D01*
X159810208Y-106493263D01*
X159680923Y-106412027D01*
X159510654Y-106352447D01*
X159510649Y-106352446D01*
X159331404Y-106332251D01*
X159331396Y-106332251D01*
X159152150Y-106352446D01*
X159152145Y-106352447D01*
X158981876Y-106412027D01*
X158829137Y-106508000D01*
X158701584Y-106635553D01*
X158605611Y-106788292D01*
X158546031Y-106958561D01*
X158546030Y-106958566D01*
X158525835Y-107137812D01*
X149729890Y-107137812D01*
X149632262Y-107040184D01*
X149543182Y-106984211D01*
X149479523Y-106944211D01*
X149309254Y-106884631D01*
X149309249Y-106884630D01*
X149130004Y-106864435D01*
X149129996Y-106864435D01*
X148950750Y-106884630D01*
X148950745Y-106884631D01*
X148780476Y-106944211D01*
X148627737Y-107040184D01*
X148500184Y-107167737D01*
X148404211Y-107320476D01*
X148344631Y-107490745D01*
X148344630Y-107490750D01*
X148324435Y-107669996D01*
X140277783Y-107669996D01*
X134818173Y-105634044D01*
X138050387Y-105634044D01*
X138050387Y-105634051D01*
X138070582Y-105813297D01*
X138070583Y-105813302D01*
X138130163Y-105983571D01*
X138213241Y-106115788D01*
X138226136Y-106136310D01*
X138353690Y-106263864D01*
X138506430Y-106359837D01*
X138676697Y-106419416D01*
X138676702Y-106419417D01*
X138855948Y-106439613D01*
X138855952Y-106439613D01*
X138855956Y-106439613D01*
X139035201Y-106419417D01*
X139035204Y-106419416D01*
X139035207Y-106419416D01*
X139205474Y-106359837D01*
X139358214Y-106263864D01*
X139485768Y-106136310D01*
X139581741Y-105983570D01*
X139641320Y-105813303D01*
X139641321Y-105813297D01*
X139661517Y-105634051D01*
X139661517Y-105634044D01*
X139641321Y-105454798D01*
X139641320Y-105454793D01*
X139618648Y-105390000D01*
X139618647Y-105389996D01*
X159534435Y-105389996D01*
X159534435Y-105390003D01*
X159554630Y-105569249D01*
X159554631Y-105569254D01*
X159614211Y-105739523D01*
X159687266Y-105855789D01*
X159710184Y-105892262D01*
X159837738Y-106019816D01*
X159990478Y-106115789D01*
X160049124Y-106136310D01*
X160160745Y-106175368D01*
X160160750Y-106175369D01*
X160339996Y-106195565D01*
X160340000Y-106195565D01*
X160340004Y-106195565D01*
X160519249Y-106175369D01*
X160519252Y-106175368D01*
X160519255Y-106175368D01*
X160689522Y-106115789D01*
X160842262Y-106019816D01*
X160969816Y-105892262D01*
X161065789Y-105739522D01*
X161125368Y-105569255D01*
X161131928Y-105511036D01*
X161145565Y-105390003D01*
X161145565Y-105389996D01*
X161125369Y-105210750D01*
X161125368Y-105210745D01*
X161065788Y-105040476D01*
X160982350Y-104907686D01*
X160969816Y-104887738D01*
X160842262Y-104760184D01*
X160689523Y-104664211D01*
X160519254Y-104604631D01*
X160519249Y-104604630D01*
X160340004Y-104584435D01*
X160339996Y-104584435D01*
X160160750Y-104604630D01*
X160160745Y-104604631D01*
X159990476Y-104664211D01*
X159837737Y-104760184D01*
X159710184Y-104887737D01*
X159614211Y-105040476D01*
X159554631Y-105210745D01*
X159554630Y-105210750D01*
X159534435Y-105389996D01*
X139618647Y-105389996D01*
X139581741Y-105284526D01*
X139575285Y-105274252D01*
X139485767Y-105131785D01*
X139358214Y-105004232D01*
X139205475Y-104908259D01*
X139035206Y-104848679D01*
X139035201Y-104848678D01*
X138855956Y-104828483D01*
X138855948Y-104828483D01*
X138676702Y-104848678D01*
X138676697Y-104848679D01*
X138506428Y-104908259D01*
X138353689Y-105004232D01*
X138226136Y-105131785D01*
X138130163Y-105284524D01*
X138070583Y-105454793D01*
X138070582Y-105454798D01*
X138050387Y-105634044D01*
X134818173Y-105634044D01*
X132577122Y-104798330D01*
X132521186Y-104756462D01*
X132515464Y-104748132D01*
X132439816Y-104627738D01*
X132312262Y-104500184D01*
X132294272Y-104488880D01*
X136029435Y-104488880D01*
X136029435Y-104488887D01*
X136049630Y-104668133D01*
X136049631Y-104668138D01*
X136109211Y-104838407D01*
X136190179Y-104967266D01*
X136205184Y-104991146D01*
X136332738Y-105118700D01*
X136423080Y-105175466D01*
X136479234Y-105210750D01*
X136485478Y-105214673D01*
X136637046Y-105267709D01*
X136655745Y-105274252D01*
X136655750Y-105274253D01*
X136834996Y-105294449D01*
X136835000Y-105294449D01*
X136835004Y-105294449D01*
X137014249Y-105274253D01*
X137014252Y-105274252D01*
X137014255Y-105274252D01*
X137184522Y-105214673D01*
X137337262Y-105118700D01*
X137464816Y-104991146D01*
X137560789Y-104838406D01*
X137620368Y-104668139D01*
X137624920Y-104627737D01*
X137640565Y-104488887D01*
X137640565Y-104488880D01*
X137620369Y-104309634D01*
X137620368Y-104309629D01*
X137592863Y-104231025D01*
X137560789Y-104139362D01*
X137464816Y-103986622D01*
X137337262Y-103859068D01*
X137184523Y-103763095D01*
X137014254Y-103703515D01*
X137014249Y-103703514D01*
X136835004Y-103683319D01*
X136834996Y-103683319D01*
X136655750Y-103703514D01*
X136655745Y-103703515D01*
X136485476Y-103763095D01*
X136332737Y-103859068D01*
X136205184Y-103986621D01*
X136109211Y-104139360D01*
X136049631Y-104309629D01*
X136049630Y-104309634D01*
X136029435Y-104488880D01*
X132294272Y-104488880D01*
X132159523Y-104404211D01*
X131989254Y-104344631D01*
X131989249Y-104344630D01*
X131810004Y-104324435D01*
X131809996Y-104324435D01*
X131630746Y-104344631D01*
X131630745Y-104344631D01*
X131533608Y-104378620D01*
X131463829Y-104382181D01*
X131449328Y-104377762D01*
X129980673Y-103830083D01*
X129924737Y-103788215D01*
X129900316Y-103722753D01*
X129900000Y-103713899D01*
X129900000Y-102929996D01*
X130164435Y-102929996D01*
X130164435Y-102930003D01*
X130184630Y-103109249D01*
X130184631Y-103109254D01*
X130244211Y-103279523D01*
X130340184Y-103432262D01*
X130467738Y-103559816D01*
X130558080Y-103616582D01*
X130616306Y-103653168D01*
X130620478Y-103655789D01*
X130756868Y-103703514D01*
X130790745Y-103715368D01*
X130790750Y-103715369D01*
X130969996Y-103735565D01*
X130970000Y-103735565D01*
X130970004Y-103735565D01*
X131149249Y-103715369D01*
X131149252Y-103715368D01*
X131149255Y-103715368D01*
X131319522Y-103655789D01*
X131408316Y-103599996D01*
X133394435Y-103599996D01*
X133394435Y-103600003D01*
X133414630Y-103779249D01*
X133414631Y-103779254D01*
X133474211Y-103949523D01*
X133570184Y-104102262D01*
X133697738Y-104229816D01*
X133766408Y-104272964D01*
X133824759Y-104309629D01*
X133850478Y-104325789D01*
X133951537Y-104361151D01*
X134020745Y-104385368D01*
X134020750Y-104385369D01*
X134199996Y-104405565D01*
X134200000Y-104405565D01*
X134200004Y-104405565D01*
X134379249Y-104385369D01*
X134379252Y-104385368D01*
X134379255Y-104385368D01*
X134549522Y-104325789D01*
X134702262Y-104229816D01*
X134829816Y-104102262D01*
X134925789Y-103949522D01*
X134985368Y-103779255D01*
X134990291Y-103735565D01*
X135005565Y-103600003D01*
X135005565Y-103599996D01*
X138194435Y-103599996D01*
X138194435Y-103600003D01*
X138214630Y-103779249D01*
X138214631Y-103779254D01*
X138274211Y-103949523D01*
X138370184Y-104102262D01*
X138497738Y-104229816D01*
X138566408Y-104272964D01*
X138624759Y-104309629D01*
X138650478Y-104325789D01*
X138751537Y-104361151D01*
X138820745Y-104385368D01*
X138820750Y-104385369D01*
X138999996Y-104405565D01*
X139000000Y-104405565D01*
X139000004Y-104405565D01*
X139179249Y-104385369D01*
X139179252Y-104385368D01*
X139179255Y-104385368D01*
X139349522Y-104325789D01*
X139502262Y-104229816D01*
X139574852Y-104157225D01*
X139636171Y-104123743D01*
X139705863Y-104128727D01*
X139761797Y-104170598D01*
X139785750Y-104231025D01*
X139800411Y-104361147D01*
X139800412Y-104361151D01*
X139859992Y-104531420D01*
X139920513Y-104627738D01*
X139955965Y-104684159D01*
X140083519Y-104811713D01*
X140236259Y-104907686D01*
X140237897Y-104908259D01*
X140406526Y-104967265D01*
X140406531Y-104967266D01*
X140585777Y-104987462D01*
X140585781Y-104987462D01*
X140585785Y-104987462D01*
X140765030Y-104967266D01*
X140765033Y-104967265D01*
X140765036Y-104967265D01*
X140935303Y-104907686D01*
X141088043Y-104811713D01*
X141215597Y-104684159D01*
X141311570Y-104531419D01*
X141371149Y-104361152D01*
X141371150Y-104361146D01*
X141391346Y-104181900D01*
X141391346Y-104181893D01*
X141371150Y-104002647D01*
X141371149Y-104002642D01*
X141352562Y-103949523D01*
X141311570Y-103832375D01*
X141215597Y-103679635D01*
X141088043Y-103552081D01*
X141086116Y-103550870D01*
X140935304Y-103456108D01*
X140765035Y-103396528D01*
X140765030Y-103396527D01*
X140585785Y-103376332D01*
X140585777Y-103376332D01*
X140406531Y-103396527D01*
X140406526Y-103396528D01*
X140236257Y-103456108D01*
X140083520Y-103552080D01*
X140010931Y-103624669D01*
X139949607Y-103658153D01*
X139879916Y-103653168D01*
X139823982Y-103611297D01*
X139800030Y-103550870D01*
X139785369Y-103420750D01*
X139785368Y-103420745D01*
X139735952Y-103279522D01*
X139725789Y-103250478D01*
X139629816Y-103097738D01*
X139502262Y-102970184D01*
X139501675Y-102969815D01*
X139349523Y-102874211D01*
X139179254Y-102814631D01*
X139179249Y-102814630D01*
X139000004Y-102794435D01*
X138999996Y-102794435D01*
X138820750Y-102814630D01*
X138820745Y-102814631D01*
X138650476Y-102874211D01*
X138497737Y-102970184D01*
X138370184Y-103097737D01*
X138274211Y-103250476D01*
X138214631Y-103420745D01*
X138214630Y-103420750D01*
X138194435Y-103599996D01*
X135005565Y-103599996D01*
X134985369Y-103420750D01*
X134985368Y-103420745D01*
X134935952Y-103279522D01*
X134925789Y-103250478D01*
X134829816Y-103097738D01*
X134702262Y-102970184D01*
X134701675Y-102969815D01*
X134549523Y-102874211D01*
X134379254Y-102814631D01*
X134379249Y-102814630D01*
X134200004Y-102794435D01*
X134199996Y-102794435D01*
X134020750Y-102814630D01*
X134020745Y-102814631D01*
X133850476Y-102874211D01*
X133697737Y-102970184D01*
X133570184Y-103097737D01*
X133474211Y-103250476D01*
X133414631Y-103420745D01*
X133414630Y-103420750D01*
X133394435Y-103599996D01*
X131408316Y-103599996D01*
X131472262Y-103559816D01*
X131599816Y-103432262D01*
X131695789Y-103279522D01*
X131755368Y-103109255D01*
X131756666Y-103097737D01*
X131775565Y-102930003D01*
X131775565Y-102929996D01*
X131755369Y-102750750D01*
X131755368Y-102750745D01*
X131718495Y-102645368D01*
X131695789Y-102580478D01*
X131599816Y-102427738D01*
X131472262Y-102300184D01*
X131443143Y-102281887D01*
X131319523Y-102204211D01*
X131149254Y-102144631D01*
X131149249Y-102144630D01*
X130970004Y-102124435D01*
X130969996Y-102124435D01*
X130790750Y-102144630D01*
X130790745Y-102144631D01*
X130620476Y-102204211D01*
X130467737Y-102300184D01*
X130340184Y-102427737D01*
X130244211Y-102580476D01*
X130184631Y-102750745D01*
X130184630Y-102750750D01*
X130164435Y-102929996D01*
X129900000Y-102929996D01*
X129900000Y-101859996D01*
X136744435Y-101859996D01*
X136744435Y-101860003D01*
X136764630Y-102039249D01*
X136764631Y-102039254D01*
X136824211Y-102209523D01*
X136837546Y-102230745D01*
X136920184Y-102362262D01*
X137047738Y-102489816D01*
X137094590Y-102519255D01*
X137192025Y-102580478D01*
X137200478Y-102585789D01*
X137370745Y-102645368D01*
X137370750Y-102645369D01*
X137549996Y-102665565D01*
X137550000Y-102665565D01*
X137550004Y-102665565D01*
X137729249Y-102645369D01*
X137729252Y-102645368D01*
X137729255Y-102645368D01*
X137899522Y-102585789D01*
X138052262Y-102489816D01*
X138132082Y-102409996D01*
X142119435Y-102409996D01*
X142119435Y-102410003D01*
X142139630Y-102589249D01*
X142139631Y-102589254D01*
X142199211Y-102759523D01*
X142233838Y-102814631D01*
X142295184Y-102912262D01*
X142422738Y-103039816D01*
X142513080Y-103096582D01*
X142558894Y-103125369D01*
X142575478Y-103135789D01*
X142745745Y-103195368D01*
X142745750Y-103195369D01*
X142924996Y-103215565D01*
X142925000Y-103215565D01*
X142925004Y-103215565D01*
X143104249Y-103195369D01*
X143104252Y-103195368D01*
X143104255Y-103195368D01*
X143274522Y-103135789D01*
X143427262Y-103039816D01*
X143554816Y-102912262D01*
X143650789Y-102759522D01*
X143710368Y-102589255D01*
X143721572Y-102489815D01*
X143730565Y-102410003D01*
X143730565Y-102409996D01*
X143722678Y-102339996D01*
X158302035Y-102339996D01*
X158302035Y-102340003D01*
X158322230Y-102519249D01*
X158322231Y-102519254D01*
X158381811Y-102689523D01*
X158447732Y-102794435D01*
X158477784Y-102842262D01*
X158605338Y-102969816D01*
X158758078Y-103065789D01*
X158849383Y-103097738D01*
X158928345Y-103125368D01*
X158928350Y-103125369D01*
X159107596Y-103145565D01*
X159107600Y-103145565D01*
X159107604Y-103145565D01*
X159286849Y-103125369D01*
X159286852Y-103125368D01*
X159286855Y-103125368D01*
X159457122Y-103065789D01*
X159609862Y-102969816D01*
X159737416Y-102842262D01*
X159833389Y-102689522D01*
X159892968Y-102519255D01*
X159896285Y-102489815D01*
X159913165Y-102340003D01*
X159913165Y-102339996D01*
X159892969Y-102160750D01*
X159892968Y-102160745D01*
X159873970Y-102106452D01*
X159833389Y-101990478D01*
X159826113Y-101978899D01*
X159751404Y-101860000D01*
X159737416Y-101837738D01*
X159609862Y-101710184D01*
X159457123Y-101614211D01*
X159286854Y-101554631D01*
X159286849Y-101554630D01*
X159107604Y-101534435D01*
X159107596Y-101534435D01*
X158928350Y-101554630D01*
X158928345Y-101554631D01*
X158758076Y-101614211D01*
X158605337Y-101710184D01*
X158477784Y-101837737D01*
X158381811Y-101990476D01*
X158322231Y-102160745D01*
X158322230Y-102160750D01*
X158302035Y-102339996D01*
X143722678Y-102339996D01*
X143710369Y-102230750D01*
X143710368Y-102230745D01*
X143674115Y-102127139D01*
X143650789Y-102060478D01*
X143554816Y-101907738D01*
X143427262Y-101780184D01*
X143419597Y-101775368D01*
X143274523Y-101684211D01*
X143104254Y-101624631D01*
X143104249Y-101624630D01*
X142925004Y-101604435D01*
X142924996Y-101604435D01*
X142745750Y-101624630D01*
X142745745Y-101624631D01*
X142575476Y-101684211D01*
X142422737Y-101780184D01*
X142295184Y-101907737D01*
X142199211Y-102060476D01*
X142139631Y-102230745D01*
X142139630Y-102230750D01*
X142119435Y-102409996D01*
X138132082Y-102409996D01*
X138179816Y-102362262D01*
X138275789Y-102209522D01*
X138335368Y-102039255D01*
X138335369Y-102039249D01*
X138355565Y-101860003D01*
X138355565Y-101859996D01*
X138335369Y-101680750D01*
X138335368Y-101680745D01*
X138315733Y-101624631D01*
X138275789Y-101510478D01*
X138179816Y-101357738D01*
X138052262Y-101230184D01*
X137974674Y-101181432D01*
X137899523Y-101134211D01*
X137729254Y-101074631D01*
X137729249Y-101074630D01*
X137550004Y-101054435D01*
X137549996Y-101054435D01*
X137370750Y-101074630D01*
X137370745Y-101074631D01*
X137200476Y-101134211D01*
X137047737Y-101230184D01*
X136920184Y-101357737D01*
X136824211Y-101510476D01*
X136764631Y-101680745D01*
X136764630Y-101680750D01*
X136744435Y-101859996D01*
X129900000Y-101859996D01*
X129900000Y-99274000D01*
X129919685Y-99206961D01*
X129972489Y-99161206D01*
X130024000Y-99150000D01*
X139642475Y-99150000D01*
X139709514Y-99169685D01*
X139711227Y-99170805D01*
X141597706Y-100427654D01*
X141620029Y-100442526D01*
X144770000Y-100450000D01*
X144769999Y-100449998D01*
X144796449Y-100423212D01*
X144857558Y-100389339D01*
X144927280Y-100393880D01*
X144938487Y-100398615D01*
X144942306Y-100400453D01*
X144942310Y-100400456D01*
X145020038Y-100427654D01*
X145076814Y-100468376D01*
X145102562Y-100533329D01*
X145102304Y-100558579D01*
X145089751Y-100669995D01*
X145089751Y-100670002D01*
X145108685Y-100838056D01*
X145164545Y-100997694D01*
X145164547Y-100997697D01*
X145254518Y-101140884D01*
X145254523Y-101140890D01*
X145374109Y-101260476D01*
X145374115Y-101260481D01*
X145517302Y-101350452D01*
X145517305Y-101350454D01*
X145517309Y-101350455D01*
X145517310Y-101350456D01*
X145538121Y-101357738D01*
X145676943Y-101406314D01*
X145844997Y-101425249D01*
X145845000Y-101425249D01*
X145845003Y-101425249D01*
X146013056Y-101406314D01*
X146013059Y-101406313D01*
X146172690Y-101350456D01*
X146172692Y-101350454D01*
X146172694Y-101350454D01*
X146172697Y-101350452D01*
X146315884Y-101260481D01*
X146315885Y-101260480D01*
X146315890Y-101260477D01*
X146435477Y-101140890D01*
X146439674Y-101134211D01*
X146525452Y-100997697D01*
X146525454Y-100997694D01*
X146525454Y-100997692D01*
X146525456Y-100997690D01*
X146581313Y-100838059D01*
X146581313Y-100838058D01*
X146581314Y-100838056D01*
X146600249Y-100670002D01*
X146600249Y-100669997D01*
X146587695Y-100558580D01*
X146599749Y-100489758D01*
X146647098Y-100438378D01*
X146669957Y-100427655D01*
X146747690Y-100400456D01*
X146747692Y-100400455D01*
X146747697Y-100400452D01*
X146890884Y-100310481D01*
X146890885Y-100310480D01*
X146890890Y-100310477D01*
X147010477Y-100190890D01*
X147027045Y-100164522D01*
X147100452Y-100047697D01*
X147100454Y-100047694D01*
X147100454Y-100047692D01*
X147100456Y-100047690D01*
X147156313Y-99888059D01*
X147156313Y-99888058D01*
X147156314Y-99888056D01*
X147169949Y-99767043D01*
X151460292Y-99767043D01*
X151460292Y-99767050D01*
X151480487Y-99946296D01*
X151480488Y-99946301D01*
X151540068Y-100116570D01*
X151592491Y-100200000D01*
X151636041Y-100269309D01*
X151763595Y-100396863D01*
X151805529Y-100423212D01*
X151905361Y-100485941D01*
X151916335Y-100492836D01*
X152040745Y-100536369D01*
X152086602Y-100552415D01*
X152086607Y-100552416D01*
X152265853Y-100572612D01*
X152272821Y-100572612D01*
X152272821Y-100574327D01*
X152332954Y-100584858D01*
X152384335Y-100632205D01*
X152401962Y-100699815D01*
X152380238Y-100766221D01*
X152343993Y-100801019D01*
X152271102Y-100846819D01*
X152143547Y-100974374D01*
X152047574Y-101127113D01*
X151987994Y-101297382D01*
X151987993Y-101297387D01*
X151967798Y-101476633D01*
X151967798Y-101476640D01*
X151987993Y-101655886D01*
X151987994Y-101655891D01*
X152047574Y-101826160D01*
X152143547Y-101978899D01*
X152271101Y-102106453D01*
X152423841Y-102202426D01*
X152521596Y-102236632D01*
X152594108Y-102262005D01*
X152594113Y-102262006D01*
X152773359Y-102282202D01*
X152773363Y-102282202D01*
X152773367Y-102282202D01*
X152952612Y-102262006D01*
X152952615Y-102262005D01*
X152952618Y-102262005D01*
X153122885Y-102202426D01*
X153275625Y-102106453D01*
X153403179Y-101978899D01*
X153499152Y-101826159D01*
X153558731Y-101655892D01*
X153562253Y-101624632D01*
X153578928Y-101476640D01*
X153578928Y-101476633D01*
X153558732Y-101297387D01*
X153558731Y-101297382D01*
X153542662Y-101251459D01*
X153499152Y-101127115D01*
X153495036Y-101120565D01*
X153417829Y-100997690D01*
X153403179Y-100974375D01*
X153275625Y-100846821D01*
X153248562Y-100829816D01*
X153122886Y-100750848D01*
X152952617Y-100691268D01*
X152952612Y-100691267D01*
X152773367Y-100671072D01*
X152766399Y-100671072D01*
X152766399Y-100669361D01*
X152706242Y-100658813D01*
X152654870Y-100611455D01*
X152637258Y-100543842D01*
X152658995Y-100477440D01*
X152695226Y-100442664D01*
X152768119Y-100396863D01*
X152895673Y-100269309D01*
X152991646Y-100116569D01*
X153051225Y-99946302D01*
X153052457Y-99935372D01*
X153061917Y-99851405D01*
X153066711Y-99839996D01*
X154254435Y-99839996D01*
X154254435Y-99840003D01*
X154274630Y-100019249D01*
X154274631Y-100019254D01*
X154334211Y-100189523D01*
X154410212Y-100310477D01*
X154430184Y-100342262D01*
X154557738Y-100469816D01*
X154710478Y-100565789D01*
X154755267Y-100581461D01*
X154812043Y-100622183D01*
X154827337Y-100650189D01*
X154827865Y-100649936D01*
X154830885Y-100656209D01*
X154900011Y-100766221D01*
X154926859Y-100808949D01*
X155054413Y-100936503D01*
X155207153Y-101032476D01*
X155280568Y-101058165D01*
X155377420Y-101092055D01*
X155377425Y-101092056D01*
X155556671Y-101112252D01*
X155556675Y-101112252D01*
X155556679Y-101112252D01*
X155735924Y-101092056D01*
X155735927Y-101092055D01*
X155735930Y-101092055D01*
X155906197Y-101032476D01*
X156058937Y-100936503D01*
X156186491Y-100808949D01*
X156282464Y-100656209D01*
X156342043Y-100485942D01*
X156342712Y-100480003D01*
X156362240Y-100306690D01*
X156362240Y-100306683D01*
X156342044Y-100127437D01*
X156342043Y-100127432D01*
X156314852Y-100049725D01*
X156282464Y-99957165D01*
X156275638Y-99946302D01*
X156219437Y-99856859D01*
X156186491Y-99804425D01*
X156058937Y-99676871D01*
X156055444Y-99674676D01*
X155906199Y-99580899D01*
X155906195Y-99580897D01*
X155861407Y-99565225D01*
X155804631Y-99524503D01*
X155789340Y-99496499D01*
X155788812Y-99496754D01*
X155785792Y-99490483D01*
X155749958Y-99433454D01*
X155689816Y-99337738D01*
X155562262Y-99210184D01*
X155516556Y-99181465D01*
X155409523Y-99114211D01*
X155239254Y-99054631D01*
X155239249Y-99054630D01*
X155060004Y-99034435D01*
X155059996Y-99034435D01*
X154880750Y-99054630D01*
X154880745Y-99054631D01*
X154710476Y-99114211D01*
X154557737Y-99210184D01*
X154430184Y-99337737D01*
X154334211Y-99490476D01*
X154274631Y-99660745D01*
X154274630Y-99660750D01*
X154254435Y-99839996D01*
X153066711Y-99839996D01*
X153088983Y-99786991D01*
X153119162Y-99760295D01*
X153238382Y-99685384D01*
X153255426Y-99674676D01*
X153255426Y-99674675D01*
X153255429Y-99674674D01*
X153382983Y-99547120D01*
X153478956Y-99394380D01*
X153538535Y-99224113D01*
X153538534Y-99224113D01*
X153539961Y-99220038D01*
X153580683Y-99163261D01*
X153591024Y-99156002D01*
X153712238Y-99079839D01*
X153839792Y-98952285D01*
X153935765Y-98799545D01*
X153935765Y-98799542D01*
X153936522Y-98798339D01*
X153988857Y-98752048D01*
X154000556Y-98747271D01*
X154138442Y-98699023D01*
X154291182Y-98603050D01*
X154418736Y-98475496D01*
X154514709Y-98322756D01*
X154535378Y-98263684D01*
X154576098Y-98206908D01*
X154611460Y-98187597D01*
X154759522Y-98135789D01*
X154912262Y-98039816D01*
X154991806Y-97960272D01*
X155053129Y-97926787D01*
X155122821Y-97931771D01*
X155145457Y-97942958D01*
X155161661Y-97953140D01*
X155285880Y-98031193D01*
X155456150Y-98090773D01*
X155456155Y-98090774D01*
X155635401Y-98110970D01*
X155635405Y-98110970D01*
X155635409Y-98110970D01*
X155814654Y-98090774D01*
X155814657Y-98090773D01*
X155814660Y-98090773D01*
X155984927Y-98031194D01*
X156137667Y-97935221D01*
X156265221Y-97807667D01*
X156361194Y-97654927D01*
X156396771Y-97553255D01*
X157813796Y-97553255D01*
X157813796Y-97553262D01*
X157833991Y-97732508D01*
X157833992Y-97732513D01*
X157893572Y-97902782D01*
X157975826Y-98033687D01*
X157989545Y-98055521D01*
X158117099Y-98183075D01*
X158155029Y-98206908D01*
X158266843Y-98277166D01*
X158269839Y-98279048D01*
X158288985Y-98285747D01*
X158298729Y-98289157D01*
X158355506Y-98329879D01*
X158374817Y-98365245D01*
X158425036Y-98508764D01*
X158484280Y-98603050D01*
X158521010Y-98661505D01*
X158648564Y-98789059D01*
X158801304Y-98885032D01*
X158882443Y-98913423D01*
X158939219Y-98954144D01*
X158958531Y-98989511D01*
X158988992Y-99076565D01*
X159048207Y-99170805D01*
X159084966Y-99229306D01*
X159212520Y-99356860D01*
X159272231Y-99394379D01*
X159334418Y-99433454D01*
X159365260Y-99452833D01*
X159401398Y-99465478D01*
X159467806Y-99488715D01*
X159524582Y-99529437D01*
X159543892Y-99564799D01*
X159548008Y-99576562D01*
X159622196Y-99694631D01*
X159643984Y-99729306D01*
X159771538Y-99856860D01*
X159813201Y-99883038D01*
X159859492Y-99935372D01*
X159870449Y-100001914D01*
X159861171Y-100084265D01*
X159861171Y-100084273D01*
X159881366Y-100263519D01*
X159881367Y-100263524D01*
X159940947Y-100433793D01*
X160023885Y-100565787D01*
X160036920Y-100586532D01*
X160164474Y-100714086D01*
X160317214Y-100810059D01*
X160422268Y-100846819D01*
X160487481Y-100869638D01*
X160487486Y-100869639D01*
X160666732Y-100889835D01*
X160666736Y-100889835D01*
X160666740Y-100889835D01*
X160845985Y-100869639D01*
X160845988Y-100869638D01*
X160845991Y-100869638D01*
X161016258Y-100810059D01*
X161168998Y-100714086D01*
X161296552Y-100586532D01*
X161298982Y-100582663D01*
X161351313Y-100536369D01*
X161390098Y-100525409D01*
X161505449Y-100512413D01*
X161505452Y-100512412D01*
X161505455Y-100512412D01*
X161675722Y-100452833D01*
X161828462Y-100356860D01*
X161956016Y-100229306D01*
X161974305Y-100200198D01*
X162026638Y-100153909D01*
X162095692Y-100143260D01*
X162159540Y-100171635D01*
X162197912Y-100230025D01*
X162202518Y-100252289D01*
X162212230Y-100338492D01*
X162212231Y-100338497D01*
X162271811Y-100508766D01*
X162367784Y-100661505D01*
X162481636Y-100775357D01*
X162515121Y-100836680D01*
X162517175Y-100876921D01*
X162504435Y-100989996D01*
X162504435Y-100990003D01*
X162524630Y-101169249D01*
X162524631Y-101169254D01*
X162584211Y-101339523D01*
X162626179Y-101406314D01*
X162680184Y-101492262D01*
X162807738Y-101619816D01*
X162815403Y-101624632D01*
X162951557Y-101710184D01*
X162960478Y-101715789D01*
X163130745Y-101775368D01*
X163130750Y-101775369D01*
X163309996Y-101795565D01*
X163310000Y-101795565D01*
X163310004Y-101795565D01*
X163489249Y-101775369D01*
X163489252Y-101775368D01*
X163489255Y-101775368D01*
X163659522Y-101715789D01*
X163812262Y-101619816D01*
X163939816Y-101492262D01*
X164035789Y-101339522D01*
X164068699Y-101245471D01*
X164109421Y-101188695D01*
X164174374Y-101162947D01*
X164242935Y-101176403D01*
X164251714Y-101181432D01*
X164290475Y-101205788D01*
X164460745Y-101265368D01*
X164460750Y-101265369D01*
X164639996Y-101285565D01*
X164640000Y-101285565D01*
X164640004Y-101285565D01*
X164819249Y-101265369D01*
X164819252Y-101265368D01*
X164819255Y-101265368D01*
X164989522Y-101205789D01*
X165142262Y-101109816D01*
X165269816Y-100982262D01*
X165365789Y-100829522D01*
X165425368Y-100659255D01*
X165425711Y-100656210D01*
X165445565Y-100480003D01*
X165445565Y-100479996D01*
X165425369Y-100300750D01*
X165425368Y-100300745D01*
X165412342Y-100263519D01*
X165365789Y-100130478D01*
X165357049Y-100116569D01*
X165280194Y-99994255D01*
X165269816Y-99977738D01*
X165142262Y-99850184D01*
X164989523Y-99754211D01*
X164819254Y-99694631D01*
X164819249Y-99694630D01*
X164640004Y-99674435D01*
X164639996Y-99674435D01*
X164460750Y-99694630D01*
X164460745Y-99694631D01*
X164290476Y-99754211D01*
X164137737Y-99850184D01*
X164010185Y-99977736D01*
X164000726Y-99992790D01*
X163948389Y-100039079D01*
X163879336Y-100049725D01*
X163815488Y-100021348D01*
X163778692Y-99967768D01*
X163772603Y-99950368D01*
X163723389Y-99809721D01*
X163627416Y-99656981D01*
X163499862Y-99529427D01*
X163466458Y-99508438D01*
X163347123Y-99433454D01*
X163176854Y-99373874D01*
X163176849Y-99373873D01*
X162997604Y-99353678D01*
X162997596Y-99353678D01*
X162818350Y-99373873D01*
X162818345Y-99373874D01*
X162648076Y-99433454D01*
X162495337Y-99529427D01*
X162367784Y-99656980D01*
X162367783Y-99656982D01*
X162349493Y-99686089D01*
X162297157Y-99732379D01*
X162228103Y-99743025D01*
X162164256Y-99714648D01*
X162125885Y-99656257D01*
X162121281Y-99633996D01*
X162111569Y-99547794D01*
X162111568Y-99547789D01*
X162090897Y-99488715D01*
X162051989Y-99377522D01*
X162049697Y-99373875D01*
X162011282Y-99312738D01*
X161956016Y-99224782D01*
X161828462Y-99097228D01*
X161760671Y-99054632D01*
X161675723Y-99001255D01*
X161505454Y-98941675D01*
X161505449Y-98941674D01*
X161326204Y-98921479D01*
X161326196Y-98921479D01*
X161146946Y-98941675D01*
X161140156Y-98943225D01*
X161139553Y-98940586D01*
X161082055Y-98943503D01*
X161021439Y-98908754D01*
X161003683Y-98883173D01*
X161003294Y-98883418D01*
X160944003Y-98789058D01*
X160903616Y-98724782D01*
X160776062Y-98597228D01*
X160700142Y-98549524D01*
X160623322Y-98501254D01*
X160623318Y-98501253D01*
X160520773Y-98465370D01*
X160463997Y-98424648D01*
X160444686Y-98389282D01*
X160441309Y-98379632D01*
X160440571Y-98377522D01*
X160344598Y-98224782D01*
X160319813Y-98199997D01*
X171450552Y-98199997D01*
X171450552Y-98200004D01*
X171470747Y-98379250D01*
X171470748Y-98379255D01*
X171530328Y-98549524D01*
X171563961Y-98603050D01*
X171626301Y-98702263D01*
X171753855Y-98829817D01*
X171906595Y-98925790D01*
X172063276Y-98980615D01*
X172076862Y-98985369D01*
X172076867Y-98985370D01*
X172256113Y-99005566D01*
X172256117Y-99005566D01*
X172256121Y-99005566D01*
X172435366Y-98985370D01*
X172435369Y-98985369D01*
X172435372Y-98985369D01*
X172605639Y-98925790D01*
X172758379Y-98829817D01*
X172885933Y-98702263D01*
X172981906Y-98549523D01*
X173041485Y-98379256D01*
X173042721Y-98368279D01*
X173069785Y-98303866D01*
X173099967Y-98277168D01*
X173215115Y-98204817D01*
X173342669Y-98077263D01*
X173438642Y-97924523D01*
X173498221Y-97754256D01*
X173500671Y-97732513D01*
X173518418Y-97575004D01*
X173518418Y-97574997D01*
X173498222Y-97395751D01*
X173498221Y-97395746D01*
X173438641Y-97225477D01*
X173399435Y-97163081D01*
X173342669Y-97072739D01*
X173215115Y-96945185D01*
X173180513Y-96923443D01*
X173062376Y-96849212D01*
X172892107Y-96789632D01*
X172892102Y-96789631D01*
X172712857Y-96769436D01*
X172712849Y-96769436D01*
X172533603Y-96789631D01*
X172533598Y-96789632D01*
X172363329Y-96849212D01*
X172210590Y-96945185D01*
X172083037Y-97072738D01*
X171987063Y-97225479D01*
X171927485Y-97395746D01*
X171926248Y-97406726D01*
X171899180Y-97471140D01*
X171869001Y-97497833D01*
X171753856Y-97570183D01*
X171626301Y-97697738D01*
X171530328Y-97850477D01*
X171470748Y-98020746D01*
X171470747Y-98020751D01*
X171450552Y-98199997D01*
X160319813Y-98199997D01*
X160217044Y-98097228D01*
X160150668Y-98055521D01*
X160064303Y-98001254D01*
X159983162Y-97972861D01*
X159926387Y-97932139D01*
X159907076Y-97896774D01*
X159897374Y-97869047D01*
X159876615Y-97809721D01*
X159875324Y-97807667D01*
X159817453Y-97715565D01*
X159780642Y-97656981D01*
X159653088Y-97529427D01*
X159625770Y-97512262D01*
X159500345Y-97433451D01*
X159471456Y-97423343D01*
X159414680Y-97382621D01*
X159395369Y-97347256D01*
X159386623Y-97322262D01*
X159345150Y-97203737D01*
X159249177Y-97050997D01*
X159121623Y-96923443D01*
X159096627Y-96907737D01*
X158968880Y-96827467D01*
X158906032Y-96805476D01*
X158849256Y-96764754D01*
X158823509Y-96699801D01*
X158836966Y-96631240D01*
X158885353Y-96580837D01*
X158933102Y-96565215D01*
X159012596Y-96556258D01*
X159109249Y-96545369D01*
X159109252Y-96545368D01*
X159109255Y-96545368D01*
X159279522Y-96485789D01*
X159432262Y-96389816D01*
X159559816Y-96262262D01*
X159655789Y-96109522D01*
X159715368Y-95939255D01*
X159731558Y-95795565D01*
X159735565Y-95760003D01*
X159735565Y-95759996D01*
X159715369Y-95580750D01*
X159715368Y-95580745D01*
X159655789Y-95410478D01*
X159559816Y-95257738D01*
X159432262Y-95130184D01*
X159383930Y-95099815D01*
X159279523Y-95034211D01*
X159109254Y-94974631D01*
X159109249Y-94974630D01*
X158930004Y-94954435D01*
X158929996Y-94954435D01*
X158750750Y-94974630D01*
X158750745Y-94974631D01*
X158580476Y-95034211D01*
X158427737Y-95130184D01*
X158300184Y-95257737D01*
X158204211Y-95410476D01*
X158144631Y-95580745D01*
X158144630Y-95580750D01*
X158124435Y-95759996D01*
X158124435Y-95760003D01*
X158144630Y-95939249D01*
X158144631Y-95939254D01*
X158204211Y-96109523D01*
X158213705Y-96124632D01*
X158300184Y-96262262D01*
X158427738Y-96389816D01*
X158515488Y-96444953D01*
X158580478Y-96485789D01*
X158643327Y-96507781D01*
X158700103Y-96548503D01*
X158725851Y-96613456D01*
X158712395Y-96682017D01*
X158664008Y-96732420D01*
X158616257Y-96748043D01*
X158440110Y-96767889D01*
X158440106Y-96767890D01*
X158269837Y-96827470D01*
X158117098Y-96923443D01*
X157989545Y-97050996D01*
X157893572Y-97203735D01*
X157833992Y-97374004D01*
X157833991Y-97374009D01*
X157813796Y-97553255D01*
X156396771Y-97553255D01*
X156420773Y-97484660D01*
X156420774Y-97484654D01*
X156440970Y-97305408D01*
X156440970Y-97305401D01*
X156420774Y-97126155D01*
X156420773Y-97126150D01*
X156380129Y-97009996D01*
X156361194Y-96955883D01*
X156330942Y-96907738D01*
X156292374Y-96846357D01*
X156265221Y-96803143D01*
X156137667Y-96675589D01*
X156113615Y-96660476D01*
X155984928Y-96579616D01*
X155814659Y-96520036D01*
X155814654Y-96520035D01*
X155635409Y-96499840D01*
X155635401Y-96499840D01*
X155456155Y-96520035D01*
X155456150Y-96520036D01*
X155285881Y-96579616D01*
X155133144Y-96675588D01*
X155053599Y-96755133D01*
X154992275Y-96788617D01*
X154922584Y-96783633D01*
X154899946Y-96772445D01*
X154759523Y-96684211D01*
X154589254Y-96624631D01*
X154589249Y-96624630D01*
X154410004Y-96604435D01*
X154409996Y-96604435D01*
X154230750Y-96624630D01*
X154230745Y-96624631D01*
X154060476Y-96684211D01*
X153907737Y-96780184D01*
X153780184Y-96907737D01*
X153684212Y-97060475D01*
X153684210Y-97060479D01*
X153663540Y-97119551D01*
X153622818Y-97176327D01*
X153587454Y-97195638D01*
X153439396Y-97247445D01*
X153286657Y-97343418D01*
X153159104Y-97470971D01*
X153062374Y-97624917D01*
X153010039Y-97671208D01*
X152998335Y-97675986D01*
X152860456Y-97724232D01*
X152707713Y-97820207D01*
X152580160Y-97947760D01*
X152484187Y-98100500D01*
X152423182Y-98274843D01*
X152382460Y-98331619D01*
X152372113Y-98338881D01*
X152250906Y-98415040D01*
X152123351Y-98542595D01*
X152027377Y-98695336D01*
X151967797Y-98865608D01*
X151957105Y-98960502D01*
X151930038Y-99024915D01*
X151899858Y-99051610D01*
X151763596Y-99137229D01*
X151636041Y-99264784D01*
X151540068Y-99417523D01*
X151480488Y-99587792D01*
X151480487Y-99587797D01*
X151460292Y-99767043D01*
X147169949Y-99767043D01*
X147175249Y-99720002D01*
X147175249Y-99719997D01*
X147156314Y-99551943D01*
X147108266Y-99414630D01*
X147100456Y-99392310D01*
X147100455Y-99392309D01*
X147100454Y-99392305D01*
X147100452Y-99392302D01*
X147010481Y-99249115D01*
X147010476Y-99249109D01*
X146890890Y-99129523D01*
X146890884Y-99129518D01*
X146747697Y-99039547D01*
X146747686Y-99039542D01*
X146669960Y-99012344D01*
X146613184Y-98971622D01*
X146587437Y-98906670D01*
X146587695Y-98881419D01*
X146600249Y-98770002D01*
X146600249Y-98769997D01*
X146581314Y-98601943D01*
X146525454Y-98442305D01*
X146525452Y-98442302D01*
X146435481Y-98299115D01*
X146435476Y-98299109D01*
X146315890Y-98179523D01*
X146315884Y-98179518D01*
X146172697Y-98089547D01*
X146172694Y-98089545D01*
X146013056Y-98033685D01*
X145845003Y-98014751D01*
X145844997Y-98014751D01*
X145676943Y-98033685D01*
X145517305Y-98089545D01*
X145517302Y-98089547D01*
X145374115Y-98179518D01*
X145374109Y-98179523D01*
X145254523Y-98299109D01*
X145250180Y-98304556D01*
X145247969Y-98302792D01*
X145205168Y-98340641D01*
X145136113Y-98351279D01*
X145072268Y-98322895D01*
X145035484Y-98269325D01*
X145007005Y-98187939D01*
X144995528Y-98169674D01*
X144947316Y-98092944D01*
X144928316Y-98025707D01*
X144929089Y-98013097D01*
X144930565Y-98000000D01*
X144927507Y-97972861D01*
X144910369Y-97820750D01*
X144910366Y-97820737D01*
X144904088Y-97802795D01*
X144900526Y-97733016D01*
X144935254Y-97672389D01*
X144955153Y-97656849D01*
X144982262Y-97639816D01*
X145109816Y-97512262D01*
X145205789Y-97359522D01*
X145265368Y-97189255D01*
X145266825Y-97176327D01*
X145285565Y-97010003D01*
X145285565Y-97009996D01*
X145265369Y-96830750D01*
X145265368Y-96830745D01*
X145236307Y-96747694D01*
X145205789Y-96660478D01*
X145183265Y-96624632D01*
X145133461Y-96545369D01*
X145109816Y-96507738D01*
X144982262Y-96380184D01*
X144955913Y-96363628D01*
X144829523Y-96284211D01*
X144659254Y-96224631D01*
X144659249Y-96224630D01*
X144480004Y-96204435D01*
X144479996Y-96204435D01*
X144300750Y-96224630D01*
X144300745Y-96224631D01*
X144130476Y-96284211D01*
X143977737Y-96380184D01*
X143941467Y-96416454D01*
X143880144Y-96449939D01*
X143810452Y-96444953D01*
X143754519Y-96403081D01*
X143752364Y-96400112D01*
X143745121Y-96389815D01*
X142649950Y-94832828D01*
X141747041Y-94834203D01*
X141679971Y-94814620D01*
X141634136Y-94761886D01*
X141623632Y-94724086D01*
X141615369Y-94650750D01*
X141615368Y-94650745D01*
X141566118Y-94509996D01*
X149744435Y-94509996D01*
X149744435Y-94510003D01*
X149764630Y-94689249D01*
X149764631Y-94689254D01*
X149824211Y-94859523D01*
X149880084Y-94948444D01*
X149920184Y-95012262D01*
X150047738Y-95139816D01*
X150094590Y-95169255D01*
X150193731Y-95231550D01*
X150200478Y-95235789D01*
X150370745Y-95295368D01*
X150370750Y-95295369D01*
X150549996Y-95315565D01*
X150550000Y-95315565D01*
X150550004Y-95315565D01*
X150729249Y-95295369D01*
X150729252Y-95295368D01*
X150729255Y-95295368D01*
X150899522Y-95235789D01*
X151052262Y-95139816D01*
X151179816Y-95012262D01*
X151275789Y-94859522D01*
X151335368Y-94689255D01*
X151335369Y-94689249D01*
X151355565Y-94510003D01*
X151355565Y-94509996D01*
X151351058Y-94469996D01*
X159914435Y-94469996D01*
X159914435Y-94470003D01*
X159934630Y-94649249D01*
X159934631Y-94649254D01*
X159994211Y-94819523D01*
X160090184Y-94972262D01*
X160217738Y-95099816D01*
X160370478Y-95195789D01*
X160496826Y-95240000D01*
X160540745Y-95255368D01*
X160540750Y-95255369D01*
X160719996Y-95275565D01*
X160720000Y-95275565D01*
X160720004Y-95275565D01*
X160899249Y-95255369D01*
X160899252Y-95255368D01*
X160899255Y-95255368D01*
X161069522Y-95195789D01*
X161222262Y-95099816D01*
X161349816Y-94972262D01*
X161445789Y-94819522D01*
X161505368Y-94649255D01*
X161508718Y-94619522D01*
X161525565Y-94470003D01*
X161525565Y-94469996D01*
X161505369Y-94290750D01*
X161505368Y-94290745D01*
X161473679Y-94200184D01*
X161445789Y-94120478D01*
X161427106Y-94090745D01*
X161385441Y-94024435D01*
X161349816Y-93967738D01*
X161222262Y-93840184D01*
X161069523Y-93744211D01*
X160899254Y-93684631D01*
X160899249Y-93684630D01*
X160720004Y-93664435D01*
X160719996Y-93664435D01*
X160540750Y-93684630D01*
X160540745Y-93684631D01*
X160370476Y-93744211D01*
X160217737Y-93840184D01*
X160090184Y-93967737D01*
X159994211Y-94120476D01*
X159934631Y-94290745D01*
X159934630Y-94290750D01*
X159914435Y-94469996D01*
X151351058Y-94469996D01*
X151335369Y-94330750D01*
X151335368Y-94330745D01*
X151275788Y-94160476D01*
X151179815Y-94007737D01*
X151052262Y-93880184D01*
X150899523Y-93784211D01*
X150729254Y-93724631D01*
X150729249Y-93724630D01*
X150550004Y-93704435D01*
X150549996Y-93704435D01*
X150370750Y-93724630D01*
X150370745Y-93724631D01*
X150200476Y-93784211D01*
X150047737Y-93880184D01*
X149920184Y-94007737D01*
X149824211Y-94160476D01*
X149764631Y-94330745D01*
X149764630Y-94330750D01*
X149744435Y-94509996D01*
X141566118Y-94509996D01*
X141555788Y-94480476D01*
X141480203Y-94360184D01*
X141459816Y-94327738D01*
X141332262Y-94200184D01*
X141307198Y-94184435D01*
X141179523Y-94104211D01*
X141009254Y-94044631D01*
X141009249Y-94044630D01*
X140830004Y-94024435D01*
X140829996Y-94024435D01*
X140650750Y-94044630D01*
X140650745Y-94044631D01*
X140480476Y-94104211D01*
X140327737Y-94200184D01*
X140200184Y-94327737D01*
X140104211Y-94480476D01*
X140044631Y-94650745D01*
X140044631Y-94650749D01*
X140036052Y-94726883D01*
X140008985Y-94791297D01*
X139951389Y-94830851D01*
X139913021Y-94836998D01*
X139113153Y-94838217D01*
X139046084Y-94818634D01*
X139000248Y-94765900D01*
X138995922Y-94755171D01*
X138955789Y-94640478D01*
X138921039Y-94585174D01*
X138859816Y-94487738D01*
X138732262Y-94360184D01*
X138683467Y-94329524D01*
X138579523Y-94264211D01*
X138409254Y-94204631D01*
X138409249Y-94204630D01*
X138230004Y-94184435D01*
X138229996Y-94184435D01*
X138050750Y-94204630D01*
X138050745Y-94204631D01*
X137880476Y-94264211D01*
X137727737Y-94360184D01*
X137680181Y-94407741D01*
X137618858Y-94441226D01*
X137549166Y-94436242D01*
X137504819Y-94407741D01*
X137457262Y-94360184D01*
X137304523Y-94264211D01*
X137134254Y-94204631D01*
X137134249Y-94204630D01*
X136955004Y-94184435D01*
X136954996Y-94184435D01*
X136775750Y-94204630D01*
X136775745Y-94204631D01*
X136605476Y-94264211D01*
X136452737Y-94360184D01*
X136325184Y-94487737D01*
X136229209Y-94640480D01*
X136187454Y-94759809D01*
X136146733Y-94816585D01*
X136081780Y-94842332D01*
X136070602Y-94842854D01*
X133257279Y-94847141D01*
X133190210Y-94827558D01*
X133152096Y-94789112D01*
X133151079Y-94787494D01*
X133139392Y-94768894D01*
X133120393Y-94701658D01*
X133140761Y-94634823D01*
X133158258Y-94615660D01*
X133157338Y-94614740D01*
X133186904Y-94585174D01*
X133289816Y-94482262D01*
X133385789Y-94329522D01*
X133445368Y-94159255D01*
X133449737Y-94120478D01*
X133465565Y-93980003D01*
X133465565Y-93979996D01*
X133445369Y-93800750D01*
X133445368Y-93800745D01*
X133385789Y-93630478D01*
X133368785Y-93603417D01*
X133310319Y-93510368D01*
X133289816Y-93477738D01*
X133162262Y-93350184D01*
X133152613Y-93344121D01*
X133009523Y-93254211D01*
X132839254Y-93194631D01*
X132839249Y-93194630D01*
X132660004Y-93174435D01*
X132659996Y-93174435D01*
X132480750Y-93194630D01*
X132480745Y-93194631D01*
X132310476Y-93254211D01*
X132157737Y-93350184D01*
X132030184Y-93477737D01*
X131934211Y-93630476D01*
X131874631Y-93800745D01*
X131874630Y-93800750D01*
X131854435Y-93979996D01*
X131854435Y-93980003D01*
X131874630Y-94159249D01*
X131874631Y-94159254D01*
X131934211Y-94329524D01*
X132010605Y-94451102D01*
X132029606Y-94518339D01*
X132009239Y-94585174D01*
X131991756Y-94604354D01*
X131992662Y-94605260D01*
X131860186Y-94737735D01*
X131860185Y-94737736D01*
X131826431Y-94791455D01*
X131774096Y-94837745D01*
X131721627Y-94849481D01*
X124943886Y-94859811D01*
X124876817Y-94840228D01*
X124830981Y-94787494D01*
X124819697Y-94736116D01*
X124816935Y-93603417D01*
X124836455Y-93536334D01*
X124889148Y-93490451D01*
X124958282Y-93480338D01*
X124981890Y-93486078D01*
X125020741Y-93499673D01*
X125020744Y-93499673D01*
X125020745Y-93499674D01*
X125020746Y-93499674D01*
X125020750Y-93499675D01*
X125199996Y-93519871D01*
X125200000Y-93519871D01*
X125200004Y-93519871D01*
X125379249Y-93499675D01*
X125379252Y-93499674D01*
X125379255Y-93499674D01*
X125549522Y-93440095D01*
X125702262Y-93344122D01*
X125829816Y-93216568D01*
X125925789Y-93063828D01*
X125985368Y-92893561D01*
X125986291Y-92885368D01*
X126005565Y-92714309D01*
X126005565Y-92714302D01*
X125985369Y-92535056D01*
X125985368Y-92535051D01*
X125973102Y-92499996D01*
X127804435Y-92499996D01*
X127804435Y-92500003D01*
X127824630Y-92679249D01*
X127824631Y-92679254D01*
X127884211Y-92849523D01*
X127915460Y-92899255D01*
X127980184Y-93002262D01*
X128107738Y-93129816D01*
X128178749Y-93174435D01*
X128254864Y-93222262D01*
X128260478Y-93225789D01*
X128430745Y-93285368D01*
X128430750Y-93285369D01*
X128609996Y-93305565D01*
X128610000Y-93305565D01*
X128610004Y-93305565D01*
X128789249Y-93285369D01*
X128789252Y-93285368D01*
X128789255Y-93285368D01*
X128959522Y-93225789D01*
X129112262Y-93129816D01*
X129239816Y-93002262D01*
X129335789Y-92849522D01*
X129381112Y-92719996D01*
X135524435Y-92719996D01*
X135524435Y-92720003D01*
X135544630Y-92899249D01*
X135544631Y-92899254D01*
X135604211Y-93069523D01*
X135642096Y-93129816D01*
X135700184Y-93222262D01*
X135827738Y-93349816D01*
X135980478Y-93445789D01*
X136134475Y-93499675D01*
X136150745Y-93505368D01*
X136150750Y-93505369D01*
X136329996Y-93525565D01*
X136330000Y-93525565D01*
X136330004Y-93525565D01*
X136509249Y-93505369D01*
X136509252Y-93505368D01*
X136509255Y-93505368D01*
X136679522Y-93445789D01*
X136832262Y-93349816D01*
X136959816Y-93222262D01*
X137055789Y-93069522D01*
X137115368Y-92899255D01*
X137116010Y-92893560D01*
X137135565Y-92720003D01*
X137135565Y-92719996D01*
X137115369Y-92540750D01*
X137115368Y-92540745D01*
X137063966Y-92393847D01*
X137055789Y-92370478D01*
X136959816Y-92217738D01*
X136842074Y-92099996D01*
X139164435Y-92099996D01*
X139164435Y-92100003D01*
X139184630Y-92279249D01*
X139184631Y-92279254D01*
X139244211Y-92449523D01*
X139301530Y-92540745D01*
X139340184Y-92602262D01*
X139467738Y-92729816D01*
X139558080Y-92786582D01*
X139604206Y-92815565D01*
X139620478Y-92825789D01*
X139790739Y-92885366D01*
X139790745Y-92885368D01*
X139790750Y-92885369D01*
X139969996Y-92905565D01*
X139970000Y-92905565D01*
X139970004Y-92905565D01*
X140149249Y-92885369D01*
X140149251Y-92885368D01*
X140149255Y-92885368D01*
X140149258Y-92885366D01*
X140149262Y-92885366D01*
X140316209Y-92826949D01*
X140385988Y-92823387D01*
X140446615Y-92858115D01*
X140474206Y-92903036D01*
X140474631Y-92904252D01*
X140474632Y-92904255D01*
X140501612Y-92981359D01*
X140534210Y-93074521D01*
X140627042Y-93222262D01*
X140630184Y-93227262D01*
X140757738Y-93354816D01*
X140848080Y-93411582D01*
X140902520Y-93445789D01*
X140910478Y-93450789D01*
X141050183Y-93499674D01*
X141080745Y-93510368D01*
X141080750Y-93510369D01*
X141259996Y-93530565D01*
X141260000Y-93530565D01*
X141260004Y-93530565D01*
X141439249Y-93510369D01*
X141439252Y-93510368D01*
X141439255Y-93510368D01*
X141609522Y-93450789D01*
X141762262Y-93354816D01*
X141889816Y-93227262D01*
X141985789Y-93074522D01*
X142045368Y-92904255D01*
X142045369Y-92904249D01*
X142065565Y-92725003D01*
X142065565Y-92724996D01*
X142045369Y-92545750D01*
X142045368Y-92545745D01*
X142010245Y-92445369D01*
X141985789Y-92375478D01*
X141982647Y-92370478D01*
X141889815Y-92222737D01*
X141762262Y-92095184D01*
X141609523Y-91999211D01*
X141439254Y-91939631D01*
X141439249Y-91939630D01*
X141260004Y-91919435D01*
X141259996Y-91919435D01*
X141080750Y-91939630D01*
X141080742Y-91939632D01*
X140913790Y-91998051D01*
X140844011Y-92001612D01*
X140783384Y-91966883D01*
X140755794Y-91921963D01*
X140754909Y-91919435D01*
X140695789Y-91750478D01*
X140638935Y-91659996D01*
X144244433Y-91659996D01*
X144244433Y-91660003D01*
X144264628Y-91839249D01*
X144264629Y-91839254D01*
X144324209Y-92009523D01*
X144381060Y-92100000D01*
X144420182Y-92162262D01*
X144547736Y-92289816D01*
X144596959Y-92320745D01*
X144676108Y-92370478D01*
X144700476Y-92385789D01*
X144861867Y-92442262D01*
X144870743Y-92445368D01*
X144870748Y-92445369D01*
X145049994Y-92465565D01*
X145049998Y-92465565D01*
X145050002Y-92465565D01*
X145229247Y-92445369D01*
X145229250Y-92445368D01*
X145229253Y-92445368D01*
X145399520Y-92385789D01*
X145448799Y-92354824D01*
X145516031Y-92335825D01*
X145582867Y-92356191D01*
X145619762Y-92393846D01*
X145650184Y-92442262D01*
X145777738Y-92569816D01*
X145930478Y-92665789D01*
X145968959Y-92679254D01*
X146100745Y-92725368D01*
X146100750Y-92725369D01*
X146279996Y-92745565D01*
X146280000Y-92745565D01*
X146280004Y-92745565D01*
X146459249Y-92725369D01*
X146459252Y-92725368D01*
X146459255Y-92725368D01*
X146629522Y-92665789D01*
X146782262Y-92569816D01*
X146909816Y-92442262D01*
X147005789Y-92289522D01*
X147065368Y-92119255D01*
X147067537Y-92100003D01*
X147077679Y-92009996D01*
X162994435Y-92009996D01*
X162994435Y-92010003D01*
X163014630Y-92189249D01*
X163014631Y-92189254D01*
X163074211Y-92359523D01*
X163128152Y-92445369D01*
X163170184Y-92512262D01*
X163297738Y-92639816D01*
X163339072Y-92665788D01*
X163433894Y-92725369D01*
X163450478Y-92735789D01*
X163620745Y-92795368D01*
X163620750Y-92795369D01*
X163799996Y-92815565D01*
X163800000Y-92815565D01*
X163800004Y-92815565D01*
X163979249Y-92795369D01*
X163979252Y-92795368D01*
X163979255Y-92795368D01*
X164149522Y-92735789D01*
X164302262Y-92639816D01*
X164429816Y-92512262D01*
X164525789Y-92359522D01*
X164585368Y-92189255D01*
X164585369Y-92189249D01*
X164605565Y-92010003D01*
X164605565Y-92009996D01*
X164585369Y-91830750D01*
X164585368Y-91830745D01*
X164544738Y-91714631D01*
X164525789Y-91660478D01*
X164429816Y-91507738D01*
X164302262Y-91380184D01*
X164197937Y-91314632D01*
X164149523Y-91284211D01*
X163979254Y-91224631D01*
X163979249Y-91224630D01*
X163800004Y-91204435D01*
X163799996Y-91204435D01*
X163620750Y-91224630D01*
X163620745Y-91224631D01*
X163450476Y-91284211D01*
X163297737Y-91380184D01*
X163170184Y-91507737D01*
X163074211Y-91660476D01*
X163014631Y-91830745D01*
X163014630Y-91830750D01*
X162994435Y-92009996D01*
X147077679Y-92009996D01*
X147085565Y-91940003D01*
X147085565Y-91939996D01*
X147065369Y-91760750D01*
X147065368Y-91760745D01*
X147005788Y-91590476D01*
X146909815Y-91437737D01*
X146782262Y-91310184D01*
X146629523Y-91214211D01*
X146459254Y-91154631D01*
X146459249Y-91154630D01*
X146280004Y-91134435D01*
X146279996Y-91134435D01*
X146100750Y-91154630D01*
X146100745Y-91154631D01*
X145930476Y-91214211D01*
X145881200Y-91245174D01*
X145813963Y-91264174D01*
X145747128Y-91243806D01*
X145710235Y-91206153D01*
X145679814Y-91157738D01*
X145552260Y-91030184D01*
X145509072Y-91003047D01*
X145399521Y-90934211D01*
X145229252Y-90874631D01*
X145229247Y-90874630D01*
X145050002Y-90854435D01*
X145049994Y-90854435D01*
X144870748Y-90874630D01*
X144870743Y-90874631D01*
X144700474Y-90934211D01*
X144547735Y-91030184D01*
X144420182Y-91157737D01*
X144324209Y-91310476D01*
X144264629Y-91480745D01*
X144264628Y-91480750D01*
X144244433Y-91659996D01*
X140638935Y-91659996D01*
X140599816Y-91597738D01*
X140472262Y-91470184D01*
X140454601Y-91459087D01*
X140319523Y-91374211D01*
X140149254Y-91314631D01*
X140149249Y-91314630D01*
X139970004Y-91294435D01*
X139969996Y-91294435D01*
X139790750Y-91314630D01*
X139790745Y-91314631D01*
X139620476Y-91374211D01*
X139467737Y-91470184D01*
X139340184Y-91597737D01*
X139244211Y-91750476D01*
X139184631Y-91920745D01*
X139184630Y-91920750D01*
X139164435Y-92099996D01*
X136842074Y-92099996D01*
X136832262Y-92090184D01*
X136803669Y-92072218D01*
X136679523Y-91994211D01*
X136509254Y-91934631D01*
X136509249Y-91934630D01*
X136330004Y-91914435D01*
X136329996Y-91914435D01*
X136150750Y-91934630D01*
X136150745Y-91934631D01*
X135980476Y-91994211D01*
X135827737Y-92090184D01*
X135700184Y-92217737D01*
X135604211Y-92370476D01*
X135544631Y-92540745D01*
X135544630Y-92540750D01*
X135524435Y-92719996D01*
X129381112Y-92719996D01*
X129395368Y-92679255D01*
X129395369Y-92679249D01*
X129415565Y-92500003D01*
X129415565Y-92499996D01*
X129395369Y-92320750D01*
X129395368Y-92320745D01*
X129380848Y-92279249D01*
X129335789Y-92150478D01*
X129316166Y-92119249D01*
X129286615Y-92072218D01*
X129239816Y-91997738D01*
X129112262Y-91870184D01*
X129063039Y-91839255D01*
X128959523Y-91774211D01*
X128789254Y-91714631D01*
X128789249Y-91714630D01*
X128610004Y-91694435D01*
X128609996Y-91694435D01*
X128430750Y-91714630D01*
X128430745Y-91714631D01*
X128260476Y-91774211D01*
X128107737Y-91870184D01*
X127980184Y-91997737D01*
X127884211Y-92150476D01*
X127824631Y-92320745D01*
X127824630Y-92320750D01*
X127804435Y-92499996D01*
X125973102Y-92499996D01*
X125953987Y-92445369D01*
X125925789Y-92364784D01*
X125922483Y-92359523D01*
X125877727Y-92288294D01*
X125829816Y-92212044D01*
X125702262Y-92084490D01*
X125682731Y-92072218D01*
X125549523Y-91988517D01*
X125379254Y-91928937D01*
X125379249Y-91928936D01*
X125200004Y-91908741D01*
X125199996Y-91908741D01*
X125043448Y-91926379D01*
X124974626Y-91914324D01*
X124923247Y-91866975D01*
X124908913Y-91815242D01*
X124906345Y-91815532D01*
X124885369Y-91629362D01*
X124885368Y-91629357D01*
X124825788Y-91459087D01*
X124823846Y-91455055D01*
X124811564Y-91401554D01*
X124800579Y-86897716D01*
X124820100Y-86830632D01*
X124872793Y-86784749D01*
X124941927Y-86774636D01*
X124995286Y-86795552D01*
X127813459Y-88751695D01*
X129865118Y-90175788D01*
X129899999Y-90199999D01*
X129900000Y-90200000D01*
X132063338Y-89354839D01*
X132132939Y-89348780D01*
X132194772Y-89381314D01*
X132229200Y-89442113D01*
X132231675Y-89456455D01*
X132242130Y-89549250D01*
X132242131Y-89549254D01*
X132301711Y-89719523D01*
X132333544Y-89770184D01*
X132397684Y-89872262D01*
X132525238Y-89999816D01*
X132571439Y-90028846D01*
X132652555Y-90079815D01*
X132677978Y-90095789D01*
X132714653Y-90108622D01*
X132848245Y-90155368D01*
X132848250Y-90155369D01*
X133027496Y-90175565D01*
X133027500Y-90175565D01*
X133027504Y-90175565D01*
X133206749Y-90155369D01*
X133206752Y-90155368D01*
X133206755Y-90155368D01*
X133377022Y-90095789D01*
X133529762Y-89999816D01*
X133657316Y-89872262D01*
X133753289Y-89719522D01*
X133812868Y-89549255D01*
X133820411Y-89482311D01*
X133833065Y-89370003D01*
X133833065Y-89369996D01*
X133812869Y-89190750D01*
X133812868Y-89190745D01*
X133789445Y-89123807D01*
X133753289Y-89020478D01*
X133668643Y-88885765D01*
X133649644Y-88818531D01*
X133670012Y-88751695D01*
X133723279Y-88706481D01*
X133728460Y-88704319D01*
X135851274Y-87874990D01*
X135920874Y-87868931D01*
X135982707Y-87901465D01*
X136013430Y-87949533D01*
X136036608Y-88015773D01*
X136061894Y-88088036D01*
X136117990Y-88177312D01*
X136157868Y-88240777D01*
X136285422Y-88368331D01*
X136438162Y-88464304D01*
X136556079Y-88505565D01*
X136608429Y-88523883D01*
X136608434Y-88523884D01*
X136787680Y-88544080D01*
X136787684Y-88544080D01*
X136787688Y-88544080D01*
X136966933Y-88523884D01*
X136966936Y-88523883D01*
X136966939Y-88523883D01*
X137137206Y-88464304D01*
X137289946Y-88368331D01*
X137417500Y-88240777D01*
X137513473Y-88088037D01*
X137573052Y-87917770D01*
X137573566Y-87913208D01*
X137593249Y-87738518D01*
X137593249Y-87738511D01*
X137573053Y-87559265D01*
X137573052Y-87559260D01*
X137557397Y-87514522D01*
X137513473Y-87388993D01*
X137510799Y-87384738D01*
X137491798Y-87317503D01*
X137512164Y-87250667D01*
X137565430Y-87205452D01*
X137570598Y-87203295D01*
X141440029Y-85691607D01*
X141509633Y-85685548D01*
X141571466Y-85718082D01*
X141605894Y-85778881D01*
X141601986Y-85848641D01*
X141590143Y-85873078D01*
X141579212Y-85890474D01*
X141519631Y-86060745D01*
X141519630Y-86060750D01*
X141499435Y-86239996D01*
X141499435Y-86240003D01*
X141519630Y-86419249D01*
X141519631Y-86419254D01*
X141579211Y-86589523D01*
X141675184Y-86742262D01*
X141807662Y-86874740D01*
X141806098Y-86876303D01*
X141840167Y-86924851D01*
X141843009Y-86994663D01*
X141807657Y-87054929D01*
X141788689Y-87069585D01*
X141787747Y-87070176D01*
X141787737Y-87070184D01*
X141660184Y-87197737D01*
X141564211Y-87350476D01*
X141504631Y-87520745D01*
X141504630Y-87520750D01*
X141484435Y-87699996D01*
X141484435Y-87700003D01*
X141504630Y-87879249D01*
X141504631Y-87879254D01*
X141564211Y-88049523D01*
X141621062Y-88140000D01*
X141660184Y-88202262D01*
X141787738Y-88329816D01*
X141940478Y-88425789D01*
X142050545Y-88464303D01*
X142110745Y-88485368D01*
X142110750Y-88485369D01*
X142289996Y-88505565D01*
X142290000Y-88505565D01*
X142290004Y-88505565D01*
X142469249Y-88485369D01*
X142469252Y-88485368D01*
X142469255Y-88485368D01*
X142639522Y-88425789D01*
X142792262Y-88329816D01*
X142919816Y-88202262D01*
X143015789Y-88049522D01*
X143075368Y-87879255D01*
X143075849Y-87874990D01*
X143095565Y-87700003D01*
X143095565Y-87699996D01*
X143075369Y-87520750D01*
X143075368Y-87520745D01*
X143071673Y-87510184D01*
X143015789Y-87350478D01*
X143014354Y-87348195D01*
X142971501Y-87279994D01*
X144824435Y-87279994D01*
X144824435Y-87280001D01*
X144844630Y-87459247D01*
X144844631Y-87459252D01*
X144904211Y-87629521D01*
X144972697Y-87738515D01*
X145000184Y-87782260D01*
X145127738Y-87909814D01*
X145280478Y-88005787D01*
X145413931Y-88052484D01*
X145470707Y-88093206D01*
X145496197Y-88155643D01*
X145514630Y-88319249D01*
X145514631Y-88319254D01*
X145574211Y-88489523D01*
X145670184Y-88642262D01*
X145670185Y-88642263D01*
X145710241Y-88682320D01*
X145743726Y-88743643D01*
X145738740Y-88813335D01*
X145710241Y-88857681D01*
X145620183Y-88947739D01*
X145524211Y-89100476D01*
X145464631Y-89270745D01*
X145464630Y-89270750D01*
X145444435Y-89449996D01*
X145444435Y-89450003D01*
X145464630Y-89629249D01*
X145464631Y-89629254D01*
X145524211Y-89799523D01*
X145585924Y-89897738D01*
X145620184Y-89952262D01*
X145747738Y-90079816D01*
X145838080Y-90136582D01*
X145900121Y-90175565D01*
X145900478Y-90175789D01*
X146028955Y-90220745D01*
X146070745Y-90235368D01*
X146070750Y-90235369D01*
X146249996Y-90255565D01*
X146250000Y-90255565D01*
X146250004Y-90255565D01*
X146429249Y-90235369D01*
X146429252Y-90235368D01*
X146429255Y-90235368D01*
X146599522Y-90175789D01*
X146752262Y-90079816D01*
X146879816Y-89952262D01*
X146975789Y-89799522D01*
X147035368Y-89629255D01*
X147037016Y-89614632D01*
X147055565Y-89450003D01*
X147055565Y-89449996D01*
X147035369Y-89270750D01*
X147035368Y-89270745D01*
X146975789Y-89100478D01*
X146879816Y-88947738D01*
X146839759Y-88907681D01*
X146806274Y-88846358D01*
X146811258Y-88776666D01*
X146839759Y-88732319D01*
X146874174Y-88697904D01*
X146929816Y-88642262D01*
X147025789Y-88489522D01*
X147085368Y-88319255D01*
X147085369Y-88319249D01*
X147105565Y-88140003D01*
X147105565Y-88139996D01*
X147085369Y-87960750D01*
X147085368Y-87960745D01*
X147053241Y-87868931D01*
X147025789Y-87790478D01*
X147020625Y-87782260D01*
X146968935Y-87699996D01*
X146929816Y-87637738D01*
X146802262Y-87510184D01*
X146747459Y-87475749D01*
X146649521Y-87414210D01*
X146565296Y-87384739D01*
X146516066Y-87367512D01*
X146459292Y-87326792D01*
X146433802Y-87264355D01*
X146433669Y-87263178D01*
X146425133Y-87187416D01*
X148042855Y-87187416D01*
X148042855Y-87187423D01*
X148063050Y-87366669D01*
X148063051Y-87366674D01*
X148122631Y-87536943D01*
X148218604Y-87689682D01*
X148346158Y-87817236D01*
X148348660Y-87818808D01*
X148480207Y-87901465D01*
X148498898Y-87913209D01*
X148662812Y-87970565D01*
X148669165Y-87972788D01*
X148669170Y-87972789D01*
X148848416Y-87992985D01*
X148848420Y-87992985D01*
X148860976Y-87991570D01*
X148929798Y-88003623D01*
X148981179Y-88050972D01*
X148991902Y-88073832D01*
X149012242Y-88131962D01*
X149044210Y-88223321D01*
X149104486Y-88319249D01*
X149140184Y-88376062D01*
X149267738Y-88503616D01*
X149420478Y-88599589D01*
X149590739Y-88659166D01*
X149590745Y-88659168D01*
X149590750Y-88659169D01*
X149769996Y-88679365D01*
X149770000Y-88679365D01*
X149770004Y-88679365D01*
X149949249Y-88659169D01*
X149949251Y-88659168D01*
X149949255Y-88659168D01*
X149949258Y-88659166D01*
X149949262Y-88659166D01*
X150047973Y-88624625D01*
X150105393Y-88604532D01*
X150175170Y-88600970D01*
X150223658Y-88624625D01*
X150227734Y-88627875D01*
X150227738Y-88627879D01*
X150314380Y-88682320D01*
X150363049Y-88712901D01*
X150380478Y-88723852D01*
X150460049Y-88751695D01*
X150550745Y-88783431D01*
X150550750Y-88783432D01*
X150729996Y-88803628D01*
X150730000Y-88803628D01*
X150730004Y-88803628D01*
X150909249Y-88783432D01*
X150909252Y-88783431D01*
X150909255Y-88783431D01*
X151079522Y-88723852D01*
X151232262Y-88627879D01*
X151359816Y-88500325D01*
X151455789Y-88347585D01*
X151515368Y-88177318D01*
X151515369Y-88177312D01*
X151535565Y-87998067D01*
X160866152Y-87998067D01*
X160866152Y-87998074D01*
X160886347Y-88177320D01*
X160886348Y-88177325D01*
X160945928Y-88347594D01*
X160963816Y-88376062D01*
X161041901Y-88500333D01*
X161169455Y-88627887D01*
X161251382Y-88679365D01*
X161322180Y-88723851D01*
X161322195Y-88723860D01*
X161378732Y-88743643D01*
X161492462Y-88783439D01*
X161492467Y-88783440D01*
X161671713Y-88803636D01*
X161671717Y-88803636D01*
X161671721Y-88803636D01*
X161850966Y-88783440D01*
X161850968Y-88783439D01*
X161850972Y-88783439D01*
X161850975Y-88783437D01*
X161850979Y-88783437D01*
X162027812Y-88721560D01*
X162028301Y-88722958D01*
X162089352Y-88712901D01*
X162115176Y-88718933D01*
X162242188Y-88763377D01*
X162242194Y-88763378D01*
X162242196Y-88763379D01*
X162242197Y-88763379D01*
X162242201Y-88763380D01*
X162421447Y-88783576D01*
X162421451Y-88783576D01*
X162421455Y-88783576D01*
X162600700Y-88763380D01*
X162600703Y-88763379D01*
X162600706Y-88763379D01*
X162770973Y-88703800D01*
X162923713Y-88607827D01*
X163051267Y-88480273D01*
X163147240Y-88327533D01*
X163206819Y-88157266D01*
X163208764Y-88140003D01*
X163227016Y-87978014D01*
X163227016Y-87978007D01*
X163206820Y-87798761D01*
X163206819Y-87798756D01*
X163154259Y-87648549D01*
X163147240Y-87628489D01*
X163051267Y-87475749D01*
X162923713Y-87348195D01*
X162917443Y-87344255D01*
X162770974Y-87252222D01*
X162600705Y-87192642D01*
X162600700Y-87192641D01*
X162421455Y-87172446D01*
X162421447Y-87172446D01*
X162242201Y-87192641D01*
X162242188Y-87192644D01*
X162065357Y-87254521D01*
X162064869Y-87253126D01*
X162003798Y-87263178D01*
X161977991Y-87257148D01*
X161850979Y-87212704D01*
X161850966Y-87212701D01*
X161671721Y-87192506D01*
X161671713Y-87192506D01*
X161492467Y-87212701D01*
X161492462Y-87212702D01*
X161322193Y-87272282D01*
X161169454Y-87368255D01*
X161041901Y-87495808D01*
X160945928Y-87648547D01*
X160886348Y-87818816D01*
X160886347Y-87818821D01*
X160866152Y-87998067D01*
X151535565Y-87998067D01*
X151535565Y-87998066D01*
X151535565Y-87998059D01*
X151515369Y-87818813D01*
X151515368Y-87818808D01*
X151508353Y-87798761D01*
X151455789Y-87648541D01*
X151449000Y-87637737D01*
X151385667Y-87536943D01*
X151359816Y-87495801D01*
X151232262Y-87368247D01*
X151201368Y-87348835D01*
X151079523Y-87272274D01*
X150934421Y-87221501D01*
X150877645Y-87180779D01*
X150852156Y-87118342D01*
X150837352Y-86986950D01*
X150837351Y-86986945D01*
X150801702Y-86885066D01*
X150777772Y-86816678D01*
X150753302Y-86777735D01*
X150695132Y-86685157D01*
X150681799Y-86663938D01*
X150554245Y-86536384D01*
X150548740Y-86532925D01*
X150401506Y-86440411D01*
X150231237Y-86380831D01*
X150231232Y-86380830D01*
X150051987Y-86360635D01*
X150051979Y-86360635D01*
X149872733Y-86380830D01*
X149872728Y-86380831D01*
X149702459Y-86440411D01*
X149549717Y-86536386D01*
X149549715Y-86536387D01*
X149527268Y-86558834D01*
X149465944Y-86592317D01*
X149396252Y-86587330D01*
X149356338Y-86561677D01*
X149356125Y-86561945D01*
X149353512Y-86559861D01*
X149351909Y-86558831D01*
X149350682Y-86557604D01*
X149197943Y-86461631D01*
X149027674Y-86402051D01*
X149027669Y-86402050D01*
X148848424Y-86381855D01*
X148848416Y-86381855D01*
X148669170Y-86402050D01*
X148669165Y-86402051D01*
X148498896Y-86461631D01*
X148346157Y-86557604D01*
X148218604Y-86685157D01*
X148122631Y-86837896D01*
X148063051Y-87008165D01*
X148063050Y-87008170D01*
X148042855Y-87187416D01*
X146425133Y-87187416D01*
X146415369Y-87100748D01*
X146415369Y-87100747D01*
X146415368Y-87100743D01*
X146382975Y-87008170D01*
X146355789Y-86930476D01*
X146259816Y-86777736D01*
X146146020Y-86663940D01*
X146112535Y-86602617D01*
X146117519Y-86532925D01*
X146159391Y-86476992D01*
X146224855Y-86452575D01*
X146247579Y-86453038D01*
X146270000Y-86455565D01*
X146270001Y-86455564D01*
X146270002Y-86455565D01*
X146270004Y-86455565D01*
X146449249Y-86435369D01*
X146449252Y-86435368D01*
X146449255Y-86435368D01*
X146619522Y-86375789D01*
X146772262Y-86279816D01*
X146899816Y-86152262D01*
X146995789Y-85999522D01*
X147055368Y-85829255D01*
X147062662Y-85764522D01*
X147075565Y-85650003D01*
X147075565Y-85649996D01*
X147055369Y-85470750D01*
X147055368Y-85470745D01*
X147012856Y-85349254D01*
X146995789Y-85300478D01*
X146900888Y-85149444D01*
X149564416Y-85149444D01*
X149564416Y-85149451D01*
X149584611Y-85328697D01*
X149584612Y-85328702D01*
X149644192Y-85498971D01*
X149714072Y-85610184D01*
X149740165Y-85651710D01*
X149867719Y-85779264D01*
X149947270Y-85829249D01*
X150010424Y-85868932D01*
X150020459Y-85875237D01*
X150140560Y-85917262D01*
X150190726Y-85934816D01*
X150190731Y-85934817D01*
X150369977Y-85955013D01*
X150369981Y-85955013D01*
X150369985Y-85955013D01*
X150549230Y-85934817D01*
X150549233Y-85934816D01*
X150549236Y-85934816D01*
X150719503Y-85875237D01*
X150872243Y-85779264D01*
X150999797Y-85651710D01*
X151095770Y-85498970D01*
X151155349Y-85328703D01*
X151157931Y-85305789D01*
X151175546Y-85149451D01*
X151175546Y-85149444D01*
X151155350Y-84970198D01*
X151155349Y-84970193D01*
X151119125Y-84866670D01*
X151095770Y-84799926D01*
X150999797Y-84647186D01*
X150872243Y-84519632D01*
X150862220Y-84513334D01*
X150719504Y-84423659D01*
X150549235Y-84364079D01*
X150549230Y-84364078D01*
X150369985Y-84343883D01*
X150369977Y-84343883D01*
X150190731Y-84364078D01*
X150190726Y-84364079D01*
X150020457Y-84423659D01*
X149867718Y-84519632D01*
X149740165Y-84647185D01*
X149644192Y-84799924D01*
X149584612Y-84970193D01*
X149584611Y-84970198D01*
X149564416Y-85149444D01*
X146900888Y-85149444D01*
X146899816Y-85147738D01*
X146772262Y-85020184D01*
X146725410Y-84990745D01*
X146619523Y-84924211D01*
X146449254Y-84864631D01*
X146449249Y-84864630D01*
X146270004Y-84844435D01*
X146269996Y-84844435D01*
X146090750Y-84864630D01*
X146090745Y-84864631D01*
X145920476Y-84924211D01*
X145767737Y-85020184D01*
X145640184Y-85147737D01*
X145544211Y-85300476D01*
X145484631Y-85470745D01*
X145484630Y-85470750D01*
X145464435Y-85649996D01*
X145464435Y-85650003D01*
X145484630Y-85829249D01*
X145484631Y-85829254D01*
X145544211Y-85999523D01*
X145640184Y-86152262D01*
X145753979Y-86266057D01*
X145787464Y-86327380D01*
X145782480Y-86397072D01*
X145740608Y-86453005D01*
X145675144Y-86477422D01*
X145652415Y-86476958D01*
X145630004Y-86474433D01*
X145629996Y-86474433D01*
X145450750Y-86494628D01*
X145450745Y-86494629D01*
X145280476Y-86554209D01*
X145127737Y-86650182D01*
X145000184Y-86777735D01*
X144904211Y-86930474D01*
X144844631Y-87100743D01*
X144844630Y-87100748D01*
X144824435Y-87279994D01*
X142971501Y-87279994D01*
X142955495Y-87254521D01*
X142919816Y-87197738D01*
X142792262Y-87070184D01*
X142787338Y-87065260D01*
X142788900Y-87063697D01*
X142754831Y-87015142D01*
X142751992Y-86945330D01*
X142787346Y-86885066D01*
X142806316Y-86870410D01*
X142807262Y-86869816D01*
X142934816Y-86742262D01*
X143030789Y-86589522D01*
X143090368Y-86419255D01*
X143090369Y-86419249D01*
X143110565Y-86240003D01*
X143110565Y-86239996D01*
X143090369Y-86060750D01*
X143090368Y-86060745D01*
X143065464Y-85989573D01*
X143030789Y-85890478D01*
X143030786Y-85890474D01*
X142973822Y-85799816D01*
X142934816Y-85737738D01*
X142807262Y-85610184D01*
X142662976Y-85519523D01*
X142654519Y-85514209D01*
X142569582Y-85484488D01*
X142512806Y-85443767D01*
X142487059Y-85378814D01*
X142500515Y-85310252D01*
X142548903Y-85259850D01*
X142565406Y-85251952D01*
X145748240Y-84008500D01*
X145793362Y-84000000D01*
X154244406Y-84000000D01*
X154311445Y-84019685D01*
G37*
G04 #@! TD.AperFunction*
M02*
