G04 #@! TF.GenerationSoftware,KiCad,Pcbnew,8.0.6*
G04 #@! TF.CreationDate,2025-05-29T10:34:23-07:00*
G04 #@! TF.ProjectId,Drone PCB,44726f6e-6520-4504-9342-2e6b69636164,rev?*
G04 #@! TF.SameCoordinates,Original*
G04 #@! TF.FileFunction,Legend,Top*
G04 #@! TF.FilePolarity,Positive*
%FSLAX46Y46*%
G04 Gerber Fmt 4.6, Leading zero omitted, Abs format (unit mm)*
G04 Created by KiCad (PCBNEW 8.0.6) date 2025-05-29 10:34:23*
%MOMM*%
%LPD*%
G01*
G04 APERTURE LIST*
G04 Aperture macros list*
%AMRoundRect*
0 Rectangle with rounded corners*
0 $1 Rounding radius*
0 $2 $3 $4 $5 $6 $7 $8 $9 X,Y pos of 4 corners*
0 Add a 4 corners polygon primitive as box body*
4,1,4,$2,$3,$4,$5,$6,$7,$8,$9,$2,$3,0*
0 Add four circle primitives for the rounded corners*
1,1,$1+$1,$2,$3*
1,1,$1+$1,$4,$5*
1,1,$1+$1,$6,$7*
1,1,$1+$1,$8,$9*
0 Add four rect primitives between the rounded corners*
20,1,$1+$1,$2,$3,$4,$5,0*
20,1,$1+$1,$4,$5,$6,$7,0*
20,1,$1+$1,$6,$7,$8,$9,0*
20,1,$1+$1,$8,$9,$2,$3,0*%
%AMRotRect*
0 Rectangle, with rotation*
0 The origin of the aperture is its center*
0 $1 length*
0 $2 width*
0 $3 Rotation angle, in degrees counterclockwise*
0 Add horizontal line*
21,1,$1,$2,0,0,$3*%
G04 Aperture macros list end*
%ADD10C,0.100000*%
%ADD11C,0.000000*%
%ADD12C,0.120000*%
%ADD13C,0.300000*%
%ADD14RotRect,1.000000X2.450000X119.000000*%
%ADD15RotRect,1.000000X2.450000X29.000000*%
%ADD16RotRect,1.000000X2.450000X61.000000*%
%ADD17RotRect,1.000000X2.450000X151.000000*%
%ADD18C,1.000000*%
%ADD19RoundRect,0.225000X-0.118958X0.314601X-0.325350X-0.085276X0.118958X-0.314601X0.325350X0.085276X0*%
%ADD20RoundRect,0.200000X0.152640X-0.303852X0.336100X0.051595X-0.152640X0.303852X-0.336100X-0.051595X0*%
%ADD21RotRect,3.000000X3.000000X62.700000*%
%ADD22RoundRect,0.200000X0.303852X0.152640X-0.051595X0.336100X-0.303852X-0.152640X0.051595X-0.336100X0*%
%ADD23RoundRect,0.150000X0.136164X0.590860X-0.402749X-0.453265X-0.136164X-0.590860X0.402749X0.453265X0*%
%ADD24RoundRect,0.250000X0.404180X0.128990X-0.128990X0.404180X-0.404180X-0.128990X0.128990X-0.404180X0*%
%ADD25RoundRect,0.250000X-0.428540X0.586923X-0.726662X0.009322X0.428540X-0.586923X0.726662X-0.009322X0*%
%ADD26RoundRect,0.225000X-0.250000X0.225000X-0.250000X-0.225000X0.250000X-0.225000X0.250000X0.225000X0*%
%ADD27RoundRect,0.250000X0.428540X-0.586923X0.726662X-0.009322X-0.428540X0.586923X-0.726662X0.009322X0*%
%ADD28RoundRect,0.200000X-0.152640X0.303852X-0.336100X-0.051595X0.152640X-0.303852X0.336100X0.051595X0*%
%ADD29RoundRect,0.200000X-0.303852X-0.152640X0.051595X-0.336100X0.303852X0.152640X-0.051595X0.336100X0*%
%ADD30RoundRect,0.250000X-0.726218X-0.027073X-0.414072X-0.597218X0.726218X0.027073X0.414072X0.597218X0*%
%ADD31RoundRect,0.200000X0.200000X0.275000X-0.200000X0.275000X-0.200000X-0.275000X0.200000X-0.275000X0*%
%ADD32RoundRect,0.150000X0.413703X-0.443290X-0.150559X0.587357X-0.413703X0.443290X0.150559X-0.587357X0*%
%ADD33RoundRect,0.200000X-0.043368X-0.337260X0.307491X-0.145170X0.043368X0.337260X-0.307491X0.145170X0*%
%ADD34RoundRect,0.250000X-0.404180X-0.128990X0.128990X-0.404180X0.404180X0.128990X-0.128990X0.404180X0*%
%ADD35RoundRect,0.200000X-0.275000X0.200000X-0.275000X-0.200000X0.275000X-0.200000X0.275000X0.200000X0*%
%ADD36RotRect,3.000000X3.000000X242.700000*%
%ADD37RoundRect,0.200000X0.275000X-0.200000X0.275000X0.200000X-0.275000X0.200000X-0.275000X-0.200000X0*%
%ADD38RotRect,3.000000X3.000000X298.700000*%
%ADD39RoundRect,0.150000X-0.136164X-0.590860X0.402749X0.453265X0.136164X0.590860X-0.402749X-0.453265X0*%
%ADD40RoundRect,0.200000X0.043368X0.337260X-0.307491X0.145170X-0.043368X-0.337260X0.307491X-0.145170X0*%
%ADD41RotRect,3.000000X3.000000X208.700000*%
%ADD42C,0.900000*%
%ADD43RoundRect,0.250000X-0.733214X-0.776545X-0.041817X-1.067181X0.733214X0.776545X0.041817X1.067181X0*%
%ADD44RoundRect,0.250000X-0.119077X-0.407211X0.407211X-0.119077X0.119077X0.407211X-0.407211X0.119077X0*%
%ADD45RoundRect,0.050000X-0.050000X0.225000X-0.050000X-0.225000X0.050000X-0.225000X0.050000X0.225000X0*%
%ADD46RoundRect,0.050000X-0.225000X-0.050000X0.225000X-0.050000X0.225000X0.050000X-0.225000X0.050000X0*%
%ADD47RoundRect,0.225000X-0.225000X-0.250000X0.225000X-0.250000X0.225000X0.250000X-0.225000X0.250000X0*%
%ADD48RoundRect,0.225000X0.225000X0.250000X-0.225000X0.250000X-0.225000X-0.250000X0.225000X-0.250000X0*%
%ADD49RoundRect,0.225000X-0.327337X0.077302X-0.111236X-0.317414X0.327337X-0.077302X0.111236X0.317414X0*%
%ADD50R,1.700000X0.800000*%
%ADD51RoundRect,0.200000X0.337260X-0.043368X0.145170X0.307491X-0.337260X0.043368X-0.145170X-0.307491X0*%
%ADD52RoundRect,0.150000X-0.413703X0.443290X0.150559X-0.587357X0.413703X-0.443290X-0.150559X0.587357X0*%
%ADD53RoundRect,0.200000X-0.337260X0.043368X-0.145170X-0.307491X0.337260X-0.043368X0.145170X0.307491X0*%
%ADD54RoundRect,0.225000X0.250000X-0.225000X0.250000X0.225000X-0.250000X0.225000X-0.250000X-0.225000X0*%
%ADD55RoundRect,0.250000X0.726218X0.027073X0.414072X0.597218X-0.726218X-0.027073X-0.414072X-0.597218X0*%
%ADD56RoundRect,0.225000X0.327337X-0.077302X0.111236X0.317414X-0.327337X0.077302X-0.111236X-0.317414X0*%
%ADD57R,0.950000X0.550000*%
%ADD58RoundRect,0.150000X0.150000X-0.587500X0.150000X0.587500X-0.150000X0.587500X-0.150000X-0.587500X0*%
%ADD59RoundRect,0.150000X0.587500X0.150000X-0.587500X0.150000X-0.587500X-0.150000X0.587500X-0.150000X0*%
%ADD60RoundRect,0.225000X0.118958X-0.314601X0.325350X0.085276X-0.118958X0.314601X-0.325350X-0.085276X0*%
%ADD61RotRect,3.000000X3.000000X242.700000*%
%ADD62O,1.800000X1.000000*%
%ADD63O,2.100000X1.000000*%
%ADD64C,0.650000*%
%ADD65RoundRect,0.250000X0.119077X0.407211X-0.407211X0.119077X-0.119077X-0.407211X0.407211X-0.119077X0*%
%ADD66C,5.080000*%
%ADD67C,2.387600*%
%ADD68C,3.454400*%
%ADD69RoundRect,0.087500X0.087500X-0.225000X0.087500X0.225000X-0.087500X0.225000X-0.087500X-0.225000X0*%
%ADD70RoundRect,0.087500X0.225000X-0.087500X0.225000X0.087500X-0.225000X0.087500X-0.225000X-0.087500X0*%
G04 APERTURE END LIST*
D10*
X118060000Y-141050000D02*
X109435000Y-149275000D01*
X102110000Y-142050000D01*
X110410000Y-133350000D01*
X118060000Y-141050000D01*
G36*
X118060000Y-141050000D02*
G01*
X109435000Y-149275000D01*
X102110000Y-142050000D01*
X110410000Y-133350000D01*
X118060000Y-141050000D01*
G37*
X207795346Y-51689632D02*
X207795346Y-51714610D01*
X199298734Y-60211222D01*
X192086245Y-52998733D01*
X192086245Y-52973755D01*
X200570368Y-44489632D01*
X200595346Y-44489632D01*
X207795346Y-51689632D01*
G36*
X207795346Y-51689632D02*
G01*
X207795346Y-51714610D01*
X199298734Y-60211222D01*
X192086245Y-52998733D01*
X192086245Y-52973755D01*
X200570368Y-44489632D01*
X200595346Y-44489632D01*
X207795346Y-51689632D01*
G37*
X207635345Y-142095389D02*
X207635345Y-142120367D01*
X200435345Y-149320367D01*
X200410367Y-149320367D01*
X191913755Y-140823755D01*
X199126244Y-133611266D01*
X199151222Y-133611266D01*
X207635345Y-142095389D01*
G36*
X207635345Y-142095389D02*
G01*
X207635345Y-142120367D01*
X200435345Y-149320367D01*
X200410367Y-149320367D01*
X191913755Y-140823755D01*
X199126244Y-133611266D01*
X199151222Y-133611266D01*
X207635345Y-142095389D01*
G37*
X117856590Y-53046634D02*
X117856590Y-53071612D01*
X110656590Y-60271612D01*
X110631612Y-60271612D01*
X102135000Y-51775000D01*
X109347489Y-44562511D01*
X109372467Y-44562511D01*
X117856590Y-53046634D01*
G36*
X117856590Y-53046634D02*
G01*
X117856590Y-53071612D01*
X110656590Y-60271612D01*
X110631612Y-60271612D01*
X102135000Y-51775000D01*
X109347489Y-44562511D01*
X109372467Y-44562511D01*
X117856590Y-53046634D01*
G37*
D11*
G36*
X175524754Y-109897892D02*
G01*
X174940597Y-112963036D01*
X170290024Y-114927515D01*
X169728235Y-115164824D01*
X168560011Y-115658301D01*
X167939934Y-115920232D01*
X165335246Y-114202108D01*
X165625198Y-112680695D01*
X167302221Y-112680695D01*
X167462522Y-113060182D01*
X167834568Y-112903023D01*
X167929313Y-113345277D01*
X167635396Y-113469432D01*
X167795698Y-113848919D01*
X168018926Y-113754624D01*
X168151484Y-114369430D01*
X168530971Y-114209128D01*
X168394692Y-113595894D01*
X168692328Y-113470168D01*
X168824888Y-114084973D01*
X169204374Y-113924672D01*
X169071815Y-113309866D01*
X169525711Y-113118133D01*
X169365409Y-112738646D01*
X168982203Y-112900519D01*
X168887458Y-112458265D01*
X169192535Y-112329396D01*
X169032234Y-111949909D01*
X168801565Y-112047347D01*
X168670579Y-111436261D01*
X168291092Y-111596563D01*
X168422079Y-112207648D01*
X168124442Y-112333375D01*
X167997175Y-111720718D01*
X167617689Y-111881020D01*
X167748676Y-112492105D01*
X167302221Y-112680695D01*
X165625198Y-112680695D01*
X165919403Y-111136964D01*
X166539479Y-110875033D01*
X168269492Y-110144247D01*
X172920066Y-108179768D01*
X175524754Y-109897892D01*
G37*
G36*
X168606436Y-113059249D02*
G01*
X168308800Y-113184976D01*
X168214055Y-112742722D01*
X168507971Y-112618567D01*
X168606436Y-113059249D01*
G37*
G36*
X159432375Y-114000679D02*
G01*
X159432375Y-114471761D01*
X159432375Y-115315057D01*
X159432375Y-116122811D01*
X158160000Y-116971061D01*
X156887625Y-116122811D01*
X156887625Y-115315057D01*
X156887625Y-115004879D01*
X157547399Y-115004879D01*
X157549338Y-115072730D01*
X157554184Y-115154152D01*
X157563877Y-115238481D01*
X157578417Y-115315057D01*
X158760969Y-115315057D01*
X158760969Y-115076607D01*
X158318966Y-115076607D01*
X158318966Y-114952536D01*
X158428740Y-114886866D01*
X158537060Y-114825557D01*
X158646834Y-114770065D01*
X158760969Y-114721842D01*
X158760969Y-114471761D01*
X158633990Y-114527011D01*
X158500226Y-114593893D01*
X158372278Y-114665622D01*
X158260808Y-114735412D01*
X158206042Y-114650598D01*
X158130921Y-114593893D01*
X158040775Y-114561906D01*
X157940937Y-114551244D01*
X157846672Y-114559241D01*
X157765493Y-114583231D01*
X157642391Y-114675315D01*
X157600226Y-114741228D01*
X157570662Y-114818772D01*
X157553215Y-114906979D01*
X157547399Y-115004879D01*
X156887625Y-115004879D01*
X156887625Y-113944459D01*
X157533829Y-113944459D01*
X157544383Y-114063253D01*
X157576047Y-114163737D01*
X157628821Y-114245913D01*
X157742229Y-114328061D01*
X157892472Y-114355444D01*
X158034960Y-114324426D01*
X158130921Y-114245913D01*
X158194895Y-114140258D01*
X158239483Y-114027819D01*
X158273409Y-113946397D01*
X158314120Y-113872730D01*
X158365493Y-113818449D01*
X158431405Y-113797124D01*
X158488595Y-113805848D01*
X158538998Y-113837835D01*
X158573893Y-113900840D01*
X158586494Y-114000679D01*
X158579709Y-114097367D01*
X158559354Y-114178061D01*
X158501195Y-114303102D01*
X158695057Y-114372892D01*
X158754184Y-114239128D01*
X158778174Y-114134927D01*
X158786171Y-114000679D01*
X158775940Y-113864653D01*
X158745245Y-113753829D01*
X158694087Y-113668207D01*
X158582859Y-113586058D01*
X158433344Y-113558675D01*
X158342956Y-113566914D01*
X158269532Y-113591632D01*
X158160969Y-113675961D01*
X158091179Y-113788401D01*
X158043683Y-113905687D01*
X158014604Y-113980323D01*
X157978740Y-114048174D01*
X157932213Y-114097609D01*
X157871147Y-114116995D01*
X157794680Y-114095886D01*
X157748799Y-114032558D01*
X157733506Y-113927011D01*
X157752892Y-113790339D01*
X157799418Y-113682746D01*
X157615250Y-113612956D01*
X157559031Y-113751567D01*
X157540129Y-113840985D01*
X157533829Y-113944459D01*
X156887625Y-113944459D01*
X156887625Y-112560291D01*
X157560969Y-112560291D01*
X157560969Y-113432666D01*
X157758708Y-113432666D01*
X157758708Y-113116672D01*
X158760969Y-113116672D01*
X158760969Y-112876284D01*
X157758708Y-112876284D01*
X157758708Y-112560291D01*
X157560969Y-112560291D01*
X156887625Y-112560291D01*
X156887625Y-112237189D01*
X158160000Y-111388939D01*
X159432375Y-112237189D01*
X159432375Y-112560291D01*
X159432375Y-112876284D01*
X159432375Y-114000679D01*
G37*
G36*
X158073732Y-114847851D02*
G01*
X158109354Y-114919095D01*
X158121228Y-115024265D01*
X158121228Y-115076607D01*
X157760646Y-115076607D01*
X157755800Y-115037835D01*
X157754830Y-115004879D01*
X157765977Y-114919095D01*
X157799418Y-114851729D01*
X157856607Y-114808110D01*
X157938998Y-114793570D01*
X158073732Y-114847851D01*
G37*
G36*
X152722375Y-113394911D02*
G01*
X152722375Y-113959047D01*
X152722375Y-115533199D01*
X152722375Y-115771648D01*
X152722375Y-116579402D01*
X151450000Y-117427652D01*
X150177625Y-116579402D01*
X150177625Y-115771648D01*
X150177625Y-115442084D01*
X150837399Y-115442084D01*
X150839338Y-115517690D01*
X150844184Y-115604927D01*
X150852908Y-115693134D01*
X150866478Y-115771648D01*
X152050969Y-115771648D01*
X152050969Y-115533199D01*
X151645800Y-115533199D01*
X151645800Y-115447900D01*
X151635137Y-115304550D01*
X151603150Y-115184680D01*
X151549838Y-115088288D01*
X151472617Y-115017744D01*
X151368901Y-114975417D01*
X151238691Y-114961309D01*
X151109774Y-114975310D01*
X151007351Y-115017313D01*
X150931422Y-115087318D01*
X150879187Y-115182741D01*
X150847846Y-115300996D01*
X150837399Y-115442084D01*
X150177625Y-115442084D01*
X150177625Y-114492165D01*
X150837399Y-114492165D01*
X150839338Y-114560016D01*
X150844184Y-114641438D01*
X150853877Y-114725767D01*
X150868417Y-114802342D01*
X152050969Y-114802342D01*
X152050969Y-114563893D01*
X151608966Y-114563893D01*
X151608966Y-114439822D01*
X151718740Y-114374152D01*
X151827060Y-114312843D01*
X151936834Y-114257351D01*
X152050969Y-114209128D01*
X152050969Y-113959047D01*
X151923990Y-114014297D01*
X151790226Y-114081179D01*
X151662278Y-114152908D01*
X151550808Y-114222698D01*
X151496042Y-114137884D01*
X151420921Y-114081179D01*
X151330775Y-114049192D01*
X151230937Y-114038530D01*
X151136672Y-114046527D01*
X151055493Y-114070517D01*
X150932391Y-114162601D01*
X150890226Y-114228514D01*
X150860662Y-114306058D01*
X150843215Y-114394265D01*
X150837399Y-114492165D01*
X150177625Y-114492165D01*
X150177625Y-113365832D01*
X150823829Y-113365832D01*
X150833764Y-113471002D01*
X150863570Y-113569386D01*
X150913247Y-113658078D01*
X150982795Y-113734168D01*
X151071729Y-113796688D01*
X151179564Y-113844669D01*
X151305816Y-113875202D01*
X151450000Y-113885380D01*
X151595638Y-113876656D01*
X151722375Y-113850485D01*
X151829968Y-113808320D01*
X151918174Y-113751616D01*
X151986995Y-113681099D01*
X152036430Y-113597496D01*
X152066236Y-113501777D01*
X152076171Y-113394911D01*
X152071325Y-113276414D01*
X152056785Y-113176817D01*
X152021890Y-113044023D01*
X151422859Y-113044023D01*
X151422859Y-113282472D01*
X151860985Y-113282472D01*
X151866801Y-113328998D01*
X151868740Y-113375525D01*
X151843296Y-113491357D01*
X151766963Y-113575202D01*
X151686511Y-113612897D01*
X151580856Y-113635514D01*
X151450000Y-113643053D01*
X151361066Y-113638934D01*
X151280372Y-113626575D01*
X151148546Y-113572294D01*
X151062278Y-113476333D01*
X151031260Y-113332876D01*
X151052585Y-113204927D01*
X151101050Y-113100242D01*
X150911066Y-113038207D01*
X150887803Y-113077948D01*
X150858724Y-113144830D01*
X150834491Y-113240792D01*
X150823829Y-113365832D01*
X150177625Y-113365832D01*
X150177625Y-112115428D01*
X150850969Y-112115428D01*
X150850969Y-112313166D01*
X150953716Y-112348061D01*
X151086511Y-112390711D01*
X151233845Y-112439176D01*
X151382149Y-112487641D01*
X151242569Y-112532229D01*
X151093296Y-112578756D01*
X150955654Y-112622375D01*
X150850969Y-112656300D01*
X150850969Y-112854039D01*
X150982310Y-112866882D01*
X151124313Y-112878271D01*
X151274071Y-112888207D01*
X151428675Y-112896688D01*
X151586187Y-112904200D01*
X151744669Y-112911228D01*
X151900727Y-112917771D01*
X152050969Y-112923829D01*
X152050969Y-112704766D01*
X151118498Y-112714459D01*
X151626414Y-112572940D01*
X151626414Y-112398465D01*
X151118498Y-112251131D01*
X152050969Y-112262763D01*
X152050969Y-112043700D01*
X151897577Y-112048061D01*
X151747577Y-112053393D01*
X151599758Y-112059935D01*
X151452908Y-112067932D01*
X151305816Y-112077625D01*
X151157270Y-112089257D01*
X151006058Y-112102100D01*
X150850969Y-112115428D01*
X150177625Y-112115428D01*
X150177625Y-112043700D01*
X150177625Y-111720598D01*
X151450000Y-110872348D01*
X152722375Y-111720598D01*
X152722375Y-112043700D01*
X152722375Y-113394911D01*
G37*
G36*
X151331018Y-115220113D02*
G01*
X151392811Y-115263732D01*
X151426979Y-115335945D01*
X151438368Y-115436268D01*
X151438368Y-115533199D01*
X151050646Y-115533199D01*
X151045800Y-115474071D01*
X151044830Y-115414943D01*
X151055735Y-115329402D01*
X151088449Y-115262763D01*
X151147334Y-115219871D01*
X151236753Y-115205574D01*
X151331018Y-115220113D01*
G37*
G36*
X151363732Y-114335137D02*
G01*
X151399354Y-114406381D01*
X151411228Y-114511551D01*
X151411228Y-114563893D01*
X151050646Y-114563893D01*
X151045800Y-114525121D01*
X151044830Y-114492165D01*
X151055977Y-114406381D01*
X151089418Y-114339015D01*
X151146607Y-114295396D01*
X151228998Y-114280856D01*
X151363732Y-114335137D01*
G37*
G36*
X136747470Y-110302557D02*
G01*
X138402924Y-111001848D01*
X138700561Y-111127575D01*
X138986845Y-112629743D01*
X137710338Y-113471761D01*
X137412701Y-113346035D01*
X137235906Y-113271353D01*
X136157270Y-112815720D01*
X135757246Y-112646743D01*
X135219918Y-112419767D01*
X136945347Y-112419767D01*
X137143573Y-112503501D01*
X137453615Y-111769529D01*
X137468231Y-111920094D01*
X137479953Y-112069201D01*
X137488784Y-112216854D01*
X137494638Y-112363250D01*
X137497432Y-112508586D01*
X137497166Y-112652864D01*
X137673961Y-112727545D01*
X138140910Y-111622123D01*
X137942685Y-111538389D01*
X137655274Y-112218787D01*
X137653219Y-112135844D01*
X137649885Y-112039735D01*
X137644694Y-111934948D01*
X137637062Y-111825975D01*
X137627635Y-111714402D01*
X137617057Y-111601816D01*
X137604489Y-111492073D01*
X137589092Y-111389026D01*
X137412296Y-111314344D01*
X136945347Y-112419767D01*
X135219918Y-112419767D01*
X135013155Y-112332427D01*
X135217451Y-111848791D01*
X136162381Y-111848791D01*
X136172865Y-111949301D01*
X136217385Y-112063392D01*
X136296004Y-112153775D01*
X136408724Y-112220446D01*
X136532228Y-112253560D01*
X136650346Y-112246283D01*
X136763078Y-112198617D01*
X136842835Y-112136226D01*
X136917047Y-112050840D01*
X136985712Y-111942464D01*
X137048834Y-111811095D01*
X137099119Y-111674303D01*
X137129280Y-111549661D01*
X137139313Y-111437166D01*
X137129220Y-111336821D01*
X137085197Y-111222939D01*
X137006875Y-111132682D01*
X136894255Y-111066053D01*
X136771543Y-111033274D01*
X136653425Y-111040551D01*
X136539899Y-111087882D01*
X136459362Y-111149943D01*
X136384592Y-111235093D01*
X136315591Y-111343327D01*
X136252358Y-111474650D01*
X136202128Y-111611465D01*
X136172136Y-111736178D01*
X136162381Y-111848791D01*
X135217451Y-111848791D01*
X136003378Y-109988240D01*
X136747470Y-110302557D01*
G37*
G36*
X136813538Y-111257135D02*
G01*
X136891791Y-111325966D01*
X136909772Y-111430368D01*
X136883099Y-111563257D01*
X136856953Y-111638233D01*
X136825606Y-111716799D01*
X136791229Y-111793823D01*
X136755990Y-111864168D01*
X136679315Y-111975936D01*
X136590662Y-112036346D01*
X136487655Y-112028610D01*
X136409401Y-111959778D01*
X136391420Y-111855376D01*
X136418093Y-111722487D01*
X136444239Y-111647512D01*
X136475586Y-111568945D01*
X136509963Y-111491922D01*
X136545202Y-111421577D01*
X136621877Y-111309809D01*
X136709637Y-111249021D01*
X136813538Y-111257135D01*
G37*
G36*
X122909906Y-123198935D02*
G01*
X123045942Y-123273412D01*
X122825613Y-123675851D01*
X122744438Y-123642460D01*
X122660698Y-123600297D01*
X122571053Y-123542008D01*
X122507215Y-123470223D01*
X122485951Y-123381227D01*
X122521194Y-123269756D01*
X122676879Y-123146869D01*
X122909906Y-123198935D01*
G37*
G36*
X123182245Y-122351634D02*
G01*
X123303873Y-122405331D01*
X123388760Y-122455489D01*
X123464877Y-122508212D01*
X123204206Y-122984336D01*
X123017157Y-122881930D01*
X122830607Y-122707967D01*
X122849914Y-122480949D01*
X122947302Y-122370349D01*
X123061464Y-122333395D01*
X123182245Y-122351634D01*
G37*
G36*
X121935228Y-120034027D02*
G01*
X124015439Y-121172909D01*
X124502900Y-121439786D01*
X124975246Y-121698388D01*
X125194911Y-124214191D01*
X122957117Y-125384575D01*
X122484772Y-125125973D01*
X119917100Y-123720214D01*
X119444754Y-123461612D01*
X119419018Y-123166861D01*
X121196195Y-123166861D01*
X121547620Y-123359261D01*
X121580751Y-123298746D01*
X122096448Y-123298746D01*
X122111347Y-123500290D01*
X122247937Y-123715046D01*
X122374185Y-123824223D01*
X122548523Y-123933024D01*
X122790734Y-124049054D01*
X123025250Y-124138770D01*
X123957767Y-122435491D01*
X123847413Y-122346066D01*
X123732150Y-122262241D01*
X123614813Y-122185569D01*
X123498236Y-122117601D01*
X123354618Y-122047721D01*
X123212841Y-121996346D01*
X123075444Y-121968089D01*
X122944965Y-121967562D01*
X122705914Y-122057699D01*
X122600167Y-122154973D01*
X122506992Y-122293204D01*
X122457765Y-122420963D01*
X122443526Y-122560509D01*
X122481682Y-122710324D01*
X122589640Y-122868885D01*
X122342893Y-122932707D01*
X122240560Y-123011131D01*
X122160935Y-123120406D01*
X122096448Y-123298746D01*
X121580751Y-123298746D01*
X122508067Y-121604968D01*
X121405612Y-121001392D01*
X121247348Y-121290467D01*
X121998378Y-121701644D01*
X121196195Y-123166861D01*
X119419018Y-123166861D01*
X119225089Y-120945809D01*
X121462883Y-119775425D01*
X121935228Y-120034027D01*
G37*
G36*
X188493483Y-71042923D02*
G01*
X188542438Y-71067883D01*
X188658924Y-71152838D01*
X188730643Y-71255645D01*
X188748637Y-71374161D01*
X188703949Y-71506246D01*
X188516758Y-71659769D01*
X188384095Y-71654824D01*
X188220842Y-71588008D01*
X188144323Y-71546114D01*
X188432923Y-71018976D01*
X188493483Y-71042923D01*
G37*
G36*
X187380681Y-68809848D02*
G01*
X190005034Y-70246639D01*
X190477380Y-70505241D01*
X190695694Y-73005569D01*
X188471665Y-74168754D01*
X187999319Y-73910152D01*
X185374966Y-72473361D01*
X185040984Y-72290511D01*
X187283699Y-72290511D01*
X187632291Y-72481359D01*
X187986058Y-71835190D01*
X188167439Y-71934493D01*
X188175584Y-72147533D01*
X188178514Y-72354956D01*
X188171780Y-72559850D01*
X188150927Y-72765304D01*
X188516522Y-72965461D01*
X188537382Y-72735608D01*
X188546667Y-72486527D01*
X188544213Y-72242067D01*
X188531404Y-72023251D01*
X188699228Y-72011071D01*
X188842249Y-71946635D01*
X188961162Y-71840452D01*
X189056656Y-71703031D01*
X189120414Y-71558825D01*
X189150316Y-71420946D01*
X189114224Y-71167280D01*
X189051613Y-71052885D01*
X188961912Y-70947601D01*
X188846927Y-70851496D01*
X188708460Y-70764637D01*
X188607716Y-70713165D01*
X188484806Y-70655083D01*
X188353766Y-70601758D01*
X188230182Y-70561725D01*
X187283699Y-72290511D01*
X185040984Y-72290511D01*
X184902620Y-72214759D01*
X184842715Y-71528670D01*
X185892169Y-71528670D01*
X186240760Y-71719518D01*
X186651937Y-70968488D01*
X187286770Y-71316049D01*
X187445034Y-71026973D01*
X186810202Y-70679412D01*
X187042943Y-70254301D01*
X187768467Y-70651513D01*
X187926731Y-70362438D01*
X186852616Y-69774378D01*
X185892169Y-71528670D01*
X184842715Y-71528670D01*
X184684306Y-69714431D01*
X186908335Y-68551246D01*
X187380681Y-68809848D01*
G37*
G36*
X188895971Y-122399290D02*
G01*
X188824105Y-122449686D01*
X188743469Y-122497516D01*
X188646065Y-122541634D01*
X188551196Y-122556738D01*
X188464764Y-122526704D01*
X188389843Y-122436955D01*
X188370195Y-122239591D01*
X188539606Y-122071328D01*
X188675642Y-121996851D01*
X188895971Y-122399290D01*
G37*
G36*
X187480485Y-123177929D02*
G01*
X187427682Y-123216046D01*
X187380279Y-123243841D01*
X187245949Y-123296203D01*
X187120700Y-123301234D01*
X187011161Y-123252540D01*
X186923962Y-123143729D01*
X186895479Y-122903315D01*
X186971120Y-122794218D01*
X187115365Y-122692684D01*
X187191885Y-122650791D01*
X187480485Y-123177929D01*
G37*
G36*
X188517378Y-121707775D02*
G01*
X188330328Y-121810182D01*
X188083266Y-121873615D01*
X187902416Y-121735038D01*
X187861710Y-121593406D01*
X187892085Y-121477320D01*
X187972524Y-121385395D01*
X188083290Y-121311859D01*
X188171281Y-121267369D01*
X188256707Y-121231650D01*
X188517378Y-121707775D01*
G37*
G36*
X190626004Y-120693311D02*
G01*
X190406340Y-123209114D01*
X189933994Y-123467716D01*
X187284134Y-124918472D01*
X186811788Y-125177074D01*
X184573996Y-124006689D01*
X184731775Y-122199649D01*
X185795622Y-122199649D01*
X185978024Y-122341060D01*
X186182860Y-122483080D01*
X186390128Y-122612720D01*
X186581372Y-122719821D01*
X186501214Y-122867766D01*
X186478442Y-123022972D01*
X186503831Y-123180358D01*
X186568151Y-123334846D01*
X186655288Y-123466253D01*
X186755334Y-123565728D01*
X186988480Y-123671991D01*
X187118586Y-123680877D01*
X187255610Y-123662032D01*
X187398526Y-123616941D01*
X187546301Y-123547087D01*
X187643943Y-123489947D01*
X187759094Y-123417694D01*
X187874619Y-123336028D01*
X187974927Y-123253484D01*
X187085174Y-121628317D01*
X187468265Y-121628317D01*
X187493240Y-121769812D01*
X187559492Y-121922784D01*
X187640602Y-122033087D01*
X187750491Y-122120266D01*
X187897259Y-122168838D01*
X188089004Y-122163316D01*
X188009832Y-122405573D01*
X188020767Y-122534037D01*
X188069925Y-122659991D01*
X188185425Y-122810403D01*
X188363243Y-122906437D01*
X188617756Y-122907071D01*
X188777750Y-122859535D01*
X188963339Y-122771282D01*
X189191584Y-122629745D01*
X189393516Y-122480512D01*
X188460999Y-120777234D01*
X188326205Y-120822022D01*
X188193487Y-120873964D01*
X188065677Y-120931506D01*
X187945609Y-120993097D01*
X187809361Y-121076439D01*
X187689695Y-121168200D01*
X187591864Y-121268727D01*
X187521122Y-121378365D01*
X187468265Y-121628317D01*
X187085174Y-121628317D01*
X187028445Y-121524699D01*
X186679854Y-121715547D01*
X187033621Y-122361716D01*
X186852241Y-122461019D01*
X186668376Y-122353100D01*
X186492052Y-122243815D01*
X186323067Y-122127751D01*
X186161218Y-121999492D01*
X185795622Y-122199649D01*
X184731775Y-122199649D01*
X184793660Y-121490886D01*
X185266006Y-121232284D01*
X187428405Y-120048405D01*
X187915866Y-119781528D01*
X188388212Y-119522926D01*
X190626004Y-120693311D01*
G37*
G36*
X125517987Y-70050550D02*
G01*
X125300855Y-72537339D01*
X124828509Y-72795941D01*
X122286345Y-74187735D01*
X121813999Y-74446337D01*
X119602013Y-73289450D01*
X119759240Y-71488751D01*
X120808694Y-71488751D01*
X121769141Y-73243043D01*
X122117732Y-73052195D01*
X121706555Y-72301165D01*
X122341388Y-71953604D01*
X122183124Y-71664529D01*
X121548291Y-72012089D01*
X121315550Y-71586979D01*
X122041072Y-71189767D01*
X121882808Y-70900691D01*
X120808694Y-71488751D01*
X119759240Y-71488751D01*
X119819145Y-70802661D01*
X120005686Y-70700533D01*
X122248404Y-70700533D01*
X123208851Y-72454825D01*
X124311306Y-71851249D01*
X124153041Y-71562173D01*
X123402012Y-71973350D01*
X122599829Y-70508133D01*
X122248404Y-70700533D01*
X120005686Y-70700533D01*
X120291491Y-70544059D01*
X122833655Y-69152265D01*
X123306001Y-68893663D01*
X125517987Y-70050550D01*
G37*
G36*
X190151249Y-129062392D02*
G01*
X190018222Y-130585929D01*
X189545876Y-130844531D01*
X188736276Y-131287774D01*
X188263929Y-131546377D01*
X186908751Y-130837608D01*
X186982663Y-129991108D01*
X188047860Y-129991108D01*
X188235603Y-130334032D01*
X189012140Y-129908892D01*
X188824397Y-129565968D01*
X188047860Y-129991108D01*
X186982663Y-129991108D01*
X187041778Y-129314071D01*
X187514124Y-129055469D01*
X187530657Y-129046419D01*
X188323724Y-128612226D01*
X188796071Y-128353623D01*
X190151249Y-129062392D01*
G37*
G36*
X195046565Y-126410935D02*
G01*
X194914440Y-127924155D01*
X194442094Y-128182756D01*
X193251782Y-128834434D01*
X192779435Y-129093036D01*
X191433435Y-128389065D01*
X191503840Y-127582718D01*
X192566488Y-127582718D01*
X192723200Y-127868959D01*
X193168150Y-127625355D01*
X193438130Y-128118485D01*
X193738542Y-127954014D01*
X193468562Y-127460885D01*
X193913512Y-127217282D01*
X193756800Y-126931041D01*
X193311850Y-127174645D01*
X193041870Y-126681515D01*
X192741458Y-126845986D01*
X193011438Y-127339115D01*
X192566488Y-127582718D01*
X191503840Y-127582718D01*
X191565560Y-126875845D01*
X192037906Y-126617244D01*
X192482856Y-126373640D01*
X193228218Y-125965566D01*
X193700565Y-125706964D01*
X195046565Y-126410935D01*
G37*
G36*
X123061249Y-63142392D02*
G01*
X122928222Y-64665929D01*
X122455876Y-64924531D01*
X122439343Y-64933582D01*
X121646276Y-65367774D01*
X121173929Y-65626377D01*
X119818751Y-64917608D01*
X119892663Y-64071108D01*
X120957860Y-64071108D01*
X121145604Y-64414032D01*
X121922140Y-63988892D01*
X121734396Y-63645968D01*
X120957860Y-64071108D01*
X119892663Y-64071108D01*
X119951778Y-63394071D01*
X120424124Y-63135469D01*
X121233724Y-62692226D01*
X121706071Y-62433623D01*
X123061249Y-63142392D01*
G37*
G36*
X118536565Y-65590934D02*
G01*
X118404440Y-67104155D01*
X117932094Y-67362756D01*
X117487144Y-67606360D01*
X116741782Y-68014434D01*
X116269436Y-68273036D01*
X114923435Y-67569066D01*
X114993840Y-66762718D01*
X116056488Y-66762718D01*
X116213200Y-67048959D01*
X116658150Y-66805355D01*
X116928130Y-67298485D01*
X117228542Y-67134014D01*
X116958562Y-66640885D01*
X117403512Y-66397282D01*
X117246800Y-66111041D01*
X116801850Y-66354645D01*
X116531870Y-65861515D01*
X116231458Y-66025986D01*
X116501438Y-66519115D01*
X116056488Y-66762718D01*
X114993840Y-66762718D01*
X115055560Y-66055845D01*
X115527906Y-65797244D01*
X116718218Y-65145566D01*
X117190564Y-64886964D01*
X118536565Y-65590934D01*
G37*
G36*
X193673529Y-65067585D02*
G01*
X193690278Y-65076230D01*
X194493717Y-65490916D01*
X194972241Y-65737900D01*
X195142451Y-67257732D01*
X193804994Y-67999399D01*
X193326471Y-67752415D01*
X192506283Y-67329084D01*
X192027759Y-67082100D01*
X191949205Y-66380683D01*
X193016999Y-66380683D01*
X193803690Y-66786725D01*
X193983001Y-66439317D01*
X193196310Y-66033275D01*
X193016999Y-66380683D01*
X191949205Y-66380683D01*
X191857549Y-65562268D01*
X193195006Y-64820601D01*
X193673529Y-65067585D01*
G37*
G36*
X188776732Y-62545707D02*
G01*
X189227501Y-62778366D01*
X189982611Y-63168107D01*
X190461134Y-63415091D01*
X190630191Y-64924632D01*
X189301791Y-65661277D01*
X188823268Y-65414293D01*
X187617389Y-64791893D01*
X187138866Y-64544909D01*
X187056987Y-63813792D01*
X188122225Y-63813792D01*
X188572994Y-64046451D01*
X188315142Y-64546029D01*
X188619483Y-64703111D01*
X188877334Y-64203533D01*
X189328103Y-64436192D01*
X189477775Y-64146208D01*
X189027006Y-63913549D01*
X189284858Y-63413971D01*
X188980517Y-63256889D01*
X188722666Y-63756467D01*
X188271897Y-63523808D01*
X188122225Y-63813792D01*
X187056987Y-63813792D01*
X186969809Y-63035368D01*
X188298209Y-62298723D01*
X188776732Y-62545707D01*
G37*
G36*
X116733529Y-126227585D02*
G01*
X117553717Y-126650916D01*
X118032241Y-126897900D01*
X118202451Y-128417732D01*
X116864994Y-129159399D01*
X116386471Y-128912415D01*
X116369722Y-128903770D01*
X115566283Y-128489084D01*
X115087759Y-128242100D01*
X115009205Y-127540683D01*
X116076999Y-127540683D01*
X116863690Y-127946725D01*
X117043001Y-127599317D01*
X116256310Y-127193275D01*
X116076999Y-127540683D01*
X115009205Y-127540683D01*
X114917549Y-126722268D01*
X116255006Y-125980601D01*
X116733529Y-126227585D01*
G37*
G36*
X121236732Y-128565707D02*
G01*
X122442611Y-129188107D01*
X122921134Y-129435091D01*
X123090191Y-130944632D01*
X121761791Y-131681277D01*
X121283268Y-131434293D01*
X120832499Y-131201634D01*
X120077389Y-130811893D01*
X119598866Y-130564909D01*
X119516987Y-129833792D01*
X120582225Y-129833792D01*
X121032994Y-130066451D01*
X120775142Y-130566029D01*
X121079483Y-130723111D01*
X121337334Y-130223533D01*
X121788103Y-130456192D01*
X121937775Y-130166208D01*
X121487006Y-129933549D01*
X121744858Y-129433971D01*
X121440517Y-129276889D01*
X121182666Y-129776467D01*
X120731897Y-129543808D01*
X120582225Y-129833792D01*
X119516987Y-129833792D01*
X119429809Y-129055368D01*
X120758209Y-128318723D01*
X121236732Y-128565707D01*
G37*
G36*
X143855832Y-96402648D02*
G01*
X143931761Y-96572276D01*
X143889758Y-96745136D01*
X143747593Y-96908302D01*
X143588465Y-96832373D01*
X143485880Y-96759675D01*
X143411567Y-96575507D01*
X143490727Y-96404263D01*
X143673279Y-96346105D01*
X143855832Y-96402648D01*
G37*
G36*
X145402682Y-97135685D02*
G01*
X145495574Y-97197478D01*
X145563425Y-97431727D01*
X145548885Y-97544813D01*
X145503651Y-97651436D01*
X145424491Y-97732212D01*
X145308174Y-97764522D01*
X145167625Y-97724134D01*
X145078772Y-97615895D01*
X145033538Y-97462422D01*
X145020614Y-97283100D01*
X145022229Y-97221711D01*
X145027076Y-97163553D01*
X145133700Y-97128011D01*
X145259709Y-97115087D01*
X145402682Y-97135685D01*
G37*
G36*
X143747593Y-97258868D02*
G01*
X143884911Y-97339643D01*
X143962456Y-97428496D01*
X143986688Y-97541582D01*
X143901066Y-97707979D01*
X143670048Y-97777446D01*
X143451955Y-97711210D01*
X143359871Y-97515733D01*
X143408336Y-97339643D01*
X143547270Y-97173246D01*
X143747593Y-97258868D01*
G37*
G36*
X158355428Y-96884473D02*
G01*
X158450339Y-96977769D01*
X158504863Y-97121953D01*
X158523037Y-97305717D01*
X158503247Y-97489885D01*
X158443877Y-97635281D01*
X158345735Y-97729788D01*
X158209628Y-97761291D01*
X158070291Y-97729788D01*
X157975380Y-97635281D01*
X157920856Y-97489885D01*
X157902682Y-97305717D01*
X157922472Y-97121953D01*
X157981842Y-96977769D01*
X158079984Y-96884473D01*
X158216090Y-96853375D01*
X158355428Y-96884473D01*
G37*
G36*
X163224168Y-96420418D02*
G01*
X163319483Y-96569045D01*
X163364717Y-96790370D01*
X163373199Y-96922438D01*
X163376026Y-97063391D01*
X163373199Y-97203940D01*
X163364717Y-97334796D01*
X163319483Y-97556121D01*
X163222553Y-97706363D01*
X163059386Y-97761291D01*
X162894604Y-97706363D01*
X162799289Y-97557737D01*
X162754055Y-97336412D01*
X162745574Y-97204344D01*
X162742746Y-97063391D01*
X162745574Y-96922842D01*
X162754055Y-96791985D01*
X162799289Y-96570661D01*
X162894604Y-96420418D01*
X163059386Y-96365491D01*
X163224168Y-96420418D01*
G37*
G36*
X148664798Y-96403859D02*
G01*
X148770210Y-96538351D01*
X148817778Y-96676028D01*
X148846318Y-96849964D01*
X148855832Y-97060160D01*
X148846318Y-97272151D01*
X148817778Y-97447164D01*
X148770210Y-97585200D01*
X148664798Y-97719691D01*
X148523037Y-97763523D01*
X148519806Y-97764522D01*
X148376834Y-97719691D01*
X148271018Y-97585200D01*
X148222553Y-97447164D01*
X148193473Y-97272151D01*
X148183780Y-97060160D01*
X148185270Y-97027850D01*
X148342100Y-97027850D01*
X148390565Y-97178092D01*
X148523037Y-97241097D01*
X148650662Y-97178092D01*
X148700743Y-97027850D01*
X148650662Y-96875992D01*
X148523037Y-96811372D01*
X148390565Y-96875992D01*
X148342100Y-97027850D01*
X148185270Y-97027850D01*
X148193473Y-96849964D01*
X148222553Y-96676028D01*
X148271018Y-96538351D01*
X148376834Y-96403859D01*
X148519806Y-96359029D01*
X148664798Y-96403859D01*
G37*
G36*
X170323073Y-96981000D02*
G01*
X169213398Y-98645513D01*
X168674895Y-98645513D01*
X168109467Y-98645513D01*
X166968918Y-98645513D01*
X165014152Y-98645513D01*
X163062617Y-98645513D01*
X160445493Y-98645513D01*
X158216090Y-98645513D01*
X155964071Y-98645513D01*
X155424491Y-98645513D01*
X153637738Y-98645513D01*
X152429338Y-98645513D01*
X148519806Y-98645513D01*
X146749208Y-98645513D01*
X145317868Y-98645513D01*
X143663586Y-98645513D01*
X142733053Y-98645513D01*
X141405105Y-98645513D01*
X140866602Y-98645513D01*
X139756927Y-96981000D01*
X140089722Y-96481808D01*
X141405105Y-96481808D01*
X141534346Y-96811372D01*
X141731438Y-96732212D01*
X141938223Y-96617511D01*
X141938223Y-97735443D01*
X141518191Y-97735443D01*
X141518191Y-98065006D01*
X142733053Y-98065006D01*
X142733053Y-97735443D01*
X142335638Y-97735443D01*
X142335638Y-97564199D01*
X142988304Y-97564199D01*
X143036769Y-97791985D01*
X143174087Y-97963229D01*
X143387334Y-98069853D01*
X143518595Y-98097721D01*
X143663586Y-98107010D01*
X143842100Y-98094086D01*
X143989919Y-98055313D01*
X144204782Y-97924457D01*
X144324330Y-97745136D01*
X144361486Y-97548044D01*
X144342504Y-97402648D01*
X144285557Y-97270176D01*
X144266333Y-97247559D01*
X144629661Y-97247559D01*
X144649226Y-97516631D01*
X144707923Y-97733648D01*
X144805751Y-97898609D01*
X144940915Y-98014387D01*
X145111621Y-98083854D01*
X145317868Y-98107010D01*
X145471341Y-98091258D01*
X145602197Y-98044005D01*
X145650982Y-98003617D01*
X146209628Y-98003617D01*
X146301712Y-98039158D01*
X146435800Y-98073084D01*
X146590889Y-98097317D01*
X146749208Y-98107010D01*
X146934184Y-98094893D01*
X147094927Y-98058544D01*
X147231438Y-98000386D01*
X147343716Y-97922842D01*
X147492342Y-97717672D01*
X147540808Y-97460806D01*
X147518909Y-97273407D01*
X147453211Y-97116164D01*
X147404959Y-97060160D01*
X147825137Y-97060160D01*
X147836244Y-97308141D01*
X147869564Y-97522195D01*
X147925097Y-97702325D01*
X148002843Y-97848528D01*
X148139264Y-97992129D01*
X148311585Y-98078290D01*
X148519806Y-98107010D01*
X148728027Y-98078290D01*
X148754595Y-98065006D01*
X151172472Y-98065006D01*
X152429338Y-98065006D01*
X152429338Y-97735443D01*
X151573118Y-97735443D01*
X151573118Y-96546428D01*
X152674895Y-96546428D01*
X152674895Y-96875992D01*
X153094927Y-96875992D01*
X153094927Y-97434958D01*
X153101389Y-97584393D01*
X153120775Y-97716057D01*
X153209628Y-97924457D01*
X153377641Y-98055313D01*
X153495170Y-98089239D01*
X153637738Y-98100548D01*
X153836446Y-98079546D01*
X154067464Y-98000386D01*
X154015767Y-97680515D01*
X153841292Y-97740289D01*
X153708821Y-97754829D01*
X153542423Y-97688593D01*
X153492342Y-97486654D01*
X153492342Y-97431727D01*
X154539192Y-97431727D01*
X155424491Y-97431727D01*
X155424491Y-97040774D01*
X154539192Y-97040774D01*
X154539192Y-97431727D01*
X153492342Y-97431727D01*
X153492342Y-96546428D01*
X153224168Y-96546428D01*
X152674895Y-96546428D01*
X151573118Y-96546428D01*
X151573118Y-96394570D01*
X155964071Y-96394570D01*
X156400258Y-96394570D01*
X156400258Y-97735443D01*
X155964071Y-97735443D01*
X155964071Y-98065006D01*
X157233861Y-98065006D01*
X157233861Y-97735443D01*
X156800905Y-97735443D01*
X156800905Y-97302486D01*
X157498805Y-97302486D01*
X157511729Y-97474942D01*
X157550501Y-97630435D01*
X157613102Y-97767349D01*
X157697512Y-97884069D01*
X157801712Y-97978577D01*
X157923683Y-98048851D01*
X158062213Y-98092470D01*
X158216090Y-98107010D01*
X158369968Y-98092470D01*
X158508498Y-98048851D01*
X158630065Y-97978577D01*
X158733053Y-97884069D01*
X158816252Y-97767349D01*
X158878449Y-97630435D01*
X158917221Y-97474942D01*
X158930145Y-97302486D01*
X158917221Y-97132454D01*
X158878449Y-96977769D01*
X158815848Y-96841258D01*
X158731438Y-96725750D01*
X158627237Y-96632858D01*
X158559794Y-96594893D01*
X159224168Y-96594893D01*
X159224168Y-98065006D01*
X159621583Y-98065006D01*
X159621583Y-96872761D01*
X159713667Y-96863068D01*
X159802520Y-96859837D01*
X159999612Y-96953536D01*
X160035961Y-97077123D01*
X160048078Y-97260483D01*
X160048078Y-98065006D01*
X160445493Y-98065006D01*
X160445493Y-97208787D01*
X160438362Y-97063391D01*
X162338869Y-97063391D01*
X162350481Y-97306020D01*
X162385315Y-97516945D01*
X162443372Y-97696166D01*
X162524653Y-97843682D01*
X162666997Y-97989975D01*
X162846318Y-98077751D01*
X163062617Y-98107010D01*
X163273710Y-98077751D01*
X163299356Y-98065006D01*
X164015767Y-98065006D01*
X164374410Y-98065006D01*
X164374410Y-96737058D01*
X164494496Y-96958742D01*
X164609198Y-97180067D01*
X164718514Y-97401032D01*
X164822445Y-97621998D01*
X164920991Y-97843323D01*
X165014152Y-98065006D01*
X165334023Y-98065006D01*
X165712052Y-98065006D01*
X166968918Y-98065006D01*
X166968918Y-97735443D01*
X166112698Y-97735443D01*
X166112698Y-96065006D01*
X167140162Y-96065006D01*
X167223271Y-96281305D01*
X167308892Y-96490783D01*
X167397027Y-96693439D01*
X167491265Y-96894301D01*
X167595197Y-97098394D01*
X167708821Y-97305717D01*
X167708821Y-98065006D01*
X168109467Y-98065006D01*
X168109467Y-97302486D01*
X168196704Y-97146186D01*
X168277480Y-96993924D01*
X168352601Y-96843278D01*
X168422876Y-96691824D01*
X168489111Y-96539158D01*
X168552116Y-96384877D01*
X168613506Y-96227365D01*
X168674895Y-96065006D01*
X168264556Y-96065006D01*
X168185396Y-96297640D01*
X168140969Y-96426073D01*
X168094927Y-96552890D01*
X168001228Y-96791985D01*
X167918837Y-96979384D01*
X167823522Y-96768964D01*
X167731438Y-96538351D01*
X167645008Y-96299659D01*
X167566656Y-96065006D01*
X167140162Y-96065006D01*
X166112698Y-96065006D01*
X165712052Y-96065006D01*
X165712052Y-98065006D01*
X165334023Y-98065006D01*
X165334023Y-96065006D01*
X164975380Y-96065006D01*
X164975380Y-97296024D01*
X164918433Y-97170015D01*
X164850985Y-97024619D01*
X164775057Y-96867107D01*
X164692666Y-96704748D01*
X164605832Y-96539562D01*
X164516575Y-96373569D01*
X164426107Y-96213229D01*
X164335638Y-96065006D01*
X164015767Y-96065006D01*
X164015767Y-98065006D01*
X163299356Y-98065006D01*
X163450339Y-97989975D01*
X163592504Y-97843682D01*
X163674491Y-97696166D01*
X163733053Y-97516945D01*
X163768191Y-97306020D01*
X163779903Y-97063391D01*
X163768393Y-96820762D01*
X163733861Y-96609837D01*
X163676309Y-96430616D01*
X163595735Y-96283100D01*
X163454288Y-96136807D01*
X163275505Y-96049031D01*
X163059386Y-96019772D01*
X162849729Y-96049031D01*
X162673100Y-96136807D01*
X162529499Y-96283100D01*
X162446099Y-96430616D01*
X162386527Y-96609837D01*
X162350784Y-96820762D01*
X162338869Y-97063391D01*
X160438362Y-97063391D01*
X160438223Y-97060564D01*
X160416414Y-96926073D01*
X160317868Y-96706363D01*
X160128853Y-96564199D01*
X159993958Y-96526638D01*
X159828368Y-96514118D01*
X159651066Y-96520580D01*
X159487496Y-96539966D01*
X159343312Y-96566622D01*
X159224168Y-96594893D01*
X158559794Y-96594893D01*
X158505267Y-96564199D01*
X158367544Y-96521792D01*
X158216090Y-96507656D01*
X158066656Y-96521792D01*
X157928530Y-96564199D01*
X157805347Y-96632858D01*
X157700743Y-96725750D01*
X157615929Y-96841258D01*
X157552116Y-96977769D01*
X157512132Y-97132454D01*
X157498805Y-97302486D01*
X156800905Y-97302486D01*
X156800905Y-96394570D01*
X157233861Y-96394570D01*
X157233861Y-96065006D01*
X155964071Y-96065006D01*
X155964071Y-96394570D01*
X151573118Y-96394570D01*
X151573118Y-96110241D01*
X152975380Y-96110241D01*
X153048078Y-96294409D01*
X153224168Y-96362260D01*
X153401874Y-96294409D01*
X153476187Y-96110241D01*
X153401874Y-95922842D01*
X153224168Y-95854990D01*
X153048078Y-95922842D01*
X152975380Y-96110241D01*
X151573118Y-96110241D01*
X151573118Y-96065006D01*
X151172472Y-96065006D01*
X151172472Y-98065006D01*
X148754595Y-98065006D01*
X148900348Y-97992129D01*
X149036769Y-97848528D01*
X149114515Y-97702325D01*
X149170048Y-97522195D01*
X149203368Y-97308141D01*
X149214475Y-97060160D01*
X149203368Y-96813694D01*
X149170048Y-96600952D01*
X149114515Y-96421933D01*
X149036769Y-96276638D01*
X148900348Y-96133935D01*
X148728027Y-96048313D01*
X148519806Y-96019772D01*
X148314816Y-96048492D01*
X148143572Y-96134653D01*
X148006074Y-96278254D01*
X147926914Y-96424053D01*
X147870372Y-96602971D01*
X147836446Y-96815006D01*
X147825137Y-97060160D01*
X147404959Y-97060160D01*
X147343716Y-96989078D01*
X147189704Y-96892865D01*
X146990458Y-96828245D01*
X146745977Y-96795216D01*
X146762132Y-96611048D01*
X146778288Y-96394570D01*
X147466494Y-96394570D01*
X147466494Y-96065006D01*
X146445493Y-96065006D01*
X146433376Y-96311775D01*
X146416414Y-96567430D01*
X146393796Y-96830354D01*
X146364717Y-97098932D01*
X146586850Y-97105798D01*
X146762132Y-97126396D01*
X146996381Y-97203940D01*
X147106236Y-97323488D01*
X147133700Y-97476961D01*
X147117544Y-97583585D01*
X147057771Y-97675669D01*
X146938223Y-97741905D01*
X146745977Y-97767753D01*
X146594927Y-97760483D01*
X146471341Y-97738674D01*
X146290404Y-97674053D01*
X146209628Y-98003617D01*
X145650982Y-98003617D01*
X145799289Y-97880838D01*
X145913990Y-97661129D01*
X145951147Y-97425265D01*
X145917221Y-97179708D01*
X145805751Y-96976153D01*
X145607044Y-96837220D01*
X145472553Y-96798447D01*
X145311405Y-96785523D01*
X145208013Y-96800063D01*
X145088465Y-96840451D01*
X145199935Y-96630435D01*
X145379257Y-96493116D01*
X145605428Y-96417187D01*
X145857447Y-96391339D01*
X145834830Y-96052082D01*
X145575541Y-96071468D01*
X145340485Y-96129627D01*
X145133700Y-96225750D01*
X144959225Y-96359029D01*
X144819079Y-96528658D01*
X144715283Y-96733827D01*
X144651066Y-96973730D01*
X144629661Y-97247559D01*
X144266333Y-97247559D01*
X144182569Y-97149013D01*
X144025460Y-97037543D01*
X144151470Y-96936170D01*
X144238708Y-96812987D01*
X144289596Y-96677688D01*
X144306559Y-96539966D01*
X144264152Y-96325103D01*
X144136931Y-96158706D01*
X143937819Y-96052082D01*
X143679742Y-96016541D01*
X143513344Y-96030273D01*
X143376026Y-96071468D01*
X143178934Y-96210402D01*
X143070695Y-96399417D01*
X143036769Y-96601355D01*
X143088465Y-96833989D01*
X143162779Y-96940612D01*
X143282326Y-97040774D01*
X143150662Y-97151840D01*
X143059386Y-97278254D01*
X143006074Y-97416784D01*
X142988304Y-97564199D01*
X142335638Y-97564199D01*
X142335638Y-96065006D01*
X142064233Y-96065006D01*
X141925299Y-96191016D01*
X141754055Y-96307333D01*
X141573118Y-96407494D01*
X141405105Y-96481808D01*
X140089722Y-96481808D01*
X140866602Y-95316487D01*
X141405105Y-95316487D01*
X168674895Y-95316487D01*
X169213398Y-95316487D01*
X170323073Y-96981000D01*
G37*
G36*
X132446611Y-99508733D02*
G01*
X131369605Y-99508733D01*
X130355066Y-99508733D01*
X128655550Y-99508733D01*
X127578544Y-99508733D01*
X125893389Y-96981000D01*
X126110944Y-96654667D01*
X128655550Y-96654667D01*
X128655550Y-97307333D01*
X129670090Y-97307333D01*
X129670090Y-98431727D01*
X130355066Y-98431727D01*
X130355066Y-97307333D01*
X131369605Y-97307333D01*
X131369605Y-96654667D01*
X130355066Y-96654667D01*
X130355066Y-95530273D01*
X129670090Y-95530273D01*
X129670090Y-96654667D01*
X128655550Y-96654667D01*
X126110944Y-96654667D01*
X127578544Y-94453267D01*
X128655550Y-94453267D01*
X131369605Y-94453267D01*
X132446611Y-94453267D01*
X132446611Y-99508733D01*
G37*
D12*
X184830000Y-111350000D02*
G75*
G02*
X183430000Y-111350000I-700000J0D01*
G01*
X183430000Y-111350000D02*
G75*
G02*
X184830000Y-111350000I700000J0D01*
G01*
X129920000Y-113380000D02*
G75*
G02*
X128520000Y-113380000I-700000J0D01*
G01*
X128520000Y-113380000D02*
G75*
G02*
X129920000Y-113380000I700000J0D01*
G01*
X181360000Y-80580000D02*
G75*
G02*
X179960000Y-80580000I-700000J0D01*
G01*
X179960000Y-80580000D02*
G75*
G02*
X181360000Y-80580000I700000J0D01*
G01*
X126570000Y-82560000D02*
G75*
G02*
X125170000Y-82560000I-700000J0D01*
G01*
X125170000Y-82560000D02*
G75*
G02*
X126570000Y-82560000I700000J0D01*
G01*
X126317672Y-116278989D02*
X126188718Y-116528833D01*
X125411282Y-115811167D02*
X125282328Y-116061011D01*
X127583594Y-113848790D02*
X127801230Y-113427123D01*
X126654988Y-113369499D02*
X126872624Y-112947832D01*
X116440354Y-132169055D02*
X114880945Y-135190354D01*
X114880945Y-135190354D02*
X111859646Y-133630945D01*
X113419055Y-130609646D02*
X116440354Y-132169055D01*
X111859646Y-133630945D02*
X113419055Y-130609646D01*
X125631452Y-111375484D02*
X125209785Y-111157848D01*
X125152161Y-112304090D02*
X124730494Y-112086454D01*
X125988160Y-114194166D02*
X125804992Y-113829543D01*
X126208311Y-113767630D01*
X125988160Y-114194166D01*
G36*
X125988160Y-114194166D02*
G01*
X125804992Y-113829543D01*
X126208311Y-113767630D01*
X125988160Y-114194166D01*
G37*
X125316242Y-114885494D02*
X125614365Y-114307892D01*
X125316242Y-114885494D02*
X125018121Y-115463094D01*
X122543758Y-113454506D02*
X122841879Y-112876906D01*
X122543758Y-113454506D02*
X122245635Y-114032108D01*
X120022495Y-131134999D02*
X116592431Y-129364611D01*
X119105195Y-132912232D02*
X120022495Y-131134999D01*
X119105195Y-132912232D02*
X115675132Y-131141845D01*
X120410354Y-134239055D02*
X118850945Y-137260354D01*
X118850945Y-137260354D02*
X115829646Y-135700945D01*
X117389055Y-132679646D02*
X120410354Y-134239055D01*
X115829646Y-135700945D02*
X117389055Y-132679646D01*
X129019667Y-116228106D02*
X128367239Y-117492173D01*
X127402383Y-115393363D02*
X126749955Y-116657430D01*
X153290000Y-110109420D02*
X153290000Y-110390580D01*
X152270000Y-110109420D02*
X152270000Y-110390580D01*
X160150000Y-110209420D02*
X160150000Y-110490580D01*
X159130000Y-110209420D02*
X159130000Y-110490580D01*
X180930333Y-77721894D02*
X181582761Y-76457827D01*
X182547617Y-78556637D02*
X183200045Y-77292570D01*
X182366406Y-80101210D02*
X182148770Y-80522877D01*
X183295012Y-80580501D02*
X183077376Y-81002168D01*
X184797839Y-81645910D02*
X185219506Y-81863546D01*
X184318548Y-82574516D02*
X184740215Y-82792152D01*
X184751899Y-114023928D02*
X185435019Y-115271672D01*
X186348305Y-113149922D02*
X187031425Y-114397666D01*
X159269758Y-77412500D02*
X158795242Y-77412500D01*
X159269758Y-76367500D02*
X158795242Y-76367500D01*
X126877948Y-78422231D02*
X127190094Y-78992375D01*
X126877948Y-78422231D02*
X126565803Y-77852086D01*
X129614646Y-76923933D02*
X129926791Y-77494078D01*
X129614646Y-76923933D02*
X129302500Y-76353789D01*
X127480066Y-79417902D02*
X127305862Y-79786892D01*
X127075355Y-79365861D01*
X127480066Y-79417902D01*
G36*
X127480066Y-79417902D02*
G01*
X127305862Y-79786892D01*
X127075355Y-79365861D01*
X127480066Y-79417902D01*
G37*
X129102821Y-79731611D02*
X129519040Y-79503737D01*
X129604656Y-80648229D02*
X130020875Y-80420355D01*
X190844805Y-61037768D02*
X189927506Y-62815001D01*
X190844805Y-61037768D02*
X194274868Y-62808155D01*
X189927506Y-62815001D02*
X193357569Y-64585389D01*
X155187500Y-109997742D02*
X155187500Y-110472258D01*
X156232500Y-109997742D02*
X156232500Y-110472258D01*
X144590000Y-80289420D02*
X144590000Y-80570580D01*
X143570000Y-80289420D02*
X143570000Y-80570580D01*
X189539646Y-59710945D02*
X191099055Y-56689646D01*
X192560945Y-61270354D02*
X189539646Y-59710945D01*
X191099055Y-56689646D02*
X194120354Y-58249055D01*
X194120354Y-58249055D02*
X192560945Y-61270354D01*
X145297500Y-81137258D02*
X145297500Y-80662742D01*
X146342500Y-81137258D02*
X146342500Y-80662742D01*
X162237258Y-80562500D02*
X161762742Y-80562500D01*
X162237258Y-79517500D02*
X161762742Y-79517500D01*
X117505600Y-61400849D02*
X115872840Y-58418551D01*
X120487898Y-59768089D02*
X117505600Y-61400849D01*
X115872840Y-58418551D02*
X118855138Y-56785791D01*
X118855138Y-56785791D02*
X120487898Y-59768089D01*
X184145008Y-80120457D02*
X183741689Y-80182370D01*
X183961840Y-79755834D01*
X184145008Y-80120457D01*
G36*
X184145008Y-80120457D02*
G01*
X183741689Y-80182370D01*
X183961840Y-79755834D01*
X184145008Y-80120457D01*
G37*
X187406243Y-80495494D02*
X187704365Y-79917892D01*
X187406243Y-80495494D02*
X187108121Y-81073094D01*
X184633757Y-79064506D02*
X184931879Y-78486906D01*
X184633757Y-79064506D02*
X184335635Y-79642108D01*
X180930325Y-114160813D02*
X180514105Y-114388687D01*
X180428491Y-113244195D02*
X180012271Y-113472069D01*
X194158826Y-135471210D02*
X191176529Y-137103969D01*
X192526067Y-132488913D02*
X194158826Y-135471210D01*
X191176529Y-137103969D02*
X189543770Y-134121672D01*
X189543770Y-134121672D02*
X192526067Y-132488913D01*
X139965708Y-110995888D02*
X141071945Y-111460906D01*
X139074423Y-113116173D02*
X139965708Y-110995888D01*
X143376603Y-112429696D02*
X142731298Y-112158435D01*
X145681260Y-113398485D02*
X145035957Y-113127224D01*
X147340614Y-114096013D02*
X148446849Y-114561032D01*
X148446849Y-114561032D02*
X147555564Y-116681317D01*
X115398065Y-63192542D02*
X116358514Y-64946834D01*
X115398065Y-63192542D02*
X118783849Y-61338879D01*
X116358514Y-64946834D02*
X119744297Y-63093171D01*
X162229758Y-78982500D02*
X161755242Y-78982500D01*
X162229758Y-77937500D02*
X161755242Y-77937500D01*
X162067500Y-110112742D02*
X162067500Y-110587258D01*
X163112500Y-110112742D02*
X163112500Y-110587258D01*
X159259758Y-77937500D02*
X158785242Y-77937500D01*
X159259758Y-78982500D02*
X158785242Y-78982500D01*
X151757258Y-77332500D02*
X151282742Y-77332500D01*
X151757258Y-76287500D02*
X151282742Y-76287500D01*
X153460000Y-76400000D02*
X153710000Y-76400000D01*
X153460000Y-76400000D02*
X153460000Y-76650000D01*
X156660000Y-79600000D02*
X156660000Y-79350000D01*
X156660000Y-79600000D02*
X156410000Y-79600000D01*
X153460000Y-79600000D02*
X153460000Y-79350000D01*
X153460000Y-79600000D02*
X153710000Y-79600000D01*
X156990000Y-76640000D02*
X156660000Y-76400000D01*
X156990000Y-76160000D01*
X156990000Y-76640000D01*
G36*
X156990000Y-76640000D02*
G01*
X156660000Y-76400000D01*
X156990000Y-76160000D01*
X156990000Y-76640000D01*
G37*
X167461920Y-83175000D02*
X167743080Y-83175000D01*
X167461920Y-84195000D02*
X167743080Y-84195000D01*
X151640580Y-78820000D02*
X151359420Y-78820000D01*
X151640580Y-77800000D02*
X151359420Y-77800000D01*
X151737258Y-80322500D02*
X151262742Y-80322500D01*
X151737258Y-79277500D02*
X151262742Y-79277500D01*
X162239758Y-77412500D02*
X161765242Y-77412500D01*
X162239758Y-76367500D02*
X161765242Y-76367500D01*
X183976444Y-115918046D02*
X184111463Y-116164664D01*
X184871133Y-115428218D02*
X185006152Y-115674836D01*
X167471920Y-81695000D02*
X167753080Y-81695000D01*
X167471920Y-82715000D02*
X167753080Y-82715000D01*
X182656926Y-113515468D02*
X182429052Y-113099248D01*
X183573544Y-113013634D02*
X183345670Y-112597414D01*
X183149646Y-115467292D02*
X182837501Y-114897147D01*
X183149646Y-115467292D02*
X183461791Y-116037437D01*
X180412950Y-116965590D02*
X180100805Y-116395445D01*
X180412950Y-116965590D02*
X180725095Y-117535735D01*
X182952241Y-114523662D02*
X182547529Y-114471621D01*
X182721733Y-114102632D01*
X182952241Y-114523662D01*
G36*
X182952241Y-114523662D02*
G01*
X182547529Y-114471621D01*
X182721733Y-114102632D01*
X182952241Y-114523662D01*
G37*
X159267258Y-80562500D02*
X158792742Y-80562500D01*
X159267258Y-79517500D02*
X158792742Y-79517500D01*
X126462572Y-80883577D02*
X126690446Y-81299796D01*
X127379190Y-80381742D02*
X127607064Y-80797961D01*
X169390000Y-81230580D02*
X169390000Y-80949420D01*
X170410000Y-81230580D02*
X170410000Y-80949420D01*
X125283386Y-79869630D02*
X124600266Y-78621886D01*
X123686980Y-80743636D02*
X123003860Y-79495892D01*
X125160880Y-78479954D02*
X125025859Y-78233335D01*
X126055569Y-77990127D02*
X125920548Y-77743508D01*
X142550000Y-78750000D02*
X142550000Y-79250000D01*
X142250000Y-83950000D02*
X141500000Y-83950000D01*
X142050000Y-78750000D02*
X142550000Y-78750000D01*
X139750000Y-83950000D02*
X139250000Y-83950000D01*
X139250000Y-83950000D02*
X139250000Y-83450000D01*
X139250000Y-79250000D02*
X139250000Y-78750000D01*
X139250000Y-78750000D02*
X139750000Y-78750000D01*
X142450000Y-84310000D02*
X142450000Y-83950000D01*
X142810000Y-83950000D01*
X142450000Y-84310000D01*
G36*
X142450000Y-84310000D02*
G01*
X142450000Y-83950000D01*
X142810000Y-83950000D01*
X142450000Y-84310000D01*
G37*
X153727500Y-110002742D02*
X153727500Y-110477258D01*
X154772500Y-110002742D02*
X154772500Y-110477258D01*
X113577836Y-63539229D02*
X111945076Y-60556931D01*
X116560134Y-61906469D02*
X113577836Y-63539229D01*
X111945076Y-60556931D02*
X114927374Y-58924171D01*
X114927374Y-58924171D02*
X116560134Y-61906469D01*
X198088826Y-133331210D02*
X195106529Y-134963969D01*
X196456067Y-130348913D02*
X198088826Y-133331210D01*
X195106529Y-134963969D02*
X193473770Y-131981672D01*
X193473770Y-131981672D02*
X196456067Y-130348913D01*
X146740000Y-81747500D02*
X146740000Y-82397500D01*
X146740000Y-81747500D02*
X146740000Y-81097500D01*
X149860000Y-81747500D02*
X149860000Y-82397500D01*
X149860000Y-81747500D02*
X149860000Y-81097500D01*
X146790000Y-82910000D02*
X146460000Y-83150000D01*
X146460000Y-82670000D01*
X146790000Y-82910000D01*
G36*
X146790000Y-82910000D02*
G01*
X146460000Y-83150000D01*
X146460000Y-82670000D01*
X146790000Y-82910000D01*
G37*
X153730000Y-85580000D02*
X153250000Y-85580000D01*
X153490000Y-85250000D01*
X153730000Y-85580000D01*
G36*
X153730000Y-85580000D02*
G01*
X153250000Y-85580000D01*
X153490000Y-85250000D01*
X153730000Y-85580000D01*
G37*
X152327500Y-82180000D02*
X151677500Y-82180000D01*
X152327500Y-82180000D02*
X152977500Y-82180000D01*
X152327500Y-85300000D02*
X151677500Y-85300000D01*
X152327500Y-85300000D02*
X152977500Y-85300000D01*
X148739420Y-84910000D02*
X149020580Y-84910000D01*
X148739420Y-83890000D02*
X149020580Y-83890000D01*
X148739420Y-86380000D02*
X149020580Y-86380000D01*
X148739420Y-85360000D02*
X149020580Y-85360000D01*
X160587500Y-110112742D02*
X160587500Y-110587258D01*
X161632500Y-110112742D02*
X161632500Y-110587258D01*
X152325580Y-80790000D02*
X152044420Y-80790000D01*
X152325580Y-81810000D02*
X152044420Y-81810000D01*
X146740000Y-77882500D02*
X146740000Y-78532500D01*
X146740000Y-77882500D02*
X146740000Y-77232500D01*
X149860000Y-77882500D02*
X149860000Y-78532500D01*
X149860000Y-77882500D02*
X149860000Y-77232500D01*
X146790000Y-79045000D02*
X146460000Y-79285000D01*
X146460000Y-78805000D01*
X146790000Y-79045000D01*
G36*
X146790000Y-79045000D02*
G01*
X146460000Y-79285000D01*
X146460000Y-78805000D01*
X146790000Y-79045000D01*
G37*
X183632328Y-77671010D02*
X183761282Y-77421167D01*
X184538718Y-78138833D02*
X184667672Y-77888990D01*
X155335580Y-81310000D02*
X155054420Y-81310000D01*
X155335580Y-80290000D02*
X155054420Y-80290000D01*
X193509646Y-61780945D02*
X195069055Y-58759646D01*
X196530945Y-63340354D02*
X193509646Y-61780945D01*
X195069055Y-58759646D02*
X198090354Y-60319055D01*
X198090354Y-60319055D02*
X196530945Y-63340354D01*
X194630015Y-130702293D02*
X193669568Y-128948001D01*
X194630015Y-130702293D02*
X191244230Y-132555956D01*
X193669568Y-128948001D02*
X190283783Y-130801664D01*
X146372500Y-77672742D02*
X146372500Y-78147258D01*
X145327500Y-77672742D02*
X145327500Y-78147258D01*
D10*
X193541200Y-107216100D02*
X116477600Y-107216100D01*
X116477600Y-86565900D01*
X193541200Y-86565900D01*
X193541200Y-107216100D01*
D12*
X169002500Y-81327500D02*
X168827500Y-81327500D01*
X166282500Y-80652500D02*
X166282500Y-81027500D01*
X169002500Y-80652500D02*
X169002500Y-81327500D01*
X166282500Y-78782500D02*
X166282500Y-78107500D01*
X169002500Y-78782500D02*
X169002500Y-78107500D01*
X166282500Y-78107500D02*
X166457500Y-78107500D01*
X169002500Y-78107500D02*
X168827500Y-78107500D01*
X166282500Y-81327500D02*
X166092500Y-81467500D01*
X166092500Y-81187500D01*
X166282500Y-81327500D01*
G36*
X166282500Y-81327500D02*
G01*
X166092500Y-81467500D01*
X166092500Y-81187500D01*
X166282500Y-81327500D01*
G37*
%LPC*%
D13*
X189080000Y-136180000D03*
X188900000Y-135890000D03*
X188090000Y-134500000D03*
X188690000Y-135570000D03*
X188300000Y-134870000D03*
X188490000Y-135220000D03*
X120580000Y-136860000D03*
X120780000Y-136500000D03*
X121000000Y-136140000D03*
X121220000Y-135770000D03*
D14*
X174292250Y-135357051D03*
X175649714Y-137805983D03*
X172256051Y-131683646D03*
X172934781Y-132908116D03*
X176328450Y-139030453D03*
X174970984Y-136581516D03*
X173613515Y-134132582D03*
D15*
X187915559Y-136832307D03*
X186691094Y-137511038D03*
X185466625Y-138189771D03*
X184242158Y-138868504D03*
X183017691Y-139547237D03*
X181793222Y-140225971D03*
X180568755Y-140904702D03*
X179344289Y-141583438D03*
D14*
X177007183Y-140254922D03*
D16*
X137695356Y-133558793D03*
X137016623Y-134783261D03*
X136337890Y-136007728D03*
X135659156Y-137232196D03*
X134980423Y-138456663D03*
X134301689Y-139681132D03*
X133622955Y-140905598D03*
X132944221Y-142130066D03*
D17*
X130258236Y-142241895D03*
X129033769Y-141563162D03*
X127809301Y-140884429D03*
X126584833Y-140205695D03*
X125360366Y-139526962D03*
X124135898Y-138848228D03*
X122911431Y-138169494D03*
X121686963Y-137490761D03*
D18*
X160050000Y-82090000D03*
X144150000Y-82950000D03*
X143160000Y-78240000D03*
X165960000Y-85200000D03*
X164970000Y-78160000D03*
X184130000Y-111350000D03*
X129220000Y-113380000D03*
X180660000Y-80580000D03*
X125870000Y-82560000D03*
D19*
X125444547Y-116858679D03*
X126155453Y-115481321D03*
D20*
X127606496Y-112665202D03*
X126849722Y-114131420D03*
D21*
X114150000Y-132900000D03*
D22*
X124447864Y-111352582D03*
X125914082Y-112109356D03*
D23*
X123500016Y-115003079D03*
X123515798Y-112901204D03*
X125204170Y-113772638D03*
D24*
X116355936Y-130367890D03*
X118844064Y-131652110D03*
D21*
X118120000Y-134970000D03*
D25*
X127208305Y-117753483D03*
X128561317Y-115132053D03*
D26*
X152780000Y-109475000D03*
X152780000Y-111025000D03*
X159640000Y-109575000D03*
X159640000Y-111125000D03*
D27*
X181388683Y-78817947D03*
X182741695Y-76196517D03*
D28*
X183100278Y-79818580D03*
X182343504Y-81284798D03*
D29*
X184035918Y-81840644D03*
X185502136Y-82597418D03*
D30*
X186599992Y-115504588D03*
X185183332Y-112917006D03*
D31*
X159857500Y-76890000D03*
X158207500Y-76890000D03*
D32*
X127863218Y-78951619D03*
X129529795Y-78039194D03*
X127796087Y-76850757D03*
D33*
X128838203Y-80472168D03*
X130285493Y-79679798D03*
D34*
X191105936Y-62297890D03*
X193594064Y-63582110D03*
D35*
X155710000Y-111060000D03*
X155710000Y-109410000D03*
D26*
X144080000Y-79655000D03*
X144080000Y-81205000D03*
D36*
X191830000Y-58980000D03*
D37*
X145820000Y-81725000D03*
X145820000Y-80075000D03*
D31*
X162825000Y-80040000D03*
X161175000Y-80040000D03*
D38*
X118180369Y-59093320D03*
D39*
X186449984Y-78946921D03*
X186434202Y-81048796D03*
X184745830Y-80177362D03*
D40*
X181194944Y-113420257D03*
X179747652Y-114212625D03*
D41*
X191851298Y-134796441D03*
D42*
X140335665Y-113212446D03*
X146604335Y-115847554D03*
D43*
X142231011Y-111026088D03*
X144535668Y-111994876D03*
X146840326Y-112963666D03*
D44*
X116588777Y-63680707D03*
X119044787Y-62336081D03*
D31*
X162817500Y-78460000D03*
X161167500Y-78460000D03*
D35*
X162590000Y-111175000D03*
X162590000Y-109525000D03*
D31*
X158197500Y-78460000D03*
X159847500Y-78460000D03*
X152345000Y-76810000D03*
X150695000Y-76810000D03*
D18*
X154690000Y-81960000D03*
D45*
X156060000Y-76500000D03*
X155660000Y-76500000D03*
X155260000Y-76500000D03*
X154860000Y-76500000D03*
X154460000Y-76500000D03*
X154060000Y-76500000D03*
D46*
X153560000Y-77000000D03*
X153560000Y-77400000D03*
X153560000Y-77800000D03*
X153560000Y-78200000D03*
X153560000Y-78600000D03*
X153560000Y-79000000D03*
D45*
X154060000Y-79500000D03*
X154460000Y-79500000D03*
X154860000Y-79500000D03*
X155260000Y-79500000D03*
X155660000Y-79500000D03*
X156060000Y-79500000D03*
D46*
X156560000Y-79000000D03*
X156560000Y-78600000D03*
X156560000Y-78200000D03*
X156560000Y-77800000D03*
X156560000Y-77400000D03*
X156560000Y-77000000D03*
D47*
X166827500Y-83685000D03*
X168377500Y-83685000D03*
D48*
X152275000Y-78310000D03*
X150725000Y-78310000D03*
D31*
X152325000Y-79800000D03*
X150675000Y-79800000D03*
X162827500Y-76890000D03*
X161177500Y-76890000D03*
D49*
X184863471Y-116476229D03*
X184119125Y-115116653D03*
D47*
X166837500Y-82205000D03*
X168387500Y-82205000D03*
D50*
X161100000Y-115910000D03*
X161100000Y-112510000D03*
D51*
X183397482Y-113780087D03*
X182605114Y-112332795D03*
D52*
X182164377Y-114937904D03*
X180497800Y-115850329D03*
X182231508Y-117038766D03*
D50*
X154290000Y-115900000D03*
X154290000Y-112500000D03*
D31*
X159855000Y-80040000D03*
X158205000Y-80040000D03*
D53*
X127431003Y-81564414D03*
X126638633Y-80117124D03*
D54*
X169900000Y-81865000D03*
X169900000Y-80315000D03*
D55*
X123435293Y-78388970D03*
X124851953Y-80976552D03*
D56*
X125912887Y-78791519D03*
X125168541Y-77431943D03*
D57*
X141975000Y-83225000D03*
X141975000Y-81975000D03*
X141975000Y-80725000D03*
X141975000Y-79475000D03*
X139825000Y-79475000D03*
X139825000Y-80725000D03*
X139825000Y-81975000D03*
X139825000Y-83225000D03*
D35*
X154250000Y-111065000D03*
X154250000Y-109415000D03*
D38*
X114252605Y-61231700D03*
D41*
X195781298Y-132656441D03*
D58*
X147350000Y-82685000D03*
X149250000Y-82685000D03*
X148300000Y-80810000D03*
D59*
X151390000Y-83740000D03*
X153265000Y-82790000D03*
X153265000Y-84690000D03*
D47*
X149655000Y-84400000D03*
X148105000Y-84400000D03*
X149655000Y-85870000D03*
X148105000Y-85870000D03*
D35*
X161110000Y-111175000D03*
X161110000Y-109525000D03*
D48*
X151410000Y-81300000D03*
X152960000Y-81300000D03*
D58*
X147350000Y-78820000D03*
X149250000Y-78820000D03*
X148300000Y-76945000D03*
D60*
X183794547Y-78468679D03*
X184505453Y-77091321D03*
D48*
X155970000Y-80800000D03*
X154420000Y-80800000D03*
D61*
X195800000Y-61050000D03*
D62*
X119070000Y-92710001D03*
D63*
X123250000Y-92710000D03*
D62*
X119070000Y-101350001D03*
D63*
X123250000Y-101350000D03*
D64*
X122750000Y-94140000D03*
X122750001Y-99920000D03*
D65*
X193439303Y-130214128D03*
X190983293Y-131558754D03*
D35*
X145850000Y-77085000D03*
X145850000Y-78735000D03*
D66*
X119170000Y-96891000D03*
X190848800Y-96891000D03*
D67*
X119170000Y-88890000D03*
D68*
X127386900Y-104892000D03*
X182631900Y-88890000D03*
D69*
X166892500Y-80880000D03*
X167392500Y-80880000D03*
X167892500Y-80880000D03*
X168392500Y-80880000D03*
D70*
X168555000Y-80217500D03*
X168555000Y-79717500D03*
X168555000Y-79217500D03*
D69*
X168392500Y-78555000D03*
X167892500Y-78555000D03*
X167392500Y-78555000D03*
X166892500Y-78555000D03*
D70*
X166730000Y-79217500D03*
X166730000Y-79717500D03*
X166730000Y-80217500D03*
%LPD*%
M02*
