%TF.GenerationSoftware,KiCad,Pcbnew,8.0.6*%
%TF.CreationDate,2025-05-29T10:34:43-07:00*%
%TF.ProjectId,Drone PCB,44726f6e-6520-4504-9342-2e6b69636164,rev?*%
%TF.SameCoordinates,Original*%
%TF.FileFunction,Drillmap*%
%TF.FilePolarity,Positive*%
%FSLAX45Y45*%
G04 Gerber Fmt 4.5, Leading zero omitted, Abs format (unit mm)*
G04 Created by KiCad (PCBNEW 8.0.6) date 2025-05-29 10:34:43*
%MOMM*%
%LPD*%
G01*
G04 APERTURE LIST*
%ADD10C,0.050000*%
%ADD11C,0.010000*%
%ADD12C,0.200000*%
%ADD13C,0.100000*%
%ADD14C,0.238760*%
%ADD15C,0.345440*%
G04 APERTURE END LIST*
D10*
X12082518Y-13723031D02*
X12016000Y-13687000D01*
X12163482Y-13576969D02*
X12101000Y-13539000D01*
X18765615Y-13436353D02*
X18816000Y-13406000D01*
X18885458Y-13654618D02*
X18942000Y-13623000D01*
X17805303Y-14253358D02*
X17166324Y-13100610D01*
X17166324Y-13100610D02*
X17312385Y-13019647D01*
X17805303Y-14253358D02*
X18885458Y-13654618D01*
X17312385Y-13019647D02*
X18765615Y-13436353D01*
X13616712Y-13160262D02*
X13834007Y-13281854D01*
X12163482Y-13576969D02*
X13616712Y-13160262D01*
X13235267Y-14362010D02*
X12082518Y-13723031D01*
X13235267Y-14362010D02*
X13834007Y-13281854D01*
X17944711Y-9260711D02*
X17944711Y-10132289D01*
X18574289Y-9159711D02*
X18044711Y-9160711D01*
X18674289Y-10132289D02*
X18674289Y-9259711D01*
X18044711Y-10232289D02*
X18574289Y-10232289D01*
X18044711Y-10232289D02*
G75*
G02*
X17944711Y-10132289I0J100000D01*
G01*
X18674289Y-10132289D02*
G75*
G02*
X18574289Y-10232289I-100000J0D01*
G01*
X18574289Y-9159711D02*
G75*
G02*
X18674289Y-9259711I0J-100000D01*
G01*
X17944711Y-9260711D02*
G75*
G02*
X18044711Y-9160711I100000J0D01*
G01*
X14585000Y-7546000D02*
X16410000Y-7546000D01*
D11*
X20057163Y-14934661D02*
X19208751Y-14086000D01*
X19928751Y-6026000D02*
X20778412Y-5176588D01*
D10*
X11640000Y-10727249D02*
X12395000Y-10727249D01*
D11*
X20057163Y-14934661D02*
X20778412Y-14213412D01*
D10*
X19361000Y-10727000D02*
X18600000Y-10727249D01*
X17621249Y-11336000D02*
X16411249Y-11846000D01*
D11*
X10937837Y-4455339D02*
X11786249Y-5306000D01*
D10*
X18600000Y-8667249D02*
X19928751Y-6026000D01*
D11*
X20778412Y-5176588D02*
X20057163Y-4455339D01*
D10*
X19208751Y-5306000D02*
X17620000Y-8047249D01*
X19361000Y-8667000D02*
X19361000Y-10727000D01*
X17620000Y-8047249D02*
X16410000Y-7546000D01*
X12016000Y-13687000D02*
X11786249Y-14086000D01*
X18600000Y-10727249D02*
X19928751Y-13360000D01*
D11*
X20778412Y-14213412D02*
X19928751Y-13360000D01*
X20057163Y-4455339D02*
X19208751Y-5306000D01*
D10*
X11640000Y-8667249D02*
X12395000Y-8667249D01*
D11*
X10937837Y-14934661D02*
X10216588Y-14213412D01*
D10*
X11640000Y-8667249D02*
X11640000Y-10727249D01*
X12395000Y-10727249D02*
X11066249Y-13360000D01*
X11786249Y-5306000D02*
X13375000Y-8047249D01*
X19361000Y-8667000D02*
X18600000Y-8667249D01*
X13375000Y-8047249D02*
X14585000Y-7546000D01*
X13373751Y-11336000D02*
X14583751Y-11846000D01*
X12395000Y-8667249D02*
X11066249Y-6026000D01*
D11*
X10937837Y-14934661D02*
X11786249Y-14086000D01*
X11066249Y-6026000D02*
X10216588Y-5176588D01*
X10216588Y-14213412D02*
X11066249Y-13360000D01*
X10216588Y-5176588D02*
X10937837Y-4455339D01*
D10*
X18816000Y-13406000D02*
X17621249Y-11336000D01*
X16411249Y-11846000D02*
X14583751Y-11846000D01*
X19208751Y-14086000D02*
X18942000Y-13623000D01*
X12101000Y-13539000D02*
X13373751Y-11336000D01*
D12*
D13*
X12043000Y-13671000D02*
X12073000Y-13701000D01*
X12073000Y-13671000D02*
X12043000Y-13701000D01*
X12063000Y-13635000D02*
X12093000Y-13665000D01*
X12093000Y-13635000D02*
X12063000Y-13665000D01*
X12085000Y-13599000D02*
X12115000Y-13629000D01*
X12115000Y-13599000D02*
X12085000Y-13629000D01*
X12107000Y-13562000D02*
X12137000Y-13592000D01*
X12137000Y-13562000D02*
X12107000Y-13592000D01*
X18794000Y-13435000D02*
X18824000Y-13465000D01*
X18824000Y-13435000D02*
X18794000Y-13465000D01*
X18815000Y-13472000D02*
X18845000Y-13502000D01*
X18845000Y-13472000D02*
X18815000Y-13502000D01*
X18834000Y-13507000D02*
X18864000Y-13537000D01*
X18864000Y-13507000D02*
X18834000Y-13537000D01*
X18854000Y-13542000D02*
X18884000Y-13572000D01*
X18884000Y-13542000D02*
X18854000Y-13572000D01*
X18875000Y-13574000D02*
X18905000Y-13604000D01*
X18905000Y-13574000D02*
X18875000Y-13604000D01*
X18893000Y-13603000D02*
X18923000Y-13633000D01*
X18923000Y-13603000D02*
X18893000Y-13633000D01*
X12307500Y-9414000D02*
G75*
G02*
X12242500Y-9414000I-32500J0D01*
G01*
X12242500Y-9414000D02*
G75*
G02*
X12307500Y-9414000I32500J0D01*
G01*
X12307500Y-9992000D02*
G75*
G02*
X12242500Y-9992000I-32500J0D01*
G01*
X12242500Y-9992000D02*
G75*
G02*
X12307500Y-9992000I32500J0D01*
G01*
X14033566Y-11276245D02*
X14033566Y-11366245D01*
X13988566Y-11321245D02*
X14078566Y-11321245D01*
X14660433Y-11539755D02*
X14660433Y-11629755D01*
X14615433Y-11584755D02*
X14705433Y-11584755D01*
D14*
X12001415Y-8973415D02*
X12001415Y-8804585D01*
X11832585Y-8804585D01*
X11832585Y-8973415D01*
X12001415Y-8973415D01*
D15*
X12738690Y-10661920D02*
X12911410Y-10489200D01*
X12738690Y-10316480D01*
X12565970Y-10489200D01*
X12738690Y-10661920D01*
X18263190Y-9061720D02*
X18435910Y-8889000D01*
X18263190Y-8716280D01*
X18090470Y-8889000D01*
X18263190Y-9061720D01*
D12*
X10476865Y-15246645D02*
X10476865Y-15046645D01*
X10476865Y-15046645D02*
X10524484Y-15046645D01*
X10524484Y-15046645D02*
X10553055Y-15056169D01*
X10553055Y-15056169D02*
X10572103Y-15075216D01*
X10572103Y-15075216D02*
X10581626Y-15094264D01*
X10581626Y-15094264D02*
X10591150Y-15132359D01*
X10591150Y-15132359D02*
X10591150Y-15160931D01*
X10591150Y-15160931D02*
X10581626Y-15199026D01*
X10581626Y-15199026D02*
X10572103Y-15218073D01*
X10572103Y-15218073D02*
X10553055Y-15237121D01*
X10553055Y-15237121D02*
X10524484Y-15246645D01*
X10524484Y-15246645D02*
X10476865Y-15246645D01*
X10676865Y-15246645D02*
X10676865Y-15113312D01*
X10676865Y-15151407D02*
X10686388Y-15132359D01*
X10686388Y-15132359D02*
X10695912Y-15122835D01*
X10695912Y-15122835D02*
X10714960Y-15113312D01*
X10714960Y-15113312D02*
X10734007Y-15113312D01*
X10800674Y-15246645D02*
X10800674Y-15113312D01*
X10800674Y-15046645D02*
X10791150Y-15056169D01*
X10791150Y-15056169D02*
X10800674Y-15065693D01*
X10800674Y-15065693D02*
X10810198Y-15056169D01*
X10810198Y-15056169D02*
X10800674Y-15046645D01*
X10800674Y-15046645D02*
X10800674Y-15065693D01*
X10924484Y-15246645D02*
X10905436Y-15237121D01*
X10905436Y-15237121D02*
X10895912Y-15218073D01*
X10895912Y-15218073D02*
X10895912Y-15046645D01*
X11029245Y-15246645D02*
X11010198Y-15237121D01*
X11010198Y-15237121D02*
X11000674Y-15218073D01*
X11000674Y-15218073D02*
X11000674Y-15046645D01*
X11257817Y-15246645D02*
X11257817Y-15046645D01*
X11257817Y-15046645D02*
X11324484Y-15189502D01*
X11324484Y-15189502D02*
X11391150Y-15046645D01*
X11391150Y-15046645D02*
X11391150Y-15246645D01*
X11572103Y-15246645D02*
X11572103Y-15141883D01*
X11572103Y-15141883D02*
X11562579Y-15122835D01*
X11562579Y-15122835D02*
X11543531Y-15113312D01*
X11543531Y-15113312D02*
X11505436Y-15113312D01*
X11505436Y-15113312D02*
X11486388Y-15122835D01*
X11572103Y-15237121D02*
X11553055Y-15246645D01*
X11553055Y-15246645D02*
X11505436Y-15246645D01*
X11505436Y-15246645D02*
X11486388Y-15237121D01*
X11486388Y-15237121D02*
X11476864Y-15218073D01*
X11476864Y-15218073D02*
X11476864Y-15199026D01*
X11476864Y-15199026D02*
X11486388Y-15179978D01*
X11486388Y-15179978D02*
X11505436Y-15170454D01*
X11505436Y-15170454D02*
X11553055Y-15170454D01*
X11553055Y-15170454D02*
X11572103Y-15160931D01*
X11667341Y-15113312D02*
X11667341Y-15313312D01*
X11667341Y-15122835D02*
X11686388Y-15113312D01*
X11686388Y-15113312D02*
X11724484Y-15113312D01*
X11724484Y-15113312D02*
X11743531Y-15122835D01*
X11743531Y-15122835D02*
X11753055Y-15132359D01*
X11753055Y-15132359D02*
X11762579Y-15151407D01*
X11762579Y-15151407D02*
X11762579Y-15208550D01*
X11762579Y-15208550D02*
X11753055Y-15227597D01*
X11753055Y-15227597D02*
X11743531Y-15237121D01*
X11743531Y-15237121D02*
X11724484Y-15246645D01*
X11724484Y-15246645D02*
X11686388Y-15246645D01*
X11686388Y-15246645D02*
X11667341Y-15237121D01*
X11848293Y-15227597D02*
X11857817Y-15237121D01*
X11857817Y-15237121D02*
X11848293Y-15246645D01*
X11848293Y-15246645D02*
X11838769Y-15237121D01*
X11838769Y-15237121D02*
X11848293Y-15227597D01*
X11848293Y-15227597D02*
X11848293Y-15246645D01*
X11848293Y-15122835D02*
X11857817Y-15132359D01*
X11857817Y-15132359D02*
X11848293Y-15141883D01*
X11848293Y-15141883D02*
X11838769Y-15132359D01*
X11838769Y-15132359D02*
X11848293Y-15122835D01*
X11848293Y-15122835D02*
X11848293Y-15141883D01*
D13*
X10186088Y-15560161D02*
X10216088Y-15590161D01*
X10216088Y-15560161D02*
X10186088Y-15590161D01*
D12*
X10514960Y-15466645D02*
X10534007Y-15466645D01*
X10534007Y-15466645D02*
X10553055Y-15476169D01*
X10553055Y-15476169D02*
X10562579Y-15485693D01*
X10562579Y-15485693D02*
X10572103Y-15504740D01*
X10572103Y-15504740D02*
X10581626Y-15542835D01*
X10581626Y-15542835D02*
X10581626Y-15590454D01*
X10581626Y-15590454D02*
X10572103Y-15628550D01*
X10572103Y-15628550D02*
X10562579Y-15647597D01*
X10562579Y-15647597D02*
X10553055Y-15657121D01*
X10553055Y-15657121D02*
X10534007Y-15666645D01*
X10534007Y-15666645D02*
X10514960Y-15666645D01*
X10514960Y-15666645D02*
X10495912Y-15657121D01*
X10495912Y-15657121D02*
X10486388Y-15647597D01*
X10486388Y-15647597D02*
X10476865Y-15628550D01*
X10476865Y-15628550D02*
X10467341Y-15590454D01*
X10467341Y-15590454D02*
X10467341Y-15542835D01*
X10467341Y-15542835D02*
X10476865Y-15504740D01*
X10476865Y-15504740D02*
X10486388Y-15485693D01*
X10486388Y-15485693D02*
X10495912Y-15476169D01*
X10495912Y-15476169D02*
X10514960Y-15466645D01*
X10667341Y-15647597D02*
X10676865Y-15657121D01*
X10676865Y-15657121D02*
X10667341Y-15666645D01*
X10667341Y-15666645D02*
X10657817Y-15657121D01*
X10657817Y-15657121D02*
X10667341Y-15647597D01*
X10667341Y-15647597D02*
X10667341Y-15666645D01*
X10743531Y-15466645D02*
X10867341Y-15466645D01*
X10867341Y-15466645D02*
X10800674Y-15542835D01*
X10800674Y-15542835D02*
X10829246Y-15542835D01*
X10829246Y-15542835D02*
X10848293Y-15552359D01*
X10848293Y-15552359D02*
X10857817Y-15561883D01*
X10857817Y-15561883D02*
X10867341Y-15580931D01*
X10867341Y-15580931D02*
X10867341Y-15628550D01*
X10867341Y-15628550D02*
X10857817Y-15647597D01*
X10857817Y-15647597D02*
X10848293Y-15657121D01*
X10848293Y-15657121D02*
X10829246Y-15666645D01*
X10829246Y-15666645D02*
X10772103Y-15666645D01*
X10772103Y-15666645D02*
X10753055Y-15657121D01*
X10753055Y-15657121D02*
X10743531Y-15647597D01*
X10991150Y-15466645D02*
X11010198Y-15466645D01*
X11010198Y-15466645D02*
X11029246Y-15476169D01*
X11029246Y-15476169D02*
X11038769Y-15485693D01*
X11038769Y-15485693D02*
X11048293Y-15504740D01*
X11048293Y-15504740D02*
X11057817Y-15542835D01*
X11057817Y-15542835D02*
X11057817Y-15590454D01*
X11057817Y-15590454D02*
X11048293Y-15628550D01*
X11048293Y-15628550D02*
X11038769Y-15647597D01*
X11038769Y-15647597D02*
X11029246Y-15657121D01*
X11029246Y-15657121D02*
X11010198Y-15666645D01*
X11010198Y-15666645D02*
X10991150Y-15666645D01*
X10991150Y-15666645D02*
X10972103Y-15657121D01*
X10972103Y-15657121D02*
X10962579Y-15647597D01*
X10962579Y-15647597D02*
X10953055Y-15628550D01*
X10953055Y-15628550D02*
X10943531Y-15590454D01*
X10943531Y-15590454D02*
X10943531Y-15542835D01*
X10943531Y-15542835D02*
X10953055Y-15504740D01*
X10953055Y-15504740D02*
X10962579Y-15485693D01*
X10962579Y-15485693D02*
X10972103Y-15476169D01*
X10972103Y-15476169D02*
X10991150Y-15466645D01*
X11181626Y-15466645D02*
X11200674Y-15466645D01*
X11200674Y-15466645D02*
X11219722Y-15476169D01*
X11219722Y-15476169D02*
X11229245Y-15485693D01*
X11229245Y-15485693D02*
X11238769Y-15504740D01*
X11238769Y-15504740D02*
X11248293Y-15542835D01*
X11248293Y-15542835D02*
X11248293Y-15590454D01*
X11248293Y-15590454D02*
X11238769Y-15628550D01*
X11238769Y-15628550D02*
X11229245Y-15647597D01*
X11229245Y-15647597D02*
X11219722Y-15657121D01*
X11219722Y-15657121D02*
X11200674Y-15666645D01*
X11200674Y-15666645D02*
X11181626Y-15666645D01*
X11181626Y-15666645D02*
X11162579Y-15657121D01*
X11162579Y-15657121D02*
X11153055Y-15647597D01*
X11153055Y-15647597D02*
X11143531Y-15628550D01*
X11143531Y-15628550D02*
X11134007Y-15590454D01*
X11134007Y-15590454D02*
X11134007Y-15542835D01*
X11134007Y-15542835D02*
X11143531Y-15504740D01*
X11143531Y-15504740D02*
X11153055Y-15485693D01*
X11153055Y-15485693D02*
X11162579Y-15476169D01*
X11162579Y-15476169D02*
X11181626Y-15466645D01*
X11334007Y-15666645D02*
X11334007Y-15533312D01*
X11334007Y-15552359D02*
X11343531Y-15542835D01*
X11343531Y-15542835D02*
X11362579Y-15533312D01*
X11362579Y-15533312D02*
X11391150Y-15533312D01*
X11391150Y-15533312D02*
X11410198Y-15542835D01*
X11410198Y-15542835D02*
X11419722Y-15561883D01*
X11419722Y-15561883D02*
X11419722Y-15666645D01*
X11419722Y-15561883D02*
X11429245Y-15542835D01*
X11429245Y-15542835D02*
X11448293Y-15533312D01*
X11448293Y-15533312D02*
X11476864Y-15533312D01*
X11476864Y-15533312D02*
X11495912Y-15542835D01*
X11495912Y-15542835D02*
X11505436Y-15561883D01*
X11505436Y-15561883D02*
X11505436Y-15666645D01*
X11600674Y-15666645D02*
X11600674Y-15533312D01*
X11600674Y-15552359D02*
X11610198Y-15542835D01*
X11610198Y-15542835D02*
X11629245Y-15533312D01*
X11629245Y-15533312D02*
X11657817Y-15533312D01*
X11657817Y-15533312D02*
X11676865Y-15542835D01*
X11676865Y-15542835D02*
X11686388Y-15561883D01*
X11686388Y-15561883D02*
X11686388Y-15666645D01*
X11686388Y-15561883D02*
X11695912Y-15542835D01*
X11695912Y-15542835D02*
X11714960Y-15533312D01*
X11714960Y-15533312D02*
X11743531Y-15533312D01*
X11743531Y-15533312D02*
X11762579Y-15542835D01*
X11762579Y-15542835D02*
X11772103Y-15561883D01*
X11772103Y-15561883D02*
X11772103Y-15666645D01*
X12162579Y-15457121D02*
X11991150Y-15714264D01*
X12419722Y-15466645D02*
X12438769Y-15466645D01*
X12438769Y-15466645D02*
X12457817Y-15476169D01*
X12457817Y-15476169D02*
X12467341Y-15485693D01*
X12467341Y-15485693D02*
X12476865Y-15504740D01*
X12476865Y-15504740D02*
X12486388Y-15542835D01*
X12486388Y-15542835D02*
X12486388Y-15590454D01*
X12486388Y-15590454D02*
X12476865Y-15628550D01*
X12476865Y-15628550D02*
X12467341Y-15647597D01*
X12467341Y-15647597D02*
X12457817Y-15657121D01*
X12457817Y-15657121D02*
X12438769Y-15666645D01*
X12438769Y-15666645D02*
X12419722Y-15666645D01*
X12419722Y-15666645D02*
X12400674Y-15657121D01*
X12400674Y-15657121D02*
X12391150Y-15647597D01*
X12391150Y-15647597D02*
X12381627Y-15628550D01*
X12381627Y-15628550D02*
X12372103Y-15590454D01*
X12372103Y-15590454D02*
X12372103Y-15542835D01*
X12372103Y-15542835D02*
X12381627Y-15504740D01*
X12381627Y-15504740D02*
X12391150Y-15485693D01*
X12391150Y-15485693D02*
X12400674Y-15476169D01*
X12400674Y-15476169D02*
X12419722Y-15466645D01*
X12572103Y-15647597D02*
X12581627Y-15657121D01*
X12581627Y-15657121D02*
X12572103Y-15666645D01*
X12572103Y-15666645D02*
X12562579Y-15657121D01*
X12562579Y-15657121D02*
X12572103Y-15647597D01*
X12572103Y-15647597D02*
X12572103Y-15666645D01*
X12705436Y-15466645D02*
X12724484Y-15466645D01*
X12724484Y-15466645D02*
X12743531Y-15476169D01*
X12743531Y-15476169D02*
X12753055Y-15485693D01*
X12753055Y-15485693D02*
X12762579Y-15504740D01*
X12762579Y-15504740D02*
X12772103Y-15542835D01*
X12772103Y-15542835D02*
X12772103Y-15590454D01*
X12772103Y-15590454D02*
X12762579Y-15628550D01*
X12762579Y-15628550D02*
X12753055Y-15647597D01*
X12753055Y-15647597D02*
X12743531Y-15657121D01*
X12743531Y-15657121D02*
X12724484Y-15666645D01*
X12724484Y-15666645D02*
X12705436Y-15666645D01*
X12705436Y-15666645D02*
X12686388Y-15657121D01*
X12686388Y-15657121D02*
X12676865Y-15647597D01*
X12676865Y-15647597D02*
X12667341Y-15628550D01*
X12667341Y-15628550D02*
X12657817Y-15590454D01*
X12657817Y-15590454D02*
X12657817Y-15542835D01*
X12657817Y-15542835D02*
X12667341Y-15504740D01*
X12667341Y-15504740D02*
X12676865Y-15485693D01*
X12676865Y-15485693D02*
X12686388Y-15476169D01*
X12686388Y-15476169D02*
X12705436Y-15466645D01*
X12962579Y-15666645D02*
X12848293Y-15666645D01*
X12905436Y-15666645D02*
X12905436Y-15466645D01*
X12905436Y-15466645D02*
X12886388Y-15495216D01*
X12886388Y-15495216D02*
X12867341Y-15514264D01*
X12867341Y-15514264D02*
X12848293Y-15523788D01*
X13153055Y-15666645D02*
X13038769Y-15666645D01*
X13095912Y-15666645D02*
X13095912Y-15466645D01*
X13095912Y-15466645D02*
X13076865Y-15495216D01*
X13076865Y-15495216D02*
X13057817Y-15514264D01*
X13057817Y-15514264D02*
X13038769Y-15523788D01*
X13267341Y-15552359D02*
X13248293Y-15542835D01*
X13248293Y-15542835D02*
X13238769Y-15533312D01*
X13238769Y-15533312D02*
X13229246Y-15514264D01*
X13229246Y-15514264D02*
X13229246Y-15504740D01*
X13229246Y-15504740D02*
X13238769Y-15485693D01*
X13238769Y-15485693D02*
X13248293Y-15476169D01*
X13248293Y-15476169D02*
X13267341Y-15466645D01*
X13267341Y-15466645D02*
X13305436Y-15466645D01*
X13305436Y-15466645D02*
X13324484Y-15476169D01*
X13324484Y-15476169D02*
X13334008Y-15485693D01*
X13334008Y-15485693D02*
X13343531Y-15504740D01*
X13343531Y-15504740D02*
X13343531Y-15514264D01*
X13343531Y-15514264D02*
X13334008Y-15533312D01*
X13334008Y-15533312D02*
X13324484Y-15542835D01*
X13324484Y-15542835D02*
X13305436Y-15552359D01*
X13305436Y-15552359D02*
X13267341Y-15552359D01*
X13267341Y-15552359D02*
X13248293Y-15561883D01*
X13248293Y-15561883D02*
X13238769Y-15571407D01*
X13238769Y-15571407D02*
X13229246Y-15590454D01*
X13229246Y-15590454D02*
X13229246Y-15628550D01*
X13229246Y-15628550D02*
X13238769Y-15647597D01*
X13238769Y-15647597D02*
X13248293Y-15657121D01*
X13248293Y-15657121D02*
X13267341Y-15666645D01*
X13267341Y-15666645D02*
X13305436Y-15666645D01*
X13305436Y-15666645D02*
X13324484Y-15657121D01*
X13324484Y-15657121D02*
X13334008Y-15647597D01*
X13334008Y-15647597D02*
X13343531Y-15628550D01*
X13343531Y-15628550D02*
X13343531Y-15590454D01*
X13343531Y-15590454D02*
X13334008Y-15571407D01*
X13334008Y-15571407D02*
X13324484Y-15561883D01*
X13324484Y-15561883D02*
X13305436Y-15552359D01*
X13419722Y-15466645D02*
X13419722Y-15504740D01*
X13495912Y-15466645D02*
X13495912Y-15504740D01*
X13791151Y-15742835D02*
X13781627Y-15733312D01*
X13781627Y-15733312D02*
X13762579Y-15704740D01*
X13762579Y-15704740D02*
X13753055Y-15685693D01*
X13753055Y-15685693D02*
X13743531Y-15657121D01*
X13743531Y-15657121D02*
X13734008Y-15609502D01*
X13734008Y-15609502D02*
X13734008Y-15571407D01*
X13734008Y-15571407D02*
X13743531Y-15523788D01*
X13743531Y-15523788D02*
X13753055Y-15495216D01*
X13753055Y-15495216D02*
X13762579Y-15476169D01*
X13762579Y-15476169D02*
X13781627Y-15447597D01*
X13781627Y-15447597D02*
X13791151Y-15438073D01*
X13972103Y-15666645D02*
X13857817Y-15666645D01*
X13914960Y-15666645D02*
X13914960Y-15466645D01*
X13914960Y-15466645D02*
X13895912Y-15495216D01*
X13895912Y-15495216D02*
X13876865Y-15514264D01*
X13876865Y-15514264D02*
X13857817Y-15523788D01*
X14095912Y-15466645D02*
X14114960Y-15466645D01*
X14114960Y-15466645D02*
X14134008Y-15476169D01*
X14134008Y-15476169D02*
X14143531Y-15485693D01*
X14143531Y-15485693D02*
X14153055Y-15504740D01*
X14153055Y-15504740D02*
X14162579Y-15542835D01*
X14162579Y-15542835D02*
X14162579Y-15590454D01*
X14162579Y-15590454D02*
X14153055Y-15628550D01*
X14153055Y-15628550D02*
X14143531Y-15647597D01*
X14143531Y-15647597D02*
X14134008Y-15657121D01*
X14134008Y-15657121D02*
X14114960Y-15666645D01*
X14114960Y-15666645D02*
X14095912Y-15666645D01*
X14095912Y-15666645D02*
X14076865Y-15657121D01*
X14076865Y-15657121D02*
X14067341Y-15647597D01*
X14067341Y-15647597D02*
X14057817Y-15628550D01*
X14057817Y-15628550D02*
X14048293Y-15590454D01*
X14048293Y-15590454D02*
X14048293Y-15542835D01*
X14048293Y-15542835D02*
X14057817Y-15504740D01*
X14057817Y-15504740D02*
X14067341Y-15485693D01*
X14067341Y-15485693D02*
X14076865Y-15476169D01*
X14076865Y-15476169D02*
X14095912Y-15466645D01*
X14400674Y-15666645D02*
X14400674Y-15466645D01*
X14486389Y-15666645D02*
X14486389Y-15561883D01*
X14486389Y-15561883D02*
X14476865Y-15542835D01*
X14476865Y-15542835D02*
X14457817Y-15533312D01*
X14457817Y-15533312D02*
X14429246Y-15533312D01*
X14429246Y-15533312D02*
X14410198Y-15542835D01*
X14410198Y-15542835D02*
X14400674Y-15552359D01*
X14610198Y-15666645D02*
X14591151Y-15657121D01*
X14591151Y-15657121D02*
X14581627Y-15647597D01*
X14581627Y-15647597D02*
X14572103Y-15628550D01*
X14572103Y-15628550D02*
X14572103Y-15571407D01*
X14572103Y-15571407D02*
X14581627Y-15552359D01*
X14581627Y-15552359D02*
X14591151Y-15542835D01*
X14591151Y-15542835D02*
X14610198Y-15533312D01*
X14610198Y-15533312D02*
X14638770Y-15533312D01*
X14638770Y-15533312D02*
X14657817Y-15542835D01*
X14657817Y-15542835D02*
X14667341Y-15552359D01*
X14667341Y-15552359D02*
X14676865Y-15571407D01*
X14676865Y-15571407D02*
X14676865Y-15628550D01*
X14676865Y-15628550D02*
X14667341Y-15647597D01*
X14667341Y-15647597D02*
X14657817Y-15657121D01*
X14657817Y-15657121D02*
X14638770Y-15666645D01*
X14638770Y-15666645D02*
X14610198Y-15666645D01*
X14791151Y-15666645D02*
X14772103Y-15657121D01*
X14772103Y-15657121D02*
X14762579Y-15638073D01*
X14762579Y-15638073D02*
X14762579Y-15466645D01*
X14943532Y-15657121D02*
X14924484Y-15666645D01*
X14924484Y-15666645D02*
X14886389Y-15666645D01*
X14886389Y-15666645D02*
X14867341Y-15657121D01*
X14867341Y-15657121D02*
X14857817Y-15638073D01*
X14857817Y-15638073D02*
X14857817Y-15561883D01*
X14857817Y-15561883D02*
X14867341Y-15542835D01*
X14867341Y-15542835D02*
X14886389Y-15533312D01*
X14886389Y-15533312D02*
X14924484Y-15533312D01*
X14924484Y-15533312D02*
X14943532Y-15542835D01*
X14943532Y-15542835D02*
X14953055Y-15561883D01*
X14953055Y-15561883D02*
X14953055Y-15580931D01*
X14953055Y-15580931D02*
X14857817Y-15599978D01*
X15029246Y-15657121D02*
X15048293Y-15666645D01*
X15048293Y-15666645D02*
X15086389Y-15666645D01*
X15086389Y-15666645D02*
X15105436Y-15657121D01*
X15105436Y-15657121D02*
X15114960Y-15638073D01*
X15114960Y-15638073D02*
X15114960Y-15628550D01*
X15114960Y-15628550D02*
X15105436Y-15609502D01*
X15105436Y-15609502D02*
X15086389Y-15599978D01*
X15086389Y-15599978D02*
X15057817Y-15599978D01*
X15057817Y-15599978D02*
X15038770Y-15590454D01*
X15038770Y-15590454D02*
X15029246Y-15571407D01*
X15029246Y-15571407D02*
X15029246Y-15561883D01*
X15029246Y-15561883D02*
X15038770Y-15542835D01*
X15038770Y-15542835D02*
X15057817Y-15533312D01*
X15057817Y-15533312D02*
X15086389Y-15533312D01*
X15086389Y-15533312D02*
X15105436Y-15542835D01*
X15181627Y-15742835D02*
X15191151Y-15733312D01*
X15191151Y-15733312D02*
X15210198Y-15704740D01*
X15210198Y-15704740D02*
X15219722Y-15685693D01*
X15219722Y-15685693D02*
X15229246Y-15657121D01*
X15229246Y-15657121D02*
X15238770Y-15609502D01*
X15238770Y-15609502D02*
X15238770Y-15571407D01*
X15238770Y-15571407D02*
X15229246Y-15523788D01*
X15229246Y-15523788D02*
X15219722Y-15495216D01*
X15219722Y-15495216D02*
X15210198Y-15476169D01*
X15210198Y-15476169D02*
X15191151Y-15447597D01*
X15191151Y-15447597D02*
X15181627Y-15438073D01*
X15543532Y-15742835D02*
X15534008Y-15733312D01*
X15534008Y-15733312D02*
X15514960Y-15704740D01*
X15514960Y-15704740D02*
X15505436Y-15685693D01*
X15505436Y-15685693D02*
X15495913Y-15657121D01*
X15495913Y-15657121D02*
X15486389Y-15609502D01*
X15486389Y-15609502D02*
X15486389Y-15571407D01*
X15486389Y-15571407D02*
X15495913Y-15523788D01*
X15495913Y-15523788D02*
X15505436Y-15495216D01*
X15505436Y-15495216D02*
X15514960Y-15476169D01*
X15514960Y-15476169D02*
X15534008Y-15447597D01*
X15534008Y-15447597D02*
X15543532Y-15438073D01*
X15619722Y-15533312D02*
X15619722Y-15666645D01*
X15619722Y-15552359D02*
X15629246Y-15542835D01*
X15629246Y-15542835D02*
X15648293Y-15533312D01*
X15648293Y-15533312D02*
X15676865Y-15533312D01*
X15676865Y-15533312D02*
X15695913Y-15542835D01*
X15695913Y-15542835D02*
X15705436Y-15561883D01*
X15705436Y-15561883D02*
X15705436Y-15666645D01*
X15829246Y-15666645D02*
X15810198Y-15657121D01*
X15810198Y-15657121D02*
X15800674Y-15647597D01*
X15800674Y-15647597D02*
X15791151Y-15628550D01*
X15791151Y-15628550D02*
X15791151Y-15571407D01*
X15791151Y-15571407D02*
X15800674Y-15552359D01*
X15800674Y-15552359D02*
X15810198Y-15542835D01*
X15810198Y-15542835D02*
X15829246Y-15533312D01*
X15829246Y-15533312D02*
X15857817Y-15533312D01*
X15857817Y-15533312D02*
X15876865Y-15542835D01*
X15876865Y-15542835D02*
X15886389Y-15552359D01*
X15886389Y-15552359D02*
X15895913Y-15571407D01*
X15895913Y-15571407D02*
X15895913Y-15628550D01*
X15895913Y-15628550D02*
X15886389Y-15647597D01*
X15886389Y-15647597D02*
X15876865Y-15657121D01*
X15876865Y-15657121D02*
X15857817Y-15666645D01*
X15857817Y-15666645D02*
X15829246Y-15666645D01*
X15953055Y-15533312D02*
X16029246Y-15533312D01*
X15981627Y-15466645D02*
X15981627Y-15638073D01*
X15981627Y-15638073D02*
X15991151Y-15657121D01*
X15991151Y-15657121D02*
X16010198Y-15666645D01*
X16010198Y-15666645D02*
X16029246Y-15666645D01*
X16248294Y-15533312D02*
X16248294Y-15733312D01*
X16248294Y-15542835D02*
X16267341Y-15533312D01*
X16267341Y-15533312D02*
X16305436Y-15533312D01*
X16305436Y-15533312D02*
X16324484Y-15542835D01*
X16324484Y-15542835D02*
X16334008Y-15552359D01*
X16334008Y-15552359D02*
X16343532Y-15571407D01*
X16343532Y-15571407D02*
X16343532Y-15628550D01*
X16343532Y-15628550D02*
X16334008Y-15647597D01*
X16334008Y-15647597D02*
X16324484Y-15657121D01*
X16324484Y-15657121D02*
X16305436Y-15666645D01*
X16305436Y-15666645D02*
X16267341Y-15666645D01*
X16267341Y-15666645D02*
X16248294Y-15657121D01*
X16457817Y-15666645D02*
X16438770Y-15657121D01*
X16438770Y-15657121D02*
X16429246Y-15638073D01*
X16429246Y-15638073D02*
X16429246Y-15466645D01*
X16619722Y-15666645D02*
X16619722Y-15561883D01*
X16619722Y-15561883D02*
X16610198Y-15542835D01*
X16610198Y-15542835D02*
X16591151Y-15533312D01*
X16591151Y-15533312D02*
X16553055Y-15533312D01*
X16553055Y-15533312D02*
X16534008Y-15542835D01*
X16619722Y-15657121D02*
X16600675Y-15666645D01*
X16600675Y-15666645D02*
X16553055Y-15666645D01*
X16553055Y-15666645D02*
X16534008Y-15657121D01*
X16534008Y-15657121D02*
X16524484Y-15638073D01*
X16524484Y-15638073D02*
X16524484Y-15619026D01*
X16524484Y-15619026D02*
X16534008Y-15599978D01*
X16534008Y-15599978D02*
X16553055Y-15590454D01*
X16553055Y-15590454D02*
X16600675Y-15590454D01*
X16600675Y-15590454D02*
X16619722Y-15580931D01*
X16686389Y-15533312D02*
X16762579Y-15533312D01*
X16714960Y-15466645D02*
X16714960Y-15638073D01*
X16714960Y-15638073D02*
X16724484Y-15657121D01*
X16724484Y-15657121D02*
X16743532Y-15666645D01*
X16743532Y-15666645D02*
X16762579Y-15666645D01*
X16905437Y-15657121D02*
X16886389Y-15666645D01*
X16886389Y-15666645D02*
X16848294Y-15666645D01*
X16848294Y-15666645D02*
X16829246Y-15657121D01*
X16829246Y-15657121D02*
X16819722Y-15638073D01*
X16819722Y-15638073D02*
X16819722Y-15561883D01*
X16819722Y-15561883D02*
X16829246Y-15542835D01*
X16829246Y-15542835D02*
X16848294Y-15533312D01*
X16848294Y-15533312D02*
X16886389Y-15533312D01*
X16886389Y-15533312D02*
X16905437Y-15542835D01*
X16905437Y-15542835D02*
X16914960Y-15561883D01*
X16914960Y-15561883D02*
X16914960Y-15580931D01*
X16914960Y-15580931D02*
X16819722Y-15599978D01*
X17086389Y-15666645D02*
X17086389Y-15466645D01*
X17086389Y-15657121D02*
X17067341Y-15666645D01*
X17067341Y-15666645D02*
X17029246Y-15666645D01*
X17029246Y-15666645D02*
X17010198Y-15657121D01*
X17010198Y-15657121D02*
X17000675Y-15647597D01*
X17000675Y-15647597D02*
X16991151Y-15628550D01*
X16991151Y-15628550D02*
X16991151Y-15571407D01*
X16991151Y-15571407D02*
X17000675Y-15552359D01*
X17000675Y-15552359D02*
X17010198Y-15542835D01*
X17010198Y-15542835D02*
X17029246Y-15533312D01*
X17029246Y-15533312D02*
X17067341Y-15533312D01*
X17067341Y-15533312D02*
X17086389Y-15542835D01*
X17162579Y-15742835D02*
X17172103Y-15733312D01*
X17172103Y-15733312D02*
X17191151Y-15704740D01*
X17191151Y-15704740D02*
X17200675Y-15685693D01*
X17200675Y-15685693D02*
X17210198Y-15657121D01*
X17210198Y-15657121D02*
X17219722Y-15609502D01*
X17219722Y-15609502D02*
X17219722Y-15571407D01*
X17219722Y-15571407D02*
X17210198Y-15523788D01*
X17210198Y-15523788D02*
X17200675Y-15495216D01*
X17200675Y-15495216D02*
X17191151Y-15476169D01*
X17191151Y-15476169D02*
X17172103Y-15447597D01*
X17172103Y-15447597D02*
X17162579Y-15438073D01*
D13*
X10216088Y-15839161D02*
G75*
G02*
X10151088Y-15839161I-32500J0D01*
G01*
X10151088Y-15839161D02*
G75*
G02*
X10216088Y-15839161I32500J0D01*
G01*
D12*
X10514960Y-15730645D02*
X10534007Y-15730645D01*
X10534007Y-15730645D02*
X10553055Y-15740169D01*
X10553055Y-15740169D02*
X10562579Y-15749693D01*
X10562579Y-15749693D02*
X10572103Y-15768740D01*
X10572103Y-15768740D02*
X10581626Y-15806835D01*
X10581626Y-15806835D02*
X10581626Y-15854454D01*
X10581626Y-15854454D02*
X10572103Y-15892550D01*
X10572103Y-15892550D02*
X10562579Y-15911597D01*
X10562579Y-15911597D02*
X10553055Y-15921121D01*
X10553055Y-15921121D02*
X10534007Y-15930645D01*
X10534007Y-15930645D02*
X10514960Y-15930645D01*
X10514960Y-15930645D02*
X10495912Y-15921121D01*
X10495912Y-15921121D02*
X10486388Y-15911597D01*
X10486388Y-15911597D02*
X10476865Y-15892550D01*
X10476865Y-15892550D02*
X10467341Y-15854454D01*
X10467341Y-15854454D02*
X10467341Y-15806835D01*
X10467341Y-15806835D02*
X10476865Y-15768740D01*
X10476865Y-15768740D02*
X10486388Y-15749693D01*
X10486388Y-15749693D02*
X10495912Y-15740169D01*
X10495912Y-15740169D02*
X10514960Y-15730645D01*
X10667341Y-15911597D02*
X10676865Y-15921121D01*
X10676865Y-15921121D02*
X10667341Y-15930645D01*
X10667341Y-15930645D02*
X10657817Y-15921121D01*
X10657817Y-15921121D02*
X10667341Y-15911597D01*
X10667341Y-15911597D02*
X10667341Y-15930645D01*
X10848293Y-15730645D02*
X10810198Y-15730645D01*
X10810198Y-15730645D02*
X10791150Y-15740169D01*
X10791150Y-15740169D02*
X10781626Y-15749693D01*
X10781626Y-15749693D02*
X10762579Y-15778264D01*
X10762579Y-15778264D02*
X10753055Y-15816359D01*
X10753055Y-15816359D02*
X10753055Y-15892550D01*
X10753055Y-15892550D02*
X10762579Y-15911597D01*
X10762579Y-15911597D02*
X10772103Y-15921121D01*
X10772103Y-15921121D02*
X10791150Y-15930645D01*
X10791150Y-15930645D02*
X10829246Y-15930645D01*
X10829246Y-15930645D02*
X10848293Y-15921121D01*
X10848293Y-15921121D02*
X10857817Y-15911597D01*
X10857817Y-15911597D02*
X10867341Y-15892550D01*
X10867341Y-15892550D02*
X10867341Y-15844931D01*
X10867341Y-15844931D02*
X10857817Y-15825883D01*
X10857817Y-15825883D02*
X10848293Y-15816359D01*
X10848293Y-15816359D02*
X10829246Y-15806835D01*
X10829246Y-15806835D02*
X10791150Y-15806835D01*
X10791150Y-15806835D02*
X10772103Y-15816359D01*
X10772103Y-15816359D02*
X10762579Y-15825883D01*
X10762579Y-15825883D02*
X10753055Y-15844931D01*
X11048293Y-15730645D02*
X10953055Y-15730645D01*
X10953055Y-15730645D02*
X10943531Y-15825883D01*
X10943531Y-15825883D02*
X10953055Y-15816359D01*
X10953055Y-15816359D02*
X10972103Y-15806835D01*
X10972103Y-15806835D02*
X11019722Y-15806835D01*
X11019722Y-15806835D02*
X11038769Y-15816359D01*
X11038769Y-15816359D02*
X11048293Y-15825883D01*
X11048293Y-15825883D02*
X11057817Y-15844931D01*
X11057817Y-15844931D02*
X11057817Y-15892550D01*
X11057817Y-15892550D02*
X11048293Y-15911597D01*
X11048293Y-15911597D02*
X11038769Y-15921121D01*
X11038769Y-15921121D02*
X11019722Y-15930645D01*
X11019722Y-15930645D02*
X10972103Y-15930645D01*
X10972103Y-15930645D02*
X10953055Y-15921121D01*
X10953055Y-15921121D02*
X10943531Y-15911597D01*
X11181626Y-15730645D02*
X11200674Y-15730645D01*
X11200674Y-15730645D02*
X11219722Y-15740169D01*
X11219722Y-15740169D02*
X11229245Y-15749693D01*
X11229245Y-15749693D02*
X11238769Y-15768740D01*
X11238769Y-15768740D02*
X11248293Y-15806835D01*
X11248293Y-15806835D02*
X11248293Y-15854454D01*
X11248293Y-15854454D02*
X11238769Y-15892550D01*
X11238769Y-15892550D02*
X11229245Y-15911597D01*
X11229245Y-15911597D02*
X11219722Y-15921121D01*
X11219722Y-15921121D02*
X11200674Y-15930645D01*
X11200674Y-15930645D02*
X11181626Y-15930645D01*
X11181626Y-15930645D02*
X11162579Y-15921121D01*
X11162579Y-15921121D02*
X11153055Y-15911597D01*
X11153055Y-15911597D02*
X11143531Y-15892550D01*
X11143531Y-15892550D02*
X11134007Y-15854454D01*
X11134007Y-15854454D02*
X11134007Y-15806835D01*
X11134007Y-15806835D02*
X11143531Y-15768740D01*
X11143531Y-15768740D02*
X11153055Y-15749693D01*
X11153055Y-15749693D02*
X11162579Y-15740169D01*
X11162579Y-15740169D02*
X11181626Y-15730645D01*
X11334007Y-15930645D02*
X11334007Y-15797312D01*
X11334007Y-15816359D02*
X11343531Y-15806835D01*
X11343531Y-15806835D02*
X11362579Y-15797312D01*
X11362579Y-15797312D02*
X11391150Y-15797312D01*
X11391150Y-15797312D02*
X11410198Y-15806835D01*
X11410198Y-15806835D02*
X11419722Y-15825883D01*
X11419722Y-15825883D02*
X11419722Y-15930645D01*
X11419722Y-15825883D02*
X11429245Y-15806835D01*
X11429245Y-15806835D02*
X11448293Y-15797312D01*
X11448293Y-15797312D02*
X11476864Y-15797312D01*
X11476864Y-15797312D02*
X11495912Y-15806835D01*
X11495912Y-15806835D02*
X11505436Y-15825883D01*
X11505436Y-15825883D02*
X11505436Y-15930645D01*
X11600674Y-15930645D02*
X11600674Y-15797312D01*
X11600674Y-15816359D02*
X11610198Y-15806835D01*
X11610198Y-15806835D02*
X11629245Y-15797312D01*
X11629245Y-15797312D02*
X11657817Y-15797312D01*
X11657817Y-15797312D02*
X11676865Y-15806835D01*
X11676865Y-15806835D02*
X11686388Y-15825883D01*
X11686388Y-15825883D02*
X11686388Y-15930645D01*
X11686388Y-15825883D02*
X11695912Y-15806835D01*
X11695912Y-15806835D02*
X11714960Y-15797312D01*
X11714960Y-15797312D02*
X11743531Y-15797312D01*
X11743531Y-15797312D02*
X11762579Y-15806835D01*
X11762579Y-15806835D02*
X11772103Y-15825883D01*
X11772103Y-15825883D02*
X11772103Y-15930645D01*
X12162579Y-15721121D02*
X11991150Y-15978264D01*
X12419722Y-15730645D02*
X12438769Y-15730645D01*
X12438769Y-15730645D02*
X12457817Y-15740169D01*
X12457817Y-15740169D02*
X12467341Y-15749693D01*
X12467341Y-15749693D02*
X12476865Y-15768740D01*
X12476865Y-15768740D02*
X12486388Y-15806835D01*
X12486388Y-15806835D02*
X12486388Y-15854454D01*
X12486388Y-15854454D02*
X12476865Y-15892550D01*
X12476865Y-15892550D02*
X12467341Y-15911597D01*
X12467341Y-15911597D02*
X12457817Y-15921121D01*
X12457817Y-15921121D02*
X12438769Y-15930645D01*
X12438769Y-15930645D02*
X12419722Y-15930645D01*
X12419722Y-15930645D02*
X12400674Y-15921121D01*
X12400674Y-15921121D02*
X12391150Y-15911597D01*
X12391150Y-15911597D02*
X12381627Y-15892550D01*
X12381627Y-15892550D02*
X12372103Y-15854454D01*
X12372103Y-15854454D02*
X12372103Y-15806835D01*
X12372103Y-15806835D02*
X12381627Y-15768740D01*
X12381627Y-15768740D02*
X12391150Y-15749693D01*
X12391150Y-15749693D02*
X12400674Y-15740169D01*
X12400674Y-15740169D02*
X12419722Y-15730645D01*
X12572103Y-15911597D02*
X12581627Y-15921121D01*
X12581627Y-15921121D02*
X12572103Y-15930645D01*
X12572103Y-15930645D02*
X12562579Y-15921121D01*
X12562579Y-15921121D02*
X12572103Y-15911597D01*
X12572103Y-15911597D02*
X12572103Y-15930645D01*
X12705436Y-15730645D02*
X12724484Y-15730645D01*
X12724484Y-15730645D02*
X12743531Y-15740169D01*
X12743531Y-15740169D02*
X12753055Y-15749693D01*
X12753055Y-15749693D02*
X12762579Y-15768740D01*
X12762579Y-15768740D02*
X12772103Y-15806835D01*
X12772103Y-15806835D02*
X12772103Y-15854454D01*
X12772103Y-15854454D02*
X12762579Y-15892550D01*
X12762579Y-15892550D02*
X12753055Y-15911597D01*
X12753055Y-15911597D02*
X12743531Y-15921121D01*
X12743531Y-15921121D02*
X12724484Y-15930645D01*
X12724484Y-15930645D02*
X12705436Y-15930645D01*
X12705436Y-15930645D02*
X12686388Y-15921121D01*
X12686388Y-15921121D02*
X12676865Y-15911597D01*
X12676865Y-15911597D02*
X12667341Y-15892550D01*
X12667341Y-15892550D02*
X12657817Y-15854454D01*
X12657817Y-15854454D02*
X12657817Y-15806835D01*
X12657817Y-15806835D02*
X12667341Y-15768740D01*
X12667341Y-15768740D02*
X12676865Y-15749693D01*
X12676865Y-15749693D02*
X12686388Y-15740169D01*
X12686388Y-15740169D02*
X12705436Y-15730645D01*
X12848293Y-15749693D02*
X12857817Y-15740169D01*
X12857817Y-15740169D02*
X12876865Y-15730645D01*
X12876865Y-15730645D02*
X12924484Y-15730645D01*
X12924484Y-15730645D02*
X12943531Y-15740169D01*
X12943531Y-15740169D02*
X12953055Y-15749693D01*
X12953055Y-15749693D02*
X12962579Y-15768740D01*
X12962579Y-15768740D02*
X12962579Y-15787788D01*
X12962579Y-15787788D02*
X12953055Y-15816359D01*
X12953055Y-15816359D02*
X12838769Y-15930645D01*
X12838769Y-15930645D02*
X12962579Y-15930645D01*
X13143531Y-15730645D02*
X13048293Y-15730645D01*
X13048293Y-15730645D02*
X13038769Y-15825883D01*
X13038769Y-15825883D02*
X13048293Y-15816359D01*
X13048293Y-15816359D02*
X13067341Y-15806835D01*
X13067341Y-15806835D02*
X13114960Y-15806835D01*
X13114960Y-15806835D02*
X13134008Y-15816359D01*
X13134008Y-15816359D02*
X13143531Y-15825883D01*
X13143531Y-15825883D02*
X13153055Y-15844931D01*
X13153055Y-15844931D02*
X13153055Y-15892550D01*
X13153055Y-15892550D02*
X13143531Y-15911597D01*
X13143531Y-15911597D02*
X13134008Y-15921121D01*
X13134008Y-15921121D02*
X13114960Y-15930645D01*
X13114960Y-15930645D02*
X13067341Y-15930645D01*
X13067341Y-15930645D02*
X13048293Y-15921121D01*
X13048293Y-15921121D02*
X13038769Y-15911597D01*
X13324484Y-15730645D02*
X13286388Y-15730645D01*
X13286388Y-15730645D02*
X13267341Y-15740169D01*
X13267341Y-15740169D02*
X13257817Y-15749693D01*
X13257817Y-15749693D02*
X13238769Y-15778264D01*
X13238769Y-15778264D02*
X13229246Y-15816359D01*
X13229246Y-15816359D02*
X13229246Y-15892550D01*
X13229246Y-15892550D02*
X13238769Y-15911597D01*
X13238769Y-15911597D02*
X13248293Y-15921121D01*
X13248293Y-15921121D02*
X13267341Y-15930645D01*
X13267341Y-15930645D02*
X13305436Y-15930645D01*
X13305436Y-15930645D02*
X13324484Y-15921121D01*
X13324484Y-15921121D02*
X13334008Y-15911597D01*
X13334008Y-15911597D02*
X13343531Y-15892550D01*
X13343531Y-15892550D02*
X13343531Y-15844931D01*
X13343531Y-15844931D02*
X13334008Y-15825883D01*
X13334008Y-15825883D02*
X13324484Y-15816359D01*
X13324484Y-15816359D02*
X13305436Y-15806835D01*
X13305436Y-15806835D02*
X13267341Y-15806835D01*
X13267341Y-15806835D02*
X13248293Y-15816359D01*
X13248293Y-15816359D02*
X13238769Y-15825883D01*
X13238769Y-15825883D02*
X13229246Y-15844931D01*
X13419722Y-15730645D02*
X13419722Y-15768740D01*
X13495912Y-15730645D02*
X13495912Y-15768740D01*
X13791151Y-16006835D02*
X13781627Y-15997312D01*
X13781627Y-15997312D02*
X13762579Y-15968740D01*
X13762579Y-15968740D02*
X13753055Y-15949693D01*
X13753055Y-15949693D02*
X13743531Y-15921121D01*
X13743531Y-15921121D02*
X13734008Y-15873502D01*
X13734008Y-15873502D02*
X13734008Y-15835407D01*
X13734008Y-15835407D02*
X13743531Y-15787788D01*
X13743531Y-15787788D02*
X13753055Y-15759216D01*
X13753055Y-15759216D02*
X13762579Y-15740169D01*
X13762579Y-15740169D02*
X13781627Y-15711597D01*
X13781627Y-15711597D02*
X13791151Y-15702073D01*
X13857817Y-15749693D02*
X13867341Y-15740169D01*
X13867341Y-15740169D02*
X13886389Y-15730645D01*
X13886389Y-15730645D02*
X13934008Y-15730645D01*
X13934008Y-15730645D02*
X13953055Y-15740169D01*
X13953055Y-15740169D02*
X13962579Y-15749693D01*
X13962579Y-15749693D02*
X13972103Y-15768740D01*
X13972103Y-15768740D02*
X13972103Y-15787788D01*
X13972103Y-15787788D02*
X13962579Y-15816359D01*
X13962579Y-15816359D02*
X13848293Y-15930645D01*
X13848293Y-15930645D02*
X13972103Y-15930645D01*
X14210198Y-15930645D02*
X14210198Y-15730645D01*
X14295912Y-15930645D02*
X14295912Y-15825883D01*
X14295912Y-15825883D02*
X14286389Y-15806835D01*
X14286389Y-15806835D02*
X14267341Y-15797312D01*
X14267341Y-15797312D02*
X14238770Y-15797312D01*
X14238770Y-15797312D02*
X14219722Y-15806835D01*
X14219722Y-15806835D02*
X14210198Y-15816359D01*
X14419722Y-15930645D02*
X14400674Y-15921121D01*
X14400674Y-15921121D02*
X14391151Y-15911597D01*
X14391151Y-15911597D02*
X14381627Y-15892550D01*
X14381627Y-15892550D02*
X14381627Y-15835407D01*
X14381627Y-15835407D02*
X14391151Y-15816359D01*
X14391151Y-15816359D02*
X14400674Y-15806835D01*
X14400674Y-15806835D02*
X14419722Y-15797312D01*
X14419722Y-15797312D02*
X14448293Y-15797312D01*
X14448293Y-15797312D02*
X14467341Y-15806835D01*
X14467341Y-15806835D02*
X14476865Y-15816359D01*
X14476865Y-15816359D02*
X14486389Y-15835407D01*
X14486389Y-15835407D02*
X14486389Y-15892550D01*
X14486389Y-15892550D02*
X14476865Y-15911597D01*
X14476865Y-15911597D02*
X14467341Y-15921121D01*
X14467341Y-15921121D02*
X14448293Y-15930645D01*
X14448293Y-15930645D02*
X14419722Y-15930645D01*
X14600674Y-15930645D02*
X14581627Y-15921121D01*
X14581627Y-15921121D02*
X14572103Y-15902073D01*
X14572103Y-15902073D02*
X14572103Y-15730645D01*
X14753055Y-15921121D02*
X14734008Y-15930645D01*
X14734008Y-15930645D02*
X14695912Y-15930645D01*
X14695912Y-15930645D02*
X14676865Y-15921121D01*
X14676865Y-15921121D02*
X14667341Y-15902073D01*
X14667341Y-15902073D02*
X14667341Y-15825883D01*
X14667341Y-15825883D02*
X14676865Y-15806835D01*
X14676865Y-15806835D02*
X14695912Y-15797312D01*
X14695912Y-15797312D02*
X14734008Y-15797312D01*
X14734008Y-15797312D02*
X14753055Y-15806835D01*
X14753055Y-15806835D02*
X14762579Y-15825883D01*
X14762579Y-15825883D02*
X14762579Y-15844931D01*
X14762579Y-15844931D02*
X14667341Y-15863978D01*
X14838770Y-15921121D02*
X14857817Y-15930645D01*
X14857817Y-15930645D02*
X14895912Y-15930645D01*
X14895912Y-15930645D02*
X14914960Y-15921121D01*
X14914960Y-15921121D02*
X14924484Y-15902073D01*
X14924484Y-15902073D02*
X14924484Y-15892550D01*
X14924484Y-15892550D02*
X14914960Y-15873502D01*
X14914960Y-15873502D02*
X14895912Y-15863978D01*
X14895912Y-15863978D02*
X14867341Y-15863978D01*
X14867341Y-15863978D02*
X14848293Y-15854454D01*
X14848293Y-15854454D02*
X14838770Y-15835407D01*
X14838770Y-15835407D02*
X14838770Y-15825883D01*
X14838770Y-15825883D02*
X14848293Y-15806835D01*
X14848293Y-15806835D02*
X14867341Y-15797312D01*
X14867341Y-15797312D02*
X14895912Y-15797312D01*
X14895912Y-15797312D02*
X14914960Y-15806835D01*
X14991151Y-16006835D02*
X15000674Y-15997312D01*
X15000674Y-15997312D02*
X15019722Y-15968740D01*
X15019722Y-15968740D02*
X15029246Y-15949693D01*
X15029246Y-15949693D02*
X15038770Y-15921121D01*
X15038770Y-15921121D02*
X15048293Y-15873502D01*
X15048293Y-15873502D02*
X15048293Y-15835407D01*
X15048293Y-15835407D02*
X15038770Y-15787788D01*
X15038770Y-15787788D02*
X15029246Y-15759216D01*
X15029246Y-15759216D02*
X15019722Y-15740169D01*
X15019722Y-15740169D02*
X15000674Y-15711597D01*
X15000674Y-15711597D02*
X14991151Y-15702073D01*
X15353055Y-16006835D02*
X15343532Y-15997312D01*
X15343532Y-15997312D02*
X15324484Y-15968740D01*
X15324484Y-15968740D02*
X15314960Y-15949693D01*
X15314960Y-15949693D02*
X15305436Y-15921121D01*
X15305436Y-15921121D02*
X15295913Y-15873502D01*
X15295913Y-15873502D02*
X15295913Y-15835407D01*
X15295913Y-15835407D02*
X15305436Y-15787788D01*
X15305436Y-15787788D02*
X15314960Y-15759216D01*
X15314960Y-15759216D02*
X15324484Y-15740169D01*
X15324484Y-15740169D02*
X15343532Y-15711597D01*
X15343532Y-15711597D02*
X15353055Y-15702073D01*
X15429246Y-15797312D02*
X15429246Y-15930645D01*
X15429246Y-15816359D02*
X15438770Y-15806835D01*
X15438770Y-15806835D02*
X15457817Y-15797312D01*
X15457817Y-15797312D02*
X15486389Y-15797312D01*
X15486389Y-15797312D02*
X15505436Y-15806835D01*
X15505436Y-15806835D02*
X15514960Y-15825883D01*
X15514960Y-15825883D02*
X15514960Y-15930645D01*
X15638770Y-15930645D02*
X15619722Y-15921121D01*
X15619722Y-15921121D02*
X15610198Y-15911597D01*
X15610198Y-15911597D02*
X15600674Y-15892550D01*
X15600674Y-15892550D02*
X15600674Y-15835407D01*
X15600674Y-15835407D02*
X15610198Y-15816359D01*
X15610198Y-15816359D02*
X15619722Y-15806835D01*
X15619722Y-15806835D02*
X15638770Y-15797312D01*
X15638770Y-15797312D02*
X15667341Y-15797312D01*
X15667341Y-15797312D02*
X15686389Y-15806835D01*
X15686389Y-15806835D02*
X15695913Y-15816359D01*
X15695913Y-15816359D02*
X15705436Y-15835407D01*
X15705436Y-15835407D02*
X15705436Y-15892550D01*
X15705436Y-15892550D02*
X15695913Y-15911597D01*
X15695913Y-15911597D02*
X15686389Y-15921121D01*
X15686389Y-15921121D02*
X15667341Y-15930645D01*
X15667341Y-15930645D02*
X15638770Y-15930645D01*
X15762579Y-15797312D02*
X15838770Y-15797312D01*
X15791151Y-15730645D02*
X15791151Y-15902073D01*
X15791151Y-15902073D02*
X15800674Y-15921121D01*
X15800674Y-15921121D02*
X15819722Y-15930645D01*
X15819722Y-15930645D02*
X15838770Y-15930645D01*
X16057817Y-15797312D02*
X16057817Y-15997312D01*
X16057817Y-15806835D02*
X16076865Y-15797312D01*
X16076865Y-15797312D02*
X16114960Y-15797312D01*
X16114960Y-15797312D02*
X16134008Y-15806835D01*
X16134008Y-15806835D02*
X16143532Y-15816359D01*
X16143532Y-15816359D02*
X16153055Y-15835407D01*
X16153055Y-15835407D02*
X16153055Y-15892550D01*
X16153055Y-15892550D02*
X16143532Y-15911597D01*
X16143532Y-15911597D02*
X16134008Y-15921121D01*
X16134008Y-15921121D02*
X16114960Y-15930645D01*
X16114960Y-15930645D02*
X16076865Y-15930645D01*
X16076865Y-15930645D02*
X16057817Y-15921121D01*
X16267341Y-15930645D02*
X16248294Y-15921121D01*
X16248294Y-15921121D02*
X16238770Y-15902073D01*
X16238770Y-15902073D02*
X16238770Y-15730645D01*
X16429246Y-15930645D02*
X16429246Y-15825883D01*
X16429246Y-15825883D02*
X16419722Y-15806835D01*
X16419722Y-15806835D02*
X16400675Y-15797312D01*
X16400675Y-15797312D02*
X16362579Y-15797312D01*
X16362579Y-15797312D02*
X16343532Y-15806835D01*
X16429246Y-15921121D02*
X16410198Y-15930645D01*
X16410198Y-15930645D02*
X16362579Y-15930645D01*
X16362579Y-15930645D02*
X16343532Y-15921121D01*
X16343532Y-15921121D02*
X16334008Y-15902073D01*
X16334008Y-15902073D02*
X16334008Y-15883026D01*
X16334008Y-15883026D02*
X16343532Y-15863978D01*
X16343532Y-15863978D02*
X16362579Y-15854454D01*
X16362579Y-15854454D02*
X16410198Y-15854454D01*
X16410198Y-15854454D02*
X16429246Y-15844931D01*
X16495913Y-15797312D02*
X16572103Y-15797312D01*
X16524484Y-15730645D02*
X16524484Y-15902073D01*
X16524484Y-15902073D02*
X16534008Y-15921121D01*
X16534008Y-15921121D02*
X16553055Y-15930645D01*
X16553055Y-15930645D02*
X16572103Y-15930645D01*
X16714960Y-15921121D02*
X16695913Y-15930645D01*
X16695913Y-15930645D02*
X16657817Y-15930645D01*
X16657817Y-15930645D02*
X16638770Y-15921121D01*
X16638770Y-15921121D02*
X16629246Y-15902073D01*
X16629246Y-15902073D02*
X16629246Y-15825883D01*
X16629246Y-15825883D02*
X16638770Y-15806835D01*
X16638770Y-15806835D02*
X16657817Y-15797312D01*
X16657817Y-15797312D02*
X16695913Y-15797312D01*
X16695913Y-15797312D02*
X16714960Y-15806835D01*
X16714960Y-15806835D02*
X16724484Y-15825883D01*
X16724484Y-15825883D02*
X16724484Y-15844931D01*
X16724484Y-15844931D02*
X16629246Y-15863978D01*
X16895913Y-15930645D02*
X16895913Y-15730645D01*
X16895913Y-15921121D02*
X16876865Y-15930645D01*
X16876865Y-15930645D02*
X16838770Y-15930645D01*
X16838770Y-15930645D02*
X16819722Y-15921121D01*
X16819722Y-15921121D02*
X16810198Y-15911597D01*
X16810198Y-15911597D02*
X16800675Y-15892550D01*
X16800675Y-15892550D02*
X16800675Y-15835407D01*
X16800675Y-15835407D02*
X16810198Y-15816359D01*
X16810198Y-15816359D02*
X16819722Y-15806835D01*
X16819722Y-15806835D02*
X16838770Y-15797312D01*
X16838770Y-15797312D02*
X16876865Y-15797312D01*
X16876865Y-15797312D02*
X16895913Y-15806835D01*
X16972103Y-16006835D02*
X16981627Y-15997312D01*
X16981627Y-15997312D02*
X17000675Y-15968740D01*
X17000675Y-15968740D02*
X17010198Y-15949693D01*
X17010198Y-15949693D02*
X17019722Y-15921121D01*
X17019722Y-15921121D02*
X17029246Y-15873502D01*
X17029246Y-15873502D02*
X17029246Y-15835407D01*
X17029246Y-15835407D02*
X17019722Y-15787788D01*
X17019722Y-15787788D02*
X17010198Y-15759216D01*
X17010198Y-15759216D02*
X17000675Y-15740169D01*
X17000675Y-15740169D02*
X16981627Y-15711597D01*
X16981627Y-15711597D02*
X16972103Y-15702073D01*
D13*
X10171088Y-16058161D02*
X10171088Y-16148161D01*
X10126088Y-16103161D02*
X10216088Y-16103161D01*
D12*
X10514960Y-15994645D02*
X10534007Y-15994645D01*
X10534007Y-15994645D02*
X10553055Y-16004169D01*
X10553055Y-16004169D02*
X10562579Y-16013693D01*
X10562579Y-16013693D02*
X10572103Y-16032740D01*
X10572103Y-16032740D02*
X10581626Y-16070835D01*
X10581626Y-16070835D02*
X10581626Y-16118454D01*
X10581626Y-16118454D02*
X10572103Y-16156550D01*
X10572103Y-16156550D02*
X10562579Y-16175597D01*
X10562579Y-16175597D02*
X10553055Y-16185121D01*
X10553055Y-16185121D02*
X10534007Y-16194645D01*
X10534007Y-16194645D02*
X10514960Y-16194645D01*
X10514960Y-16194645D02*
X10495912Y-16185121D01*
X10495912Y-16185121D02*
X10486388Y-16175597D01*
X10486388Y-16175597D02*
X10476865Y-16156550D01*
X10476865Y-16156550D02*
X10467341Y-16118454D01*
X10467341Y-16118454D02*
X10467341Y-16070835D01*
X10467341Y-16070835D02*
X10476865Y-16032740D01*
X10476865Y-16032740D02*
X10486388Y-16013693D01*
X10486388Y-16013693D02*
X10495912Y-16004169D01*
X10495912Y-16004169D02*
X10514960Y-15994645D01*
X10667341Y-16175597D02*
X10676865Y-16185121D01*
X10676865Y-16185121D02*
X10667341Y-16194645D01*
X10667341Y-16194645D02*
X10657817Y-16185121D01*
X10657817Y-16185121D02*
X10667341Y-16175597D01*
X10667341Y-16175597D02*
X10667341Y-16194645D01*
X10772103Y-16194645D02*
X10810198Y-16194645D01*
X10810198Y-16194645D02*
X10829246Y-16185121D01*
X10829246Y-16185121D02*
X10838769Y-16175597D01*
X10838769Y-16175597D02*
X10857817Y-16147026D01*
X10857817Y-16147026D02*
X10867341Y-16108931D01*
X10867341Y-16108931D02*
X10867341Y-16032740D01*
X10867341Y-16032740D02*
X10857817Y-16013693D01*
X10857817Y-16013693D02*
X10848293Y-16004169D01*
X10848293Y-16004169D02*
X10829246Y-15994645D01*
X10829246Y-15994645D02*
X10791150Y-15994645D01*
X10791150Y-15994645D02*
X10772103Y-16004169D01*
X10772103Y-16004169D02*
X10762579Y-16013693D01*
X10762579Y-16013693D02*
X10753055Y-16032740D01*
X10753055Y-16032740D02*
X10753055Y-16080359D01*
X10753055Y-16080359D02*
X10762579Y-16099407D01*
X10762579Y-16099407D02*
X10772103Y-16108931D01*
X10772103Y-16108931D02*
X10791150Y-16118454D01*
X10791150Y-16118454D02*
X10829246Y-16118454D01*
X10829246Y-16118454D02*
X10848293Y-16108931D01*
X10848293Y-16108931D02*
X10857817Y-16099407D01*
X10857817Y-16099407D02*
X10867341Y-16080359D01*
X10991150Y-15994645D02*
X11010198Y-15994645D01*
X11010198Y-15994645D02*
X11029246Y-16004169D01*
X11029246Y-16004169D02*
X11038769Y-16013693D01*
X11038769Y-16013693D02*
X11048293Y-16032740D01*
X11048293Y-16032740D02*
X11057817Y-16070835D01*
X11057817Y-16070835D02*
X11057817Y-16118454D01*
X11057817Y-16118454D02*
X11048293Y-16156550D01*
X11048293Y-16156550D02*
X11038769Y-16175597D01*
X11038769Y-16175597D02*
X11029246Y-16185121D01*
X11029246Y-16185121D02*
X11010198Y-16194645D01*
X11010198Y-16194645D02*
X10991150Y-16194645D01*
X10991150Y-16194645D02*
X10972103Y-16185121D01*
X10972103Y-16185121D02*
X10962579Y-16175597D01*
X10962579Y-16175597D02*
X10953055Y-16156550D01*
X10953055Y-16156550D02*
X10943531Y-16118454D01*
X10943531Y-16118454D02*
X10943531Y-16070835D01*
X10943531Y-16070835D02*
X10953055Y-16032740D01*
X10953055Y-16032740D02*
X10962579Y-16013693D01*
X10962579Y-16013693D02*
X10972103Y-16004169D01*
X10972103Y-16004169D02*
X10991150Y-15994645D01*
X11181626Y-15994645D02*
X11200674Y-15994645D01*
X11200674Y-15994645D02*
X11219722Y-16004169D01*
X11219722Y-16004169D02*
X11229245Y-16013693D01*
X11229245Y-16013693D02*
X11238769Y-16032740D01*
X11238769Y-16032740D02*
X11248293Y-16070835D01*
X11248293Y-16070835D02*
X11248293Y-16118454D01*
X11248293Y-16118454D02*
X11238769Y-16156550D01*
X11238769Y-16156550D02*
X11229245Y-16175597D01*
X11229245Y-16175597D02*
X11219722Y-16185121D01*
X11219722Y-16185121D02*
X11200674Y-16194645D01*
X11200674Y-16194645D02*
X11181626Y-16194645D01*
X11181626Y-16194645D02*
X11162579Y-16185121D01*
X11162579Y-16185121D02*
X11153055Y-16175597D01*
X11153055Y-16175597D02*
X11143531Y-16156550D01*
X11143531Y-16156550D02*
X11134007Y-16118454D01*
X11134007Y-16118454D02*
X11134007Y-16070835D01*
X11134007Y-16070835D02*
X11143531Y-16032740D01*
X11143531Y-16032740D02*
X11153055Y-16013693D01*
X11153055Y-16013693D02*
X11162579Y-16004169D01*
X11162579Y-16004169D02*
X11181626Y-15994645D01*
X11334007Y-16194645D02*
X11334007Y-16061312D01*
X11334007Y-16080359D02*
X11343531Y-16070835D01*
X11343531Y-16070835D02*
X11362579Y-16061312D01*
X11362579Y-16061312D02*
X11391150Y-16061312D01*
X11391150Y-16061312D02*
X11410198Y-16070835D01*
X11410198Y-16070835D02*
X11419722Y-16089883D01*
X11419722Y-16089883D02*
X11419722Y-16194645D01*
X11419722Y-16089883D02*
X11429245Y-16070835D01*
X11429245Y-16070835D02*
X11448293Y-16061312D01*
X11448293Y-16061312D02*
X11476864Y-16061312D01*
X11476864Y-16061312D02*
X11495912Y-16070835D01*
X11495912Y-16070835D02*
X11505436Y-16089883D01*
X11505436Y-16089883D02*
X11505436Y-16194645D01*
X11600674Y-16194645D02*
X11600674Y-16061312D01*
X11600674Y-16080359D02*
X11610198Y-16070835D01*
X11610198Y-16070835D02*
X11629245Y-16061312D01*
X11629245Y-16061312D02*
X11657817Y-16061312D01*
X11657817Y-16061312D02*
X11676865Y-16070835D01*
X11676865Y-16070835D02*
X11686388Y-16089883D01*
X11686388Y-16089883D02*
X11686388Y-16194645D01*
X11686388Y-16089883D02*
X11695912Y-16070835D01*
X11695912Y-16070835D02*
X11714960Y-16061312D01*
X11714960Y-16061312D02*
X11743531Y-16061312D01*
X11743531Y-16061312D02*
X11762579Y-16070835D01*
X11762579Y-16070835D02*
X11772103Y-16089883D01*
X11772103Y-16089883D02*
X11772103Y-16194645D01*
X12162579Y-15985121D02*
X11991150Y-16242264D01*
X12419722Y-15994645D02*
X12438769Y-15994645D01*
X12438769Y-15994645D02*
X12457817Y-16004169D01*
X12457817Y-16004169D02*
X12467341Y-16013693D01*
X12467341Y-16013693D02*
X12476865Y-16032740D01*
X12476865Y-16032740D02*
X12486388Y-16070835D01*
X12486388Y-16070835D02*
X12486388Y-16118454D01*
X12486388Y-16118454D02*
X12476865Y-16156550D01*
X12476865Y-16156550D02*
X12467341Y-16175597D01*
X12467341Y-16175597D02*
X12457817Y-16185121D01*
X12457817Y-16185121D02*
X12438769Y-16194645D01*
X12438769Y-16194645D02*
X12419722Y-16194645D01*
X12419722Y-16194645D02*
X12400674Y-16185121D01*
X12400674Y-16185121D02*
X12391150Y-16175597D01*
X12391150Y-16175597D02*
X12381627Y-16156550D01*
X12381627Y-16156550D02*
X12372103Y-16118454D01*
X12372103Y-16118454D02*
X12372103Y-16070835D01*
X12372103Y-16070835D02*
X12381627Y-16032740D01*
X12381627Y-16032740D02*
X12391150Y-16013693D01*
X12391150Y-16013693D02*
X12400674Y-16004169D01*
X12400674Y-16004169D02*
X12419722Y-15994645D01*
X12572103Y-16175597D02*
X12581627Y-16185121D01*
X12581627Y-16185121D02*
X12572103Y-16194645D01*
X12572103Y-16194645D02*
X12562579Y-16185121D01*
X12562579Y-16185121D02*
X12572103Y-16175597D01*
X12572103Y-16175597D02*
X12572103Y-16194645D01*
X12705436Y-15994645D02*
X12724484Y-15994645D01*
X12724484Y-15994645D02*
X12743531Y-16004169D01*
X12743531Y-16004169D02*
X12753055Y-16013693D01*
X12753055Y-16013693D02*
X12762579Y-16032740D01*
X12762579Y-16032740D02*
X12772103Y-16070835D01*
X12772103Y-16070835D02*
X12772103Y-16118454D01*
X12772103Y-16118454D02*
X12762579Y-16156550D01*
X12762579Y-16156550D02*
X12753055Y-16175597D01*
X12753055Y-16175597D02*
X12743531Y-16185121D01*
X12743531Y-16185121D02*
X12724484Y-16194645D01*
X12724484Y-16194645D02*
X12705436Y-16194645D01*
X12705436Y-16194645D02*
X12686388Y-16185121D01*
X12686388Y-16185121D02*
X12676865Y-16175597D01*
X12676865Y-16175597D02*
X12667341Y-16156550D01*
X12667341Y-16156550D02*
X12657817Y-16118454D01*
X12657817Y-16118454D02*
X12657817Y-16070835D01*
X12657817Y-16070835D02*
X12667341Y-16032740D01*
X12667341Y-16032740D02*
X12676865Y-16013693D01*
X12676865Y-16013693D02*
X12686388Y-16004169D01*
X12686388Y-16004169D02*
X12705436Y-15994645D01*
X12838769Y-15994645D02*
X12962579Y-15994645D01*
X12962579Y-15994645D02*
X12895912Y-16070835D01*
X12895912Y-16070835D02*
X12924484Y-16070835D01*
X12924484Y-16070835D02*
X12943531Y-16080359D01*
X12943531Y-16080359D02*
X12953055Y-16089883D01*
X12953055Y-16089883D02*
X12962579Y-16108931D01*
X12962579Y-16108931D02*
X12962579Y-16156550D01*
X12962579Y-16156550D02*
X12953055Y-16175597D01*
X12953055Y-16175597D02*
X12943531Y-16185121D01*
X12943531Y-16185121D02*
X12924484Y-16194645D01*
X12924484Y-16194645D02*
X12867341Y-16194645D01*
X12867341Y-16194645D02*
X12848293Y-16185121D01*
X12848293Y-16185121D02*
X12838769Y-16175597D01*
X13143531Y-15994645D02*
X13048293Y-15994645D01*
X13048293Y-15994645D02*
X13038769Y-16089883D01*
X13038769Y-16089883D02*
X13048293Y-16080359D01*
X13048293Y-16080359D02*
X13067341Y-16070835D01*
X13067341Y-16070835D02*
X13114960Y-16070835D01*
X13114960Y-16070835D02*
X13134008Y-16080359D01*
X13134008Y-16080359D02*
X13143531Y-16089883D01*
X13143531Y-16089883D02*
X13153055Y-16108931D01*
X13153055Y-16108931D02*
X13153055Y-16156550D01*
X13153055Y-16156550D02*
X13143531Y-16175597D01*
X13143531Y-16175597D02*
X13134008Y-16185121D01*
X13134008Y-16185121D02*
X13114960Y-16194645D01*
X13114960Y-16194645D02*
X13067341Y-16194645D01*
X13067341Y-16194645D02*
X13048293Y-16185121D01*
X13048293Y-16185121D02*
X13038769Y-16175597D01*
X13324484Y-16061312D02*
X13324484Y-16194645D01*
X13276865Y-15985121D02*
X13229246Y-16127978D01*
X13229246Y-16127978D02*
X13353055Y-16127978D01*
X13419722Y-15994645D02*
X13419722Y-16032740D01*
X13495912Y-15994645D02*
X13495912Y-16032740D01*
X13791151Y-16270835D02*
X13781627Y-16261312D01*
X13781627Y-16261312D02*
X13762579Y-16232740D01*
X13762579Y-16232740D02*
X13753055Y-16213693D01*
X13753055Y-16213693D02*
X13743531Y-16185121D01*
X13743531Y-16185121D02*
X13734008Y-16137502D01*
X13734008Y-16137502D02*
X13734008Y-16099407D01*
X13734008Y-16099407D02*
X13743531Y-16051788D01*
X13743531Y-16051788D02*
X13753055Y-16023216D01*
X13753055Y-16023216D02*
X13762579Y-16004169D01*
X13762579Y-16004169D02*
X13781627Y-15975597D01*
X13781627Y-15975597D02*
X13791151Y-15966073D01*
X13857817Y-16013693D02*
X13867341Y-16004169D01*
X13867341Y-16004169D02*
X13886389Y-15994645D01*
X13886389Y-15994645D02*
X13934008Y-15994645D01*
X13934008Y-15994645D02*
X13953055Y-16004169D01*
X13953055Y-16004169D02*
X13962579Y-16013693D01*
X13962579Y-16013693D02*
X13972103Y-16032740D01*
X13972103Y-16032740D02*
X13972103Y-16051788D01*
X13972103Y-16051788D02*
X13962579Y-16080359D01*
X13962579Y-16080359D02*
X13848293Y-16194645D01*
X13848293Y-16194645D02*
X13972103Y-16194645D01*
X14210198Y-16194645D02*
X14210198Y-15994645D01*
X14295912Y-16194645D02*
X14295912Y-16089883D01*
X14295912Y-16089883D02*
X14286389Y-16070835D01*
X14286389Y-16070835D02*
X14267341Y-16061312D01*
X14267341Y-16061312D02*
X14238770Y-16061312D01*
X14238770Y-16061312D02*
X14219722Y-16070835D01*
X14219722Y-16070835D02*
X14210198Y-16080359D01*
X14419722Y-16194645D02*
X14400674Y-16185121D01*
X14400674Y-16185121D02*
X14391151Y-16175597D01*
X14391151Y-16175597D02*
X14381627Y-16156550D01*
X14381627Y-16156550D02*
X14381627Y-16099407D01*
X14381627Y-16099407D02*
X14391151Y-16080359D01*
X14391151Y-16080359D02*
X14400674Y-16070835D01*
X14400674Y-16070835D02*
X14419722Y-16061312D01*
X14419722Y-16061312D02*
X14448293Y-16061312D01*
X14448293Y-16061312D02*
X14467341Y-16070835D01*
X14467341Y-16070835D02*
X14476865Y-16080359D01*
X14476865Y-16080359D02*
X14486389Y-16099407D01*
X14486389Y-16099407D02*
X14486389Y-16156550D01*
X14486389Y-16156550D02*
X14476865Y-16175597D01*
X14476865Y-16175597D02*
X14467341Y-16185121D01*
X14467341Y-16185121D02*
X14448293Y-16194645D01*
X14448293Y-16194645D02*
X14419722Y-16194645D01*
X14600674Y-16194645D02*
X14581627Y-16185121D01*
X14581627Y-16185121D02*
X14572103Y-16166073D01*
X14572103Y-16166073D02*
X14572103Y-15994645D01*
X14753055Y-16185121D02*
X14734008Y-16194645D01*
X14734008Y-16194645D02*
X14695912Y-16194645D01*
X14695912Y-16194645D02*
X14676865Y-16185121D01*
X14676865Y-16185121D02*
X14667341Y-16166073D01*
X14667341Y-16166073D02*
X14667341Y-16089883D01*
X14667341Y-16089883D02*
X14676865Y-16070835D01*
X14676865Y-16070835D02*
X14695912Y-16061312D01*
X14695912Y-16061312D02*
X14734008Y-16061312D01*
X14734008Y-16061312D02*
X14753055Y-16070835D01*
X14753055Y-16070835D02*
X14762579Y-16089883D01*
X14762579Y-16089883D02*
X14762579Y-16108931D01*
X14762579Y-16108931D02*
X14667341Y-16127978D01*
X14838770Y-16185121D02*
X14857817Y-16194645D01*
X14857817Y-16194645D02*
X14895912Y-16194645D01*
X14895912Y-16194645D02*
X14914960Y-16185121D01*
X14914960Y-16185121D02*
X14924484Y-16166073D01*
X14924484Y-16166073D02*
X14924484Y-16156550D01*
X14924484Y-16156550D02*
X14914960Y-16137502D01*
X14914960Y-16137502D02*
X14895912Y-16127978D01*
X14895912Y-16127978D02*
X14867341Y-16127978D01*
X14867341Y-16127978D02*
X14848293Y-16118454D01*
X14848293Y-16118454D02*
X14838770Y-16099407D01*
X14838770Y-16099407D02*
X14838770Y-16089883D01*
X14838770Y-16089883D02*
X14848293Y-16070835D01*
X14848293Y-16070835D02*
X14867341Y-16061312D01*
X14867341Y-16061312D02*
X14895912Y-16061312D01*
X14895912Y-16061312D02*
X14914960Y-16070835D01*
X14991151Y-16270835D02*
X15000674Y-16261312D01*
X15000674Y-16261312D02*
X15019722Y-16232740D01*
X15019722Y-16232740D02*
X15029246Y-16213693D01*
X15029246Y-16213693D02*
X15038770Y-16185121D01*
X15038770Y-16185121D02*
X15048293Y-16137502D01*
X15048293Y-16137502D02*
X15048293Y-16099407D01*
X15048293Y-16099407D02*
X15038770Y-16051788D01*
X15038770Y-16051788D02*
X15029246Y-16023216D01*
X15029246Y-16023216D02*
X15019722Y-16004169D01*
X15019722Y-16004169D02*
X15000674Y-15975597D01*
X15000674Y-15975597D02*
X14991151Y-15966073D01*
X15353055Y-16270835D02*
X15343532Y-16261312D01*
X15343532Y-16261312D02*
X15324484Y-16232740D01*
X15324484Y-16232740D02*
X15314960Y-16213693D01*
X15314960Y-16213693D02*
X15305436Y-16185121D01*
X15305436Y-16185121D02*
X15295913Y-16137502D01*
X15295913Y-16137502D02*
X15295913Y-16099407D01*
X15295913Y-16099407D02*
X15305436Y-16051788D01*
X15305436Y-16051788D02*
X15314960Y-16023216D01*
X15314960Y-16023216D02*
X15324484Y-16004169D01*
X15324484Y-16004169D02*
X15343532Y-15975597D01*
X15343532Y-15975597D02*
X15353055Y-15966073D01*
X15429246Y-16061312D02*
X15429246Y-16194645D01*
X15429246Y-16080359D02*
X15438770Y-16070835D01*
X15438770Y-16070835D02*
X15457817Y-16061312D01*
X15457817Y-16061312D02*
X15486389Y-16061312D01*
X15486389Y-16061312D02*
X15505436Y-16070835D01*
X15505436Y-16070835D02*
X15514960Y-16089883D01*
X15514960Y-16089883D02*
X15514960Y-16194645D01*
X15638770Y-16194645D02*
X15619722Y-16185121D01*
X15619722Y-16185121D02*
X15610198Y-16175597D01*
X15610198Y-16175597D02*
X15600674Y-16156550D01*
X15600674Y-16156550D02*
X15600674Y-16099407D01*
X15600674Y-16099407D02*
X15610198Y-16080359D01*
X15610198Y-16080359D02*
X15619722Y-16070835D01*
X15619722Y-16070835D02*
X15638770Y-16061312D01*
X15638770Y-16061312D02*
X15667341Y-16061312D01*
X15667341Y-16061312D02*
X15686389Y-16070835D01*
X15686389Y-16070835D02*
X15695913Y-16080359D01*
X15695913Y-16080359D02*
X15705436Y-16099407D01*
X15705436Y-16099407D02*
X15705436Y-16156550D01*
X15705436Y-16156550D02*
X15695913Y-16175597D01*
X15695913Y-16175597D02*
X15686389Y-16185121D01*
X15686389Y-16185121D02*
X15667341Y-16194645D01*
X15667341Y-16194645D02*
X15638770Y-16194645D01*
X15762579Y-16061312D02*
X15838770Y-16061312D01*
X15791151Y-15994645D02*
X15791151Y-16166073D01*
X15791151Y-16166073D02*
X15800674Y-16185121D01*
X15800674Y-16185121D02*
X15819722Y-16194645D01*
X15819722Y-16194645D02*
X15838770Y-16194645D01*
X16057817Y-16061312D02*
X16057817Y-16261312D01*
X16057817Y-16070835D02*
X16076865Y-16061312D01*
X16076865Y-16061312D02*
X16114960Y-16061312D01*
X16114960Y-16061312D02*
X16134008Y-16070835D01*
X16134008Y-16070835D02*
X16143532Y-16080359D01*
X16143532Y-16080359D02*
X16153055Y-16099407D01*
X16153055Y-16099407D02*
X16153055Y-16156550D01*
X16153055Y-16156550D02*
X16143532Y-16175597D01*
X16143532Y-16175597D02*
X16134008Y-16185121D01*
X16134008Y-16185121D02*
X16114960Y-16194645D01*
X16114960Y-16194645D02*
X16076865Y-16194645D01*
X16076865Y-16194645D02*
X16057817Y-16185121D01*
X16267341Y-16194645D02*
X16248294Y-16185121D01*
X16248294Y-16185121D02*
X16238770Y-16166073D01*
X16238770Y-16166073D02*
X16238770Y-15994645D01*
X16429246Y-16194645D02*
X16429246Y-16089883D01*
X16429246Y-16089883D02*
X16419722Y-16070835D01*
X16419722Y-16070835D02*
X16400675Y-16061312D01*
X16400675Y-16061312D02*
X16362579Y-16061312D01*
X16362579Y-16061312D02*
X16343532Y-16070835D01*
X16429246Y-16185121D02*
X16410198Y-16194645D01*
X16410198Y-16194645D02*
X16362579Y-16194645D01*
X16362579Y-16194645D02*
X16343532Y-16185121D01*
X16343532Y-16185121D02*
X16334008Y-16166073D01*
X16334008Y-16166073D02*
X16334008Y-16147026D01*
X16334008Y-16147026D02*
X16343532Y-16127978D01*
X16343532Y-16127978D02*
X16362579Y-16118454D01*
X16362579Y-16118454D02*
X16410198Y-16118454D01*
X16410198Y-16118454D02*
X16429246Y-16108931D01*
X16495913Y-16061312D02*
X16572103Y-16061312D01*
X16524484Y-15994645D02*
X16524484Y-16166073D01*
X16524484Y-16166073D02*
X16534008Y-16185121D01*
X16534008Y-16185121D02*
X16553055Y-16194645D01*
X16553055Y-16194645D02*
X16572103Y-16194645D01*
X16714960Y-16185121D02*
X16695913Y-16194645D01*
X16695913Y-16194645D02*
X16657817Y-16194645D01*
X16657817Y-16194645D02*
X16638770Y-16185121D01*
X16638770Y-16185121D02*
X16629246Y-16166073D01*
X16629246Y-16166073D02*
X16629246Y-16089883D01*
X16629246Y-16089883D02*
X16638770Y-16070835D01*
X16638770Y-16070835D02*
X16657817Y-16061312D01*
X16657817Y-16061312D02*
X16695913Y-16061312D01*
X16695913Y-16061312D02*
X16714960Y-16070835D01*
X16714960Y-16070835D02*
X16724484Y-16089883D01*
X16724484Y-16089883D02*
X16724484Y-16108931D01*
X16724484Y-16108931D02*
X16629246Y-16127978D01*
X16895913Y-16194645D02*
X16895913Y-15994645D01*
X16895913Y-16185121D02*
X16876865Y-16194645D01*
X16876865Y-16194645D02*
X16838770Y-16194645D01*
X16838770Y-16194645D02*
X16819722Y-16185121D01*
X16819722Y-16185121D02*
X16810198Y-16175597D01*
X16810198Y-16175597D02*
X16800675Y-16156550D01*
X16800675Y-16156550D02*
X16800675Y-16099407D01*
X16800675Y-16099407D02*
X16810198Y-16080359D01*
X16810198Y-16080359D02*
X16819722Y-16070835D01*
X16819722Y-16070835D02*
X16838770Y-16061312D01*
X16838770Y-16061312D02*
X16876865Y-16061312D01*
X16876865Y-16061312D02*
X16895913Y-16070835D01*
X16972103Y-16270835D02*
X16981627Y-16261312D01*
X16981627Y-16261312D02*
X17000675Y-16232740D01*
X17000675Y-16232740D02*
X17010198Y-16213693D01*
X17010198Y-16213693D02*
X17019722Y-16185121D01*
X17019722Y-16185121D02*
X17029246Y-16137502D01*
X17029246Y-16137502D02*
X17029246Y-16099407D01*
X17029246Y-16099407D02*
X17019722Y-16051788D01*
X17019722Y-16051788D02*
X17010198Y-16023216D01*
X17010198Y-16023216D02*
X17000675Y-16004169D01*
X17000675Y-16004169D02*
X16981627Y-15975597D01*
X16981627Y-15975597D02*
X16972103Y-15966073D01*
X10186799Y-16437873D02*
X10186799Y-16296450D01*
X10045376Y-16296450D01*
X10045376Y-16437873D01*
X10186799Y-16437873D01*
X10467341Y-16277693D02*
X10476865Y-16268169D01*
X10476865Y-16268169D02*
X10495912Y-16258645D01*
X10495912Y-16258645D02*
X10543531Y-16258645D01*
X10543531Y-16258645D02*
X10562579Y-16268169D01*
X10562579Y-16268169D02*
X10572103Y-16277693D01*
X10572103Y-16277693D02*
X10581626Y-16296740D01*
X10581626Y-16296740D02*
X10581626Y-16315788D01*
X10581626Y-16315788D02*
X10572103Y-16344359D01*
X10572103Y-16344359D02*
X10457817Y-16458645D01*
X10457817Y-16458645D02*
X10581626Y-16458645D01*
X10667341Y-16439597D02*
X10676865Y-16449121D01*
X10676865Y-16449121D02*
X10667341Y-16458645D01*
X10667341Y-16458645D02*
X10657817Y-16449121D01*
X10657817Y-16449121D02*
X10667341Y-16439597D01*
X10667341Y-16439597D02*
X10667341Y-16458645D01*
X10743531Y-16258645D02*
X10867341Y-16258645D01*
X10867341Y-16258645D02*
X10800674Y-16334835D01*
X10800674Y-16334835D02*
X10829246Y-16334835D01*
X10829246Y-16334835D02*
X10848293Y-16344359D01*
X10848293Y-16344359D02*
X10857817Y-16353883D01*
X10857817Y-16353883D02*
X10867341Y-16372931D01*
X10867341Y-16372931D02*
X10867341Y-16420550D01*
X10867341Y-16420550D02*
X10857817Y-16439597D01*
X10857817Y-16439597D02*
X10848293Y-16449121D01*
X10848293Y-16449121D02*
X10829246Y-16458645D01*
X10829246Y-16458645D02*
X10772103Y-16458645D01*
X10772103Y-16458645D02*
X10753055Y-16449121D01*
X10753055Y-16449121D02*
X10743531Y-16439597D01*
X10981626Y-16344359D02*
X10962579Y-16334835D01*
X10962579Y-16334835D02*
X10953055Y-16325312D01*
X10953055Y-16325312D02*
X10943531Y-16306264D01*
X10943531Y-16306264D02*
X10943531Y-16296740D01*
X10943531Y-16296740D02*
X10953055Y-16277693D01*
X10953055Y-16277693D02*
X10962579Y-16268169D01*
X10962579Y-16268169D02*
X10981626Y-16258645D01*
X10981626Y-16258645D02*
X11019722Y-16258645D01*
X11019722Y-16258645D02*
X11038769Y-16268169D01*
X11038769Y-16268169D02*
X11048293Y-16277693D01*
X11048293Y-16277693D02*
X11057817Y-16296740D01*
X11057817Y-16296740D02*
X11057817Y-16306264D01*
X11057817Y-16306264D02*
X11048293Y-16325312D01*
X11048293Y-16325312D02*
X11038769Y-16334835D01*
X11038769Y-16334835D02*
X11019722Y-16344359D01*
X11019722Y-16344359D02*
X10981626Y-16344359D01*
X10981626Y-16344359D02*
X10962579Y-16353883D01*
X10962579Y-16353883D02*
X10953055Y-16363407D01*
X10953055Y-16363407D02*
X10943531Y-16382454D01*
X10943531Y-16382454D02*
X10943531Y-16420550D01*
X10943531Y-16420550D02*
X10953055Y-16439597D01*
X10953055Y-16439597D02*
X10962579Y-16449121D01*
X10962579Y-16449121D02*
X10981626Y-16458645D01*
X10981626Y-16458645D02*
X11019722Y-16458645D01*
X11019722Y-16458645D02*
X11038769Y-16449121D01*
X11038769Y-16449121D02*
X11048293Y-16439597D01*
X11048293Y-16439597D02*
X11057817Y-16420550D01*
X11057817Y-16420550D02*
X11057817Y-16382454D01*
X11057817Y-16382454D02*
X11048293Y-16363407D01*
X11048293Y-16363407D02*
X11038769Y-16353883D01*
X11038769Y-16353883D02*
X11019722Y-16344359D01*
X11172103Y-16344359D02*
X11153055Y-16334835D01*
X11153055Y-16334835D02*
X11143531Y-16325312D01*
X11143531Y-16325312D02*
X11134007Y-16306264D01*
X11134007Y-16306264D02*
X11134007Y-16296740D01*
X11134007Y-16296740D02*
X11143531Y-16277693D01*
X11143531Y-16277693D02*
X11153055Y-16268169D01*
X11153055Y-16268169D02*
X11172103Y-16258645D01*
X11172103Y-16258645D02*
X11210198Y-16258645D01*
X11210198Y-16258645D02*
X11229245Y-16268169D01*
X11229245Y-16268169D02*
X11238769Y-16277693D01*
X11238769Y-16277693D02*
X11248293Y-16296740D01*
X11248293Y-16296740D02*
X11248293Y-16306264D01*
X11248293Y-16306264D02*
X11238769Y-16325312D01*
X11238769Y-16325312D02*
X11229245Y-16334835D01*
X11229245Y-16334835D02*
X11210198Y-16344359D01*
X11210198Y-16344359D02*
X11172103Y-16344359D01*
X11172103Y-16344359D02*
X11153055Y-16353883D01*
X11153055Y-16353883D02*
X11143531Y-16363407D01*
X11143531Y-16363407D02*
X11134007Y-16382454D01*
X11134007Y-16382454D02*
X11134007Y-16420550D01*
X11134007Y-16420550D02*
X11143531Y-16439597D01*
X11143531Y-16439597D02*
X11153055Y-16449121D01*
X11153055Y-16449121D02*
X11172103Y-16458645D01*
X11172103Y-16458645D02*
X11210198Y-16458645D01*
X11210198Y-16458645D02*
X11229245Y-16449121D01*
X11229245Y-16449121D02*
X11238769Y-16439597D01*
X11238769Y-16439597D02*
X11248293Y-16420550D01*
X11248293Y-16420550D02*
X11248293Y-16382454D01*
X11248293Y-16382454D02*
X11238769Y-16363407D01*
X11238769Y-16363407D02*
X11229245Y-16353883D01*
X11229245Y-16353883D02*
X11210198Y-16344359D01*
X11334007Y-16458645D02*
X11334007Y-16325312D01*
X11334007Y-16344359D02*
X11343531Y-16334835D01*
X11343531Y-16334835D02*
X11362579Y-16325312D01*
X11362579Y-16325312D02*
X11391150Y-16325312D01*
X11391150Y-16325312D02*
X11410198Y-16334835D01*
X11410198Y-16334835D02*
X11419722Y-16353883D01*
X11419722Y-16353883D02*
X11419722Y-16458645D01*
X11419722Y-16353883D02*
X11429245Y-16334835D01*
X11429245Y-16334835D02*
X11448293Y-16325312D01*
X11448293Y-16325312D02*
X11476864Y-16325312D01*
X11476864Y-16325312D02*
X11495912Y-16334835D01*
X11495912Y-16334835D02*
X11505436Y-16353883D01*
X11505436Y-16353883D02*
X11505436Y-16458645D01*
X11600674Y-16458645D02*
X11600674Y-16325312D01*
X11600674Y-16344359D02*
X11610198Y-16334835D01*
X11610198Y-16334835D02*
X11629245Y-16325312D01*
X11629245Y-16325312D02*
X11657817Y-16325312D01*
X11657817Y-16325312D02*
X11676865Y-16334835D01*
X11676865Y-16334835D02*
X11686388Y-16353883D01*
X11686388Y-16353883D02*
X11686388Y-16458645D01*
X11686388Y-16353883D02*
X11695912Y-16334835D01*
X11695912Y-16334835D02*
X11714960Y-16325312D01*
X11714960Y-16325312D02*
X11743531Y-16325312D01*
X11743531Y-16325312D02*
X11762579Y-16334835D01*
X11762579Y-16334835D02*
X11772103Y-16353883D01*
X11772103Y-16353883D02*
X11772103Y-16458645D01*
X12162579Y-16249121D02*
X11991150Y-16506264D01*
X12419722Y-16258645D02*
X12438769Y-16258645D01*
X12438769Y-16258645D02*
X12457817Y-16268169D01*
X12457817Y-16268169D02*
X12467341Y-16277693D01*
X12467341Y-16277693D02*
X12476865Y-16296740D01*
X12476865Y-16296740D02*
X12486388Y-16334835D01*
X12486388Y-16334835D02*
X12486388Y-16382454D01*
X12486388Y-16382454D02*
X12476865Y-16420550D01*
X12476865Y-16420550D02*
X12467341Y-16439597D01*
X12467341Y-16439597D02*
X12457817Y-16449121D01*
X12457817Y-16449121D02*
X12438769Y-16458645D01*
X12438769Y-16458645D02*
X12419722Y-16458645D01*
X12419722Y-16458645D02*
X12400674Y-16449121D01*
X12400674Y-16449121D02*
X12391150Y-16439597D01*
X12391150Y-16439597D02*
X12381627Y-16420550D01*
X12381627Y-16420550D02*
X12372103Y-16382454D01*
X12372103Y-16382454D02*
X12372103Y-16334835D01*
X12372103Y-16334835D02*
X12381627Y-16296740D01*
X12381627Y-16296740D02*
X12391150Y-16277693D01*
X12391150Y-16277693D02*
X12400674Y-16268169D01*
X12400674Y-16268169D02*
X12419722Y-16258645D01*
X12572103Y-16439597D02*
X12581627Y-16449121D01*
X12581627Y-16449121D02*
X12572103Y-16458645D01*
X12572103Y-16458645D02*
X12562579Y-16449121D01*
X12562579Y-16449121D02*
X12572103Y-16439597D01*
X12572103Y-16439597D02*
X12572103Y-16458645D01*
X12705436Y-16258645D02*
X12724484Y-16258645D01*
X12724484Y-16258645D02*
X12743531Y-16268169D01*
X12743531Y-16268169D02*
X12753055Y-16277693D01*
X12753055Y-16277693D02*
X12762579Y-16296740D01*
X12762579Y-16296740D02*
X12772103Y-16334835D01*
X12772103Y-16334835D02*
X12772103Y-16382454D01*
X12772103Y-16382454D02*
X12762579Y-16420550D01*
X12762579Y-16420550D02*
X12753055Y-16439597D01*
X12753055Y-16439597D02*
X12743531Y-16449121D01*
X12743531Y-16449121D02*
X12724484Y-16458645D01*
X12724484Y-16458645D02*
X12705436Y-16458645D01*
X12705436Y-16458645D02*
X12686388Y-16449121D01*
X12686388Y-16449121D02*
X12676865Y-16439597D01*
X12676865Y-16439597D02*
X12667341Y-16420550D01*
X12667341Y-16420550D02*
X12657817Y-16382454D01*
X12657817Y-16382454D02*
X12657817Y-16334835D01*
X12657817Y-16334835D02*
X12667341Y-16296740D01*
X12667341Y-16296740D02*
X12676865Y-16277693D01*
X12676865Y-16277693D02*
X12686388Y-16268169D01*
X12686388Y-16268169D02*
X12705436Y-16258645D01*
X12867341Y-16458645D02*
X12905436Y-16458645D01*
X12905436Y-16458645D02*
X12924484Y-16449121D01*
X12924484Y-16449121D02*
X12934008Y-16439597D01*
X12934008Y-16439597D02*
X12953055Y-16411026D01*
X12953055Y-16411026D02*
X12962579Y-16372931D01*
X12962579Y-16372931D02*
X12962579Y-16296740D01*
X12962579Y-16296740D02*
X12953055Y-16277693D01*
X12953055Y-16277693D02*
X12943531Y-16268169D01*
X12943531Y-16268169D02*
X12924484Y-16258645D01*
X12924484Y-16258645D02*
X12886388Y-16258645D01*
X12886388Y-16258645D02*
X12867341Y-16268169D01*
X12867341Y-16268169D02*
X12857817Y-16277693D01*
X12857817Y-16277693D02*
X12848293Y-16296740D01*
X12848293Y-16296740D02*
X12848293Y-16344359D01*
X12848293Y-16344359D02*
X12857817Y-16363407D01*
X12857817Y-16363407D02*
X12867341Y-16372931D01*
X12867341Y-16372931D02*
X12886388Y-16382454D01*
X12886388Y-16382454D02*
X12924484Y-16382454D01*
X12924484Y-16382454D02*
X12943531Y-16372931D01*
X12943531Y-16372931D02*
X12953055Y-16363407D01*
X12953055Y-16363407D02*
X12962579Y-16344359D01*
X13134008Y-16325312D02*
X13134008Y-16458645D01*
X13086388Y-16249121D02*
X13038769Y-16391978D01*
X13038769Y-16391978D02*
X13162579Y-16391978D01*
X13276865Y-16258645D02*
X13295912Y-16258645D01*
X13295912Y-16258645D02*
X13314960Y-16268169D01*
X13314960Y-16268169D02*
X13324484Y-16277693D01*
X13324484Y-16277693D02*
X13334008Y-16296740D01*
X13334008Y-16296740D02*
X13343531Y-16334835D01*
X13343531Y-16334835D02*
X13343531Y-16382454D01*
X13343531Y-16382454D02*
X13334008Y-16420550D01*
X13334008Y-16420550D02*
X13324484Y-16439597D01*
X13324484Y-16439597D02*
X13314960Y-16449121D01*
X13314960Y-16449121D02*
X13295912Y-16458645D01*
X13295912Y-16458645D02*
X13276865Y-16458645D01*
X13276865Y-16458645D02*
X13257817Y-16449121D01*
X13257817Y-16449121D02*
X13248293Y-16439597D01*
X13248293Y-16439597D02*
X13238769Y-16420550D01*
X13238769Y-16420550D02*
X13229246Y-16382454D01*
X13229246Y-16382454D02*
X13229246Y-16334835D01*
X13229246Y-16334835D02*
X13238769Y-16296740D01*
X13238769Y-16296740D02*
X13248293Y-16277693D01*
X13248293Y-16277693D02*
X13257817Y-16268169D01*
X13257817Y-16268169D02*
X13276865Y-16258645D01*
X13419722Y-16258645D02*
X13419722Y-16296740D01*
X13495912Y-16258645D02*
X13495912Y-16296740D01*
X13791151Y-16534835D02*
X13781627Y-16525312D01*
X13781627Y-16525312D02*
X13762579Y-16496740D01*
X13762579Y-16496740D02*
X13753055Y-16477693D01*
X13753055Y-16477693D02*
X13743531Y-16449121D01*
X13743531Y-16449121D02*
X13734008Y-16401502D01*
X13734008Y-16401502D02*
X13734008Y-16363407D01*
X13734008Y-16363407D02*
X13743531Y-16315788D01*
X13743531Y-16315788D02*
X13753055Y-16287216D01*
X13753055Y-16287216D02*
X13762579Y-16268169D01*
X13762579Y-16268169D02*
X13781627Y-16239597D01*
X13781627Y-16239597D02*
X13791151Y-16230073D01*
X13972103Y-16458645D02*
X13857817Y-16458645D01*
X13914960Y-16458645D02*
X13914960Y-16258645D01*
X13914960Y-16258645D02*
X13895912Y-16287216D01*
X13895912Y-16287216D02*
X13876865Y-16306264D01*
X13876865Y-16306264D02*
X13857817Y-16315788D01*
X14210198Y-16458645D02*
X14210198Y-16258645D01*
X14295912Y-16458645D02*
X14295912Y-16353883D01*
X14295912Y-16353883D02*
X14286389Y-16334835D01*
X14286389Y-16334835D02*
X14267341Y-16325312D01*
X14267341Y-16325312D02*
X14238770Y-16325312D01*
X14238770Y-16325312D02*
X14219722Y-16334835D01*
X14219722Y-16334835D02*
X14210198Y-16344359D01*
X14419722Y-16458645D02*
X14400674Y-16449121D01*
X14400674Y-16449121D02*
X14391151Y-16439597D01*
X14391151Y-16439597D02*
X14381627Y-16420550D01*
X14381627Y-16420550D02*
X14381627Y-16363407D01*
X14381627Y-16363407D02*
X14391151Y-16344359D01*
X14391151Y-16344359D02*
X14400674Y-16334835D01*
X14400674Y-16334835D02*
X14419722Y-16325312D01*
X14419722Y-16325312D02*
X14448293Y-16325312D01*
X14448293Y-16325312D02*
X14467341Y-16334835D01*
X14467341Y-16334835D02*
X14476865Y-16344359D01*
X14476865Y-16344359D02*
X14486389Y-16363407D01*
X14486389Y-16363407D02*
X14486389Y-16420550D01*
X14486389Y-16420550D02*
X14476865Y-16439597D01*
X14476865Y-16439597D02*
X14467341Y-16449121D01*
X14467341Y-16449121D02*
X14448293Y-16458645D01*
X14448293Y-16458645D02*
X14419722Y-16458645D01*
X14600674Y-16458645D02*
X14581627Y-16449121D01*
X14581627Y-16449121D02*
X14572103Y-16430073D01*
X14572103Y-16430073D02*
X14572103Y-16258645D01*
X14753055Y-16449121D02*
X14734008Y-16458645D01*
X14734008Y-16458645D02*
X14695912Y-16458645D01*
X14695912Y-16458645D02*
X14676865Y-16449121D01*
X14676865Y-16449121D02*
X14667341Y-16430073D01*
X14667341Y-16430073D02*
X14667341Y-16353883D01*
X14667341Y-16353883D02*
X14676865Y-16334835D01*
X14676865Y-16334835D02*
X14695912Y-16325312D01*
X14695912Y-16325312D02*
X14734008Y-16325312D01*
X14734008Y-16325312D02*
X14753055Y-16334835D01*
X14753055Y-16334835D02*
X14762579Y-16353883D01*
X14762579Y-16353883D02*
X14762579Y-16372931D01*
X14762579Y-16372931D02*
X14667341Y-16391978D01*
X14829246Y-16534835D02*
X14838770Y-16525312D01*
X14838770Y-16525312D02*
X14857817Y-16496740D01*
X14857817Y-16496740D02*
X14867341Y-16477693D01*
X14867341Y-16477693D02*
X14876865Y-16449121D01*
X14876865Y-16449121D02*
X14886389Y-16401502D01*
X14886389Y-16401502D02*
X14886389Y-16363407D01*
X14886389Y-16363407D02*
X14876865Y-16315788D01*
X14876865Y-16315788D02*
X14867341Y-16287216D01*
X14867341Y-16287216D02*
X14857817Y-16268169D01*
X14857817Y-16268169D02*
X14838770Y-16239597D01*
X14838770Y-16239597D02*
X14829246Y-16230073D01*
X15191151Y-16534835D02*
X15181627Y-16525312D01*
X15181627Y-16525312D02*
X15162579Y-16496740D01*
X15162579Y-16496740D02*
X15153055Y-16477693D01*
X15153055Y-16477693D02*
X15143532Y-16449121D01*
X15143532Y-16449121D02*
X15134008Y-16401502D01*
X15134008Y-16401502D02*
X15134008Y-16363407D01*
X15134008Y-16363407D02*
X15143532Y-16315788D01*
X15143532Y-16315788D02*
X15153055Y-16287216D01*
X15153055Y-16287216D02*
X15162579Y-16268169D01*
X15162579Y-16268169D02*
X15181627Y-16239597D01*
X15181627Y-16239597D02*
X15191151Y-16230073D01*
X15267341Y-16325312D02*
X15267341Y-16458645D01*
X15267341Y-16344359D02*
X15276865Y-16334835D01*
X15276865Y-16334835D02*
X15295912Y-16325312D01*
X15295912Y-16325312D02*
X15324484Y-16325312D01*
X15324484Y-16325312D02*
X15343532Y-16334835D01*
X15343532Y-16334835D02*
X15353055Y-16353883D01*
X15353055Y-16353883D02*
X15353055Y-16458645D01*
X15476865Y-16458645D02*
X15457817Y-16449121D01*
X15457817Y-16449121D02*
X15448293Y-16439597D01*
X15448293Y-16439597D02*
X15438770Y-16420550D01*
X15438770Y-16420550D02*
X15438770Y-16363407D01*
X15438770Y-16363407D02*
X15448293Y-16344359D01*
X15448293Y-16344359D02*
X15457817Y-16334835D01*
X15457817Y-16334835D02*
X15476865Y-16325312D01*
X15476865Y-16325312D02*
X15505436Y-16325312D01*
X15505436Y-16325312D02*
X15524484Y-16334835D01*
X15524484Y-16334835D02*
X15534008Y-16344359D01*
X15534008Y-16344359D02*
X15543532Y-16363407D01*
X15543532Y-16363407D02*
X15543532Y-16420550D01*
X15543532Y-16420550D02*
X15534008Y-16439597D01*
X15534008Y-16439597D02*
X15524484Y-16449121D01*
X15524484Y-16449121D02*
X15505436Y-16458645D01*
X15505436Y-16458645D02*
X15476865Y-16458645D01*
X15600674Y-16325312D02*
X15676865Y-16325312D01*
X15629246Y-16258645D02*
X15629246Y-16430073D01*
X15629246Y-16430073D02*
X15638770Y-16449121D01*
X15638770Y-16449121D02*
X15657817Y-16458645D01*
X15657817Y-16458645D02*
X15676865Y-16458645D01*
X15895913Y-16325312D02*
X15895913Y-16525312D01*
X15895913Y-16334835D02*
X15914960Y-16325312D01*
X15914960Y-16325312D02*
X15953055Y-16325312D01*
X15953055Y-16325312D02*
X15972103Y-16334835D01*
X15972103Y-16334835D02*
X15981627Y-16344359D01*
X15981627Y-16344359D02*
X15991151Y-16363407D01*
X15991151Y-16363407D02*
X15991151Y-16420550D01*
X15991151Y-16420550D02*
X15981627Y-16439597D01*
X15981627Y-16439597D02*
X15972103Y-16449121D01*
X15972103Y-16449121D02*
X15953055Y-16458645D01*
X15953055Y-16458645D02*
X15914960Y-16458645D01*
X15914960Y-16458645D02*
X15895913Y-16449121D01*
X16105436Y-16458645D02*
X16086389Y-16449121D01*
X16086389Y-16449121D02*
X16076865Y-16430073D01*
X16076865Y-16430073D02*
X16076865Y-16258645D01*
X16267341Y-16458645D02*
X16267341Y-16353883D01*
X16267341Y-16353883D02*
X16257817Y-16334835D01*
X16257817Y-16334835D02*
X16238770Y-16325312D01*
X16238770Y-16325312D02*
X16200674Y-16325312D01*
X16200674Y-16325312D02*
X16181627Y-16334835D01*
X16267341Y-16449121D02*
X16248294Y-16458645D01*
X16248294Y-16458645D02*
X16200674Y-16458645D01*
X16200674Y-16458645D02*
X16181627Y-16449121D01*
X16181627Y-16449121D02*
X16172103Y-16430073D01*
X16172103Y-16430073D02*
X16172103Y-16411026D01*
X16172103Y-16411026D02*
X16181627Y-16391978D01*
X16181627Y-16391978D02*
X16200674Y-16382454D01*
X16200674Y-16382454D02*
X16248294Y-16382454D01*
X16248294Y-16382454D02*
X16267341Y-16372931D01*
X16334008Y-16325312D02*
X16410198Y-16325312D01*
X16362579Y-16258645D02*
X16362579Y-16430073D01*
X16362579Y-16430073D02*
X16372103Y-16449121D01*
X16372103Y-16449121D02*
X16391151Y-16458645D01*
X16391151Y-16458645D02*
X16410198Y-16458645D01*
X16553055Y-16449121D02*
X16534008Y-16458645D01*
X16534008Y-16458645D02*
X16495913Y-16458645D01*
X16495913Y-16458645D02*
X16476865Y-16449121D01*
X16476865Y-16449121D02*
X16467341Y-16430073D01*
X16467341Y-16430073D02*
X16467341Y-16353883D01*
X16467341Y-16353883D02*
X16476865Y-16334835D01*
X16476865Y-16334835D02*
X16495913Y-16325312D01*
X16495913Y-16325312D02*
X16534008Y-16325312D01*
X16534008Y-16325312D02*
X16553055Y-16334835D01*
X16553055Y-16334835D02*
X16562579Y-16353883D01*
X16562579Y-16353883D02*
X16562579Y-16372931D01*
X16562579Y-16372931D02*
X16467341Y-16391978D01*
X16734008Y-16458645D02*
X16734008Y-16258645D01*
X16734008Y-16449121D02*
X16714960Y-16458645D01*
X16714960Y-16458645D02*
X16676865Y-16458645D01*
X16676865Y-16458645D02*
X16657817Y-16449121D01*
X16657817Y-16449121D02*
X16648294Y-16439597D01*
X16648294Y-16439597D02*
X16638770Y-16420550D01*
X16638770Y-16420550D02*
X16638770Y-16363407D01*
X16638770Y-16363407D02*
X16648294Y-16344359D01*
X16648294Y-16344359D02*
X16657817Y-16334835D01*
X16657817Y-16334835D02*
X16676865Y-16325312D01*
X16676865Y-16325312D02*
X16714960Y-16325312D01*
X16714960Y-16325312D02*
X16734008Y-16334835D01*
X16810198Y-16534835D02*
X16819722Y-16525312D01*
X16819722Y-16525312D02*
X16838770Y-16496740D01*
X16838770Y-16496740D02*
X16848294Y-16477693D01*
X16848294Y-16477693D02*
X16857817Y-16449121D01*
X16857817Y-16449121D02*
X16867341Y-16401502D01*
X16867341Y-16401502D02*
X16867341Y-16363407D01*
X16867341Y-16363407D02*
X16857817Y-16315788D01*
X16857817Y-16315788D02*
X16848294Y-16287216D01*
X16848294Y-16287216D02*
X16838770Y-16268169D01*
X16838770Y-16268169D02*
X16819722Y-16239597D01*
X16819722Y-16239597D02*
X16810198Y-16230073D01*
X10116088Y-16787161D02*
X10216088Y-16687161D01*
X10116088Y-16587161D01*
X10016088Y-16687161D01*
X10116088Y-16787161D01*
X10457817Y-16578645D02*
X10581626Y-16578645D01*
X10581626Y-16578645D02*
X10514960Y-16654835D01*
X10514960Y-16654835D02*
X10543531Y-16654835D01*
X10543531Y-16654835D02*
X10562579Y-16664359D01*
X10562579Y-16664359D02*
X10572103Y-16673883D01*
X10572103Y-16673883D02*
X10581626Y-16692931D01*
X10581626Y-16692931D02*
X10581626Y-16740550D01*
X10581626Y-16740550D02*
X10572103Y-16759597D01*
X10572103Y-16759597D02*
X10562579Y-16769121D01*
X10562579Y-16769121D02*
X10543531Y-16778645D01*
X10543531Y-16778645D02*
X10486388Y-16778645D01*
X10486388Y-16778645D02*
X10467341Y-16769121D01*
X10467341Y-16769121D02*
X10457817Y-16759597D01*
X10667341Y-16759597D02*
X10676865Y-16769121D01*
X10676865Y-16769121D02*
X10667341Y-16778645D01*
X10667341Y-16778645D02*
X10657817Y-16769121D01*
X10657817Y-16769121D02*
X10667341Y-16759597D01*
X10667341Y-16759597D02*
X10667341Y-16778645D01*
X10848293Y-16645312D02*
X10848293Y-16778645D01*
X10800674Y-16569121D02*
X10753055Y-16711978D01*
X10753055Y-16711978D02*
X10876865Y-16711978D01*
X11048293Y-16578645D02*
X10953055Y-16578645D01*
X10953055Y-16578645D02*
X10943531Y-16673883D01*
X10943531Y-16673883D02*
X10953055Y-16664359D01*
X10953055Y-16664359D02*
X10972103Y-16654835D01*
X10972103Y-16654835D02*
X11019722Y-16654835D01*
X11019722Y-16654835D02*
X11038769Y-16664359D01*
X11038769Y-16664359D02*
X11048293Y-16673883D01*
X11048293Y-16673883D02*
X11057817Y-16692931D01*
X11057817Y-16692931D02*
X11057817Y-16740550D01*
X11057817Y-16740550D02*
X11048293Y-16759597D01*
X11048293Y-16759597D02*
X11038769Y-16769121D01*
X11038769Y-16769121D02*
X11019722Y-16778645D01*
X11019722Y-16778645D02*
X10972103Y-16778645D01*
X10972103Y-16778645D02*
X10953055Y-16769121D01*
X10953055Y-16769121D02*
X10943531Y-16759597D01*
X11229245Y-16645312D02*
X11229245Y-16778645D01*
X11181626Y-16569121D02*
X11134007Y-16711978D01*
X11134007Y-16711978D02*
X11257817Y-16711978D01*
X11334007Y-16778645D02*
X11334007Y-16645312D01*
X11334007Y-16664359D02*
X11343531Y-16654835D01*
X11343531Y-16654835D02*
X11362579Y-16645312D01*
X11362579Y-16645312D02*
X11391150Y-16645312D01*
X11391150Y-16645312D02*
X11410198Y-16654835D01*
X11410198Y-16654835D02*
X11419722Y-16673883D01*
X11419722Y-16673883D02*
X11419722Y-16778645D01*
X11419722Y-16673883D02*
X11429245Y-16654835D01*
X11429245Y-16654835D02*
X11448293Y-16645312D01*
X11448293Y-16645312D02*
X11476864Y-16645312D01*
X11476864Y-16645312D02*
X11495912Y-16654835D01*
X11495912Y-16654835D02*
X11505436Y-16673883D01*
X11505436Y-16673883D02*
X11505436Y-16778645D01*
X11600674Y-16778645D02*
X11600674Y-16645312D01*
X11600674Y-16664359D02*
X11610198Y-16654835D01*
X11610198Y-16654835D02*
X11629245Y-16645312D01*
X11629245Y-16645312D02*
X11657817Y-16645312D01*
X11657817Y-16645312D02*
X11676865Y-16654835D01*
X11676865Y-16654835D02*
X11686388Y-16673883D01*
X11686388Y-16673883D02*
X11686388Y-16778645D01*
X11686388Y-16673883D02*
X11695912Y-16654835D01*
X11695912Y-16654835D02*
X11714960Y-16645312D01*
X11714960Y-16645312D02*
X11743531Y-16645312D01*
X11743531Y-16645312D02*
X11762579Y-16654835D01*
X11762579Y-16654835D02*
X11772103Y-16673883D01*
X11772103Y-16673883D02*
X11772103Y-16778645D01*
X12162579Y-16569121D02*
X11991150Y-16826264D01*
X12419722Y-16578645D02*
X12438769Y-16578645D01*
X12438769Y-16578645D02*
X12457817Y-16588169D01*
X12457817Y-16588169D02*
X12467341Y-16597693D01*
X12467341Y-16597693D02*
X12476865Y-16616740D01*
X12476865Y-16616740D02*
X12486388Y-16654835D01*
X12486388Y-16654835D02*
X12486388Y-16702454D01*
X12486388Y-16702454D02*
X12476865Y-16740550D01*
X12476865Y-16740550D02*
X12467341Y-16759597D01*
X12467341Y-16759597D02*
X12457817Y-16769121D01*
X12457817Y-16769121D02*
X12438769Y-16778645D01*
X12438769Y-16778645D02*
X12419722Y-16778645D01*
X12419722Y-16778645D02*
X12400674Y-16769121D01*
X12400674Y-16769121D02*
X12391150Y-16759597D01*
X12391150Y-16759597D02*
X12381627Y-16740550D01*
X12381627Y-16740550D02*
X12372103Y-16702454D01*
X12372103Y-16702454D02*
X12372103Y-16654835D01*
X12372103Y-16654835D02*
X12381627Y-16616740D01*
X12381627Y-16616740D02*
X12391150Y-16597693D01*
X12391150Y-16597693D02*
X12400674Y-16588169D01*
X12400674Y-16588169D02*
X12419722Y-16578645D01*
X12572103Y-16759597D02*
X12581627Y-16769121D01*
X12581627Y-16769121D02*
X12572103Y-16778645D01*
X12572103Y-16778645D02*
X12562579Y-16769121D01*
X12562579Y-16769121D02*
X12572103Y-16759597D01*
X12572103Y-16759597D02*
X12572103Y-16778645D01*
X12772103Y-16778645D02*
X12657817Y-16778645D01*
X12714960Y-16778645D02*
X12714960Y-16578645D01*
X12714960Y-16578645D02*
X12695912Y-16607216D01*
X12695912Y-16607216D02*
X12676865Y-16626264D01*
X12676865Y-16626264D02*
X12657817Y-16635788D01*
X12838769Y-16578645D02*
X12962579Y-16578645D01*
X12962579Y-16578645D02*
X12895912Y-16654835D01*
X12895912Y-16654835D02*
X12924484Y-16654835D01*
X12924484Y-16654835D02*
X12943531Y-16664359D01*
X12943531Y-16664359D02*
X12953055Y-16673883D01*
X12953055Y-16673883D02*
X12962579Y-16692931D01*
X12962579Y-16692931D02*
X12962579Y-16740550D01*
X12962579Y-16740550D02*
X12953055Y-16759597D01*
X12953055Y-16759597D02*
X12943531Y-16769121D01*
X12943531Y-16769121D02*
X12924484Y-16778645D01*
X12924484Y-16778645D02*
X12867341Y-16778645D01*
X12867341Y-16778645D02*
X12848293Y-16769121D01*
X12848293Y-16769121D02*
X12838769Y-16759597D01*
X13134008Y-16578645D02*
X13095912Y-16578645D01*
X13095912Y-16578645D02*
X13076865Y-16588169D01*
X13076865Y-16588169D02*
X13067341Y-16597693D01*
X13067341Y-16597693D02*
X13048293Y-16626264D01*
X13048293Y-16626264D02*
X13038769Y-16664359D01*
X13038769Y-16664359D02*
X13038769Y-16740550D01*
X13038769Y-16740550D02*
X13048293Y-16759597D01*
X13048293Y-16759597D02*
X13057817Y-16769121D01*
X13057817Y-16769121D02*
X13076865Y-16778645D01*
X13076865Y-16778645D02*
X13114960Y-16778645D01*
X13114960Y-16778645D02*
X13134008Y-16769121D01*
X13134008Y-16769121D02*
X13143531Y-16759597D01*
X13143531Y-16759597D02*
X13153055Y-16740550D01*
X13153055Y-16740550D02*
X13153055Y-16692931D01*
X13153055Y-16692931D02*
X13143531Y-16673883D01*
X13143531Y-16673883D02*
X13134008Y-16664359D01*
X13134008Y-16664359D02*
X13114960Y-16654835D01*
X13114960Y-16654835D02*
X13076865Y-16654835D01*
X13076865Y-16654835D02*
X13057817Y-16664359D01*
X13057817Y-16664359D02*
X13048293Y-16673883D01*
X13048293Y-16673883D02*
X13038769Y-16692931D01*
X13276865Y-16578645D02*
X13295912Y-16578645D01*
X13295912Y-16578645D02*
X13314960Y-16588169D01*
X13314960Y-16588169D02*
X13324484Y-16597693D01*
X13324484Y-16597693D02*
X13334008Y-16616740D01*
X13334008Y-16616740D02*
X13343531Y-16654835D01*
X13343531Y-16654835D02*
X13343531Y-16702454D01*
X13343531Y-16702454D02*
X13334008Y-16740550D01*
X13334008Y-16740550D02*
X13324484Y-16759597D01*
X13324484Y-16759597D02*
X13314960Y-16769121D01*
X13314960Y-16769121D02*
X13295912Y-16778645D01*
X13295912Y-16778645D02*
X13276865Y-16778645D01*
X13276865Y-16778645D02*
X13257817Y-16769121D01*
X13257817Y-16769121D02*
X13248293Y-16759597D01*
X13248293Y-16759597D02*
X13238769Y-16740550D01*
X13238769Y-16740550D02*
X13229246Y-16702454D01*
X13229246Y-16702454D02*
X13229246Y-16654835D01*
X13229246Y-16654835D02*
X13238769Y-16616740D01*
X13238769Y-16616740D02*
X13248293Y-16597693D01*
X13248293Y-16597693D02*
X13257817Y-16588169D01*
X13257817Y-16588169D02*
X13276865Y-16578645D01*
X13419722Y-16578645D02*
X13419722Y-16616740D01*
X13495912Y-16578645D02*
X13495912Y-16616740D01*
X13791151Y-16854835D02*
X13781627Y-16845312D01*
X13781627Y-16845312D02*
X13762579Y-16816740D01*
X13762579Y-16816740D02*
X13753055Y-16797693D01*
X13753055Y-16797693D02*
X13743531Y-16769121D01*
X13743531Y-16769121D02*
X13734008Y-16721502D01*
X13734008Y-16721502D02*
X13734008Y-16683407D01*
X13734008Y-16683407D02*
X13743531Y-16635788D01*
X13743531Y-16635788D02*
X13753055Y-16607216D01*
X13753055Y-16607216D02*
X13762579Y-16588169D01*
X13762579Y-16588169D02*
X13781627Y-16559597D01*
X13781627Y-16559597D02*
X13791151Y-16550073D01*
X13857817Y-16597693D02*
X13867341Y-16588169D01*
X13867341Y-16588169D02*
X13886389Y-16578645D01*
X13886389Y-16578645D02*
X13934008Y-16578645D01*
X13934008Y-16578645D02*
X13953055Y-16588169D01*
X13953055Y-16588169D02*
X13962579Y-16597693D01*
X13962579Y-16597693D02*
X13972103Y-16616740D01*
X13972103Y-16616740D02*
X13972103Y-16635788D01*
X13972103Y-16635788D02*
X13962579Y-16664359D01*
X13962579Y-16664359D02*
X13848293Y-16778645D01*
X13848293Y-16778645D02*
X13972103Y-16778645D01*
X14210198Y-16778645D02*
X14210198Y-16578645D01*
X14295912Y-16778645D02*
X14295912Y-16673883D01*
X14295912Y-16673883D02*
X14286389Y-16654835D01*
X14286389Y-16654835D02*
X14267341Y-16645312D01*
X14267341Y-16645312D02*
X14238770Y-16645312D01*
X14238770Y-16645312D02*
X14219722Y-16654835D01*
X14219722Y-16654835D02*
X14210198Y-16664359D01*
X14419722Y-16778645D02*
X14400674Y-16769121D01*
X14400674Y-16769121D02*
X14391151Y-16759597D01*
X14391151Y-16759597D02*
X14381627Y-16740550D01*
X14381627Y-16740550D02*
X14381627Y-16683407D01*
X14381627Y-16683407D02*
X14391151Y-16664359D01*
X14391151Y-16664359D02*
X14400674Y-16654835D01*
X14400674Y-16654835D02*
X14419722Y-16645312D01*
X14419722Y-16645312D02*
X14448293Y-16645312D01*
X14448293Y-16645312D02*
X14467341Y-16654835D01*
X14467341Y-16654835D02*
X14476865Y-16664359D01*
X14476865Y-16664359D02*
X14486389Y-16683407D01*
X14486389Y-16683407D02*
X14486389Y-16740550D01*
X14486389Y-16740550D02*
X14476865Y-16759597D01*
X14476865Y-16759597D02*
X14467341Y-16769121D01*
X14467341Y-16769121D02*
X14448293Y-16778645D01*
X14448293Y-16778645D02*
X14419722Y-16778645D01*
X14600674Y-16778645D02*
X14581627Y-16769121D01*
X14581627Y-16769121D02*
X14572103Y-16750073D01*
X14572103Y-16750073D02*
X14572103Y-16578645D01*
X14753055Y-16769121D02*
X14734008Y-16778645D01*
X14734008Y-16778645D02*
X14695912Y-16778645D01*
X14695912Y-16778645D02*
X14676865Y-16769121D01*
X14676865Y-16769121D02*
X14667341Y-16750073D01*
X14667341Y-16750073D02*
X14667341Y-16673883D01*
X14667341Y-16673883D02*
X14676865Y-16654835D01*
X14676865Y-16654835D02*
X14695912Y-16645312D01*
X14695912Y-16645312D02*
X14734008Y-16645312D01*
X14734008Y-16645312D02*
X14753055Y-16654835D01*
X14753055Y-16654835D02*
X14762579Y-16673883D01*
X14762579Y-16673883D02*
X14762579Y-16692931D01*
X14762579Y-16692931D02*
X14667341Y-16711978D01*
X14838770Y-16769121D02*
X14857817Y-16778645D01*
X14857817Y-16778645D02*
X14895912Y-16778645D01*
X14895912Y-16778645D02*
X14914960Y-16769121D01*
X14914960Y-16769121D02*
X14924484Y-16750073D01*
X14924484Y-16750073D02*
X14924484Y-16740550D01*
X14924484Y-16740550D02*
X14914960Y-16721502D01*
X14914960Y-16721502D02*
X14895912Y-16711978D01*
X14895912Y-16711978D02*
X14867341Y-16711978D01*
X14867341Y-16711978D02*
X14848293Y-16702454D01*
X14848293Y-16702454D02*
X14838770Y-16683407D01*
X14838770Y-16683407D02*
X14838770Y-16673883D01*
X14838770Y-16673883D02*
X14848293Y-16654835D01*
X14848293Y-16654835D02*
X14867341Y-16645312D01*
X14867341Y-16645312D02*
X14895912Y-16645312D01*
X14895912Y-16645312D02*
X14914960Y-16654835D01*
X14991151Y-16854835D02*
X15000674Y-16845312D01*
X15000674Y-16845312D02*
X15019722Y-16816740D01*
X15019722Y-16816740D02*
X15029246Y-16797693D01*
X15029246Y-16797693D02*
X15038770Y-16769121D01*
X15038770Y-16769121D02*
X15048293Y-16721502D01*
X15048293Y-16721502D02*
X15048293Y-16683407D01*
X15048293Y-16683407D02*
X15038770Y-16635788D01*
X15038770Y-16635788D02*
X15029246Y-16607216D01*
X15029246Y-16607216D02*
X15019722Y-16588169D01*
X15019722Y-16588169D02*
X15000674Y-16559597D01*
X15000674Y-16559597D02*
X14991151Y-16550073D01*
X15353055Y-16854835D02*
X15343532Y-16845312D01*
X15343532Y-16845312D02*
X15324484Y-16816740D01*
X15324484Y-16816740D02*
X15314960Y-16797693D01*
X15314960Y-16797693D02*
X15305436Y-16769121D01*
X15305436Y-16769121D02*
X15295913Y-16721502D01*
X15295913Y-16721502D02*
X15295913Y-16683407D01*
X15295913Y-16683407D02*
X15305436Y-16635788D01*
X15305436Y-16635788D02*
X15314960Y-16607216D01*
X15314960Y-16607216D02*
X15324484Y-16588169D01*
X15324484Y-16588169D02*
X15343532Y-16559597D01*
X15343532Y-16559597D02*
X15353055Y-16550073D01*
X15429246Y-16645312D02*
X15429246Y-16778645D01*
X15429246Y-16664359D02*
X15438770Y-16654835D01*
X15438770Y-16654835D02*
X15457817Y-16645312D01*
X15457817Y-16645312D02*
X15486389Y-16645312D01*
X15486389Y-16645312D02*
X15505436Y-16654835D01*
X15505436Y-16654835D02*
X15514960Y-16673883D01*
X15514960Y-16673883D02*
X15514960Y-16778645D01*
X15638770Y-16778645D02*
X15619722Y-16769121D01*
X15619722Y-16769121D02*
X15610198Y-16759597D01*
X15610198Y-16759597D02*
X15600674Y-16740550D01*
X15600674Y-16740550D02*
X15600674Y-16683407D01*
X15600674Y-16683407D02*
X15610198Y-16664359D01*
X15610198Y-16664359D02*
X15619722Y-16654835D01*
X15619722Y-16654835D02*
X15638770Y-16645312D01*
X15638770Y-16645312D02*
X15667341Y-16645312D01*
X15667341Y-16645312D02*
X15686389Y-16654835D01*
X15686389Y-16654835D02*
X15695913Y-16664359D01*
X15695913Y-16664359D02*
X15705436Y-16683407D01*
X15705436Y-16683407D02*
X15705436Y-16740550D01*
X15705436Y-16740550D02*
X15695913Y-16759597D01*
X15695913Y-16759597D02*
X15686389Y-16769121D01*
X15686389Y-16769121D02*
X15667341Y-16778645D01*
X15667341Y-16778645D02*
X15638770Y-16778645D01*
X15762579Y-16645312D02*
X15838770Y-16645312D01*
X15791151Y-16578645D02*
X15791151Y-16750073D01*
X15791151Y-16750073D02*
X15800674Y-16769121D01*
X15800674Y-16769121D02*
X15819722Y-16778645D01*
X15819722Y-16778645D02*
X15838770Y-16778645D01*
X16057817Y-16645312D02*
X16057817Y-16845312D01*
X16057817Y-16654835D02*
X16076865Y-16645312D01*
X16076865Y-16645312D02*
X16114960Y-16645312D01*
X16114960Y-16645312D02*
X16134008Y-16654835D01*
X16134008Y-16654835D02*
X16143532Y-16664359D01*
X16143532Y-16664359D02*
X16153055Y-16683407D01*
X16153055Y-16683407D02*
X16153055Y-16740550D01*
X16153055Y-16740550D02*
X16143532Y-16759597D01*
X16143532Y-16759597D02*
X16134008Y-16769121D01*
X16134008Y-16769121D02*
X16114960Y-16778645D01*
X16114960Y-16778645D02*
X16076865Y-16778645D01*
X16076865Y-16778645D02*
X16057817Y-16769121D01*
X16267341Y-16778645D02*
X16248294Y-16769121D01*
X16248294Y-16769121D02*
X16238770Y-16750073D01*
X16238770Y-16750073D02*
X16238770Y-16578645D01*
X16429246Y-16778645D02*
X16429246Y-16673883D01*
X16429246Y-16673883D02*
X16419722Y-16654835D01*
X16419722Y-16654835D02*
X16400675Y-16645312D01*
X16400675Y-16645312D02*
X16362579Y-16645312D01*
X16362579Y-16645312D02*
X16343532Y-16654835D01*
X16429246Y-16769121D02*
X16410198Y-16778645D01*
X16410198Y-16778645D02*
X16362579Y-16778645D01*
X16362579Y-16778645D02*
X16343532Y-16769121D01*
X16343532Y-16769121D02*
X16334008Y-16750073D01*
X16334008Y-16750073D02*
X16334008Y-16731026D01*
X16334008Y-16731026D02*
X16343532Y-16711978D01*
X16343532Y-16711978D02*
X16362579Y-16702454D01*
X16362579Y-16702454D02*
X16410198Y-16702454D01*
X16410198Y-16702454D02*
X16429246Y-16692931D01*
X16495913Y-16645312D02*
X16572103Y-16645312D01*
X16524484Y-16578645D02*
X16524484Y-16750073D01*
X16524484Y-16750073D02*
X16534008Y-16769121D01*
X16534008Y-16769121D02*
X16553055Y-16778645D01*
X16553055Y-16778645D02*
X16572103Y-16778645D01*
X16714960Y-16769121D02*
X16695913Y-16778645D01*
X16695913Y-16778645D02*
X16657817Y-16778645D01*
X16657817Y-16778645D02*
X16638770Y-16769121D01*
X16638770Y-16769121D02*
X16629246Y-16750073D01*
X16629246Y-16750073D02*
X16629246Y-16673883D01*
X16629246Y-16673883D02*
X16638770Y-16654835D01*
X16638770Y-16654835D02*
X16657817Y-16645312D01*
X16657817Y-16645312D02*
X16695913Y-16645312D01*
X16695913Y-16645312D02*
X16714960Y-16654835D01*
X16714960Y-16654835D02*
X16724484Y-16673883D01*
X16724484Y-16673883D02*
X16724484Y-16692931D01*
X16724484Y-16692931D02*
X16629246Y-16711978D01*
X16895913Y-16778645D02*
X16895913Y-16578645D01*
X16895913Y-16769121D02*
X16876865Y-16778645D01*
X16876865Y-16778645D02*
X16838770Y-16778645D01*
X16838770Y-16778645D02*
X16819722Y-16769121D01*
X16819722Y-16769121D02*
X16810198Y-16759597D01*
X16810198Y-16759597D02*
X16800675Y-16740550D01*
X16800675Y-16740550D02*
X16800675Y-16683407D01*
X16800675Y-16683407D02*
X16810198Y-16664359D01*
X16810198Y-16664359D02*
X16819722Y-16654835D01*
X16819722Y-16654835D02*
X16838770Y-16645312D01*
X16838770Y-16645312D02*
X16876865Y-16645312D01*
X16876865Y-16645312D02*
X16895913Y-16654835D01*
X16972103Y-16854835D02*
X16981627Y-16845312D01*
X16981627Y-16845312D02*
X17000675Y-16816740D01*
X17000675Y-16816740D02*
X17010198Y-16797693D01*
X17010198Y-16797693D02*
X17019722Y-16769121D01*
X17019722Y-16769121D02*
X17029246Y-16721502D01*
X17029246Y-16721502D02*
X17029246Y-16683407D01*
X17029246Y-16683407D02*
X17019722Y-16635788D01*
X17019722Y-16635788D02*
X17010198Y-16607216D01*
X17010198Y-16607216D02*
X17000675Y-16588169D01*
X17000675Y-16588169D02*
X16981627Y-16559597D01*
X16981627Y-16559597D02*
X16972103Y-16550073D01*
M02*
