G04 #@! TF.GenerationSoftware,KiCad,Pcbnew,8.0.6*
G04 #@! TF.CreationDate,2025-05-29T10:34:23-07:00*
G04 #@! TF.ProjectId,Drone PCB,44726f6e-6520-4504-9342-2e6b69636164,rev?*
G04 #@! TF.SameCoordinates,Original*
G04 #@! TF.FileFunction,Soldermask,Top*
G04 #@! TF.FilePolarity,Negative*
%FSLAX46Y46*%
G04 Gerber Fmt 4.6, Leading zero omitted, Abs format (unit mm)*
G04 Created by KiCad (PCBNEW 8.0.6) date 2025-05-29 10:34:23*
%MOMM*%
%LPD*%
G01*
G04 APERTURE LIST*
G04 Aperture macros list*
%AMRoundRect*
0 Rectangle with rounded corners*
0 $1 Rounding radius*
0 $2 $3 $4 $5 $6 $7 $8 $9 X,Y pos of 4 corners*
0 Add a 4 corners polygon primitive as box body*
4,1,4,$2,$3,$4,$5,$6,$7,$8,$9,$2,$3,0*
0 Add four circle primitives for the rounded corners*
1,1,$1+$1,$2,$3*
1,1,$1+$1,$4,$5*
1,1,$1+$1,$6,$7*
1,1,$1+$1,$8,$9*
0 Add four rect primitives between the rounded corners*
20,1,$1+$1,$2,$3,$4,$5,0*
20,1,$1+$1,$4,$5,$6,$7,0*
20,1,$1+$1,$6,$7,$8,$9,0*
20,1,$1+$1,$8,$9,$2,$3,0*%
%AMRotRect*
0 Rectangle, with rotation*
0 The origin of the aperture is its center*
0 $1 length*
0 $2 width*
0 $3 Rotation angle, in degrees counterclockwise*
0 Add horizontal line*
21,1,$1,$2,0,0,$3*%
G04 Aperture macros list end*
%ADD10C,0.300000*%
%ADD11RotRect,1.000000X2.450000X119.000000*%
%ADD12RotRect,1.000000X2.450000X29.000000*%
%ADD13RotRect,1.000000X2.450000X61.000000*%
%ADD14RotRect,1.000000X2.450000X151.000000*%
%ADD15C,1.000000*%
%ADD16RoundRect,0.225000X-0.118958X0.314601X-0.325350X-0.085276X0.118958X-0.314601X0.325350X0.085276X0*%
%ADD17RoundRect,0.200000X0.152640X-0.303852X0.336100X0.051595X-0.152640X0.303852X-0.336100X-0.051595X0*%
%ADD18RotRect,3.000000X3.000000X62.700000*%
%ADD19RoundRect,0.200000X0.303852X0.152640X-0.051595X0.336100X-0.303852X-0.152640X0.051595X-0.336100X0*%
%ADD20RoundRect,0.150000X0.136164X0.590860X-0.402749X-0.453265X-0.136164X-0.590860X0.402749X0.453265X0*%
%ADD21RoundRect,0.250000X0.404180X0.128990X-0.128990X0.404180X-0.404180X-0.128990X0.128990X-0.404180X0*%
%ADD22RoundRect,0.250000X-0.428540X0.586923X-0.726662X0.009322X0.428540X-0.586923X0.726662X-0.009322X0*%
%ADD23RoundRect,0.225000X-0.250000X0.225000X-0.250000X-0.225000X0.250000X-0.225000X0.250000X0.225000X0*%
%ADD24RoundRect,0.250000X0.428540X-0.586923X0.726662X-0.009322X-0.428540X0.586923X-0.726662X0.009322X0*%
%ADD25RoundRect,0.200000X-0.152640X0.303852X-0.336100X-0.051595X0.152640X-0.303852X0.336100X0.051595X0*%
%ADD26RoundRect,0.200000X-0.303852X-0.152640X0.051595X-0.336100X0.303852X0.152640X-0.051595X0.336100X0*%
%ADD27RoundRect,0.250000X-0.726218X-0.027073X-0.414072X-0.597218X0.726218X0.027073X0.414072X0.597218X0*%
%ADD28RoundRect,0.200000X0.200000X0.275000X-0.200000X0.275000X-0.200000X-0.275000X0.200000X-0.275000X0*%
%ADD29RoundRect,0.150000X0.413703X-0.443290X-0.150559X0.587357X-0.413703X0.443290X0.150559X-0.587357X0*%
%ADD30RoundRect,0.200000X-0.043368X-0.337260X0.307491X-0.145170X0.043368X0.337260X-0.307491X0.145170X0*%
%ADD31RoundRect,0.250000X-0.404180X-0.128990X0.128990X-0.404180X0.404180X0.128990X-0.128990X0.404180X0*%
%ADD32RoundRect,0.200000X-0.275000X0.200000X-0.275000X-0.200000X0.275000X-0.200000X0.275000X0.200000X0*%
%ADD33RotRect,3.000000X3.000000X242.700000*%
%ADD34RoundRect,0.200000X0.275000X-0.200000X0.275000X0.200000X-0.275000X0.200000X-0.275000X-0.200000X0*%
%ADD35RotRect,3.000000X3.000000X298.700000*%
%ADD36RoundRect,0.150000X-0.136164X-0.590860X0.402749X0.453265X0.136164X0.590860X-0.402749X-0.453265X0*%
%ADD37RoundRect,0.200000X0.043368X0.337260X-0.307491X0.145170X-0.043368X-0.337260X0.307491X-0.145170X0*%
%ADD38RotRect,3.000000X3.000000X208.700000*%
%ADD39C,0.900000*%
%ADD40RoundRect,0.250000X-0.733214X-0.776545X-0.041817X-1.067181X0.733214X0.776545X0.041817X1.067181X0*%
%ADD41RoundRect,0.250000X-0.119077X-0.407211X0.407211X-0.119077X0.119077X0.407211X-0.407211X0.119077X0*%
%ADD42RoundRect,0.050000X-0.050000X0.225000X-0.050000X-0.225000X0.050000X-0.225000X0.050000X0.225000X0*%
%ADD43RoundRect,0.050000X-0.225000X-0.050000X0.225000X-0.050000X0.225000X0.050000X-0.225000X0.050000X0*%
%ADD44RoundRect,0.225000X-0.225000X-0.250000X0.225000X-0.250000X0.225000X0.250000X-0.225000X0.250000X0*%
%ADD45RoundRect,0.225000X0.225000X0.250000X-0.225000X0.250000X-0.225000X-0.250000X0.225000X-0.250000X0*%
%ADD46RoundRect,0.225000X-0.327337X0.077302X-0.111236X-0.317414X0.327337X-0.077302X0.111236X0.317414X0*%
%ADD47R,1.700000X0.800000*%
%ADD48RoundRect,0.200000X0.337260X-0.043368X0.145170X0.307491X-0.337260X0.043368X-0.145170X-0.307491X0*%
%ADD49RoundRect,0.150000X-0.413703X0.443290X0.150559X-0.587357X0.413703X-0.443290X-0.150559X0.587357X0*%
%ADD50RoundRect,0.200000X-0.337260X0.043368X-0.145170X-0.307491X0.337260X-0.043368X0.145170X0.307491X0*%
%ADD51RoundRect,0.225000X0.250000X-0.225000X0.250000X0.225000X-0.250000X0.225000X-0.250000X-0.225000X0*%
%ADD52RoundRect,0.250000X0.726218X0.027073X0.414072X0.597218X-0.726218X-0.027073X-0.414072X-0.597218X0*%
%ADD53RoundRect,0.225000X0.327337X-0.077302X0.111236X0.317414X-0.327337X0.077302X-0.111236X-0.317414X0*%
%ADD54R,0.950000X0.550000*%
%ADD55RoundRect,0.150000X0.150000X-0.587500X0.150000X0.587500X-0.150000X0.587500X-0.150000X-0.587500X0*%
%ADD56RoundRect,0.150000X0.587500X0.150000X-0.587500X0.150000X-0.587500X-0.150000X0.587500X-0.150000X0*%
%ADD57RoundRect,0.225000X0.118958X-0.314601X0.325350X0.085276X-0.118958X0.314601X-0.325350X-0.085276X0*%
%ADD58RotRect,3.000000X3.000000X242.700000*%
%ADD59O,1.800000X1.000000*%
%ADD60O,2.100000X1.000000*%
%ADD61C,0.650000*%
%ADD62RoundRect,0.250000X0.119077X0.407211X-0.407211X0.119077X-0.119077X-0.407211X0.407211X-0.119077X0*%
%ADD63C,5.080000*%
%ADD64C,2.387600*%
%ADD65C,3.454400*%
%ADD66RoundRect,0.087500X0.087500X-0.225000X0.087500X0.225000X-0.087500X0.225000X-0.087500X-0.225000X0*%
%ADD67RoundRect,0.087500X0.225000X-0.087500X0.225000X0.087500X-0.225000X0.087500X-0.225000X-0.087500X0*%
G04 APERTURE END LIST*
D10*
X189080000Y-136180000D03*
X188900000Y-135890000D03*
X188090000Y-134500000D03*
X188690000Y-135570000D03*
X188300000Y-134870000D03*
X188490000Y-135220000D03*
X120580000Y-136860000D03*
X120780000Y-136500000D03*
X121000000Y-136140000D03*
X121220000Y-135770000D03*
D11*
X174292250Y-135357051D03*
X175649714Y-137805983D03*
X172256051Y-131683646D03*
X172934781Y-132908116D03*
X176328450Y-139030453D03*
X174970984Y-136581516D03*
X173613515Y-134132582D03*
D12*
X187915559Y-136832307D03*
X186691094Y-137511038D03*
X185466625Y-138189771D03*
X184242158Y-138868504D03*
X183017691Y-139547237D03*
X181793222Y-140225971D03*
X180568755Y-140904702D03*
X179344289Y-141583438D03*
D11*
X177007183Y-140254922D03*
D13*
X137695356Y-133558793D03*
X137016623Y-134783261D03*
X136337890Y-136007728D03*
X135659156Y-137232196D03*
X134980423Y-138456663D03*
X134301689Y-139681132D03*
X133622955Y-140905598D03*
X132944221Y-142130066D03*
D14*
X130258236Y-142241895D03*
X129033769Y-141563162D03*
X127809301Y-140884429D03*
X126584833Y-140205695D03*
X125360366Y-139526962D03*
X124135898Y-138848228D03*
X122911431Y-138169494D03*
X121686963Y-137490761D03*
D15*
X160050000Y-82090000D03*
X144150000Y-82950000D03*
X143160000Y-78240000D03*
X165960000Y-85200000D03*
X164970000Y-78160000D03*
X184130000Y-111350000D03*
X129220000Y-113380000D03*
X180660000Y-80580000D03*
X125870000Y-82560000D03*
D16*
X125444547Y-116858679D03*
X126155453Y-115481321D03*
D17*
X127606496Y-112665202D03*
X126849722Y-114131420D03*
D18*
X114150000Y-132900000D03*
D19*
X124447864Y-111352582D03*
X125914082Y-112109356D03*
D20*
X123500016Y-115003079D03*
X123515798Y-112901204D03*
X125204170Y-113772638D03*
D21*
X116355936Y-130367890D03*
X118844064Y-131652110D03*
D18*
X118120000Y-134970000D03*
D22*
X127208305Y-117753483D03*
X128561317Y-115132053D03*
D23*
X152780000Y-109475000D03*
X152780000Y-111025000D03*
X159640000Y-109575000D03*
X159640000Y-111125000D03*
D24*
X181388683Y-78817947D03*
X182741695Y-76196517D03*
D25*
X183100278Y-79818580D03*
X182343504Y-81284798D03*
D26*
X184035918Y-81840644D03*
X185502136Y-82597418D03*
D27*
X186599992Y-115504588D03*
X185183332Y-112917006D03*
D28*
X159857500Y-76890000D03*
X158207500Y-76890000D03*
D29*
X127863218Y-78951619D03*
X129529795Y-78039194D03*
X127796087Y-76850757D03*
D30*
X128838203Y-80472168D03*
X130285493Y-79679798D03*
D31*
X191105936Y-62297890D03*
X193594064Y-63582110D03*
D32*
X155710000Y-111060000D03*
X155710000Y-109410000D03*
D23*
X144080000Y-79655000D03*
X144080000Y-81205000D03*
D33*
X191830000Y-58980000D03*
D34*
X145820000Y-81725000D03*
X145820000Y-80075000D03*
D28*
X162825000Y-80040000D03*
X161175000Y-80040000D03*
D35*
X118180369Y-59093320D03*
D36*
X186449984Y-78946921D03*
X186434202Y-81048796D03*
X184745830Y-80177362D03*
D37*
X181194944Y-113420257D03*
X179747652Y-114212625D03*
D38*
X191851298Y-134796441D03*
D39*
X140335665Y-113212446D03*
X146604335Y-115847554D03*
D40*
X142231011Y-111026088D03*
X144535668Y-111994876D03*
X146840326Y-112963666D03*
D41*
X116588777Y-63680707D03*
X119044787Y-62336081D03*
D28*
X162817500Y-78460000D03*
X161167500Y-78460000D03*
D32*
X162590000Y-111175000D03*
X162590000Y-109525000D03*
D28*
X158197500Y-78460000D03*
X159847500Y-78460000D03*
X152345000Y-76810000D03*
X150695000Y-76810000D03*
D15*
X154690000Y-81960000D03*
D42*
X156060000Y-76500000D03*
X155660000Y-76500000D03*
X155260000Y-76500000D03*
X154860000Y-76500000D03*
X154460000Y-76500000D03*
X154060000Y-76500000D03*
D43*
X153560000Y-77000000D03*
X153560000Y-77400000D03*
X153560000Y-77800000D03*
X153560000Y-78200000D03*
X153560000Y-78600000D03*
X153560000Y-79000000D03*
D42*
X154060000Y-79500000D03*
X154460000Y-79500000D03*
X154860000Y-79500000D03*
X155260000Y-79500000D03*
X155660000Y-79500000D03*
X156060000Y-79500000D03*
D43*
X156560000Y-79000000D03*
X156560000Y-78600000D03*
X156560000Y-78200000D03*
X156560000Y-77800000D03*
X156560000Y-77400000D03*
X156560000Y-77000000D03*
D44*
X166827500Y-83685000D03*
X168377500Y-83685000D03*
D45*
X152275000Y-78310000D03*
X150725000Y-78310000D03*
D28*
X152325000Y-79800000D03*
X150675000Y-79800000D03*
X162827500Y-76890000D03*
X161177500Y-76890000D03*
D46*
X184863471Y-116476229D03*
X184119125Y-115116653D03*
D44*
X166837500Y-82205000D03*
X168387500Y-82205000D03*
D47*
X161100000Y-115910000D03*
X161100000Y-112510000D03*
D48*
X183397482Y-113780087D03*
X182605114Y-112332795D03*
D49*
X182164377Y-114937904D03*
X180497800Y-115850329D03*
X182231508Y-117038766D03*
D47*
X154290000Y-115900000D03*
X154290000Y-112500000D03*
D28*
X159855000Y-80040000D03*
X158205000Y-80040000D03*
D50*
X127431003Y-81564414D03*
X126638633Y-80117124D03*
D51*
X169900000Y-81865000D03*
X169900000Y-80315000D03*
D52*
X123435293Y-78388970D03*
X124851953Y-80976552D03*
D53*
X125912887Y-78791519D03*
X125168541Y-77431943D03*
D54*
X141975000Y-83225000D03*
X141975000Y-81975000D03*
X141975000Y-80725000D03*
X141975000Y-79475000D03*
X139825000Y-79475000D03*
X139825000Y-80725000D03*
X139825000Y-81975000D03*
X139825000Y-83225000D03*
D32*
X154250000Y-111065000D03*
X154250000Y-109415000D03*
D35*
X114252605Y-61231700D03*
D38*
X195781298Y-132656441D03*
D55*
X147350000Y-82685000D03*
X149250000Y-82685000D03*
X148300000Y-80810000D03*
D56*
X151390000Y-83740000D03*
X153265000Y-82790000D03*
X153265000Y-84690000D03*
D44*
X149655000Y-84400000D03*
X148105000Y-84400000D03*
X149655000Y-85870000D03*
X148105000Y-85870000D03*
D32*
X161110000Y-111175000D03*
X161110000Y-109525000D03*
D45*
X151410000Y-81300000D03*
X152960000Y-81300000D03*
D55*
X147350000Y-78820000D03*
X149250000Y-78820000D03*
X148300000Y-76945000D03*
D57*
X183794547Y-78468679D03*
X184505453Y-77091321D03*
D45*
X155970000Y-80800000D03*
X154420000Y-80800000D03*
D58*
X195800000Y-61050000D03*
D59*
X119070000Y-92710001D03*
D60*
X123250000Y-92710000D03*
D59*
X119070000Y-101350001D03*
D60*
X123250000Y-101350000D03*
D61*
X122750000Y-94140000D03*
X122750001Y-99920000D03*
D62*
X193439303Y-130214128D03*
X190983293Y-131558754D03*
D32*
X145850000Y-77085000D03*
X145850000Y-78735000D03*
D63*
X119170000Y-96891000D03*
X190848800Y-96891000D03*
D64*
X119170000Y-88890000D03*
D65*
X127386900Y-104892000D03*
X182631900Y-88890000D03*
D66*
X166892500Y-80880000D03*
X167392500Y-80880000D03*
X167892500Y-80880000D03*
X168392500Y-80880000D03*
D67*
X168555000Y-80217500D03*
X168555000Y-79717500D03*
X168555000Y-79217500D03*
D66*
X168392500Y-78555000D03*
X167892500Y-78555000D03*
X167392500Y-78555000D03*
X166892500Y-78555000D03*
D67*
X166730000Y-79217500D03*
X166730000Y-79717500D03*
X166730000Y-80217500D03*
M02*
